<?xml version="1.0" encoding="UTF-8"?>
<svg width="60px" height="60px" viewBox="0 0 60 60" version="1.1" xmlns="http://www.w3.org/2000/svg" xmlns:xlink="http://www.w3.org/1999/xlink">
    <!-- Generator: Sketch 51.2 (57519) - http://www.bohemiancoding.com/sketch -->
    <title>brand-logo_name_agroprombank</title>
    <desc>Created with Sketch.</desc>
    <defs></defs>
    <g id="Page-1" stroke="none" stroke-width="1" fill="none" fill-rule="evenodd">
        <g id="brand-logo_name_agroprombank">
            <rect id="Rectangle" fill="#0A4585" x="0" y="0" width="60" height="60"></rect>
            <g id="Group-10" transform="translate(12.000000, 18.000000)" fill="#FFFFFF">
                <path d="M36.4437015,1.41100634 C36.0004837,2.50098097 35.5545281,3.58993869 35.1095112,4.67913108 C35.0066465,4.93069979 34.9360884,5.20409302 34.7878537,5.42538901 C34.688118,5.57424947 34.4781645,5.99945243 34.3170228,6 C30.8887734,6.01251586 27.4604457,6.00430233 24.0320397,6 C22.1808664,5.99765328 20.3273463,5.92506131 18.4791455,6 C16.5544414,6.07806765 15.002397,6.6944186 14.0357818,8.3993129 C13.5787184,9.20556871 13.2621455,10.0927082 12.8978558,10.9501226 C12.3766486,12.1769894 11.8660017,13.4082368 11.3588748,14.6410486 C11.0091349,15.4910317 10.6735535,16.3468816 10.3307755,17.199759 C10.1374055,17.6810719 9.94356617,18.1620719 9.74745835,18.6422114 C9.64076068,18.9035581 9.75973953,19.0086913 10.0072406,19.0244144 C10.1241856,19.0317674 10.2417564,19 10.3590926,19 C12.9403315,18.9998436 15.5218051,19.0270655 18.1028093,19 C20.0254795,18.9798182 21.628526,18.2559408 22.7404816,16.6613425 C23.0089467,16.276167 23.2639573,15.9980444 23.6533569,16 C25.7260609,16.0103256 27.7989214,15.9981226 29.8717036,16 C30.0075789,16.0000782 30.1433759,16.2509006 30.2981032,16.2620867 C29.989822,17.025945 28.8097332,19.7764609 28.4235408,20.3847315 C27.6105577,21.6651818 26.5535154,22.7267611 25.192729,23.4159154 C24.3548706,23.8403594 21.3147691,24.9983573 20.6827966,25 C13.9689784,25.0168182 7.25516025,25.0017209 0.541263848,25 C0.376993235,25 0.212644397,25.012907 3.12896406e-05,25 C0.0385957717,24.8178943 0.0472004228,24.3722051 0.0991412262,24.2464989 C0.416261734,23.4796681 0.747306131,22.7185476 1.06583467,21.9522643 C1.39335899,21.1640782 1.70836744,20.3705729 2.03534419,19.582074 C2.37726173,18.7578266 2.73114757,17.9385856 3.0720482,17.1140254 C3.38384947,16.3596321 3.68039704,15.5990592 3.9928241,14.8449789 C4.34811797,13.9874863 4.71843087,13.1361734 5.07309894,12.2784461 C5.37019408,11.5601142 5.64820254,10.8338816 5.94553235,10.1156279 C6.31169937,9.23091332 6.68999112,8.35120507 7.0618685,7.46883721 C7.36326596,6.75355603 7.62539493,6.01887526 7.9716148,5.32612262 C8.53396786,4.20071247 9.29203763,3.22001691 10.2581835,2.39514376 C11.0055366,1.75706977 11.8147649,1.21685412 12.7099615,0.83840592 C13.6775154,0.429450317 14.6905175,0.135562368 15.7571814,0.0997357294 C16.7057268,0.067820296 17.6542723,0.00680549683 18.602896,0.005397463 C24.5214097,-0.00336363636 30.4400017,0.000782241015 36.3585937,0.00211205074 C36.5370228,0.00211205074 36.7152956,0.0179133192 36.9925218,0.0310549683 C36.7867142,0.549211416 36.6183759,0.981321353 36.4437015,1.41100634 Z" id="Fill-1"></path>
                <path d="M26.2118091,7.19712821 C26.2647668,7.09473286 26.4581368,7.01087662 26.587363,7.0101726 C28.7596463,6.99883011 30.932086,7.00407112 33.1043693,7.00000347 C33.4462869,6.99929945 33.5205998,7.10560601 33.3790924,7.42702884 C33.2230353,7.78154047 33.0914624,8.14833328 32.9124074,8.4904855 C32.8513926,8.60711763 32.6790649,8.99913953 32.5566442,9 C30.3576865,9.01572304 28.1585723,9.00273784 25.9594581,9 C25.8384455,8.99984355 25.7174328,8.71264195 25.5304772,8.68189988 C25.7711727,8.14661235 25.9716611,7.66162292 26.2118091,7.19712821 Z" id="Fill-4"></path>
                <path d="M24.9760326,11.9885944 C24.5404808,11.9876504 24.4806393,11.8771058 24.6492905,11.4062293 C24.7834448,11.0317371 24.8919416,10.6388366 25.0635653,10.2914377 C25.1367049,10.1436044 25.3415738,10.0083265 25.4872271,10.0072881 C27.6247006,9.99256143 29.7622524,10.0075713 31.8998825,10.0000192 C32.3719649,9.99841435 32.4423666,10.0966867 32.2450072,10.6121208 C32.1142947,10.953478 31.9692672,11.2893598 31.865855,11.642706 C31.7792609,11.9385614 31.6278973,12.0025659 31.3901742,11.9999226 C30.3212419,11.9881224 29.2521531,11.9948249 28.1831425,11.9948249 C27.1140537,11.9893496 26.0450431,11.99086 24.9760326,11.9885944 Z" id="Fill-6"></path>
                <path d="M30.7887169,14.3604528 C30.7043913,14.5101738 30.4395245,14.9984355 30.2556979,15 C28.1187719,15.0184609 25.9814548,15.0061015 23.8443723,15 C23.725941,14.9996871 23.546182,14.6234423 23.5057402,14.5503027 C23.4605266,14.4685585 23.5265478,14.3108587 23.5709791,14.1967298 C23.6976239,13.8713175 23.8208268,13.5423069 23.9821249,13.2338693 C24.0388374,13.1254507 24.2017782,13.0052203 24.3166894,13.0046727 C26.5057909,12.9951294 28.6949706,13.0022478 30.8840721,13.0079581 C31.0106387,13.008271 31.1372053,13.0258714 31.3511482,13.0420638 C31.1481567,13.5351103 31.0081355,13.9701928 30.7887169,14.3604528 Z" id="Fill-8"></path>
            </g>
        </g>
    </g>
</svg>