<svg xmlns="http://www.w3.org/2000/svg" width="60" height="60" viewBox="0 0 60 60">
  <g fill="none">
    <path fill="#006FCF" d="M30,0 C46.569,0 60,13.432 60,29.995 L60,30.005 C60,46.571 46.572,60 30,60 C13.431,60 0,46.572 0,30 C0,13.431 13.428,0 30,0 Z"/>
    <g transform="translate(7 21)">
      <path fill="#FFF" d="M38.0204082,8.1 L41.1428571,8.1 L41.1428571,0.844897959 L37.744898,0.844897959 L37.744898,1.85510204 L37.1020408,0.844897959 L34.1632653,0.844897959 L34.1632653,2.13061224 L33.6122449,0.844897959 L28.8367347,0.844897959 C28.6530612,0.844897959 28.377551,0.844897959 28.1938776,0.844897959 C28.0102041,0.844897959 27.8265306,0.936734694 27.6428571,0.936734694 C27.4591837,0.936734694 27.3673469,1.02857143 27.1836735,1.12040816 C27,1.2122449 26.9081633,1.2122449 26.7244898,1.30408163 L26.7244898,1.12040816 L26.7244898,0.844897959 L11.2040816,0.844897959 L10.744898,2.03877551 L10.2857143,0.844897959 L6.6122449,0.844897959 L6.6122449,2.13061224 L6.06122449,0.844897959 L3.12244898,0.844897959 L1.83673469,3.96734694 L0.0918367347,8.1 L3.94897959,8.1 L4.31632653,7.08979592 L5.05102041,7.08979592 L5.41836735,8.1 L21.5816327,8.1 L21.5816327,7.18163265 L22.2244898,8.1 L26.7244898,8.1 L26.7244898,7.91632653 L26.7244898,7.54897959 C26.8163265,7.64081633 27,7.64081633 27.0918367,7.73265306 C27.1836735,7.8244898 27.3673469,7.8244898 27.4591837,7.91632653 C27.6428571,8.00816327 27.8265306,8.00816327 28.0102041,8.00816327 C28.1938776,8.00816327 28.4693878,8.00816327 28.6530612,8.00816327 L31.3163265,8.00816327 L31.6836735,6.99795918 L32.4183673,6.99795918 L32.7857143,8.00816327 L37.2857143,8.00816327 L37.2857143,7.08979592 L38.0204082,8.1 Z M43.9897959,16.0664614 C44.1956421,15.5408038 44.1931171,14.8305357 44.0934296,14.3779128 C44.0269713,14.0761642 43.778141,13.7044572 43.3469388,13.2627919 L44.5408163,10.4877551 L17.8163265,10.4877551 L17.1734694,11.4061224 L16.5306122,10.4877551 L9.18367347,10.4877551 L9.18367347,17.7428571 L16.5306122,17.7428571 L17.1734694,16.8244898 L17.8163265,17.7428571 L22.4081633,17.7428571 L22.4081633,16.1816327 L22.2244898,16.1816327 C22.8673469,16.1816327 23.4183673,16.0897959 23.877551,15.9061224 L23.877551,17.8346939 L27.1836735,17.8346939 L27.1836735,16.9163265 L27.8265306,17.8346939 L41.5102041,17.8346939 C42.1376907,17.8346939 42.6505884,17.5292815 43.0127336,17.3202481 C43.3748789,17.1112147 43.7839497,16.5921191 43.9897959,16.0664614 Z"/>
      <path fill="#006FCF" d="M41.5102041,15.5387755 L39.0306122,15.5387755 L39.0306122,16.5489796 L41.4183673,16.5489796 C42.4285714,16.5489796 43.0714286,15.9061224 43.0714286,14.9877551 C43.0714286,14.0693878 42.5204082,13.6102041 41.6020408,13.6102041 L40.5,13.6102041 C40.2244898,13.6102041 40.0408163,13.4265306 40.0408163,13.1510204 C40.0408163,12.8755102 40.2244898,12.6918367 40.5,12.6918367 L42.6122449,12.6918367 L43.0714286,11.6816327 L40.5918367,11.6816327 C39.5816327,11.6816327 38.9387755,12.3244898 38.9387755,13.1510204 C38.9387755,14.0693878 39.4897959,14.5285714 40.4081633,14.5285714 L41.5102041,14.5285714 C41.7857143,14.5285714 41.9693878,14.7122449 41.9693878,14.9877551 C42.0612245,15.355102 41.877551,15.5387755 41.5102041,15.5387755 Z M37.0102041,15.5387755 L34.5306122,15.5387755 L34.5306122,16.5489796 L36.9183673,16.5489796 C37.9285714,16.5489796 38.5714286,15.9061224 38.5714286,14.9877551 C38.5714286,14.0693878 38.0204082,13.6102041 37.1020408,13.6102041 L36,13.6102041 C35.7244898,13.6102041 35.5408163,13.4265306 35.5408163,13.1510204 C35.5408163,12.8755102 35.7244898,12.6918367 36,12.6918367 L38.1122449,12.6918367 L38.5714286,11.6816327 L36.0918367,11.6816327 C35.0816327,11.6816327 34.4387755,12.3244898 34.4387755,13.1510204 C34.4387755,14.0693878 34.9897959,14.5285714 35.9081633,14.5285714 L37.0102041,14.5285714 C37.2857143,14.5285714 37.4693878,14.7122449 37.4693878,14.9877551 C37.5612245,15.355102 37.2857143,15.5387755 37.0102041,15.5387755 Z M33.7959184,12.6 L33.7959184,11.5897959 L29.9387755,11.5897959 L29.9387755,16.4571429 L33.7959184,16.4571429 L33.7959184,15.4469388 L31.0408163,15.4469388 L31.0408163,14.4367347 L33.7040816,14.4367347 L33.7040816,13.4265306 L31.0408163,13.4265306 L31.0408163,12.5081633 L33.7959184,12.5081633 L33.7959184,12.6 Z M27.5510204,12.6 C28.0102041,12.6 28.1938776,12.8755102 28.1938776,13.1510204 C28.1938776,13.4265306 28.0102041,13.7020408 27.5510204,13.7020408 L26.1734694,13.7020408 L26.1734694,12.5081633 L27.5510204,12.6 Z M26.1734694,14.7122449 L26.7244898,14.7122449 L28.1938776,16.4571429 L29.5714286,16.4571429 L27.9183673,14.6204082 C28.744898,14.4367347 29.2040816,13.8857143 29.2040816,13.1510204 C29.2040816,12.2326531 28.5612245,11.5897959 27.5510204,11.5897959 L24.9795918,11.5897959 L24.9795918,16.4571429 L26.0816327,16.4571429 L26.1734694,14.7122449 Z M23.2346939,13.2428571 C23.2346939,13.6102041 23.0510204,13.8857143 22.5918367,13.8857143 L21.122449,13.8857143 L21.122449,12.6 L22.5,12.6 C22.9591837,12.6 23.2346939,12.8755102 23.2346939,13.2428571 Z M20.0204082,11.5897959 L20.0204082,16.4571429 L21.122449,16.4571429 L21.122449,14.8040816 L22.5918367,14.8040816 C23.6020408,14.8040816 24.3367347,14.1612245 24.3367347,13.1510204 C24.3367347,12.2326531 23.6938776,11.4979592 22.6836735,11.4979592 L20.0204082,11.5897959 Z M18.3673469,16.4571429 L19.744898,16.4571429 L17.8163265,13.977551 L19.744898,11.5897959 L18.3673469,11.5897959 L17.1734694,13.1510204 L15.9795918,11.5897959 L14.6020408,11.5897959 L16.5306122,13.977551 L14.6020408,16.3653061 L15.9795918,16.3653061 L17.1734694,14.8040816 L18.3673469,16.4571429 Z M14.2346939,12.6 L14.2346939,11.5897959 L10.377551,11.5897959 L10.377551,16.4571429 L14.2346939,16.4571429 L14.2346939,15.4469388 L11.4795918,15.4469388 L11.4795918,14.4367347 L14.1428571,14.4367347 L14.1428571,13.4265306 L11.4795918,13.4265306 L11.4795918,12.5081633 L14.2346939,12.5081633 L14.2346939,12.6 Z M36.5510204,3.96734694 L38.4795918,6.90612245 L39.8571429,6.90612245 L39.8571429,2.03877551 L38.755102,2.03877551 L38.755102,5.25306122 L38.4795918,4.79387755 L36.7346939,2.03877551 L35.2653061,2.03877551 L35.2653061,6.90612245 L36.3673469,6.90612245 L36.3673469,3.6 L36.5510204,3.96734694 Z M31.7755102,3.8755102 L32.1428571,2.86530612 L32.5102041,3.8755102 L32.9693878,4.97755102 L31.3163265,4.97755102 L31.7755102,3.8755102 Z M33.7040816,6.90612245 L34.8979592,6.90612245 L32.7857143,2.03877551 L31.3163265,2.03877551 L29.2040816,6.90612245 L30.3979592,6.90612245 L30.8571429,5.89591837 L33.244898,5.89591837 L33.7040816,6.90612245 Z M28.5612245,6.90612245 L29.0204082,5.89591837 L28.744898,5.89591837 C27.9183673,5.89591837 27.4591837,5.34489796 27.4591837,4.51836735 L27.4591837,4.42653061 C27.4591837,3.6 27.9183673,3.04897959 28.744898,3.04897959 L29.9387755,3.04897959 L29.9387755,2.03877551 L28.6530612,2.03877551 C27.1836735,2.03877551 26.3571429,3.04897959 26.3571429,4.42653061 L26.3571429,4.51836735 C26.3571429,5.9877551 27.1836735,6.90612245 28.5612245,6.90612245 Z M24.4285714,6.90612245 L25.5306122,6.90612245 L25.5306122,4.70204082 L25.5306122,2.13061224 L24.4285714,2.13061224 L24.4285714,4.61020408 L24.4285714,6.90612245 Z M22.0408163,3.04897959 C22.5,3.04897959 22.6836735,3.3244898 22.6836735,3.6 C22.6836735,3.8755102 22.5,4.15102041 22.0408163,4.15102041 L20.6632653,4.15102041 L20.6632653,2.95714286 L22.0408163,3.04897959 Z M20.6632653,5.16122449 L21.2142857,5.16122449 L22.6836735,6.90612245 L24.0612245,6.90612245 L22.4081633,5.06938776 C23.2346939,4.88571429 23.6938776,4.33469388 23.6938776,3.6 C23.6938776,2.68163265 23.0510204,2.03877551 22.0408163,2.03877551 L19.4693878,2.03877551 L19.4693878,6.90612245 L20.5714286,6.90612245 L20.6632653,5.16122449 Z M18.6428571,3.04897959 L18.6428571,2.03877551 L14.7857143,2.03877551 L14.7857143,6.90612245 L18.6428571,6.90612245 L18.6428571,5.89591837 L15.8877551,5.89591837 L15.8877551,4.88571429 L18.5510204,4.88571429 L18.5510204,3.8755102 L15.8877551,3.8755102 L15.8877551,2.95714286 L18.6428571,2.95714286 L18.6428571,3.04897959 Z M10.2857143,6.90612245 L11.2959184,6.90612245 L12.6734694,2.95714286 L12.6734694,6.90612245 L13.7755102,6.90612245 L13.7755102,2.03877551 L11.9387755,2.03877551 L10.8367347,5.34489796 L9.73469388,2.03877551 L7.89795918,2.03877551 L7.89795918,6.90612245 L9,6.90612245 L9,2.95714286 L10.2857143,6.90612245 Z M4.31632653,3.8755102 L4.68367347,2.86530612 L5.05102041,3.8755102 L5.51020408,4.97755102 L3.85714286,4.97755102 L4.31632653,3.8755102 Z M6.24489796,6.90612245 L7.43877551,6.90612245 L5.32653061,2.03877551 L3.94897959,2.03877551 L1.83673469,6.90612245 L3.03061224,6.90612245 L3.48979592,5.89591837 L5.87755102,5.89591837 L6.24489796,6.90612245 Z"/>
    </g>
  </g>
</svg>
