<svg xmlns="http://www.w3.org/2000/svg" width="60" height="60" viewBox="0 0 60 60">
  <g fill="none">
    <path fill="#F34D63" d="M30,60 C46.5656566,60 60,46.5656566 60,30 C60,13.4343434 46.5656566,0 30,0 C13.4343434,0 0,13.4343434 0,30 C0,46.5656566 13.4343434,60 30,60 Z"/>
    <g fill="#FFF" transform="translate(16.5 13)">
      <path d="M14.0777,19.2057 C13.1087,19.2057 12.3207,18.4177 12.3207,17.4487 C12.3207,16.4797 13.1087,15.6917 14.0777,15.6917 C15.0457,15.6917 15.8347,16.4797 15.8347,17.4487 C15.8347,18.4177 15.0457,19.2057 14.0777,19.2057 L14.0777,19.2057 Z M17.3567,19.3047 C17.6677,18.7567 17.8467,18.1237 17.8467,17.4487 C17.8467,16.7737 17.6677,16.1407 17.3557,15.5927 L21.3907,11.5577 C21.7837,11.1647 21.7837,10.5277 21.3907,10.1347 C20.9977,9.7417 20.3607,9.7417 19.9687,10.1347 L15.9337,14.1697 C15.3847,13.8587 14.7517,13.6797 14.0777,13.6797 C11.9997,13.6797 10.3087,15.3707 10.3087,17.4487 C10.3087,19.5267 11.9997,21.2177 14.0777,21.2177 C14.7517,21.2177 15.3847,21.0387 15.9337,20.7277 L19.9687,24.7627 C20.1647,24.9587 20.4217,25.0577 20.6797,25.0577 C20.9367,25.0577 21.1937,24.9587 21.3907,24.7627 C21.7837,24.3697 21.7837,23.7327 21.3907,23.3397 L17.3567,19.3047 Z"/>
      <polygon points="12.045 2.012 16.111 2.012 16.111 0 12.045 0"/>
      <path d="M19.3551 27.8724L20.3661 30.0414C20.8741 29.7864 21.3661 29.5004 21.8371 29.1884L20.4661 27.2294C20.1081 27.4634 19.7381 27.6774 19.3551 27.8724M18.6727 28.1942C18.2807 28.3622 17.8787 28.5092 17.4657 28.6342L18.0847 30.9442C18.6317 30.7812 19.1657 30.5862 19.6827 30.3602L18.6727 28.1942zM21.085 26.7976L22.455 28.7546C22.911 28.4166 23.345 28.0506 23.757 27.6616L22.066 25.9696C21.753 26.2626 21.427 26.5396 21.085 26.7976M27.5734 21.4554L25.2634 20.8364C25.1384 21.2494 24.9914 21.6514 24.8234 22.0434L26.9894 23.0534C27.2154 22.5364 27.4104 22.0034 27.5734 21.4554M16.737 28.8277C16.323 28.9247 15.901 28.9997 15.472 29.0507L15.68 31.4347C16.25 31.3697 16.809 31.2707 17.356 31.1397L16.737 28.8277zM22.599 25.4361L24.291 27.1281C24.68 26.7161 25.045 26.2821 25.384 25.8261L23.426 24.4551C23.169 24.7981 22.891 25.1241 22.599 25.4361M28.063 19.0512L25.68 18.8422C25.628 19.2722 25.554 19.6942 25.457 20.1072L27.769 20.7272C27.899 20.1802 27.998 19.6202 28.063 19.0512M26.6703 23.7369L24.5023 22.7259C24.3073 23.1089 24.0923 23.4789 23.8573 23.8369L25.8163 25.2079C26.1303 24.7369 26.4143 24.2459 26.6703 23.7369M25.7471 16.8068C25.7591 17.0188 25.7661 17.2328 25.7661 17.4488 25.7661 17.6648 25.7591 17.8778 25.7471 18.0908L28.1291 18.2988C28.1451 18.0178 28.1551 17.7348 28.1551 17.4488 28.1551 17.1628 28.1451 16.8798 28.1291 16.5988L25.7471 16.8068zM25.4569 14.7906C25.5539 15.2046 25.6279 15.6256 25.6799 16.0556L28.0629 15.8466C27.9979 15.2776 27.8999 14.7176 27.7689 14.1706L25.4569 14.7906zM24.8234 12.8545C24.9924 13.2465 25.1384 13.6495 25.2634 14.0615L27.5734 13.4425C27.4104 12.8955 27.2154 12.3615 26.9904 11.8445L24.8234 12.8545zM13.4362 5.7791C13.6492 5.7671 13.8632 5.7601 14.0772 5.7601 14.2932 5.7601 14.5072 5.7671 14.7202 5.7791L14.9282 3.3981C14.6472 3.3811 14.3632 3.3711 14.0772 3.3711 13.7922 3.3711 13.5092 3.3811 13.2282 3.3971L13.4362 5.7791zM23.8589 11.0613C24.0929 11.4183 24.3069 11.7893 24.5019 12.1723L26.6699 11.1613C26.4149 10.6523 26.1299 10.1613 25.8179 9.6893L23.8589 11.0613zM15.4714 5.8467C15.9014 5.8977 16.3234 5.9727 16.7374 6.0697L17.3564 3.7577C16.8094 3.6267 16.2494 3.5277 15.6804 3.4627L15.4714 5.8467zM19.3551 7.025C19.7381 7.219 20.1081 7.434 20.4661 7.668L21.8371 5.709C21.3661 5.397 20.8751 5.111 20.3661 4.856L19.3551 7.025zM22.5995 9.4609C22.8915 9.7739 23.1695 10.0999 23.4265 10.4419L25.3845 9.0719C25.0455 8.6159 24.6795 8.1809 24.2905 7.7699L22.5995 9.4609zM17.4655 6.263C17.8775 6.388 18.2805 6.535 18.6725 6.703L19.6835 4.536C19.1655 4.311 18.6315 4.116 18.0845 3.953L17.4655 6.263zM21.0855 8.1003C21.4265 8.3583 21.7545 8.6353 22.0655 8.9273L23.7575 7.2363C23.3455 6.8463 22.9105 6.4813 22.4555 6.1433L21.0855 8.1003zM.582 13.4424L2.892 14.0614C3.017 13.6484 3.164 13.2464 3.332 12.8544L1.166 11.8444C.94 12.3614.745 12.8954.582 13.4424M6.3191 29.1888C6.7901 29.5018 7.2821 29.7858 7.7901 30.0418L8.8011 27.8728C8.4181 27.6778 8.0471 27.4638 7.6911 27.2298L6.3191 29.1888zM4.3991 27.6618C4.8111 28.0518 5.2451 28.4168 5.7011 28.7558L7.0721 26.7978C6.7301 26.5408 6.4031 26.2638 6.0911 25.9698L4.3991 27.6618zM2.7718 25.8264C3.1108 26.2824 3.4758 26.7174 3.8668 27.1284L5.5568 25.4374C5.2648 25.1244 4.9868 24.7984 4.7298 24.4564L2.7718 25.8264zM1.4856 23.7378C1.7416 24.2458 2.0256 24.7368 2.3386 25.2088L4.2976 23.8368C4.0636 23.4798 3.8496 23.1088 3.6546 22.7268L1.4856 23.7378zM10.6911 28.6345C10.2781 28.5095 9.8751 28.3625 9.4841 28.1945L8.4741 30.3615C8.9911 30.5865 9.5251 30.7815 10.0721 30.9445L10.6911 28.6345zM12.685 29.0502C12.256 28.9992 11.834 28.9252 11.421 28.8272L10.801 31.1402C11.347 31.2712 11.907 31.3692 12.476 31.4342L12.685 29.0502zM14.9285 31.4995L14.7205 29.1185C14.5075 29.1295 14.2935 29.1375 14.0775 29.1375 13.8625 29.1375 13.6485 29.1295 13.4365 29.1185L13.2275 31.4995C13.5095 31.5165 13.7925 31.5255 14.0775 31.5255 14.3635 31.5255 14.6475 31.5165 14.9285 31.4995M0 17.4485C0 17.7345.01 18.0185.027 18.2995L2.409 18.0915C2.397 17.8785 2.39 17.6645 2.39 17.4485 2.39 17.2335 2.397 17.0195 2.409 16.8065L.027 16.5985C.01 16.8795 0 17.1635 0 17.4485M11.42 6.0692C11.834 5.9732 12.256 5.8972 12.685 5.8462L12.476 3.4622C11.907 3.5282 11.347 3.6262 10.801 3.7572L11.42 6.0692zM4.3991 7.2365L6.0911 8.9275C6.4021 8.6345 6.7291 8.3565 7.0711 8.0995L5.7001 6.1425C5.2451 6.4815 4.8101 6.8465 4.3991 7.2365M6.3186 5.709L7.6896 7.668C8.0476 7.434 8.4176 7.219 8.8016 7.025L7.7896 4.856C7.2816 5.111 6.7896 5.396 6.3186 5.709M8.4727 4.5364L9.4837 6.7024C9.8747 6.5344 10.2787 6.3884 10.6907 6.2624L10.0717 3.9524C9.5247 4.1154 8.9907 4.3104 8.4727 4.5364M2.7713 9.0714L4.7293 10.4424C4.9863 10.0994 5.2643 9.7724 5.5573 9.4604L3.8653 7.7694C3.4753 8.1804 3.1103 8.6154 2.7713 9.0714M1.4856 11.161L3.6536 12.172C3.8486 11.789 4.0636 11.418 4.2976 11.061L2.3376 9.689C2.0256 10.161 1.7406 10.652 1.4856 11.161M3.332 22.0439C3.164 21.6519 3.018 21.2489 2.892 20.8369L.583 21.4569C.745 22.0029.941 22.5369 1.166 23.0539L3.332 22.0439zM2.4759 18.8431L.0929 19.0521C.1579 19.6211.2559 20.1801.3869 20.7271L2.6989 20.1081C2.6019 19.6941 2.5279 19.2721 2.4759 18.8431M.0923 15.8462L2.4763 16.0552C2.5273 15.6262 2.6023 15.2042 2.6993 14.7902L.3873 14.1712C.2563 14.7182.1573 15.2772.0923 15.8462"/>
    </g>
  </g>
</svg>
