<svg xmlns="http://www.w3.org/2000/svg" width="60" height="60" viewBox="0 0 60 60">
  <g fill="none" fill-rule="evenodd">
    <path fill="#184977" fill-rule="nonzero" d="M30,0 C46.569,0 60,13.432 60,29.995 L60,30.005 C60,46.571 46.572,60 30,60 C13.431,60 0,46.572 0,30 C0,13.431 13.428,0 30,0 Z"/>
    <path fill="#FFF" d="M37.0095504,30.2576784 C37.0017806,25.9834031 34.3298189,22.3384848 30.5657631,20.8950211 L30.5657631,39.6203357 C34.3298189,38.1751455 37.0017806,34.5336804 37.0095504,30.2576784 Z M23.3829776,39.6168824 L23.3829776,20.8967478 C19.622375,22.344528 16.9547299,25.9851297 16.9452334,30.2576784 C16.9547299,34.5302271 19.622375,38.1708289 23.3829776,39.6168824 Z M26.976097,14.4296509 C18.2350269,14.4331041 11.1541126,21.5166083 11.152386,30.2576784 C11.1541126,38.9978852 18.2350269,46.0805261 26.976097,46.0822527 C35.7180303,46.0805261 42.8015345,38.9978852 42.8041245,30.2576784 C42.8015345,21.5166083 35.7180303,14.4331041 26.976097,14.4296509 Z M26.9381111,47.5757886 C17.3725746,47.6215444 9.5,39.8715605 9.5,30.4381114 C9.5,20.1292602 17.3725746,12.9982737 26.9381111,13.0000003 L31.4204455,13.0000003 C40.8720243,12.9982737 49.5,20.125807 49.5,30.4381114 C49.5,39.8681073 40.8720243,47.5757886 31.4204455,47.5757886 L26.9381111,47.5757886 Z"/>
  </g>
</svg>
