<svg xmlns="http://www.w3.org/2000/svg" width="60" height="60" viewBox="0 0 60 60">
  <defs>
    <linearGradient id="brand-logo_name_erip-a" x1="-.494%" x2="99.508%" y1="53.205%" y2="47.016%">
      <stop offset="0%" stop-color="#D46F44"/>
      <stop offset="15.93%" stop-color="#E2A345"/>
      <stop offset="35.16%" stop-color="#CE5F44"/>
      <stop offset="61.54%" stop-color="#B74D44"/>
      <stop offset="84%" stop-color="#E08B44"/>
      <stop offset="100%" stop-color="#B65544"/>
    </linearGradient>
    <linearGradient id="brand-logo_name_erip-b" x1="11.527%" x2="92.24%" y1="24.491%" y2="102.408%">
      <stop offset="0%" stop-color="#E4B246"/>
      <stop offset="76.37%" stop-color="#DB7C43"/>
      <stop offset="100%" stop-color="#E08B44"/>
    </linearGradient>
  </defs>
  <g fill="none">
    <path fill="#000" fill-opacity=".12" d="M30,60 C46.5656566,60 60,46.5656566 60,30 C60,13.4343434 46.5656566,0 30,0 C13.4343434,0 0,13.4343434 0,30 C0,46.5656566 13.4343434,60 30,60 Z"/>
    <g transform="translate(5 13)">
      <rect width="50" height="5" y="22.5" fill="#243722"/>
      <g transform="translate(3.333)">
        <path fill="url(#brand-logo_name_erip-a)" d="M41.1666667,20.25 C41.3333333,22.8333333 40.9521136,25.25 40.2021136,27.5 C38.6816988,27.5 2.46616908,27.5097656 1.24931438,27.5 C0.717906883,25.8354416 0.412579868,24.1560036 0.333333333,22.3333333 C-0.25,11 8.41666667,1.41666667 19.75,0.833333333 C31,0.333333333 40.6666667,9 41.1666667,20.25 Z"/>
        <path fill="url(#brand-logo_name_erip-b)" d="M3.0801777,27.5029213 C0.390951046,19.6450737 3.15864389,10.6989273 10.3333333,5.83333333 C18.9166667,-3.10862447e-15 30.5833333,2.25 36.4166667,10.8333333 C39.8820197,15.9488545 40.4881652,22.1208044 38.639518,27.5 C38.180978,27.5029213 4.08778599,27.5059873 3.0801777,27.5029213 Z"/>
        <g fill="#783F37" transform="translate(4.167 5)">
          <g transform="translate(13 1)">
            <polygon points="5.461 3.89 8.133 5.07 9.023 1.606 6.128 .445"/>
            <polygon points="9.078 5.651 11.182 7.54 12.784 4.597 10.498 2.549"/>
            <polygon points="13.589 5.651 11.586 8.108 12.789 9.768 14.838 7.533"/>
            <polygon points="13.96 12.634 16.074 10.859 15.476 9.101 13.374 10.865"/>
            <polygon points="14.359 15.254 16.579 13.821 16.363 12.302 14.206 13.777"/>
            <polygon points="16.593 15.103 14.32 16.298 14.247 17.771 16.495 16.605"/>
          </g>
          <g transform="translate(13.5 9.167)">
            <polygon points="3.61 2.997 5.035 3.586 5.702 1.006 4.088 .501"/>
            <polygon points="5.571 3.757 6.773 4.583 7.951 2.433 6.57 1.451"/>
            <polygon points="8.58 2.966 7.055 4.829 7.818 5.619 9.399 3.896"/>
            <polygon points="8.856 6.875 10.482 5.511 9.968 4.706 8.304 6.106"/>
            <polygon points="9.452 8.115 11.214 6.977 10.892 6.251 9.115 7.478"/>
            <polygon points="11.44 7.711 9.716 8.632 9.949 9.275 11.611 8.407"/>
          </g>
          <path d="M2.08333333,9.5 C0.0890597733,13.7734433 0.232153802,18.5338818 2.06555439,22.501796 C4.15719169,22.5 12.6240467,22.501796 14.4161894,22.5 C15.5207031,15.3332181 16.5487751,8.1705603 17.75,1.08333333 C11.4166667,-0.166666667 5.08333333,3.16666667 2.08333333,9.5 Z"/>
        </g>
      </g>
    </g>
  </g>
</svg>
