<?xml version="1.0" encoding="UTF-8"?>
<svg width="60px" height="60px" viewBox="0 0 60 60" version="1.1" xmlns="http://www.w3.org/2000/svg" xmlns:xlink="http://www.w3.org/1999/xlink">
    <!-- Generator: Sketch 51.2 (57519) - http://www.bohemiancoding.com/sketch -->
    <title>brand-logo_name_idram</title>
    <desc>Created with Sketch.</desc>
    <defs></defs>
    <g id="Page-1" stroke="none" stroke-width="1" fill="none" fill-rule="evenodd">
        <g id="brand-logo_name_idram">
            <rect id="Rectangle" fill="#046094" x="0" y="0" width="60" height="60"></rect>
            <g id="Group-15" transform="translate(8.000000, 26.000000)" fill="#FFFFFF">
                <path d="M39.0528448,7.34334365 L36.2513586,7.34334365 L36.2513586,7.02496243 C36.2515077,5.91463094 36.2484249,4.80429945 36.255237,3.69396796 C36.2562812,3.5262 36.206458,3.43684641 36.0574359,3.34386298 C35.3243586,2.88665304 34.7169829,3.25525525 34.3032315,3.73001768 C34.2483365,3.7930674 34.2418724,3.91295138 34.2415243,4.00658122 C34.2374967,5.10845967 34.2389387,6.21033812 34.2389387,7.33295138 L31.3555077,7.33295138 L31.3555077,7.07100663 C31.355458,5.6043547 31.3597343,4.13770276 31.3482978,2.67115028 C31.3472039,2.53227182 31.277342,2.36907845 31.1871928,2.26053149 C30.9414083,1.96462541 30.667679,1.69194033 30.3740105,1.37674144 L34.0306459,1.37674144 L34.0306459,2.11116133 C35.7043475,0.847531492 37.3428448,0.983874033 38.9044193,2.06640994 C39.5784249,1.7701558 40.191121,1.42427735 40.8485685,1.23110055 C41.6941707,0.982680663 42.5497674,1.02877459 43.2524635,1.67165304 C43.7142481,2.0941558 43.9873309,2.60302873 43.9744525,3.26564751 C43.9499884,4.52465304 43.9674414,5.78445414 43.9674414,7.04395691 L43.9674414,7.36154254 L41.1547177,7.36154254 L41.1547177,7.09184088 C41.1545685,5.95664751 41.1498448,4.82145414 41.1590436,3.6863105 C41.1604856,3.51376906 41.0974856,3.4453989 40.9498558,3.37956464 C40.3327343,3.10434365 39.7645409,3.11582983 39.2596459,3.61709503 C39.1189773,3.75671934 39.0449884,3.90802873 39.047574,4.1203989 C39.0594083,5.10627182 39.0528448,6.09239337 39.0528448,7.07846519 L39.0528448,7.34334365 Z" id="Fill-1"></path>
                <path d="M14.0398508,0.0497088398 L16.897674,0.0497088398 L16.897674,7.41424475 L14.0475083,7.41424475 L14.0475083,6.69981381 C13.813011,6.83958729 13.6171989,6.97244917 13.4078619,7.07865912 C11.595232,7.99854862 9.35860773,7.04330552 8.85336464,5.13724475 C8.48456354,3.74602376 9.29799448,2.26579724 10.7372983,1.72395746 C11.5901602,1.40289116 12.4382983,1.43491326 13.2854917,1.78994088 L13.2854917,3.03651547 C13.0048011,3.03651547 12.7286851,2.9991232 12.4663923,3.04352652 C11.6971657,3.17390221 11.1987348,3.88062597 11.3426851,4.59296851 C11.4933481,5.33877514 12.2539227,5.84073646 13.0112652,5.67828895 C13.2016575,5.63741602 13.3942873,5.56442155 13.5608619,5.4644768 C13.8714365,5.27826133 14.0559116,5.03168122 14.0489006,4.61976961 C14.0242376,3.18658177 14.0396519,1.75274751 14.0398508,0.319112155 L14.0398508,0.0497088398 Z" id="Fill-3"></path>
                <path d="M27.9217641,4.47422818 C27.295195,4.57606243 26.7110403,4.64309006 26.1424989,4.7764989 C25.9000459,4.8334326 25.6496867,4.98956519 25.4739133,5.16981381 C25.1004878,5.55283591 25.2651729,6.04689116 25.788416,6.15762597 C26.3381619,6.27407901 26.8768193,6.19526685 27.382858,5.95559834 C27.6949243,5.80776961 27.8711453,5.53294641 27.9162945,5.1963663 C27.945532,4.97842707 27.9217641,4.7532779 27.9217641,4.47422818 M22.8801232,3.15550442 C22.9969243,2.59984144 23.329626,2.25227238 23.7263718,1.95497403 C24.2772116,1.5421674 24.8861287,1.29707901 25.5888746,1.30583039 C26.7141729,1.31995193 27.8433,1.26694641 28.9637751,1.34441602 C29.8595983,1.40637182 30.4619519,1.95000166 30.7161895,2.83428895 C30.7387641,2.91275304 30.7562669,2.99599061 30.7564657,3.07709006 C30.7590017,4.45239945 30.7585541,5.82765912 30.7580569,7.20291878 C30.7580072,7.23543812 30.7500514,7.26800718 30.7434878,7.31802928 L28.1283663,7.31802928 L28.1283663,6.76639392 C28.0240956,6.82253204 27.9578635,6.85883039 27.8910348,6.89403481 C26.4595873,7.64789669 24.9858249,7.78881381 23.4654713,7.18954309 C23.2979022,7.12350994 23.1376923,7.02888564 22.9892669,6.92570884 C22.385521,6.50609006 22.2446536,5.90771436 22.5896867,5.25504033 C22.8100624,4.83815635 23.159521,4.55159834 23.5570127,4.31595746 C24.1679188,3.95376961 24.843416,3.79897956 25.5378083,3.72001823 C26.3832116,3.62390221 27.2306536,3.54563702 28.0912227,3.45822265 C28.1875376,3.10050994 28.1228967,2.90330552 27.7713,2.72052099 C27.2245873,2.43634972 26.6411287,2.39050442 26.0645818,2.59685801 C25.8924878,2.65846575 25.7716591,2.86322818 25.6272613,3.00240497 C25.574405,3.05342155 25.5220459,3.14839392 25.4686425,3.14899061 C24.6165762,3.15823923 23.7644105,3.15550442 22.8801232,3.15550442" id="Fill-6"></path>
                <path d="M5.64608834,2.6455674 C5.64698337,2.14286022 5.23730933,1.73621934 4.72933143,1.73557293 C4.24328171,1.73497624 3.84822646,2.14803149 3.84927066,2.6558105 C3.85036458,3.15732431 4.24069607,3.55407017 4.74017121,3.56132983 C5.24258005,3.56863923 5.64519331,3.16165028 5.64608834,2.6455674 M3.76299994,3.59688232 C3.75762977,3.63492099 3.74987287,3.66475525 3.74987287,3.6945895 C3.74942535,4.45526354 3.74828171,5.21583812 3.75250823,5.97646243 C3.75295574,6.05651768 3.77383972,6.14164475 3.80591154,6.21538508 C4.0044585,6.67110331 4.4575911,6.89829116 4.94393917,6.79247901 C5.37022093,6.69979392 5.68735906,6.30001492 5.69158558,5.83400387 C5.69685629,5.25521934 5.69327618,4.67648453 5.69347508,4.09765028 C5.6935248,3.95335193 5.69347508,3.80900387 5.69347508,3.64252873 C4.85528171,4.24915856 4.66130933,4.24309227 3.76299994,3.59688232 M4.16422093,1.14530221 C6.07167397,1.19611989 7.1986132,1.6806779 7.96878447,2.8375011 C8.69664082,3.93082707 8.53906624,5.43656188 7.63205519,6.38737956 C6.89982314,7.15506464 6.00897232,7.5476337 4.95149718,7.6078989 C3.74266292,7.67681602 2.69975685,7.31030221 1.8496795,6.4527663 C0.765254084,5.35884365 0.725872868,3.70334088 1.69125961,2.50803149 C2.3227016,1.72612541 3.57206071,1.11536851 4.16422093,1.14530221" id="Fill-8"></path>
                <path d="M44.7091658,8.69445692 C44.7154834,8.60803805 44.7240894,8.54731418 44.7237412,8.48664395 C44.7154337,6.93131891 44.7133941,5.37594022 44.6935457,3.82072246 C44.6853377,3.18301451 44.5666949,2.5615604 44.3406019,1.96842978 C43.9495033,0.942239258 43.2412777,0.388536246 42.2131392,0.317942062 C42.0313197,0.305496887 41.8486047,0.304155812 41.6663375,0.304155812 C33.7408462,0.303726668 25.8153051,0.303994883 17.8898139,0.304209455 L17.6217855,0.304209455 C17.6161643,0.204111623 17.6114384,0.120374906 17.605469,0.0146982023 C17.7032188,0.00949483159 17.7829607,0.00144838209 17.8626528,0.00144838209 C25.8462468,0.000643737142 33.8297412,0.000643737142 41.8132854,2.11822517e-08 C42.4621151,-5.36218144e-05 43.0862709,0.101760786 43.6341671,0.512719783 C44.339408,1.04169337 44.681756,1.81871218 44.8288035,2.69126916 C44.9304832,3.29427009 44.9775921,3.91416856 44.9874417,4.52757623 C45.0100759,5.93967447 44.9953015,7.35241643 44.994804,8.76494382 C44.994804,8.83430421 44.9864468,8.90371825 44.9802286,8.99995379 L44.7274223,8.99995379 C31.2640213,8.99952464 17.8006203,9.00172401 4.33721927,8.99555506 C2.53131101,8.99480406 1.17629531,8.13496047 0.391362204,6.36511708 C-0.804368642,3.66896642 0.872450235,0.416859748 3.62178053,0.05171187 C3.83508893,0.0233883677 4.05093434,0.003004029 4.26558586,0.00278945701 C7.24180505,-0.000482765788 10.2179745,0.000429165156 13.1942434,0.000268236166 L13.4064077,0.000268236166 L13.4064077,0.303619382 L13.1378819,0.303619382 C10.1948429,0.303726668 7.25180388,0.303994883 4.30871514,0.303833954 C2.7849132,0.303780311 1.58510323,0.973620411 0.817282556,2.39703733 C-0.537086459,4.9076905 0.808626851,8.17519271 3.59835044,8.63963378 C3.84255074,8.68029517 4.09311846,8.6911847 4.3407512,8.69123834 C17.7046614,8.69402778 31.0685715,8.69408142 44.4324817,8.69445692 L44.7091658,8.69445692 Z" id="Fill-10"></path>
                <path d="M17.5487271,1.3756674 L20.2974564,1.3756674 L20.2974564,2.31087182 C20.4265392,2.1529989 20.5128099,2.03754033 20.6092243,1.93123094 C20.9455061,1.56019227 21.3349923,1.32121989 21.8673845,1.35344088 C22.3026663,1.37979448 22.7408818,1.35881105 23.2484619,1.35881105 C23.0397215,1.54154586 22.8625061,1.66267293 22.7293956,1.82099337 C22.5133459,2.07791602 22.2786497,2.33752376 22.1419094,2.63710939 C22.0333624,2.87478895 21.9008486,2.96876685 21.6710254,2.96956243 C21.1315724,2.97140221 20.7511359,3.25751271 20.4473735,3.66276133 C20.3655779,3.77180552 20.3041193,3.92614807 20.3026276,4.06045193 C20.2908928,5.09589945 20.296263,6.13154586 20.2963624,7.16709282 L20.2963624,7.41004309 L17.5487271,7.41004309 L17.5487271,1.3756674 Z" id="Fill-13"></path>
            </g>
        </g>
    </g>
</svg>