<svg xmlns="http://www.w3.org/2000/svg" width="60" height="60" viewBox="0 0 60 60">
  <defs>
    <linearGradient id="brand-logo_name_jcb-a" x1="-57.527%" x2="232.391%" y1="50.124%" y2="50.124%">
      <stop offset="0%" stop-color="#007940"/>
      <stop offset="22.85%" stop-color="#00873F"/>
      <stop offset="74.33%" stop-color="#40A737"/>
      <stop offset="100%" stop-color="#5CB531"/>
    </linearGradient>
    <linearGradient id="brand-logo_name_jcb-b" x1=".183%" x2="100.273%" y1="49.96%" y2="49.96%">
      <stop offset="0%" stop-color="#007940"/>
      <stop offset="22.85%" stop-color="#00873F"/>
      <stop offset="74.33%" stop-color="#40A737"/>
      <stop offset="100%" stop-color="#5CB531"/>
    </linearGradient>
    <linearGradient id="brand-logo_name_jcb-c" x1="-62.802%" x2="253.671%" y1="49.858%" y2="49.858%">
      <stop offset="0%" stop-color="#007940"/>
      <stop offset="22.85%" stop-color="#00873F"/>
      <stop offset="74.33%" stop-color="#40A737"/>
      <stop offset="100%" stop-color="#5CB531"/>
    </linearGradient>
    <linearGradient id="brand-logo_name_jcb-d" x1=".176%" x2="101.808%" y1="50.006%" y2="50.006%">
      <stop offset="0%" stop-color="#1F286F"/>
      <stop offset="47.51%" stop-color="#004E94"/>
      <stop offset="82.61%" stop-color="#0066B1"/>
      <stop offset="100%" stop-color="#006FBC"/>
    </linearGradient>
    <linearGradient id="brand-logo_name_jcb-e" x1="-.576%" x2="98.133%" y1="49.914%" y2="49.914%">
      <stop offset="0%" stop-color="#6C2C2F"/>
      <stop offset="17.35%" stop-color="#882730"/>
      <stop offset="57.31%" stop-color="#BE1833"/>
      <stop offset="85.85%" stop-color="#DC0436"/>
      <stop offset="100%" stop-color="#E60039"/>
    </linearGradient>
  </defs>
  <g fill="none">
    <path fill="#E0E0E0" d="M30,0 C46.569,0 60,13.432 60,29.995 L60,30.005 C60,46.571 46.572,60 30,60 C13.431,60 0,46.572 0,30 C0,13.431 13.428,0 30,0 Z"/>
    <path fill="#FFF" d="M49.0000001,38.3667483 C49.0000001,41.618582 46.3520784,44.2665038 43.1002445,44.2665038 L11,44.2665038 L11,20.8997556 C11,17.6479218 13.6479218,15.0000001 16.8997555,15.0000001 L49.0000001,15.0000001 L49.0000001,38.3667483 Z"/>
    <path fill="url(#brand-logo_name_jcb-a)" d="M38.5476774,32.3740832 L40.9865526,32.3740832 C41.0562348,32.3740832 41.2188265,32.350856 41.2885087,32.350856 C41.7530564,32.2579464 42.1479218,31.8398535 42.1479218,31.2591688 C42.1479218,30.7017116 41.7530564,30.2836187 41.2885087,30.1674818 C41.2188265,30.1442544 41.0794623,30.1442544 40.9865526,30.1442544 L38.5476774,30.1442544 L38.5476774,32.3740832 Z"/>
    <path fill="url(#brand-logo_name_jcb-b)" d="M40.7078241,16.9743277 C38.3850858,16.9743277 36.4804401,18.8557458 36.4804401,21.2017116 L36.4804401,25.5916872 L42.4498778,25.5916872 C42.5892422,25.5916872 42.751834,25.5916872 42.8679709,25.6149145 C44.215159,25.6845967 45.2139365,26.3814182 45.2139365,27.5892421 C45.2139365,28.5415649 44.5403424,29.3545234 43.2860636,29.5171151 L43.2860636,29.5635698 C44.6564793,29.6564793 45.7017116,30.422983 45.7017116,31.6075795 C45.7017116,32.8850856 44.5403424,33.7212716 43.0073351,33.7212716 L36.4572128,33.7212716 L36.4572128,42.3154036 L42.6589243,42.3154036 C44.9816628,42.3154036 46.8863082,40.4339854 46.8863082,38.0880198 L46.8863082,16.9743277 L40.7078241,16.9743277 Z"/>
    <path fill="url(#brand-logo_name_jcb-c)" d="M41.8459659,27.8679708 C41.8459659,27.3105135 41.4511004,26.9388754 40.9865526,26.8691933 C40.940098,26.8691933 40.823961,26.8459658 40.7542789,26.8459658 L38.5476774,26.8459658 L38.5476774,28.8899757 L40.7542789,28.8899757 C40.823961,28.8899757 40.9633254,28.8899757 40.9865526,28.8667483 C41.4511004,28.7970661 41.8459659,28.425428 41.8459659,27.8679708 Z"/>
    <path fill="url(#brand-logo_name_jcb-d)" d="M17.3410758,16.9743277 C15.0183374,16.9743277 13.1136919,18.8557458 13.1136919,21.2017116 L13.1136919,31.6308069 C14.2982885,32.2114916 15.5293399,32.5831296 16.7603912,32.5831296 C18.2237164,32.5831296 19.0134475,31.7004891 19.0134475,30.4926652 L19.0134475,25.5684597 L22.6369194,25.5684597 L22.6369194,30.4694377 C22.6369194,32.3740832 21.4523228,33.9303179 17.4339853,33.9303179 C14.99511,33.9303179 13.0904646,33.3960881 13.0904646,33.3960881 L13.0904646,42.2921762 L19.2921761,42.2921762 C21.6149144,42.2921762 23.5195599,40.4107581 23.5195599,38.0647923 L23.5195599,16.9743277 L17.3410758,16.9743277 Z"/>
    <path fill="url(#brand-logo_name_jcb-e)" d="M29.02445,16.9743277 C26.7017115,16.9743277 24.7970661,18.8557458 24.7970661,21.2017116 L24.7970661,26.7298289 C25.8655256,25.823961 27.7237164,25.2432764 30.7200489,25.3826407 C32.3227384,25.4523228 34.0415648,25.8936431 34.0415648,25.8936431 L34.0415648,27.6821517 C33.1821518,27.2408314 32.1601468,26.8459658 30.8361858,26.7530564 C28.5599023,26.5904647 27.1894866,27.7053791 27.1894866,29.6564793 C27.1894866,31.6308069 28.5599023,32.7457214 30.8361858,32.5599023 C32.1601468,32.4669927 33.1821518,32.0488998 34.0415648,31.6308069 L34.0415648,33.4193155 C34.0415648,33.4193155 32.3459659,33.8606359 30.7200489,33.9303179 C27.7237164,34.0696822 25.8655256,33.4889977 24.7970661,32.5831296 L24.7970661,42.3386309 L30.9987776,42.3386309 C33.321516,42.3386309 35.2261614,40.4572128 35.2261614,38.111247 L35.2261614,16.9743277 L29.02445,16.9743277 Z"/>
  </g>
</svg>
