<?xml version="1.0" encoding="UTF-8"?>
<svg width="40px" height="40px" viewBox="0 0 40 40" version="1.1" xmlns="http://www.w3.org/2000/svg" xmlns:xlink="http://www.w3.org/1999/xlink">
    <!-- Generator: Sketch 50.2 (55047) - http://www.bohemiancoding.com/sketch -->
    <title>brand-logo_name_maestro</title>
    <desc>Created with Sketch.</desc>
    <defs></defs>
    <g id="Page-1" stroke="none" stroke-width="1" fill="none" fill-rule="evenodd">
        <g id="brand-logo_name_maestro">
            <rect id="Rectangle-7" fill="#E0E0E0" x="0" y="0" width="40" height="40"></rect>
            <g id="Group" transform="translate(6.666667, 12.000000)" fill-rule="nonzero">
                <rect id="Rectangle-path" fill="#7673C0" x="9.71866667" y="1.78466667" width="7.17933333" height="12.9026667"></rect>
                <path d="M10.174359,8.23703707 C10.1716747,5.71885864 11.3273718,3.33938331 13.3082621,1.78461539 C9.94411173,-0.859247453 5.11305693,-0.474145971 2.21023314,2.66928087 C-0.69259066,5.81270771 -0.69259066,10.6590872 2.21023314,13.802514 C5.11305693,16.9459409 9.94411173,17.3310423 13.3082621,14.6871795 C11.328002,13.1329051 10.1723755,10.7544157 10.174359,8.23703707 Z" id="Shape" fill="#EB001B"></path>
                <path d="M26.5823362,8.23703707 C26.5815774,11.3777021 24.7881167,14.2423968 21.9632915,15.6150368 C19.1384664,16.9876767 15.7779327,16.6274127 13.3082621,14.6871795 C15.2876582,13.1315856 16.4433717,10.7534123 16.4433717,8.2358974 C16.4433717,5.71838256 15.2876582,3.34020927 13.3082621,1.78461539 C15.7779122,-0.157013065 19.1393937,-0.518093999 21.9650724,0.85472504 C24.7907512,2.22754408 26.5845421,5.09324664 26.5846154,8.2347578 L26.5823362,8.23703707 Z" id="Shape" fill="#00A1DF"></path>
            </g>
        </g>
    </g>
</svg>