<?xml version="1.0" encoding="UTF-8"?>
<svg width="40px" height="40px" viewBox="0 0 40 40" version="1.1" xmlns="http://www.w3.org/2000/svg" xmlns:xlink="http://www.w3.org/1999/xlink">
    <!-- Generator: Sketch 50.2 (55047) - http://www.bohemiancoding.com/sketch -->
    <title>brand-logo_name_mastercard</title>
    <desc>Created with Sketch.</desc>
    <defs></defs>
    <g id="Page-1" stroke="none" stroke-width="1" fill="none" fill-rule="evenodd">
        <g id="brand-logo_name_mastercard">
            <rect id="Rectangle-11" fill="#E0E0E0" x="0" y="0" width="40" height="40"></rect>
            <g id="Group" transform="translate(5.666667, 12.000000)" fill-rule="nonzero">
                <rect id="Rectangle-path" fill="#FF5F00" x="9.78533333" y="1.94333333" width="7.11866667" height="12.7906667"></rect>
                <path d="M10.2146893,8.33898307 C10.2146893,5.74011299 11.4350283,3.43502825 13.3107345,1.94350283 C11.9322034,0.85875706 10.1920904,0.203389831 8.29378533,0.203389831 C3.79661017,0.203389831 0.158192091,3.84180791 0.158192091,8.33898307 C0.158192091,12.8361581 3.79661017,16.4745763 8.29378533,16.4745763 C10.1920904,16.4745763 11.9322034,15.8192091 13.3107345,14.7344633 C11.4350283,13.2655367 10.2146893,10.9378531 10.2146893,8.33898307 Z" id="Shape" fill="#EB001B"></path>
                <path d="M26.4858757,8.33898307 C26.4858757,12.8361581 22.8474576,16.4745763 18.3502825,16.4745763 C16.4519774,16.4745763 14.7118644,15.8192091 13.3333333,14.7344633 C15.2316384,13.2429379 16.4293785,10.9378531 16.4293785,8.33898307 C16.4293785,5.74011299 15.2090395,3.43502825 13.3333333,1.94350283 C14.7118644,0.85875706 16.4519774,0.203389831 18.3502825,0.203389831 C22.8474576,0.203389831 26.4858757,3.86440678 26.4858757,8.33898307 Z" id="Shape" fill="#F79E1B"></path>
            </g>
        </g>
    </g>
</svg>