<?xml version="1.0" encoding="UTF-8"?>
<svg width="40px" height="40px" viewBox="0 0 40 40" version="1.1" xmlns="http://www.w3.org/2000/svg" xmlns:xlink="http://www.w3.org/1999/xlink">
    <!-- Generator: Sketch 50.2 (55047) - http://www.bohemiancoding.com/sketch -->
    <title>brand-logo_name_mir</title>
    <desc>Created with Sketch.</desc>
    <defs></defs>
    <g id="Page-1" stroke="none" stroke-width="1" fill="none" fill-rule="evenodd">
        <g id="brand-logo_name_mir">
            <rect id="Rectangle-8" fill="#26A24C" x="0" y="0" width="40" height="40"></rect>
            <path d="M22.0050811,16.9099159 L20.0755676,21.0903904 L19.8798258,21.0903904 L19.8798258,16 L17.1387507,16 L17.1387507,24.6145706 L19.464997,24.6145706 C20.0758439,24.6145706 20.631021,24.2594174 20.8871291,23.7046547 L22.8165045,19.5241802 L23.0123844,19.5241802 L23.0123844,24.6145706 L25.7533213,24.6145706 L25.7533213,16 L23.4272132,16 C22.8162282,16 22.2610511,16.3551532 22.0050811,16.9099159 M11.7216637,17.1321802 L10.579952,21.0903904 L10.3840721,21.0903904 L9.24236036,17.1321802 C9.04896697,16.4616577 8.43521922,16 7.73734535,16 L5,16 L5,24.6145706 L7.74107507,24.6145706 L7.74107507,19.5241802 L7.93681682,19.5241802 L9.50302703,24.6145706 L11.460997,24.6145706 L13.0272072,19.5241802 L13.2230871,19.5241802 L13.2230871,24.6145706 L15.964024,24.6145706 L15.964024,16 L13.2266787,16 C12.5288048,16 11.9151952,16.4616577 11.7216637,17.1321802 M26.9280481,19.9156637 L26.9280481,24.6145706 L29.6637357,24.6145706 L29.6637357,21.8736336 L32.6058018,21.8736336 C33.883994,21.8736336 34.9683784,21.0555796 35.372018,19.9156637 L26.9280481,19.9156637 M32.6058018,16 L26.5365645,16 C26.904979,18.0046607 28.6591952,19.5241802 30.7703603,19.5241802 L35.4836337,19.5241802 C35.5221742,19.3343784 35.5426186,19.1379459 35.5426186,18.9368168 C35.5426186,17.3147988 34.2278198,16 32.6058018,16" id="Shape" fill="#FFFFFF" fill-rule="nonzero"></path>
        </g>
    </g>
</svg>