<?xml version="1.0" encoding="UTF-8"?>
<svg width="40px" height="40px" viewBox="0 0 40 40" version="1.1" xmlns="http://www.w3.org/2000/svg" xmlns:xlink="http://www.w3.org/1999/xlink">
    <!-- Generator: Sketch 50.2 (55047) - http://www.bohemiancoding.com/sketch -->
    <title>brand-logo_name_android-pay</title>
    <desc>Created with Sketch.</desc>
    <defs></defs>
    <g id="Page-1" stroke="none" stroke-width="1" fill="none" fill-rule="evenodd">
        <g id="brand-logo_name_android-pay">
            <rect id="Rectangle-16" fill="#F0F0F0" x="0" y="0" width="40" height="40"></rect>
            <g id="Слой_2" transform="translate(10.000000, 10.000000)" fill-rule="nonzero">
                <path d="M20.4,10.7333333 C20.4,10.0666667 20.3333333,9.33333333 20.2,8.66666667 L10.6,8.66666667 L10.6,12.6 L16.1333333,12.6 C15.9333333,13.8666667 15.2,15 14.0666667,15.7333333 L14.0666667,18.2666667 L17.3333333,18.2666667 C19.2666667,16.4666667 20.4,13.8666667 20.4,10.7333333 Z" id="Shape" fill="#4285F4"></path>
                <path d="M10.6,20.7333333 C13.3333333,20.7333333 15.6666667,19.8 17.3333333,18.2666667 L14.0666667,15.7333333 C13.1333333,16.3333333 12,16.7333333 10.6,16.7333333 C7.93333333,16.7333333 5.66666667,14.9333333 4.86666667,12.5333333 L1.46666667,12.5333333 L1.46666667,15.1333333 C3.2,18.5333333 6.73333333,20.7333333 10.6,20.7333333 Z" id="Shape" fill="#34A853"></path>
                <path d="M4.86666667,12.4666667 C4.46666667,11.2 4.46666667,9.8 4.86666667,8.53333333 L4.86666667,5.93333333 L1.46666667,5.93333333 C2.0539126e-15,8.8 2.0539126e-15,12.2 1.46666667,15.0666667 L4.86666667,12.4666667 Z" id="Shape" fill="#FBBC04"></path>
                <path d="M10.5333333,4.4 C12,4.4 13.4,4.93333333 14.4666667,5.93333333 L17.4,3 C15.5333333,1.26666667 13.1333333,0.333333333 10.6,0.333333333 C6.73333333,0.333333333 3.2,2.53333333 1.46666667,5.93333333 L4.86666667,8.53333333 C5.6,6.2 7.86666667,4.4 10.5333333,4.4 Z" id="Shape" fill="#EA4335"></path>
            </g>
        </g>
    </g>
</svg>