<?xml version="1.0" encoding="UTF-8"?>
<svg width="60px" height="60px" viewBox="0 0 60 60" version="1.1" xmlns="http://www.w3.org/2000/svg" xmlns:xlink="http://www.w3.org/1999/xlink">
    <!-- Generator: Sketch 51.2 (57519) - http://www.bohemiancoding.com/sketch -->
    <title>brand-logo_name_payment-solutions</title>
    <desc>Created with Sketch.</desc>
    <defs></defs>
    <g id="Page-1" stroke="none" stroke-width="1" fill="none" fill-rule="evenodd">
        <g id="brand-logo_name_payment-solutions">
            <rect id="Rectangle" fill="#F3F3F3" x="0" y="0" width="60" height="60"></rect>
            <g id="Group-52" transform="translate(19.000000, 11.000000)">
                <path d="M15.4836735,18.3238622 C17.7318367,19.6196786 19.6264286,21.2309541 20.599898,23.7477398 C22.9715816,29.8810561 18.2998469,36.8551378 11.9810204,36.5828418 C12.1972959,34.6368214 12.4135714,32.6912602 12.6303061,30.7461582 C14.2498469,30.1740153 15.2866837,29.0784031 15.3707143,27.3312092 C15.4496939,25.6809031 14.5538265,24.5577398 13.1271429,23.7909031 C11.9236224,23.1434541 10.7517857,22.4372296 9.56571429,21.7571786 C7.95489796,20.5968214 6.345,19.4369235 4.73418367,18.2765663 C4.10785714,17.45325 3.48107143,16.6299337 2.8547449,15.8061582 C4.66806122,15.0475867 6.48183673,14.2890153 8.29515306,13.5309031 C8.75020408,13.9446276 9.20571429,14.3578929 9.66076531,14.7720765 C11.6021939,15.955852 13.5427041,17.1396276 15.4836735,18.3238622" id="Fill-1" fill="#209BD5"></path>
                <path d="M0.687122449,11.0020408 C0.492428571,9.20158163 0.280744898,7.40295918 0.124163265,5.59928571 C0.103959184,5.37153061 0.308755102,5.0119898 0.513091837,4.89352041 C2.77594898,3.58209184 5.02686735,2.2444898 7.34436735,1.035 C10.9829388,-0.863265306 15.4944184,-0.0854081633 18.3868163,2.83821429 C21.2507449,5.73336735 21.9418163,10.1493367 20.095898,13.797551 C20.0127857,13.9619388 19.8814592,14.102449 19.7721735,14.2539796 C18.1416122,13.2414796 16.5105918,12.2294388 14.8800306,11.2169388 C14.970949,10.9285714 15.093551,10.6457143 15.1486531,10.3504592 C15.420949,8.89484694 15.0724286,7.62520408 13.8904898,6.68295918 C12.7172755,5.74760204 11.3842653,5.56392857 10.0558469,6.25637755 C8.68334694,6.97132653 7.38110204,7.82219388 6.04855102,8.61382653 C4.26094898,9.40959184 2.47426531,10.2062755 0.687122449,11.0020408" id="Fill-4" fill="#F27027"></path>
                <path d="M5.92333163,34.7885357 C5.65838265,36.3874133 5.60419898,38.0606786 5.07935204,39.5695561 C4.25144388,41.9495051 2.48955612,43.5924643 0.182617347,44.6214949 C0.0765459184,44.4690459 -0.000137755102,44.4102704 0.000321428571,44.3519541 C0.0310867347,38.8059337 -0.0529438776,33.2544031 0.176647959,27.7161888 C0.247821429,26.0130765 1.17720918,24.3457806 1.71353571,22.6619541 C2.02027041,22.7726173 2.34445408,22.8506786 2.63144388,22.9999133 C4.02231122,23.7222092 5.40353571,24.4637908 6.78843367,25.1984847 C6.54644388,26.1770051 6.30537245,27.1555255 6.06384184,28.1335867 C6.0170051,30.3519031 5.97062755,32.5702194 5.92333163,34.7885357" id="Fill-6" fill="#F27129"></path>
                <path d="M17.6952857,16.7306327 C17.1589592,17.1007347 16.6226327,17.4708367 16.0867653,17.8409388 C15.4765102,17.3900204 14.8791122,16.9202755 14.2537041,16.491398 C13.1236531,15.7181327 11.9766122,14.9682857 10.8364592,14.2087959 L12.4348776,13.296398 C12.8100306,13.5985408 13.1608469,13.9401735 13.5658469,14.1954796 C14.9319184,15.0569082 16.3172755,15.8880306 17.6952857,16.7306327" id="Fill-8" fill="#974721"></path>
                <path d="M5.92333163,34.7885357 C5.97062755,32.5702194 6.0170051,30.3519031 6.06384184,28.1335867 C6.68741327,28.5073622 7.31144388,28.8815969 7.93593367,29.2553724 C7.84731122,29.3729235 7.69761735,29.48175 7.68016837,29.6094031 C7.41843367,31.5177704 7.17414796,33.4284337 6.92527041,35.3390969 C6.59144388,35.1558827 6.25761735,34.97175 5.92333163,34.7885357" id="Fill-10" fill="#2C586C"></path>
                <path d="M2.19696429,21.7399133 C2.55558673,21.1948622 2.91420918,20.6507296 3.27375,20.1061378 C3.75497449,20.5083827 4.21232143,20.944148 4.72201531,21.3059847 C5.77997449,22.05675 6.86548469,22.7694031 7.93951531,23.4976684 C7.69752551,23.8480255 7.45553571,24.1983827 7.21354592,24.5482806 C5.54119898,23.6120051 3.86931122,22.6761888 2.19696429,21.7399133" id="Fill-12" fill="#B85826"></path>
                <path d="M10.8366888,14.2087041 C11.9763827,14.9681939 13.1234235,15.7180408 14.2534745,16.4917653 C14.8793418,16.9201837 15.4762806,17.3899286 16.0869949,17.8408469 C15.8858724,18.0020204 15.6852092,18.1622755 15.4840867,18.323449 C13.5431173,17.1396735 11.602148,15.955898 9.66117857,14.7721224 C10.0533214,14.5838571 10.4445459,14.3965102 10.8366888,14.2087041" id="Fill-14" fill="#7D4024"></path>
                <path d="M6.92508673,35.3392347 C7.17396429,33.4285714 7.41825,31.5179082 7.68044388,29.6090816 C7.69789286,29.4818878 7.84758673,29.3730612 7.93575,29.2555102 C8.21860714,29.4171429 8.50192347,29.5783163 8.78478061,29.7404082 C8.69156633,30.7464796 8.65804592,31.7635714 8.48768878,32.7567857 C8.3154949,33.7637755 8.00738265,34.7478061 7.75896429,35.7414796 L6.92508673,35.3392347 Z" id="Fill-16" fill="#276683"></path>
                <path d="M7.93942347,23.4977602 C6.86539286,22.7694949 5.77988265,22.0568418 4.72192347,21.3060765 C4.21222959,20.9437806 3.75488265,20.5084745 3.27365816,20.1062296 C3.50784184,19.8059235 3.74110714,19.5056173 3.97529082,19.2043929 C4.50932143,19.632352 5.02728061,20.082352 5.58105612,20.4832194 C6.59677041,21.2179133 7.63360714,21.9236786 8.6612602,22.6418418 C8.42110714,22.9269949 8.18003571,23.2126071 7.93942347,23.4977602" id="Fill-18" fill="#974721"></path>
                <path d="M8.66139796,22.6417041 C7.6337449,21.924 6.59690816,21.2177755 5.58119388,20.4830816 C5.02741837,20.0822143 4.50945918,19.6322143 3.97542857,19.2047143 C4.22843878,18.8956837 4.4809898,18.5861939 4.734,18.2771633 C6.34481633,19.4370612 7.95517347,20.5969592 9.5659898,21.7568571 C9.26430612,22.0521122 8.96308163,22.3469082 8.66139796,22.6417041" id="Fill-20" fill="#7D4024"></path>
                <path d="M7.75914796,35.7414337 C8.00756633,34.7477602 8.31567857,33.7637296 8.48787245,32.7567398 C8.65822959,31.7635255 8.69129082,30.7464337 8.7845051,29.7403622 C9.09215816,29.9603112 9.40027041,30.1811786 9.70792347,30.4011276 C9.46822959,32.3379643 9.22807653,34.2752602 8.98838265,36.2116378 C8.57879082,36.0550561 8.16919898,35.8984745 7.75914796,35.7414337" id="Fill-22" fill="#287194"></path>
                <path d="M2.19696429,21.7399133 C3.86931122,22.6761888 5.54119898,23.6120051 7.21354592,24.5482806 C7.07165816,24.7654745 6.93022959,24.9822092 6.78834184,25.1984847 C5.40344388,24.4637908 4.02267857,23.7222092 2.63135204,22.9999133 C2.34436224,22.8506786 2.02017857,22.7726173 1.71344388,22.6619541 C1.87461735,22.354301 2.03533163,22.0471071 2.19696429,21.7399133" id="Fill-24" fill="#DA6626"></path>
                <path d="M8.98829082,36.2118214 C9.22798469,34.2749847 9.46813776,32.3376888 9.70783163,30.4013112 C10.0848214,30.5147296 10.4608929,30.628148 10.8374235,30.7420255 L10.1367092,36.5052398 C9.75375,36.4074337 9.37125,36.3096276 8.98829082,36.2118214" id="Fill-26" fill="#297CA4"></path>
                <path d="M14.8796633,11.2168469 C16.5106837,12.2293469 18.1417041,13.2413878 19.7722653,14.2538878 C19.6234898,14.4885306 19.4742551,14.7236327 19.3254796,14.9582755 C19.078898,14.7438367 18.8566531,14.4885306 18.581602,14.3209286 C17.2173673,13.4884286 15.838898,12.6793469 14.4659388,11.8615408 C14.6036939,11.647102 14.7419082,11.4322041 14.8796633,11.2168469" id="Fill-28" fill="#DA6626"></path>
                <path d="M12.630352,30.7460204 C12.4136173,32.6911224 12.1973418,34.6371429 11.9810663,36.5827041 C11.6761684,36.5827041 11.3712704,36.5831633 11.0663724,36.5831633 C11.2955051,34.6876531 11.5241786,32.7921429 11.7533112,30.8970918 C12.0458112,30.8465816 12.337852,30.7960714 12.630352,30.7460204" id="Fill-30" fill="#2190C6"></path>
                <path d="M17.6952857,16.7306327 C16.3172755,15.8880306 14.9319184,15.0569082 13.5658469,14.1954796 C13.1608469,13.9401735 12.8100306,13.5985408 12.4348776,13.296398 C12.7319694,13.1196122 13.0290612,12.9419082 13.3256939,12.7646633 C13.6572245,13.0608367 13.953398,13.413949 14.3262551,13.6421633 C15.6776327,14.4696122 17.0556429,15.2548163 18.423551,16.0560918 C18.181102,16.2810918 17.9377347,16.5060918 17.6952857,16.7306327" id="Fill-32" fill="#AE5325"></path>
                <path d="M1.43733673,13.140551 C1.27111224,12.7474898 1.10488776,12.3544286 0.939122449,11.9618265 C2.74646939,11.2560612 4.55335714,10.5493776 6.36070408,9.84361224 C6.46953061,10.1567755 6.57835714,10.4694796 6.68718367,10.7817245 C5.45106122,11.217949 4.19703061,11.6096327 2.98754082,12.1110612 C2.42504082,12.3443265 1.95116327,12.7901939 1.43733673,13.140551" id="Fill-34" fill="#276683"></path>
                <path d="M11.7532653,30.8971378 C11.5241327,32.7921888 11.2954592,34.687699 11.0663265,36.5832092 L10.1364796,36.505148 L10.8376531,30.7419337 C11.142551,30.7933622 11.4479082,30.84525 11.7532653,30.8971378" id="Fill-36" fill="#2888B6"></path>
                <path d="M1.9180102,14.2181173 C1.77428571,13.9118418 1.63056122,13.6055663 1.48683673,13.2992908 C3.24137755,12.5241888 4.99545918,11.7486276 6.75,10.9735255 C6.95295918,11.3670459 7.15591837,11.7605663 7.35887755,12.1545459 C6.92632653,12.2675051 6.4772449,12.3377602 6.06535714,12.502148 C4.67586735,13.0563827 3.29969388,13.6436786 1.9180102,14.2181173" id="Fill-38" fill="#297CA4"></path>
                <path d="M6.36052041,9.84375 C4.55317347,10.5495153 2.74628571,11.2557398 0.938938776,11.9615051 C0.855367347,11.6419133 0.770877551,11.3218622 0.687306122,11.0018112 C2.4739898,10.2060459 4.26113265,9.40982143 6.04827551,8.61405612 C6.1525102,9.02456633 6.25628571,9.43369898 6.36052041,9.84375" id="Fill-40" fill="#2C586C"></path>
                <path d="M8.29501531,13.5306735 C6.48169898,14.2887857 4.66838265,15.0478163 2.85460714,15.8059286 C2.67047449,15.5134286 2.48588265,15.2213878 2.30129082,14.9284286 C4.07741327,14.1574592 5.8539949,13.386949 7.63057653,12.6159796 L8.29501531,13.5306735 Z" id="Fill-42" fill="#2190C6"></path>
                <path d="M14.4657551,11.8616327 C15.8387143,12.6789796 17.2171837,13.4885204 18.5814184,14.3205612 C18.8569286,14.4886224 19.0787143,14.7434694 19.3252959,14.9583673 C19.1636633,15.1705102 19.0024898,15.3831122 18.8413163,15.5957143 C18.170449,15.1415816 17.4986633,14.6883673 16.8287143,14.232398 C15.8878469,13.5918367 14.947898,12.9489796 14.0074898,12.3070408 C14.160398,12.1582653 14.3128469,12.009949 14.4657551,11.8616327" id="Fill-44" fill="#CD6126"></path>
                <path d="M7.63048469,12.6163469 C5.85390306,13.3868571 4.07778061,14.1573673 2.30165816,14.9283367 L1.9182398,14.2179796 C3.29946429,13.6435408 4.67563776,13.0562449 6.06558673,12.5020102 C6.47701531,12.3380816 6.92655612,12.2673673 7.35864796,12.1544082 C7.44910714,12.3082347 7.54002551,12.4620612 7.63048469,12.6163469" id="Fill-46" fill="#2888B6"></path>
                <path d="M14.0074898,12.306949 C14.947898,12.9488878 15.8878469,13.5917449 16.8291735,14.2323061 C17.4991224,14.6887347 18.170449,15.1414898 18.8413163,15.5956224 C18.7021837,15.7489898 18.563051,15.9023571 18.4234592,16.0561837 C17.0560102,15.2549082 15.678,14.4697041 14.3261633,13.6422551 C13.9533061,13.4140408 13.6571327,13.0609286 13.3260612,12.7647551 C13.5533571,12.6123061 13.7801939,12.459398 14.0074898,12.306949" id="Fill-48" fill="#B85826"></path>
                <path d="M6.75022959,10.9733418 C4.99568878,11.7484439 3.24114796,12.5240051 1.48660714,13.2991071 C1.43104592,13.258699 1.41451531,13.2054337 1.43747449,13.1406888 C1.95130102,12.7903316 2.42517857,12.3440051 2.98767857,12.111199 C4.19670918,11.6097704 5.45119898,11.2180867 6.68686224,10.7818622 C6.74609694,10.8332908 6.7667602,10.8971173 6.75022959,10.9733418" id="Fill-50" fill="#287194"></path>
            </g>
        </g>
    </g>
</svg>