<?xml version="1.0" encoding="UTF-8"?>
<svg width="60px" height="60px" viewBox="0 0 60 60" version="1.1" xmlns="http://www.w3.org/2000/svg" xmlns:xlink="http://www.w3.org/1999/xlink">
    <!-- Generator: Sketch 51.2 (57519) - http://www.bohemiancoding.com/sketch -->
    <title>brand-logo_name_runpay</title>
    <desc>Created with Sketch.</desc>
    <defs></defs>
    <g id="Page-1" stroke="none" stroke-width="1" fill="none" fill-rule="evenodd">
        <g id="brand-logo_name_runpay">
            <rect id="Rectangle" fill="#298BBC" x="0" y="0" width="60" height="60"></rect>
            <g id="Group-22" transform="translate(8.000000, 26.000000)">
                <path d="M17.05225,8 L15.186436,8 C15.7017849,5.32337209 16.213936,2.7183582 16.7315523,0.0298116896 C16.8538779,0.020509364 16.9753895,0.00423029428 17.0970174,0.00330006172 C17.4650407,0.000393084974 17.8334709,0.0122535501 18.2010872,0.000334945439 C18.3717267,-0.00518831037 18.4564942,0.0573116896 18.5287035,0.209055876 C19.0932384,1.39696285 19.666436,2.58074192 20.2371919,3.76568378 C20.328064,3.95423029 20.4203895,4.14202099 20.5075988,4.32103262 C20.6985291,4.32446285 20.7119012,4.19533495 20.7345174,4.08580006 C20.8184128,3.67963727 20.8989942,3.27277681 20.9762616,2.86533495 C21.0835291,2.29934657 21.1838198,1.73202099 21.2927151,1.16638146 C21.3666105,0.782660527 21.4502733,0.400741922 21.5317849,0.00748610823 L23.4108547,0.00748610823 C22.8914942,2.70521867 22.3788779,5.31645349 21.8621919,8 L20.1489942,8 C19.4412035,6.50645349 18.7162616,5.02789308 17.9913198,3.49824192 C17.97225,3.49684657 17.9531221,3.49545122 17.9340523,3.49411402 C17.6408547,5.01039308 17.3477151,6.47174419 17.05225,8 Z" id="Fill-1" fill="#FFFFFF"></path>
                <path d="M4.38457558,3.44456355 C4.84230814,3.41427285 5.14329651,3.13340076 5.28358721,2.69247053 C5.45091279,2.1665403 5.20847093,1.72485425 4.69056395,1.69084262 C4.17155233,1.65671471 3.64852907,1.68334262 3.11300581,1.68334262 C2.9978314,2.28055192 2.8866686,2.85694727 2.77172674,3.45270309 C3.32352907,3.45270309 3.85608721,3.47950541 4.38457558,3.44456355 Z M4.21073837,8 C4.07544767,7.36831395 3.94009884,6.7812496 3.80475,6.14915657 C3.74608721,5.87502867 3.6800407,5.60206355 3.6319593,5.32607518 C3.60661047,5.18061006 3.53678488,4.99604651 3.39649419,5 C3.14480814,5.00726744 2.89265698,5.0077907 2.64102907,5 C2.48521512,4.99517442 2.42352907,5.19427285 2.39550581,5.34857518 C2.25068023,6.14712169 2.09475,6.94363332 1.94131977,7.74055192 C1.92155233,7.84334262 1.89381977,7.89313953 1.86864535,8 L-1.74418605e-05,8 C0.518587209,5.31244186 1.03236628,2.70113332 1.55329651,0.00159843524 C1.65992442,0.00159843524 1.76300581,0.0015402957 1.86614535,0.00159843524 C2.9316686,0.00223797012 3.99736628,0.0164240166 5.06265698,0.000319365472 C6.52050581,-0.0217155182 7.27393605,1.09967983 7.15498256,2.37351704 C7.05585465,3.43502867 6.54358721,4.22869146 5.6150407,4.75340076 C5.56480814,4.78177285 5.51608721,4.81281937 5.46736628,4.8437496 C5.4600407,4.84840076 5.45655233,4.85909844 5.44178488,4.88130774 C5.69544767,5.91747053 5.95184302,6.91994186 6.21626163,8 L4.21073837,8 Z" id="Fill-3" fill="#FFFFFF"></path>
                <path d="M10.4737791,1.55314101 C10.3247674,2.32023403 10.1827326,3.0887224 10.0311047,3.85529217 C9.9544186,4.24314101 9.86238372,4.62790845 9.77866279,5.0143038 C9.67866279,5.47598984 9.70546512,5.91866426 10.1198256,6.21709449 C10.5752326,6.54511775 11.0704651,6.50035031 11.5482558,6.24755961 C11.9467442,6.03668752 12.193314,5.68436194 12.2888372,5.25796659 C12.4790116,4.40883868 12.6326163,3.55162938 12.802093,2.69785031 C12.9786628,1.80825729 13.1561047,0.918838681 13.3354651,0.0176758899 L15.1931977,0.0176758899 C15.1931977,0.0900014713 15.2049419,0.164943332 15.1915116,0.235059611 C14.8630814,1.9437224 14.5311628,3.65174566 14.2018605,5.36023403 C14.0816279,5.98378054 13.8893023,6.57290845 13.452907,7.05802473 C12.8497093,7.72860612 12.0740116,8.03075729 11.199186,8.10686194 C10.5782558,8.16081542 9.96453488,8.12447822 9.37226744,7.89238519 C8.31593023,7.47854798 7.7327907,6.6065131 7.85156977,5.51860612 C7.94017442,4.70639682 8.1322093,3.90500147 8.28796512,3.10064101 C8.47331395,2.14337356 8.67122093,1.1884317 8.85796512,0.23139682 C8.88174419,0.109420076 8.8894186,-0.000463645022 9.05215116,1.47125697e-06 C9.6119186,0.00180379684 10.171686,0.000699145676 10.7845349,0.000699145676 C10.6737209,0.553315425 10.5710465,1.05273403 10.4737791,1.55314101 Z" id="Fill-6" fill="#FFFFFF"></path>
                <path d="M34.3512907,2.29838202 C33.9150116,3.15088202 33.4562907,4.07918605 33.095593,5 L34.6903023,5 C34.6004186,4.11284884 34.5140233,3.17332388 34.4276279,2.32030062 C34.4022209,2.31303318 34.3767558,2.3057076 34.3512907,2.29838202 Z M37.0562326,8 C36.388907,8 35.7898953,7.99860465 35.1908256,8 C35.0221628,8.00034884 35.0158256,7.95878899 35.0005349,7.84977736 C34.9520465,7.50524248 34.9147209,7.15919597 34.8721628,6.81384713 C34.838907,6.54378899 34.8021047,6.50995178 34.5206512,6.50907969 C33.861814,6.50704481 33.202686,6.51617271 32.5441395,6.50216109 C32.3435,6.4979169 32.251,6.57721923 32.1752442,6.7479169 C32.0069302,7.12698667 31.8292558,7.50256806 31.6365814,7.86977736 C31.5898953,7.95878899 31.4720465,7.99761628 31.384314,8 C30.7562907,8.01709302 30.1275698,8 29.4346628,8 C29.6146628,7.66098837 29.7671047,7.44687039 29.9241977,7.15716109 C30.2873953,6.48756806 30.6544302,5.8201262 31.0169302,5.15024248 C31.4298953,4.38704481 31.8372209,3.62088202 32.2515233,2.85844016 C32.7112907,2.01221923 33.1775698,1.16954481 33.6379186,0.323556434 C33.7573372,0.10413783 33.9000698,-0.0180133331 34.1834419,0.00216108554 C34.6365233,0.0343703879 35.0937907,0.0165796902 35.5489651,0.00657969019 C35.7290233,0.00262620182 35.8043721,0.061230853 35.8308837,0.245533179 C35.9878605,1.33564946 36.1556512,2.42425411 36.3212907,3.51309132 C36.5278023,4.8704169 36.7348953,6.22768434 36.9444302,7.58448667" id="Fill-9" fill="#F6B026"></path>
                <path d="M27.5037442,1.72108401 C27.3003721,1.72108401 27.0969419,1.72497936 26.893686,1.71986308 C26.7350233,1.71590959 26.6297326,1.78108401 26.5982209,1.93701424 C26.5142093,2.35259563 26.4263023,2.76777005 26.3593837,3.18620029 C26.3219419,3.42050261 26.3896163,3.48009563 26.632407,3.47608401 C26.9804302,3.47038633 27.328686,3.44381656 27.6762442,3.45201424 C28.2281628,3.46492122 28.7497326,2.97631656 28.709907,2.37172354 C28.6839767,1.9775375 28.4884535,1.74957238 28.0845581,1.72817703 C27.8914767,1.71794447 27.697407,1.72643284 27.5037442,1.72643284 L27.5037442,1.72108401 Z M23.7000814,7.08631656 C23.9251395,5.9200375 24.1529884,4.75428168 24.3826977,3.5888747 C24.5676977,2.65038633 24.758686,1.71306075 24.9424651,0.774339821 C24.9721163,0.622944472 24.9694419,0.465328193 24.9964186,0.31317703 C25.0408372,0.0624793556 25.1146163,0.00463051842 25.3663605,0.00486307656 C26.4127558,0.00590958819 27.4601395,0.0363165649 28.505314,0.000967727724 C29.3239767,-0.0267066909 30.173686,0.541200286 30.4351395,1.44486308 C30.884907,2.99928168 30.0071163,4.67587209 28.3057209,5 C28.1081047,5.03767442 27.9019419,4.9969186 27.6995,5 C27.2054302,5.00738372 26.711186,5.00709302 26.2171744,5 C26.0071163,4.99697674 25.9322326,5.25486308 25.8977558,5.44713052 C25.7544419,6.24567703 25.594907,7.0413747 25.4536279,7.84032819 C25.4179302,8.0425375 25.3441512,8.01122093 25.1296163,8 C24.7149651,7.97831395 24.2978721,7.99732558 23.8818256,8 C23.7877558,8.00063953 23.6935698,8.01593023 23.5329884,8 C23.5935116,7.64261628 23.6402558,7.39672354 23.7000814,7.08631656 Z" id="Fill-11" fill="#F6B026"></path>
                <path d="M41.2996744,2.62492415 C41.5700814,2.26213346 41.8549651,1.90934276 42.1103721,1.53626136 C42.3660698,1.16283113 42.6010698,0.774342759 42.8293256,0.383179969 C42.951186,0.174342759 43.1046744,0.0927148524 43.3485116,0.103238108 C43.7833953,0.121959038 44.2196163,0.107947411 44.6552558,0.109400899 C44.7482791,0.109749736 44.8413605,0.117947411 44.9979302,0.125679969 C44.8151977,0.401086945 44.6672326,0.633238108 44.5101977,0.859110201 C43.8894419,1.7521916 43.2655465,2.64323811 42.6433372,3.53533113 C42.3631628,3.93701718 42.0683953,4.32986602 41.8118256,4.74614508 C41.6991512,4.92887764 41.6429302,5.15567997 41.5996744,5.37021485 C41.4317093,6.20294741 41.2733953,7.03771485 41.125314,7.87416834 C41.0881047,8.08428462 41.0097907,8.00883721 40.7867674,8 C40.3227558,7.98139535 39.2996163,8.01261628 39.2012442,8 C39.2350814,7.76540698 39.2596744,7.66457532 39.3006628,7.44352881 C39.4432791,6.67422648 39.5993256,5.90736602 39.7311279,5.13626136 C39.7574651,4.98242415 39.7221163,4.80742415 39.6763605,4.65376136 C39.4372326,3.85067997 39.2220581,3.03754043 38.9267674,2.25498229 C38.6879884,1.62230788 38.4850814,0.983179969 38.3124651,0.331900899 C38.2484535,0.090389271 38.3010698,0.00678461985 38.5406047,0.00364508497 C38.9821744,-0.00211072898 39.4238023,-0.000540961542 39.8653721,0.00480787567 C40.2515349,0.00951717799 40.2657791,0.103412527 40.4005465,0.462191597 C40.5520581,0.865621829 40.5657791,1.2844009 40.6703721,1.68963346 C40.7507209,2.00073811 40.7888023,2.32265671 40.8621744,2.63591253 C40.8856047,2.73614508 40.9618837,2.82405206 41.0140349,2.91765671 C41.0438605,2.9138195 41.0736279,2.90998229 41.1034535,2.90620322 C41.1687442,2.81230788 41.2313605,2.71655206 41.2996744,2.62492415 Z" id="Fill-13" fill="#F6B026"></path>
            </g>
        </g>
    </g>
</svg>