<?xml version="1.0" encoding="UTF-8"?>
<svg width="60px" height="60px" viewBox="0 0 60 60" version="1.1" xmlns="http://www.w3.org/2000/svg" xmlns:xlink="http://www.w3.org/1999/xlink">
    <!-- Generator: Sketch 41.2 (35397) - http://www.bohemiancoding.com/sketch -->
    <title>sberbank</title>
    <desc>Created with Sketch.</desc>
    <defs>
        <path d="M30,60 C46.5685425,60 60,46.5685425 60,30 C60,13.4314575 46.5685425,0 30,0 C13.4314575,0 0,13.4314575 0,30 C0,46.5685425 13.4314575,60 30,60 Z" id="path-1"></path>
    </defs>
    <g id="Symbols" stroke="none" stroke-width="1" fill="none" fill-rule="evenodd">
        <g id="sberbank">
            <g id="Group">
                <g id="Group-39">
                    <g id="Oval-5-+-Shape-5-Copy-27">
                        <g id="Page-1">
                            <mask id="mask-2" fill="white">
                                <use xlink:href="#path-1"></use>
                            </mask>
                            <use id="Mask" fill="#007346" xlink:href="#path-1"></use>
                            <g id="Group-2" mask="url(#mask-2)" fill="#FFFFFF">
                                <g transform="translate(14.000000, 14.000000)" id="Fill-1-path">
                                    <path d="M30.041158,6.28205498 C29.8432894,5.97328472 29.6363284,5.67166917 29.4200584,5.37653757 C29.3250209,5.24775287 29.2278184,5.12030968 29.1291007,4.99487875 C29.0760615,4.92668546 29.0228058,4.85893934 28.9684678,4.7916404 L9.94883633,16.0891438 L0.722617833,10.609981 C0.597272192,11.0294257 0.487946548,11.4555778 0.39399144,11.8862016 C0.351993072,12.0804966 0.312809029,12.2756858 0.277305256,12.4724403 L9.94883633,18.2187867 L30.041158,6.28205498 L30.041158,6.28205498 Z"></path>
                                    <path d="M32.5511016,13.0378856 C32.2826584,11.2389243 31.74036,9.49228189 30.9397931,7.8746477 L9.94883633,20.3439578 L0.0374382959,14.456306 C0.0183874905,14.7509904 0.00583127779,15.0483579 0.00128506285,15.3481847 C-0.0121370955,16.4533631 0.079653149,17.5598831 0.2734085,18.6500813 C0.625198942,20.6270159 1.29760578,22.458844 2.22936335,24.1019669 C3.40834843,26.1929295 5.00406987,27.9773577 6.87970827,29.3573216 C8.1422571,30.2858682 9.53794509,31.0301812 11.0055066,31.5576171 C11.6456569,31.7883564 12.3098372,31.9784032 12.9813782,32.1282048 C13.9293722,32.3345734 14.9085403,32.4553091 15.9091406,32.484375 L16.8207649,32.484375 C17.3554864,32.4685005 17.8943212,32.4253487 18.4353207,32.3538017 C20.7201184,32.0521861 22.9393208,31.2551072 24.9065329,30.013095 C26.8066343,28.812446 28.4343957,27.2301382 29.7047381,25.3866836 C31.0413252,23.4488764 31.9815258,21.2230922 32.4339825,18.8497423 C32.4924338,18.5438787 32.5430916,18.2355555 32.5853064,17.9249966 C32.6872716,17.1605611 32.7405272,16.3789095 32.7405272,15.5847372 C32.7405272,15.4367242 32.7387953,15.2887112 32.7351151,15.1411454 C32.7169302,14.4451268 32.6556645,13.7428477 32.5511016,13.0378856 L32.5511016,13.0378856 Z"></path>
                                    <path d="M24.6292139,0.990255952 C24.0146089,0.618211268 23.3753245,0.287082557 22.7165562,0 L9.94883633,7.58465854 L4.26260387,4.20674322 C3.85777425,4.66710381 3.47697463,5.15071717 3.12301932,5.65400599 L9.94883633,9.71117115 L24.6292139,0.990255952 L24.6292139,0.990255952 Z"></path>
                                    <path d="M27.7219389,3.40608697 C27.2666679,2.95444619 26.7858516,2.52918837 26.2831702,2.13433807 L9.94883633,11.8390253 L2.15251068,7.2061299 C1.85657373,7.74094414 1.58899651,8.29252721 1.3515109,8.85730178 L9.94883633,13.9635256 L27.7219389,3.40608697 L27.7219389,3.40608697 Z"></path>
                                </g>
                            </g>
                        </g>
                    </g>
                </g>
            </g>
        </g>
    </g>
</svg>