<?xml version="1.0" encoding="UTF-8"?>
<svg width="60px" height="60px" viewBox="0 0 60 60" version="1.1" xmlns="http://www.w3.org/2000/svg" xmlns:xlink="http://www.w3.org/1999/xlink">
    <!-- Generator: Sketch 51.2 (57519) - http://www.bohemiancoding.com/sketch -->
    <title>brand-logo_name_tbcbank</title>
    <desc>Created with Sketch.</desc>
    <defs></defs>
    <g id="Page-1" stroke="none" stroke-width="1" fill="none" fill-rule="evenodd">
        <g id="brand-logo_name_tbcbank">
            <rect id="Rectangle" fill="#03ADED" x="0" y="0" width="60" height="60"></rect>
            <g id="Group-2" transform="translate(13.000000, 12.000000)" fill="#FFFFFF">
                <path d="M1.88053846,30.3859845 C2.61546154,30.1037903 3.36476923,29.8554565 4.10169231,29.5777867 C6.81315385,28.556283 9.368,27.2457985 11.7916923,25.7146376 C13.2611538,24.78625 14.6993077,23.8080935 16.0992308,22.7876115 C17.1697692,22.0072901 18.3026154,21.8279906 19.5683846,22.1560861 C21.5256923,22.6633351 23.4025385,23.3710464 25.2283846,24.2044205 C28.0394615,25.4875395 30.692,27.0214004 33.2026154,28.7755728 C33.5616923,29.0265337 33.9058462,29.3080712 34.208,29.6184337 C34.7440769,30.1689569 34.5633077,30.7292588 33.7919231,30.87156 C33.2810769,30.9658436 32.7498462,30.9944498 32.2276923,30.9948147 C22.4115385,31.0017473 12.5953077,31.0013095 2.77915385,30.9959823 C2.32615385,30.9956904 1.87315385,30.9354131 1.42007692,30.9030852 C1.39815385,30.8437565 1.37615385,30.7843549 1.35415385,30.7250262 C1.52876923,30.6099447 1.68838462,30.4597622 1.88053846,30.3859845 Z" id="Fill-1"></path>
                <path d="M16.7255077,0.365492308 C16.7255077,0.520953846 16.7443538,0.679184615 16.7226615,0.831646154 C16.4718154,2.59156923 16.0999692,4.34349231 15.9883538,6.11195385 C15.8458154,8.36949231 15.8390462,10.6425692 15.9114308,12.9045692 C15.9698154,14.7302615 16.2321231,16.5494923 16.4045846,18.3714154 C16.4792,19.1604154 16.3138923,19.9104923 15.7740462,20.4804154 C14.9318154,21.3697231 14.0655846,22.2494923 13.1223538,23.0275692 C9.70950769,25.8431846 5.87343077,27.9601077 1.82443077,29.7070308 C1.51066154,29.8424154 1.17273846,29.9508 0.835815385,29.9977231 C0.187123077,30.0880308 -0.135261538,29.7273385 0.0535076923,29.1056462 C0.185969231,28.6694923 0.377507692,28.2413385 0.605353846,27.8457231 C3.83189231,22.2448769 7.06966154,16.6504923 10.3035077,11.0538769 C12.1797385,7.80687692 14.0518923,4.55749231 15.9320462,1.31264615 C16.1320462,0.967415385 16.3733538,0.646030769 16.5955077,0.313569231 C16.6388923,0.330876923 16.6822,0.348184615 16.7255077,0.365492308" id="Fill-4"></path>
                <path d="M34.8407769,29.0402154 C34.6648538,28.9312923 34.4784692,28.8361385 34.3147769,28.7112923 C33.0520077,27.7484462 31.8257769,26.7341385 30.5274692,25.8222154 C27.3703923,23.6047538 23.9559308,21.8546769 20.3895462,20.3944462 C20.1650846,20.3026 19.9472385,20.1942154 19.7221615,20.1038308 C18.6250846,19.6635231 18.0508538,18.8001385 17.7702385,17.6989077 C17.0487,14.8671385 16.7307,11.9869077 16.6740846,9.06775385 C16.6269308,6.64221538 16.7617,4.22906154 17.0206231,1.82075385 C17.0640077,1.41706154 17.1530846,1.00783077 17.2923923,0.627292308 C17.5232385,-0.00355384615 18.0001615,-0.109246154 18.4267,0.399676923 C18.8095462,0.856523077 19.1274692,1.37483077 19.4275462,1.89290769 C21.7058538,5.82667692 23.9709308,9.76813846 26.2437,13.7052154 C29.0346231,18.5397538 31.8298538,23.3719077 34.6191615,28.2074462 C34.7504692,28.4350615 34.8417769,28.6857538 34.9517769,28.9256769 C34.9147769,28.9638308 34.8777769,29.0020615 34.8407769,29.0402154" id="Fill-7"></path>
            </g>
        </g>
    </g>
</svg>