<?xml version="1.0" encoding="UTF-8"?>
<svg width="40px" height="40px" viewBox="0 0 40 40" version="1.1" xmlns="http://www.w3.org/2000/svg" xmlns:xlink="http://www.w3.org/1999/xlink">
    <!-- Generator: Sketch 50.2 (55047) - http://www.bohemiancoding.com/sketch -->
    <title>brand-logo_name_visa</title>
    <desc>Created with Sketch.</desc>
    <defs></defs>
    <g id="Page-1" stroke="none" stroke-width="1" fill="none" fill-rule="evenodd">
        <g id="brand-logo_name_visa">
            <rect id="Rectangle-5" fill="#182E66" x="0" y="0" width="40" height="40"></rect>
            <path d="M19.1145683,15.5417819 L17.0745991,25.0765714 L14.6082642,25.0765714 L16.6483748,15.5417819 L19.1145683,15.5417819 Z M29.491914,21.6984332 L30.7905131,18.1179232 L31.5378187,21.6984332 L29.491914,21.6984332 Z M32.2438587,25.0765714 L34.5253456,25.0765714 L32.5345561,15.5417819 L30.4284485,15.5417819 C29.955447,15.5417819 29.5560737,15.8170753 29.3785745,16.2413211 L25.6780829,25.0765714 L28.2679324,25.0765714 L28.782341,23.6527619 L31.9468019,23.6527619 L32.2438587,25.0765714 Z M25.8066851,21.9635515 C25.8171429,19.4469063 22.3262304,19.3082703 22.3505377,18.1840615 C22.357745,17.8419232 22.6837727,17.4783041 23.3964547,17.3851736 C23.7504639,17.3389616 24.7237419,17.30349 25.8288725,17.8121045 L26.2615975,15.7902243 C25.6681905,15.5745683 24.9042089,15.3673917 23.9543902,15.3673917 C21.5166021,15.3673917 19.8003994,16.6635883 19.7859847,18.5195576 C19.7705807,19.8920676 21.0108141,20.657745 21.9456529,21.114212 C22.9063533,21.581702 23.2292719,21.88102 23.2251736,22.2989063 C23.2188141,22.9390906 22.4585069,23.2210261 21.7493579,23.2321905 C20.5089831,23.2518341 19.7893763,22.8974009 19.2156129,22.6300215 L18.7686145,24.7191705 C19.3449217,24.9840061 20.4085039,25.2139355 21.5120799,25.2258065 C24.1029186,25.2258065 25.7982059,23.9454378 25.8066851,21.9635515 Z M15.5900215,15.5417819 L11.593745,25.0765714 L8.98608907,25.0765714 L7.01974807,17.4671398 C6.90019047,16.9983779 6.7964608,16.8269555 6.43312443,16.6295299 C5.84098925,16.3078833 4.86163441,16.0060215 4,15.8187711 L4.05893087,15.5417819 L8.25574193,15.5417819 C8.79064207,15.5417819 9.27184027,15.8977696 9.393235,16.513788 L10.4319447,22.0316682 L12.9987588,15.5417819 L15.5900215,15.5417819 Z" id="Shape" fill="#FFFFFF" fill-rule="nonzero"></path>
        </g>
    </g>
</svg>