<svg xmlns="http://www.w3.org/2000/svg" width="60" height="60" viewBox="0 0 60 60">
  <g fill="none">
    <path fill="#0068A3" d="M30,60 C46.5656566,60 60,46.5656566 60,30 C60,13.4343434 46.5656566,0 30,0 C13.4343434,0 0,13.4343434 0,30 C0,46.5656566 13.4343434,60 30,60 Z"/>
    <g fill="#FFF" transform="translate(17 17)">
      <path d="M13.37985,0 C15.48072,0 17.47035,0.48924 19.24236,1.35783 C19.52073,1.48986 19.79829,1.63512 20.07666,1.7955 L18.84492,2.89791 L16.99434,0.98442 L13.87098,3.77028 L12.01581,1.74555 L6.19758,6.99003 L9.92763,11.10078 L8.4618,12.39003 L12.13569,16.50699 L10.6785,17.79327 L15.92838,23.63688 L19.04472,20.76786 L21.73905,23.84235 C21.2031,24.25896 20.61936,24.651 19.97622,25.01334 C18.0279,26.12439 15.7761,26.76051 13.37985,26.76051 C6.01047,26.76051 0,20.74923 0,13.38066 C0,6.01047 6.01047,0 13.37985,0"/>
      <polyline points="10.8 12.585 13.982 9.72 16.847 12.902 13.665 15.767 10.8 12.585"/>
      <polyline points="13.23 17.984 16.412 15.12 19.277 18.302 16.096 21.167 13.23 17.984"/>
      <polyline points="8.64 7.184 11.822 4.32 14.686 7.502 11.504 10.366 8.64 7.184"/>
      <polyline points="14.31 5.658 16.696 3.51 18.845 5.896 16.458 8.045 14.31 5.658"/>
      <polyline points="18.63 15.379 21.017 13.23 23.165 15.617 20.779 17.765 18.63 15.379"/>
      <polyline points="20.79 20.239 23.176 18.09 25.325 20.476 22.938 22.625 20.79 20.239"/>
      <polyline points="21.6 9.262 23.191 7.83 24.623 9.421 23.033 10.853 21.6 9.262"/>
      <polyline points="19.71 4.402 21.301 2.97 22.733 4.561 21.142 5.993 19.71 4.402"/>
      <polyline points="23.76 13.852 25.351 12.42 26.783 14.011 25.192 15.443 23.76 13.852"/>
      <polyline points="16.74 10.249 19.126 8.1 21.274 10.486 18.889 12.635 16.74 10.249"/>
    </g>
  </g>
</svg>
