<svg width="312" height="312" viewBox="0 0 312 312" fill="none" xmlns="http://www.w3.org/2000/svg">
<g filter="url(#filter0_d)">
<rect x="10" y="10" width="262" height="262" rx="15" fill="white"/>
<rect x="10.5" y="10.5" width="261" height="261" rx="14.5" stroke="#F2F8FF"/>
</g>
<path d="M41.7793 132.491V137H39.1426V124.203H44.1348C45.0957 124.203 45.9395 124.379 46.666 124.73C47.3984 125.082 47.9609 125.583 48.3535 126.233C48.7461 126.878 48.9424 127.613 48.9424 128.439C48.9424 129.693 48.5117 130.684 47.6504 131.41C46.7949 132.131 45.6084 132.491 44.0908 132.491H41.7793ZM41.7793 130.355H44.1348C44.832 130.355 45.3623 130.191 45.7256 129.863C46.0947 129.535 46.2793 129.066 46.2793 128.457C46.2793 127.83 46.0947 127.323 45.7256 126.937C45.3564 126.55 44.8467 126.351 44.1963 126.339H41.7793V130.355ZM56 137C55.8828 136.771 55.7979 136.487 55.7451 136.147C55.1299 136.833 54.3301 137.176 53.3457 137.176C52.4141 137.176 51.6406 136.906 51.0254 136.367C50.416 135.828 50.1113 135.148 50.1113 134.328C50.1113 133.32 50.4834 132.547 51.2275 132.008C51.9775 131.469 53.0586 131.196 54.4707 131.19H55.6396V130.646C55.6396 130.206 55.5254 129.854 55.2969 129.591C55.0742 129.327 54.7197 129.195 54.2334 129.195C53.8057 129.195 53.4688 129.298 53.2227 129.503C52.9824 129.708 52.8623 129.989 52.8623 130.347H50.3223C50.3223 129.796 50.4922 129.286 50.832 128.817C51.1719 128.349 51.6523 127.982 52.2734 127.719C52.8945 127.449 53.5918 127.314 54.3652 127.314C55.5371 127.314 56.4658 127.61 57.1514 128.202C57.8428 128.788 58.1885 129.614 58.1885 130.681V134.803C58.1943 135.705 58.3203 136.388 58.5664 136.851V137H56ZM53.8994 135.233C54.2744 135.233 54.6201 135.151 54.9365 134.987C55.2529 134.817 55.4873 134.592 55.6396 134.311V132.676H54.6904C53.4189 132.676 52.7422 133.115 52.6602 133.994L52.6514 134.144C52.6514 134.46 52.7627 134.721 52.9854 134.926C53.208 135.131 53.5127 135.233 53.8994 135.233ZM60.3066 137V127.49H64.2793C65.5742 127.49 66.5674 127.719 67.2588 128.176C67.9502 128.633 68.2959 129.289 68.2959 130.145C68.2959 130.584 68.1494 130.979 67.8564 131.331C67.5693 131.677 67.1475 131.943 66.5908 132.131C67.2705 132.26 67.8037 132.515 68.1904 132.896C68.583 133.271 68.7793 133.733 68.7793 134.284C68.7793 135.169 68.4453 135.843 67.7773 136.306C67.1152 136.769 66.1514 137 64.8857 137H60.3066ZM62.8467 133.054V134.97H64.8945C65.791 134.97 66.2393 134.656 66.2393 134.029C66.2393 133.391 65.8115 133.065 64.9561 133.054H62.8467ZM62.8467 131.349H64.4199C65.3105 131.337 65.7559 131.05 65.7559 130.487C65.7559 130.142 65.6328 129.896 65.3867 129.749C65.1465 129.603 64.7773 129.529 64.2793 129.529H62.8467V131.349ZM78.5791 137H76.0303V133.344H72.875V137H70.335V127.49H72.875V131.305H76.0303V127.49H78.5791V137ZM83.2637 130.276H85.083C85.9033 130.276 86.624 130.414 87.2451 130.689C87.8662 130.965 88.3408 131.36 88.6689 131.876C89.0029 132.386 89.1699 132.98 89.1699 133.66C89.1699 134.662 88.7979 135.471 88.0537 136.086C87.3154 136.695 86.3076 137 85.0303 137H80.7148V127.49H83.2637V130.276ZM93.2129 137H90.6729V127.49H93.2129V137ZM83.2637 132.315V134.97H85.0654C85.5693 134.97 85.9561 134.853 86.2256 134.618C86.4951 134.384 86.6299 134.064 86.6299 133.66C86.6299 133.25 86.498 132.925 86.2344 132.685C85.9707 132.438 85.5811 132.315 85.0654 132.315H83.2637ZM101.246 134.003L103.733 127.49H106.915V137H104.375V131.164L102.099 137H100.394L98.1611 131.261V137H95.6211V127.49H98.7764L101.246 134.003ZM113.217 132.157C113.217 131.214 113.398 130.373 113.762 129.635C114.125 128.896 114.646 128.325 115.326 127.921C116.012 127.517 116.806 127.314 117.708 127.314C118.991 127.314 120.037 127.707 120.846 128.492C121.66 129.277 122.114 130.344 122.208 131.691L122.226 132.342C122.226 133.801 121.818 134.973 121.004 135.857C120.189 136.736 119.097 137.176 117.726 137.176C116.354 137.176 115.259 136.736 114.438 135.857C113.624 134.979 113.217 133.783 113.217 132.271V132.157ZM115.757 132.342C115.757 133.244 115.927 133.936 116.267 134.416C116.606 134.891 117.093 135.128 117.726 135.128C118.341 135.128 118.821 134.894 119.167 134.425C119.513 133.95 119.686 133.194 119.686 132.157C119.686 131.272 119.513 130.587 119.167 130.101C118.821 129.614 118.335 129.371 117.708 129.371C117.087 129.371 116.606 129.614 116.267 130.101C115.927 130.581 115.757 131.328 115.757 132.342ZM128.51 128.018C129.729 128.018 130.701 128.422 131.428 129.23C132.154 130.039 132.518 131.138 132.518 132.526V132.649C132.518 134.021 132.113 135.119 131.305 135.945C130.496 136.771 129.409 137.185 128.044 137.185C126.673 137.185 125.58 136.739 124.766 135.849C123.957 134.952 123.553 133.736 123.553 132.201V131.779C123.564 129.641 123.925 127.968 124.634 126.761C125.349 125.548 126.421 124.783 127.851 124.467C128.601 124.303 129.084 124.142 129.301 123.983C129.518 123.819 129.626 123.594 129.626 123.307H131.683C131.683 124.227 131.434 124.918 130.936 125.381C130.443 125.844 129.564 126.201 128.299 126.453C127.549 126.605 126.957 126.901 126.523 127.341C126.09 127.78 125.797 128.398 125.645 129.195C126.453 128.41 127.408 128.018 128.51 128.018ZM128.026 130.074C127.423 130.074 126.948 130.276 126.603 130.681C126.263 131.085 126.093 131.741 126.093 132.649C126.093 133.458 126.26 134.076 126.594 134.504C126.928 134.926 127.411 135.137 128.044 135.137C128.659 135.137 129.134 134.929 129.468 134.513C129.802 134.097 129.972 133.484 129.978 132.676V132.465C129.978 131.686 129.805 131.094 129.459 130.689C129.119 130.279 128.642 130.074 128.026 130.074ZM142.44 132.333C142.44 133.798 142.106 134.973 141.438 135.857C140.776 136.736 139.88 137.176 138.749 137.176C137.788 137.176 137.012 136.842 136.42 136.174V140.656H133.88V127.49H136.235L136.323 128.422C136.938 127.684 137.741 127.314 138.731 127.314C139.903 127.314 140.814 127.748 141.465 128.615C142.115 129.482 142.44 130.678 142.44 132.201V132.333ZM139.9 132.148C139.9 131.264 139.742 130.581 139.426 130.101C139.115 129.62 138.661 129.38 138.063 129.38C137.267 129.38 136.719 129.685 136.42 130.294V134.188C136.73 134.814 137.284 135.128 138.081 135.128C139.294 135.128 139.9 134.135 139.9 132.148ZM149.533 137C149.416 136.771 149.331 136.487 149.278 136.147C148.663 136.833 147.863 137.176 146.879 137.176C145.947 137.176 145.174 136.906 144.559 136.367C143.949 135.828 143.645 135.148 143.645 134.328C143.645 133.32 144.017 132.547 144.761 132.008C145.511 131.469 146.592 131.196 148.004 131.19H149.173V130.646C149.173 130.206 149.059 129.854 148.83 129.591C148.607 129.327 148.253 129.195 147.767 129.195C147.339 129.195 147.002 129.298 146.756 129.503C146.516 129.708 146.396 129.989 146.396 130.347H143.855C143.855 129.796 144.025 129.286 144.365 128.817C144.705 128.349 145.186 127.982 145.807 127.719C146.428 127.449 147.125 127.314 147.898 127.314C149.07 127.314 149.999 127.61 150.685 128.202C151.376 128.788 151.722 129.614 151.722 130.681V134.803C151.728 135.705 151.854 136.388 152.1 136.851V137H149.533ZM147.433 135.233C147.808 135.233 148.153 135.151 148.47 134.987C148.786 134.817 149.021 134.592 149.173 134.311V132.676H148.224C146.952 132.676 146.275 133.115 146.193 133.994L146.185 134.144C146.185 134.46 146.296 134.721 146.519 134.926C146.741 135.131 147.046 135.233 147.433 135.233ZM158.665 130.294C158.665 129.96 158.554 129.702 158.331 129.521C158.114 129.333 157.804 129.239 157.399 129.239C156.983 129.239 156.644 129.327 156.38 129.503C156.122 129.673 155.993 129.916 155.993 130.232H153.453C153.453 129.371 153.811 128.671 154.525 128.132C155.24 127.593 156.154 127.323 157.268 127.323C158.492 127.323 159.453 127.563 160.15 128.044C160.854 128.524 161.205 129.207 161.205 130.092C161.205 130.514 161.076 130.903 160.818 131.261C160.566 131.612 160.209 131.894 159.746 132.104C160.83 132.485 161.372 133.221 161.372 134.311C161.372 135.184 160.997 135.881 160.247 136.402C159.503 136.918 158.51 137.176 157.268 137.176C156.113 137.176 155.164 136.906 154.42 136.367C153.676 135.828 153.304 135.102 153.304 134.188H155.844C155.844 134.51 155.987 134.771 156.274 134.97C156.562 135.169 156.937 135.269 157.399 135.269C157.851 135.269 158.202 135.163 158.454 134.952C158.706 134.741 158.832 134.466 158.832 134.126C158.832 133.71 158.712 133.414 158.472 133.238C158.231 133.057 157.871 132.966 157.391 132.966H156.011V131.313H157.479C158.27 131.29 158.665 130.95 158.665 130.294ZM162.523 132.157C162.523 131.214 162.705 130.373 163.068 129.635C163.432 128.896 163.953 128.325 164.633 127.921C165.318 127.517 166.112 127.314 167.015 127.314C168.298 127.314 169.344 127.707 170.152 128.492C170.967 129.277 171.421 130.344 171.515 131.691L171.532 132.342C171.532 133.801 171.125 134.973 170.311 135.857C169.496 136.736 168.403 137.176 167.032 137.176C165.661 137.176 164.565 136.736 163.745 135.857C162.931 134.979 162.523 133.783 162.523 132.271V132.157ZM165.063 132.342C165.063 133.244 165.233 133.936 165.573 134.416C165.913 134.891 166.399 135.128 167.032 135.128C167.647 135.128 168.128 134.894 168.474 134.425C168.819 133.95 168.992 133.194 168.992 132.157C168.992 131.272 168.819 130.587 168.474 130.101C168.128 129.614 167.642 129.371 167.015 129.371C166.394 129.371 165.913 129.614 165.573 130.101C165.233 130.581 165.063 131.328 165.063 132.342ZM178.889 134.003L181.376 127.49H184.558V137H182.018V131.164L179.741 137H178.036L175.804 131.261V137H173.264V127.49H176.419L178.889 134.003ZM199.815 132.333C199.815 133.798 199.481 134.973 198.813 135.857C198.151 136.736 197.255 137.176 196.124 137.176C195.163 137.176 194.387 136.842 193.795 136.174V140.656H191.255V127.49H193.61L193.698 128.422C194.313 127.684 195.116 127.314 196.106 127.314C197.278 127.314 198.189 127.748 198.84 128.615C199.49 129.482 199.815 130.678 199.815 132.201V132.333ZM197.275 132.148C197.275 131.264 197.117 130.581 196.801 130.101C196.49 129.62 196.036 129.38 195.438 129.38C194.642 129.38 194.094 129.685 193.795 130.294V134.188C194.105 134.814 194.659 135.128 195.456 135.128C196.669 135.128 197.275 134.135 197.275 132.148ZM206.908 137C206.791 136.771 206.706 136.487 206.653 136.147C206.038 136.833 205.238 137.176 204.254 137.176C203.322 137.176 202.549 136.906 201.934 136.367C201.324 135.828 201.02 135.148 201.02 134.328C201.02 133.32 201.392 132.547 202.136 132.008C202.886 131.469 203.967 131.196 205.379 131.19H206.548V130.646C206.548 130.206 206.434 129.854 206.205 129.591C205.982 129.327 205.628 129.195 205.142 129.195C204.714 129.195 204.377 129.298 204.131 129.503C203.891 129.708 203.771 129.989 203.771 130.347H201.23C201.23 129.796 201.4 129.286 201.74 128.817C202.08 128.349 202.561 127.982 203.182 127.719C203.803 127.449 204.5 127.314 205.273 127.314C206.445 127.314 207.374 127.61 208.06 128.202C208.751 128.788 209.097 129.614 209.097 130.681V134.803C209.103 135.705 209.229 136.388 209.475 136.851V137H206.908ZM204.808 135.233C205.183 135.233 205.528 135.151 205.845 134.987C206.161 134.817 206.396 134.592 206.548 134.311V132.676H205.599C204.327 132.676 203.65 133.115 203.568 133.994L203.56 134.144C203.56 134.46 203.671 134.721 203.894 134.926C204.116 135.131 204.421 135.233 204.808 135.233ZM216.84 134.003L219.327 127.49H222.509V137H219.969V131.164L217.692 137H215.987L213.755 131.261V137H211.215V127.49H214.37L216.84 134.003ZM228.45 133.493H227.431V137H224.891V127.49H227.431V131.067H228.336L230.41 127.49H233.618L230.507 132.017L233.908 137H230.524L228.45 133.493ZM240.597 127.49H243.137V137H240.597V131.129L237.415 137H234.866V127.49H237.415V133.353L240.597 127.49Z" fill="#040E1A"/>
<path d="M44.709 162.2C44.709 161.633 44.5015 161.184 44.0864 160.852C43.6763 160.515 43.0977 160.347 42.3506 160.347C41.7256 160.347 41.2007 160.52 40.7759 160.867C40.356 161.208 40.146 161.633 40.146 162.141H38.7397C38.7397 161.575 38.8936 161.067 39.2012 160.618C39.5137 160.168 39.9482 159.819 40.5049 159.57C41.0615 159.316 41.6768 159.189 42.3506 159.189C43.542 159.189 44.4673 159.458 45.1265 159.995C45.7856 160.527 46.1152 161.27 46.1152 162.222C46.1152 162.715 45.9639 163.164 45.6611 163.569C45.3584 163.975 44.936 164.294 44.394 164.529C45.6489 164.949 46.2764 165.781 46.2764 167.026C46.2764 167.983 45.9199 168.743 45.207 169.304C44.4941 169.866 43.542 170.146 42.3506 170.146C41.6426 170.146 40.998 170.022 40.417 169.773C39.8408 169.519 39.3916 169.16 39.0693 168.696C38.7471 168.232 38.5859 167.681 38.5859 167.041H39.9922C39.9922 167.603 40.2144 168.071 40.6587 168.447C41.103 168.818 41.667 169.004 42.3506 169.004C43.1172 169.004 43.7275 168.826 44.1816 168.469C44.6406 168.113 44.8701 167.642 44.8701 167.056C44.8701 165.806 44.0962 165.168 42.5483 165.144H41.23V163.987H42.541C43.2539 163.972 43.7935 163.811 44.1597 163.503C44.5259 163.196 44.709 162.761 44.709 162.2ZM54.4062 170H53.0513V166.616H49.4111V170H48.0488V162.075H49.4111V165.51H53.0513V162.075H54.4062V170ZM61.4814 170C61.4033 169.844 61.3398 169.565 61.291 169.165C60.6611 169.819 59.9092 170.146 59.0352 170.146C58.2539 170.146 57.6118 169.927 57.1089 169.487C56.6108 169.043 56.3618 168.481 56.3618 167.803C56.3618 166.978 56.6743 166.338 57.2993 165.884C57.9292 165.425 58.813 165.195 59.9507 165.195H61.269V164.573C61.269 164.099 61.1274 163.723 60.8442 163.445C60.561 163.162 60.1436 163.02 59.5918 163.02C59.1084 163.02 58.7031 163.142 58.376 163.386C58.0488 163.63 57.8853 163.926 57.8853 164.272H56.5229C56.5229 163.877 56.6621 163.496 56.9404 163.13C57.2236 162.759 57.6045 162.466 58.083 162.251C58.5664 162.036 59.0962 161.929 59.6724 161.929C60.5854 161.929 61.3008 162.158 61.8184 162.617C62.3359 163.071 62.6045 163.699 62.624 164.5V168.147C62.624 168.875 62.7168 169.453 62.9023 169.883V170H61.4814ZM59.2329 168.967C59.6577 168.967 60.0605 168.857 60.4414 168.638C60.8223 168.418 61.0981 168.132 61.269 167.781V166.155H60.207C58.5469 166.155 57.7168 166.641 57.7168 167.612C57.7168 168.037 57.8584 168.369 58.1416 168.608C58.4248 168.848 58.7886 168.967 59.2329 168.967ZM70.7319 170H69.3696V167.129C68.7739 167.285 68.1636 167.363 67.5386 167.363C66.5474 167.363 65.7905 167.109 65.2681 166.602C64.7505 166.094 64.4868 165.371 64.4771 164.434V162.068H65.832V164.478C65.8564 165.659 66.4253 166.25 67.5386 166.25C68.1636 166.25 68.7739 166.172 69.3696 166.016V162.075H70.7319V170ZM78.0342 162.075H79.3892V170H78.0342V164.221L74.3794 170H73.0244V162.075H74.3794V167.861L78.0342 162.075ZM86.1274 168.206L88.8228 162.075H90.5146V170H89.1597V164.236L86.5962 170H85.6587L83.0439 164.111V170H81.689V162.075H83.4468L86.1274 168.206ZM92.3384 165.964C92.3384 165.188 92.4897 164.49 92.7925 163.87C93.1001 163.25 93.5249 162.771 94.0669 162.434C94.6138 162.097 95.2363 161.929 95.9346 161.929C97.0137 161.929 97.8853 162.302 98.5493 163.049C99.2183 163.796 99.5527 164.79 99.5527 166.03V166.125C99.5527 166.897 99.4038 167.59 99.106 168.206C98.813 168.816 98.3906 169.292 97.8389 169.634C97.292 169.976 96.6621 170.146 95.9492 170.146C94.875 170.146 94.0034 169.773 93.3345 169.026C92.6704 168.279 92.3384 167.29 92.3384 166.06V165.964ZM93.7007 166.125C93.7007 167.004 93.9033 167.71 94.3086 168.242C94.7188 168.774 95.2656 169.041 95.9492 169.041C96.6377 169.041 97.1846 168.772 97.5898 168.235C97.9951 167.693 98.1978 166.936 98.1978 165.964C98.1978 165.095 97.9902 164.392 97.5752 163.855C97.165 163.313 96.6182 163.042 95.9346 163.042C95.2656 163.042 94.7261 163.308 94.3159 163.84C93.9058 164.373 93.7007 165.134 93.7007 166.125ZM104.431 169.041C104.914 169.041 105.336 168.894 105.698 168.601C106.059 168.308 106.259 167.942 106.298 167.502H107.58C107.556 167.957 107.399 168.389 107.111 168.799C106.823 169.209 106.438 169.536 105.954 169.78C105.476 170.024 104.968 170.146 104.431 170.146C103.352 170.146 102.492 169.788 101.853 169.07C101.218 168.347 100.9 167.361 100.9 166.111V165.884C100.9 165.112 101.042 164.426 101.325 163.826C101.608 163.225 102.014 162.759 102.541 162.427C103.073 162.095 103.701 161.929 104.423 161.929C105.312 161.929 106.049 162.195 106.635 162.727C107.226 163.259 107.541 163.95 107.58 164.8H106.298C106.259 164.287 106.064 163.867 105.712 163.54C105.366 163.208 104.936 163.042 104.423 163.042C103.735 163.042 103.2 163.291 102.819 163.789C102.443 164.282 102.255 164.998 102.255 165.935V166.191C102.255 167.104 102.443 167.808 102.819 168.301C103.195 168.794 103.732 169.041 104.431 169.041ZM114.992 163.174H112.333V170H110.979V163.174H108.371V162.075H114.992V163.174ZM117.79 164.807H119.848C120.747 164.817 121.457 165.051 121.979 165.51C122.502 165.969 122.763 166.592 122.763 167.378C122.763 168.169 122.495 168.804 121.958 169.282C121.42 169.761 120.698 170 119.79 170H116.435V162.075H117.79V164.807ZM117.79 165.913V168.894H119.804C120.312 168.894 120.705 168.765 120.983 168.506C121.262 168.242 121.401 167.883 121.401 167.429C121.401 166.99 121.264 166.631 120.991 166.353C120.722 166.069 120.344 165.923 119.855 165.913H117.79ZM130.959 163.042C130.476 163.042 130.056 163.196 129.699 163.503C129.348 163.811 129.172 164.175 129.172 164.595H127.883C127.883 164.141 128.027 163.706 128.315 163.291C128.603 162.876 128.986 162.546 129.465 162.302C129.943 162.053 130.441 161.929 130.959 161.929C131.989 161.929 132.822 162.302 133.457 163.049C134.096 163.792 134.416 164.763 134.416 165.964V166.191C134.416 166.934 134.27 167.612 133.977 168.228C133.688 168.838 133.281 169.312 132.753 169.648C132.231 169.98 131.633 170.146 130.959 170.146C130.08 170.146 129.348 169.873 128.762 169.326C128.176 168.779 127.883 168.098 127.883 167.283H129.172C129.172 167.781 129.345 168.201 129.692 168.542C130.039 168.879 130.461 169.048 130.959 169.048C131.54 169.048 132.019 168.823 132.395 168.374C132.771 167.925 132.988 167.307 133.046 166.521H130.073V165.408H133.032C132.963 164.695 132.746 164.124 132.38 163.694C132.014 163.259 131.54 163.042 130.959 163.042ZM141.55 163.174H138.891V170H137.536V163.174H134.929V162.075H141.55V163.174ZM147.995 162.075H149.35V170H147.995V164.221L144.34 170H142.985V162.075H144.34V167.861L147.995 162.075ZM154.184 164.968L155.942 162.075H157.524L154.931 165.994L157.604 170H156.037L154.206 167.034L152.375 170H150.8L153.474 165.994L150.881 162.075H152.448L154.184 164.968ZM169.169 170H167.814V163.196H164.167V170H162.805V162.075H169.169V170ZM178.039 166.125C178.039 167.332 177.763 168.303 177.211 169.041C176.66 169.778 175.913 170.146 174.97 170.146C174.008 170.146 173.251 169.841 172.7 169.231V173.047H171.345V162.075H172.583L172.648 162.954C173.2 162.271 173.967 161.929 174.948 161.929C175.9 161.929 176.652 162.288 177.204 163.005C177.761 163.723 178.039 164.722 178.039 166.001V166.125ZM176.684 165.972C176.684 165.078 176.494 164.373 176.113 163.855C175.732 163.337 175.209 163.079 174.545 163.079C173.725 163.079 173.11 163.442 172.7 164.17V167.957C173.105 168.679 173.725 169.041 174.56 169.041C175.209 169.041 175.725 168.784 176.105 168.271C176.491 167.754 176.684 166.987 176.684 165.972ZM179.409 165.964C179.409 165.188 179.56 164.49 179.863 163.87C180.17 163.25 180.595 162.771 181.137 162.434C181.684 162.097 182.307 161.929 183.005 161.929C184.084 161.929 184.956 162.302 185.62 163.049C186.289 163.796 186.623 164.79 186.623 166.03V166.125C186.623 166.897 186.474 167.59 186.176 168.206C185.883 168.816 185.461 169.292 184.909 169.634C184.362 169.976 183.732 170.146 183.02 170.146C181.945 170.146 181.074 169.773 180.405 169.026C179.741 168.279 179.409 167.29 179.409 166.06V165.964ZM180.771 166.125C180.771 167.004 180.974 167.71 181.379 168.242C181.789 168.774 182.336 169.041 183.02 169.041C183.708 169.041 184.255 168.772 184.66 168.235C185.065 167.693 185.268 166.936 185.268 165.964C185.268 165.095 185.061 164.392 184.646 163.855C184.235 163.313 183.688 163.042 183.005 163.042C182.336 163.042 181.796 163.308 181.386 163.84C180.976 164.373 180.771 165.134 180.771 166.125ZM191.801 162.529C192.797 162.529 193.593 162.864 194.189 163.533C194.79 164.197 195.09 165.073 195.09 166.162V166.287C195.09 167.034 194.946 167.703 194.658 168.293C194.37 168.879 193.955 169.336 193.413 169.663C192.875 169.985 192.255 170.146 191.552 170.146C190.488 170.146 189.631 169.792 188.981 169.084C188.332 168.372 188.007 167.417 188.007 166.221V165.562C188.007 163.896 188.315 162.573 188.93 161.592C189.55 160.61 190.463 160.012 191.669 159.797C192.353 159.675 192.814 159.526 193.054 159.351C193.293 159.175 193.413 158.933 193.413 158.625H194.526C194.526 159.236 194.387 159.712 194.108 160.054C193.835 160.396 193.396 160.637 192.79 160.779L191.779 161.006C190.974 161.196 190.368 161.519 189.963 161.973C189.562 162.422 189.301 163.022 189.179 163.774C189.897 162.944 190.771 162.529 191.801 162.529ZM191.538 163.643C190.874 163.643 190.346 163.867 189.956 164.316C189.565 164.761 189.37 165.378 189.37 166.169V166.287C189.37 167.136 189.565 167.81 189.956 168.308C190.351 168.801 190.883 169.048 191.552 169.048C192.226 169.048 192.758 168.799 193.149 168.301C193.54 167.803 193.735 167.075 193.735 166.118C193.735 165.371 193.537 164.773 193.142 164.324C192.751 163.87 192.216 163.643 191.538 163.643ZM203.11 162.075V170H201.748V163.196H199.052L198.891 166.162C198.803 167.524 198.574 168.499 198.203 169.084C197.836 169.67 197.253 169.976 196.452 170H195.91V168.806L196.298 168.777C196.738 168.728 197.053 168.474 197.243 168.015C197.434 167.556 197.556 166.707 197.609 165.466L197.756 162.075H203.11ZM208.574 170.146C207.5 170.146 206.625 169.795 205.952 169.092C205.278 168.384 204.941 167.439 204.941 166.257V166.008C204.941 165.222 205.09 164.521 205.388 163.906C205.69 163.286 206.11 162.803 206.647 162.456C207.189 162.104 207.775 161.929 208.405 161.929C209.436 161.929 210.236 162.268 210.808 162.947C211.379 163.625 211.665 164.597 211.665 165.862V166.426H206.296C206.315 167.207 206.542 167.839 206.977 168.323C207.417 168.801 207.973 169.041 208.647 169.041C209.125 169.041 209.531 168.943 209.863 168.748C210.195 168.552 210.485 168.293 210.734 167.971L211.562 168.616C210.898 169.636 209.902 170.146 208.574 170.146ZM208.405 163.042C207.858 163.042 207.399 163.242 207.028 163.643C206.657 164.038 206.428 164.595 206.34 165.312H210.31V165.21C210.271 164.521 210.085 163.989 209.753 163.613C209.421 163.232 208.972 163.042 208.405 163.042ZM217.802 168.206L220.498 162.075H222.189V170H220.834V164.236L218.271 170H217.333L214.719 164.111V170H213.364V162.075H215.122L217.802 168.206ZM45.5 190H44.145V186.616H40.5049V190H39.1426V182.075H40.5049V185.51H44.145V182.075H45.5V190ZM52.5752 190C52.4971 189.844 52.4336 189.565 52.3848 189.165C51.7549 189.819 51.0029 190.146 50.1289 190.146C49.3477 190.146 48.7056 189.927 48.2026 189.487C47.7046 189.043 47.4556 188.481 47.4556 187.803C47.4556 186.978 47.7681 186.338 48.3931 185.884C49.0229 185.425 49.9067 185.195 51.0444 185.195H52.3628V184.573C52.3628 184.099 52.2212 183.723 51.938 183.445C51.6548 183.162 51.2373 183.02 50.6855 183.02C50.2021 183.02 49.7969 183.142 49.4697 183.386C49.1426 183.63 48.979 183.926 48.979 184.272H47.6167C47.6167 183.877 47.7559 183.496 48.0342 183.13C48.3174 182.759 48.6982 182.466 49.1768 182.251C49.6602 182.036 50.1899 181.929 50.7661 181.929C51.6792 181.929 52.3945 182.158 52.9121 182.617C53.4297 183.071 53.6982 183.699 53.7178 184.5V188.147C53.7178 188.875 53.8105 189.453 53.9961 189.883V190H52.5752ZM50.3267 188.967C50.7515 188.967 51.1543 188.857 51.5352 188.638C51.916 188.418 52.1919 188.132 52.3628 187.781V186.155H51.3008C49.6406 186.155 48.8105 186.641 48.8105 187.612C48.8105 188.037 48.9521 188.369 49.2354 188.608C49.5186 188.848 49.8823 188.967 50.3267 188.967ZM59.0205 189.041C59.5039 189.041 59.9263 188.894 60.2876 188.601C60.6489 188.308 60.8491 187.942 60.8882 187.502H62.1699C62.1455 187.957 61.9893 188.389 61.7012 188.799C61.4131 189.209 61.0273 189.536 60.5439 189.78C60.0654 190.024 59.5576 190.146 59.0205 190.146C57.9414 190.146 57.082 189.788 56.4424 189.07C55.8076 188.347 55.4902 187.361 55.4902 186.111V185.884C55.4902 185.112 55.6318 184.426 55.915 183.826C56.1982 183.225 56.6035 182.759 57.1309 182.427C57.6631 182.095 58.2905 181.929 59.0132 181.929C59.9019 181.929 60.6392 182.195 61.2251 182.727C61.8159 183.259 62.1309 183.95 62.1699 184.8H60.8882C60.8491 184.287 60.6538 183.867 60.3022 183.54C59.9556 183.208 59.5259 183.042 59.0132 183.042C58.3247 183.042 57.79 183.291 57.4092 183.789C57.0332 184.282 56.8452 184.998 56.8452 185.935V186.191C56.8452 187.104 57.0332 187.808 57.4092 188.301C57.7852 188.794 58.3223 189.041 59.0205 189.041ZM69.582 183.174H66.9233V190H65.5684V183.174H62.9609V182.075H69.582V183.174ZM70.2339 185.964C70.2339 185.188 70.3853 184.49 70.688 183.87C70.9956 183.25 71.4204 182.771 71.9624 182.434C72.5093 182.097 73.1318 181.929 73.8301 181.929C74.9092 181.929 75.7808 182.302 76.4448 183.049C77.1138 183.796 77.4482 184.79 77.4482 186.03V186.125C77.4482 186.897 77.2993 187.59 77.0015 188.206C76.7085 188.816 76.2861 189.292 75.7344 189.634C75.1875 189.976 74.5576 190.146 73.8447 190.146C72.7705 190.146 71.8989 189.773 71.23 189.026C70.5659 188.279 70.2339 187.29 70.2339 186.06V185.964ZM71.5962 186.125C71.5962 187.004 71.7988 187.71 72.2041 188.242C72.6143 188.774 73.1611 189.041 73.8447 189.041C74.5332 189.041 75.0801 188.772 75.4854 188.235C75.8906 187.693 76.0933 186.936 76.0933 185.964C76.0933 185.095 75.8857 184.392 75.4707 183.855C75.0605 183.313 74.5137 183.042 73.8301 183.042C73.1611 183.042 72.6216 183.308 72.2114 183.84C71.8013 184.373 71.5962 185.134 71.5962 186.125ZM85.5269 182.075V190H84.1646V183.196H81.4692L81.3081 186.162C81.2202 187.524 80.9907 188.499 80.6196 189.084C80.2534 189.67 79.6699 189.976 78.8691 190H78.3271V188.806L78.7153 188.777C79.1548 188.728 79.4697 188.474 79.6602 188.015C79.8506 187.556 79.9727 186.707 80.0264 185.466L80.1729 182.075H85.5269ZM89.1816 184.807H91.2397C92.1382 184.817 92.8486 185.051 93.3711 185.51C93.8936 185.969 94.1548 186.592 94.1548 187.378C94.1548 188.169 93.8862 188.804 93.3491 189.282C92.812 189.761 92.0894 190 91.1812 190H87.8267V182.075H89.1816V184.807ZM89.1816 185.913V188.894H91.1958C91.7036 188.894 92.0967 188.765 92.375 188.506C92.6533 188.242 92.7925 187.883 92.7925 187.429C92.7925 186.99 92.6558 186.631 92.3823 186.353C92.1138 186.069 91.7354 185.923 91.2471 185.913H89.1816ZM98.3149 186.624H97.3262V190H95.9639V182.075H97.3262V185.43H98.2124L100.878 182.075H102.519L99.3843 185.884L102.783 190H101.062L98.3149 186.624ZM103.427 185.964C103.427 185.188 103.579 184.49 103.881 183.87C104.189 183.25 104.614 182.771 105.156 182.434C105.703 182.097 106.325 181.929 107.023 181.929C108.103 181.929 108.974 182.302 109.638 183.049C110.307 183.796 110.642 184.79 110.642 186.03V186.125C110.642 186.897 110.493 187.59 110.195 188.206C109.902 188.816 109.479 189.292 108.928 189.634C108.381 189.976 107.751 190.146 107.038 190.146C105.964 190.146 105.092 189.773 104.423 189.026C103.759 188.279 103.427 187.29 103.427 186.06V185.964ZM104.79 186.125C104.79 187.004 104.992 187.71 105.397 188.242C105.808 188.774 106.354 189.041 107.038 189.041C107.727 189.041 108.273 188.772 108.679 188.235C109.084 187.693 109.287 186.936 109.287 185.964C109.287 185.095 109.079 184.392 108.664 183.855C108.254 183.313 107.707 183.042 107.023 183.042C106.354 183.042 105.815 183.308 105.405 183.84C104.995 184.373 104.79 185.134 104.79 186.125ZM115.703 185.964C115.703 185.188 115.854 184.49 116.157 183.87C116.464 183.25 116.889 182.771 117.431 182.434C117.978 182.097 118.601 181.929 119.299 181.929C120.378 181.929 121.25 182.302 121.914 183.049C122.583 183.796 122.917 184.79 122.917 186.03V186.125C122.917 186.897 122.768 187.59 122.47 188.206C122.177 188.816 121.755 189.292 121.203 189.634C120.656 189.976 120.026 190.146 119.313 190.146C118.239 190.146 117.368 189.773 116.699 189.026C116.035 188.279 115.703 187.29 115.703 186.06V185.964ZM117.065 186.125C117.065 187.004 117.268 187.71 117.673 188.242C118.083 188.774 118.63 189.041 119.313 189.041C120.002 189.041 120.549 188.772 120.954 188.235C121.359 187.693 121.562 186.936 121.562 185.964C121.562 185.095 121.354 184.392 120.939 183.855C120.529 183.313 119.982 183.042 119.299 183.042C118.63 183.042 118.09 183.308 117.68 183.84C117.27 184.373 117.065 185.134 117.065 186.125ZM130.6 190H129.238V187.129C128.642 187.285 128.032 187.363 127.407 187.363C126.416 187.363 125.659 187.109 125.136 186.602C124.619 186.094 124.355 185.371 124.345 184.434V182.068H125.7V184.478C125.725 185.659 126.293 186.25 127.407 186.25C128.032 186.25 128.642 186.172 129.238 186.016V182.075H130.6V190ZM136.064 190.146C134.99 190.146 134.116 189.795 133.442 189.092C132.768 188.384 132.431 187.439 132.431 186.257V186.008C132.431 185.222 132.58 184.521 132.878 183.906C133.181 183.286 133.601 182.803 134.138 182.456C134.68 182.104 135.266 181.929 135.896 181.929C136.926 181.929 137.727 182.268 138.298 182.947C138.869 183.625 139.155 184.597 139.155 185.862V186.426H133.786C133.806 187.207 134.033 187.839 134.467 188.323C134.907 188.801 135.463 189.041 136.137 189.041C136.616 189.041 137.021 188.943 137.353 188.748C137.685 188.552 137.976 188.293 138.225 187.971L139.052 188.616C138.388 189.636 137.392 190.146 136.064 190.146ZM135.896 183.042C135.349 183.042 134.89 183.242 134.519 183.643C134.147 184.038 133.918 184.595 133.83 185.312H137.8V185.21C137.761 184.521 137.575 183.989 137.243 183.613C136.911 183.232 136.462 183.042 135.896 183.042ZM140.854 190V182.075H143.945C145 182.075 145.808 182.261 146.369 182.632C146.936 182.998 147.219 183.538 147.219 184.25C147.219 184.617 147.109 184.949 146.889 185.247C146.669 185.54 146.345 185.764 145.915 185.92C146.394 186.033 146.777 186.252 147.065 186.58C147.358 186.907 147.504 187.297 147.504 187.751C147.504 188.479 147.236 189.036 146.699 189.421C146.167 189.807 145.412 190 144.436 190H140.854ZM142.209 186.521V188.909H144.45C145.017 188.909 145.439 188.804 145.717 188.594C146 188.384 146.142 188.088 146.142 187.708C146.142 186.917 145.561 186.521 144.399 186.521H142.209ZM142.209 185.437H143.959C145.229 185.437 145.864 185.066 145.864 184.324C145.864 183.582 145.263 183.198 144.062 183.174H142.209V185.437ZM154.426 182.075H155.781V190H154.426V184.221L150.771 190H149.416V182.075H150.771V187.861L154.426 182.075ZM157.89 188.894L158.359 188.315C158.886 187.632 159.187 186.606 159.26 185.239L159.384 182.075H164.489V188.894H165.507V192.329H164.152V190H158.623V192.329H157.268L157.275 188.894H157.89ZM159.494 188.894H163.134V183.328H160.695L160.615 185.217C160.532 186.794 160.158 188.02 159.494 188.894ZM173.483 190H172.128V186.616H168.488V190H167.126V182.075H168.488V185.51H172.128V182.075H173.483V190ZM180.559 190C180.48 189.844 180.417 189.565 180.368 189.165C179.738 189.819 178.986 190.146 178.112 190.146C177.331 190.146 176.689 189.927 176.186 189.487C175.688 189.043 175.439 188.481 175.439 187.803C175.439 186.978 175.751 186.338 176.376 185.884C177.006 185.425 177.89 185.195 179.028 185.195H180.346V184.573C180.346 184.099 180.205 183.723 179.921 183.445C179.638 183.162 179.221 183.02 178.669 183.02C178.186 183.02 177.78 183.142 177.453 183.386C177.126 183.63 176.962 183.926 176.962 184.272H175.6C175.6 183.877 175.739 183.496 176.018 183.13C176.301 182.759 176.682 182.466 177.16 182.251C177.644 182.036 178.173 181.929 178.75 181.929C179.663 181.929 180.378 182.158 180.896 182.617C181.413 183.071 181.682 183.699 181.701 184.5V188.147C181.701 188.875 181.794 189.453 181.979 189.883V190H180.559ZM178.31 188.967C178.735 188.967 179.138 188.857 179.519 188.638C179.899 188.418 180.175 188.132 180.346 187.781V186.155H179.284C177.624 186.155 176.794 186.641 176.794 187.612C176.794 188.037 176.936 188.369 177.219 188.608C177.502 188.848 177.866 188.967 178.31 188.967ZM183.781 192.124L183.012 191.597C183.471 190.957 183.71 190.298 183.73 189.619V188.396H185.056V189.458C185.056 189.951 184.934 190.444 184.689 190.938C184.45 191.431 184.147 191.826 183.781 192.124ZM196.474 190H195.112V187.129C194.516 187.285 193.906 187.363 193.281 187.363C192.29 187.363 191.533 187.109 191.01 186.602C190.493 186.094 190.229 185.371 190.219 184.434V182.068H191.574V184.478C191.599 185.659 192.167 186.25 193.281 186.25C193.906 186.25 194.516 186.172 195.112 186.016V182.075H196.474V190ZM204.538 183.174H201.879V190H200.524V183.174H197.917V182.075H204.538V183.174ZM205.19 185.964C205.19 185.188 205.341 184.49 205.644 183.87C205.952 183.25 206.376 182.771 206.918 182.434C207.465 182.097 208.088 181.929 208.786 181.929C209.865 181.929 210.737 182.302 211.401 183.049C212.07 183.796 212.404 184.79 212.404 186.03V186.125C212.404 186.897 212.255 187.59 211.958 188.206C211.665 188.816 211.242 189.292 210.69 189.634C210.144 189.976 209.514 190.146 208.801 190.146C207.727 190.146 206.855 189.773 206.186 189.026C205.522 188.279 205.19 187.29 205.19 186.06V185.964ZM206.552 186.125C206.552 187.004 206.755 187.71 207.16 188.242C207.57 188.774 208.117 189.041 208.801 189.041C209.489 189.041 210.036 188.772 210.441 188.235C210.847 187.693 211.049 186.936 211.049 185.964C211.049 185.095 210.842 184.392 210.427 183.855C210.017 183.313 209.47 183.042 208.786 183.042C208.117 183.042 207.578 183.308 207.167 183.84C206.757 184.373 206.552 185.134 206.552 186.125ZM41.4937 206.624H40.5049V210H39.1426V202.075H40.5049V205.43H41.3911L44.0571 202.075H45.6978L42.563 205.884L45.9614 210H44.2402L41.4937 206.624ZM46.606 205.964C46.606 205.188 46.7573 204.49 47.0601 203.87C47.3677 203.25 47.7925 202.771 48.3345 202.434C48.8813 202.097 49.5039 201.929 50.2021 201.929C51.2812 201.929 52.1528 202.302 52.8169 203.049C53.4858 203.796 53.8203 204.79 53.8203 206.03V206.125C53.8203 206.897 53.6714 207.59 53.3735 208.206C53.0806 208.816 52.6582 209.292 52.1064 209.634C51.5596 209.976 50.9297 210.146 50.2168 210.146C49.1426 210.146 48.271 209.773 47.6021 209.026C46.938 208.279 46.606 207.29 46.606 206.06V205.964ZM47.9683 206.125C47.9683 207.004 48.1709 207.71 48.5762 208.242C48.9863 208.774 49.5332 209.041 50.2168 209.041C50.9053 209.041 51.4521 208.772 51.8574 208.235C52.2627 207.693 52.4653 206.936 52.4653 205.964C52.4653 205.095 52.2578 204.392 51.8428 203.855C51.4326 203.313 50.8857 203.042 50.2021 203.042C49.5332 203.042 48.9937 203.308 48.5835 203.84C48.1733 204.373 47.9683 205.134 47.9683 206.125ZM61.9941 210H60.6392V206.616H56.999V210H55.6367V202.075H56.999V205.51H60.6392V202.075H61.9941V210ZM67.3555 209.041C67.8389 209.041 68.2612 208.894 68.6226 208.601C68.9839 208.308 69.1841 207.942 69.2231 207.502H70.5049C70.4805 207.957 70.3242 208.389 70.0361 208.799C69.748 209.209 69.3623 209.536 68.8789 209.78C68.4004 210.024 67.8926 210.146 67.3555 210.146C66.2764 210.146 65.417 209.788 64.7773 209.07C64.1426 208.347 63.8252 207.361 63.8252 206.111V205.884C63.8252 205.112 63.9668 204.426 64.25 203.826C64.5332 203.225 64.9385 202.759 65.4658 202.427C65.998 202.095 66.6255 201.929 67.3481 201.929C68.2368 201.929 68.9741 202.195 69.5601 202.727C70.1509 203.259 70.4658 203.95 70.5049 204.8H69.2231C69.1841 204.287 68.9888 203.867 68.6372 203.54C68.2905 203.208 67.8608 203.042 67.3481 203.042C66.6597 203.042 66.125 203.291 65.7441 203.789C65.3682 204.282 65.1802 204.998 65.1802 205.935V206.191C65.1802 207.104 65.3682 207.808 65.7441 208.301C66.1201 208.794 66.6572 209.041 67.3555 209.041ZM74.6211 208.015L76.4668 202.075H77.917L74.731 211.223C74.2378 212.542 73.4541 213.201 72.3799 213.201L72.1235 213.179L71.6182 213.083V211.985L71.9844 212.014C72.4434 212.014 72.7998 211.921 73.0537 211.736C73.3125 211.55 73.5249 211.211 73.6909 210.718L73.9912 209.912L71.1641 202.075H72.6436L74.6211 208.015ZM85.3218 202.075V210H83.9595V203.196H81.2642L81.103 206.162C81.0151 207.524 80.7856 208.499 80.4146 209.084C80.0483 209.67 79.4648 209.976 78.6641 210H78.1221V208.806L78.5103 208.777C78.9497 208.728 79.2646 208.474 79.4551 208.015C79.6455 207.556 79.7676 206.707 79.8213 205.466L79.9678 202.075H85.3218ZM88.9766 204.807H91.0347C91.9331 204.817 92.6436 205.051 93.166 205.51C93.6885 205.969 93.9497 206.592 93.9497 207.378C93.9497 208.169 93.6812 208.804 93.144 209.282C92.6069 209.761 91.8843 210 90.9761 210H87.6216V202.075H88.9766V204.807ZM88.9766 205.913V208.894H90.9907C91.4985 208.894 91.8916 208.765 92.1699 208.506C92.4482 208.242 92.5874 207.883 92.5874 207.429C92.5874 206.99 92.4507 206.631 92.1772 206.353C91.9087 206.069 91.5303 205.923 91.042 205.913H88.9766ZM101.018 203.174H98.3589V210H97.0039V203.174H94.3965V202.075H101.018V203.174ZM107.111 210C107.033 209.844 106.97 209.565 106.921 209.165C106.291 209.819 105.539 210.146 104.665 210.146C103.884 210.146 103.242 209.927 102.739 209.487C102.241 209.043 101.992 208.481 101.992 207.803C101.992 206.978 102.304 206.338 102.929 205.884C103.559 205.425 104.443 205.195 105.581 205.195H106.899V204.573C106.899 204.099 106.757 203.723 106.474 203.445C106.191 203.162 105.773 203.02 105.222 203.02C104.738 203.02 104.333 203.142 104.006 203.386C103.679 203.63 103.515 203.926 103.515 204.272H102.153C102.153 203.877 102.292 203.496 102.57 203.13C102.854 202.759 103.234 202.466 103.713 202.251C104.196 202.036 104.726 201.929 105.302 201.929C106.215 201.929 106.931 202.158 107.448 202.617C107.966 203.071 108.234 203.699 108.254 204.5V208.147C108.254 208.875 108.347 209.453 108.532 209.883V210H107.111ZM104.863 208.967C105.288 208.967 105.69 208.857 106.071 208.638C106.452 208.418 106.728 208.132 106.899 207.781V206.155H105.837C104.177 206.155 103.347 206.641 103.347 207.612C103.347 208.037 103.488 208.369 103.771 208.608C104.055 208.848 104.418 208.967 104.863 208.967ZM110.495 202.075H111.857V208.894H115.505V202.075H116.86V208.894H117.805L117.673 212.351H116.457V210H110.495V202.075ZM124.396 202.075H125.751V210H124.396V204.221L120.742 210H119.387V202.075H120.742V207.861L124.396 202.075ZM133.984 202.075V210H132.622V206.917H130.578L128.71 210H127.246L129.238 206.711C128.73 206.526 128.339 206.24 128.066 205.854C127.797 205.464 127.663 205.01 127.663 204.492C127.663 203.77 127.934 203.188 128.476 202.749C129.018 202.305 129.743 202.08 130.651 202.075H133.984ZM129.025 204.507C129.025 204.893 129.157 205.205 129.421 205.444C129.685 205.679 130.034 205.798 130.468 205.803H132.622V203.174H130.673C130.17 203.174 129.77 203.298 129.472 203.547C129.174 203.792 129.025 204.111 129.025 204.507ZM143.059 209.041C143.542 209.041 143.964 208.894 144.326 208.601C144.687 208.308 144.887 207.942 144.926 207.502H146.208C146.184 207.957 146.027 208.389 145.739 208.799C145.451 209.209 145.065 209.536 144.582 209.78C144.104 210.024 143.596 210.146 143.059 210.146C141.979 210.146 141.12 209.788 140.48 209.07C139.846 208.347 139.528 207.361 139.528 206.111V205.884C139.528 205.112 139.67 204.426 139.953 203.826C140.236 203.225 140.642 202.759 141.169 202.427C141.701 202.095 142.329 201.929 143.051 201.929C143.94 201.929 144.677 202.195 145.263 202.727C145.854 203.259 146.169 203.95 146.208 204.8H144.926C144.887 204.287 144.692 203.867 144.34 203.54C143.994 203.208 143.564 203.042 143.051 203.042C142.363 203.042 141.828 203.291 141.447 203.789C141.071 204.282 140.883 204.998 140.883 205.935V206.191C140.883 207.104 141.071 207.808 141.447 208.301C141.823 208.794 142.36 209.041 143.059 209.041ZM152.932 202.075V208.894H155.832V202.075H157.187V208.894H160.08V202.075H161.442V210H151.569V202.075H152.932ZM168.708 202.075H170.063V210H168.708V204.221L165.053 210H163.698V202.075H165.053V207.861L168.708 202.075ZM178.933 206.125C178.933 207.332 178.657 208.303 178.105 209.041C177.553 209.778 176.806 210.146 175.864 210.146C174.902 210.146 174.145 209.841 173.593 209.231V213.047H172.238V202.075H173.476L173.542 202.954C174.094 202.271 174.86 201.929 175.842 201.929C176.794 201.929 177.546 202.288 178.098 203.005C178.654 203.723 178.933 204.722 178.933 206.001V206.125ZM177.578 205.972C177.578 205.078 177.387 204.373 177.006 203.855C176.625 203.337 176.103 203.079 175.439 203.079C174.619 203.079 174.003 203.442 173.593 204.17V207.957C173.999 208.679 174.619 209.041 175.454 209.041C176.103 209.041 176.618 208.784 176.999 208.271C177.385 207.754 177.578 206.987 177.578 205.972ZM180.302 205.964C180.302 205.188 180.454 204.49 180.756 203.87C181.064 203.25 181.489 202.771 182.031 202.434C182.578 202.097 183.2 201.929 183.898 201.929C184.978 201.929 185.849 202.302 186.513 203.049C187.182 203.796 187.517 204.79 187.517 206.03V206.125C187.517 206.897 187.368 207.59 187.07 208.206C186.777 208.816 186.354 209.292 185.803 209.634C185.256 209.976 184.626 210.146 183.913 210.146C182.839 210.146 181.967 209.773 181.298 209.026C180.634 208.279 180.302 207.29 180.302 206.06V205.964ZM181.665 206.125C181.665 207.004 181.867 207.71 182.272 208.242C182.683 208.774 183.229 209.041 183.913 209.041C184.602 209.041 185.148 208.772 185.554 208.235C185.959 207.693 186.162 206.936 186.162 205.964C186.162 205.095 185.954 204.392 185.539 203.855C185.129 203.313 184.582 203.042 183.898 203.042C183.229 203.042 182.69 203.308 182.28 203.84C181.87 204.373 181.665 205.134 181.665 206.125ZM191.684 206.624H190.695V210H189.333V202.075H190.695V205.43H191.582L194.248 202.075H195.888L192.753 205.884L196.152 210H194.431L191.684 206.624ZM202.443 202.075H203.798V210H202.443V204.221L198.789 210H197.434V202.075H198.789V207.861L202.443 202.075ZM210.537 208.206L213.232 202.075H214.924V210H213.569V204.236L211.005 210H210.068L207.453 204.111V210H206.098V202.075H207.856L210.537 208.206ZM43.918 230C43.8398 229.844 43.7764 229.565 43.7275 229.165C43.0977 229.819 42.3457 230.146 41.4717 230.146C40.6904 230.146 40.0483 229.927 39.5454 229.487C39.0474 229.043 38.7983 228.481 38.7983 227.803C38.7983 226.978 39.1108 226.338 39.7358 225.884C40.3657 225.425 41.2495 225.195 42.3872 225.195H43.7056V224.573C43.7056 224.099 43.564 223.723 43.2808 223.445C42.9976 223.162 42.5801 223.02 42.0283 223.02C41.5449 223.02 41.1396 223.142 40.8125 223.386C40.4854 223.63 40.3218 223.926 40.3218 224.272H38.9595C38.9595 223.877 39.0986 223.496 39.377 223.13C39.6602 222.759 40.041 222.466 40.5195 222.251C41.0029 222.036 41.5327 221.929 42.1089 221.929C43.022 221.929 43.7373 222.158 44.2549 222.617C44.7725 223.071 45.041 223.699 45.0605 224.5V228.147C45.0605 228.875 45.1533 229.453 45.3389 229.883V230H43.918ZM41.6694 228.967C42.0942 228.967 42.4971 228.857 42.8779 228.638C43.2588 228.418 43.5347 228.132 43.7056 227.781V226.155H42.6436C40.9834 226.155 40.1533 226.641 40.1533 227.612C40.1533 228.037 40.2949 228.369 40.5781 228.608C40.8613 228.848 41.2251 228.967 41.6694 228.967ZM49.6528 226.624H48.6641V230H47.3018V222.075H48.6641V225.43H49.5503L52.2163 222.075H53.8569L50.7222 225.884L54.1206 230H52.3994L49.6528 226.624ZM61.1738 223.174H58.5151V230H57.1602V223.174H54.5527V222.075H61.1738V223.174ZM67.6191 222.075H68.9741V230H67.6191V224.221L63.9644 230H62.6094V222.075H63.9644V227.861L67.6191 222.075ZM71.2739 230V222.075H74.3647C75.4194 222.075 76.2275 222.261 76.7891 222.632C77.3555 222.998 77.6387 223.538 77.6387 224.25C77.6387 224.617 77.5288 224.949 77.3091 225.247C77.0894 225.54 76.7646 225.764 76.335 225.92C76.8135 226.033 77.1968 226.252 77.4849 226.58C77.7778 226.907 77.9243 227.297 77.9243 227.751C77.9243 228.479 77.6558 229.036 77.1187 229.421C76.5864 229.807 75.832 230 74.8555 230H71.2739ZM72.6289 226.521V228.909H74.8701C75.4365 228.909 75.8589 228.804 76.1372 228.594C76.4204 228.384 76.562 228.088 76.562 227.708C76.562 226.917 75.981 226.521 74.8188 226.521H72.6289ZM72.6289 225.437H74.3794C75.6489 225.437 76.2837 225.066 76.2837 224.324C76.2837 223.582 75.6831 223.198 74.4819 223.174H72.6289V225.437ZM79.3599 225.964C79.3599 225.188 79.5112 224.49 79.814 223.87C80.1216 223.25 80.5464 222.771 81.0884 222.434C81.6353 222.097 82.2578 221.929 82.9561 221.929C84.0352 221.929 84.9067 222.302 85.5708 223.049C86.2397 223.796 86.5742 224.79 86.5742 226.03V226.125C86.5742 226.897 86.4253 227.59 86.1274 228.206C85.8345 228.816 85.4121 229.292 84.8604 229.634C84.3135 229.976 83.6836 230.146 82.9707 230.146C81.8965 230.146 81.0249 229.773 80.356 229.026C79.6919 228.279 79.3599 227.29 79.3599 226.06V225.964ZM80.7222 226.125C80.7222 227.004 80.9248 227.71 81.3301 228.242C81.7402 228.774 82.2871 229.041 82.9707 229.041C83.6592 229.041 84.2061 228.772 84.6113 228.235C85.0166 227.693 85.2192 226.936 85.2192 225.964C85.2192 225.095 85.0117 224.392 84.5967 223.855C84.1865 223.313 83.6396 223.042 82.9561 223.042C82.2871 223.042 81.7476 223.308 81.3374 223.84C80.9272 224.373 80.7222 225.134 80.7222 226.125ZM92.8364 228.206L95.5317 222.075H97.2236V230H95.8687V224.236L93.3052 230H92.3677L89.7529 224.111V230H88.3979V222.075H90.1558L92.8364 228.206ZM99.4355 229.29C99.4355 229.055 99.5039 228.86 99.6406 228.704C99.7822 228.547 99.9922 228.469 100.271 228.469C100.549 228.469 100.759 228.547 100.9 228.704C101.047 228.86 101.12 229.055 101.12 229.29C101.12 229.514 101.047 229.702 100.9 229.854C100.759 230.005 100.549 230.081 100.271 230.081C99.9922 230.081 99.7822 230.005 99.6406 229.854C99.5039 229.702 99.4355 229.514 99.4355 229.29Z" fill="#040E1A"/>
<path d="M88 35.0323C88 32.8089 86.1911 31 83.9677 31H42.0323C39.8089 31 38 32.8089 38 35.0323V59.2258C38 61.4492 39.8089 63.2581 42.0323 63.2581H62.8831C62.4411 63.9944 62.1935 64.8492 62.1935 65.75V72.6742C62.1935 75.1081 63.7452 77.2605 66.0532 78.029L67.0323 78.3556V81H68.6452V77.1927L66.5637 76.4992C64.9145 75.9492 63.8065 74.4121 63.8065 72.6742V65.75C63.8065 64.521 64.4895 63.4145 65.5895 62.8653L67.0323 62.1435V67.2903H68.6452V44.7097C68.6452 43.8202 69.3685 43.0968 70.2581 43.0968C71.1476 43.0968 71.871 43.8202 71.871 44.7097V57.6129V60.0323H73.4839V57.6129C73.4839 56.7234 74.2073 56 75.0968 56C75.9863 56 76.7097 56.7234 76.7097 57.6129V59.2258V60.0323V61.6452H78.3226V60.0323V59.2258C78.3226 58.3363 79.046 57.6129 79.9355 57.6129C80.825 57.6129 81.5484 58.3363 81.5484 59.2258V60.8387V61.6452V63.2581H83.1613V61.6452V60.8387C83.1613 59.9492 83.8847 59.2258 84.7742 59.2258C85.6637 59.2258 86.3871 59.9492 86.3871 60.8387V74.7839C86.3871 76.3202 85.5331 77.7024 84.1581 78.3903L83.1613 78.8887V81H84.7742V79.8855L84.8798 79.8331C86.8048 78.8694 88 76.9355 88 74.7839V60.8387C88 60.5677 87.9565 60.3089 87.8927 60.0573C87.9581 59.7653 88 59.4903 88 59.2258V35.0323ZM42.8387 61.6452H42.0323C40.6984 61.6452 39.6129 60.5597 39.6129 59.2258V35.0323C39.6129 33.6984 40.6984 32.6129 42.0323 32.6129H42.8387V61.6452ZM67.0323 50.3548H52.5161V47.129H67.0323V50.3548ZM67.0323 44.7097V45.5161H50.9032V51.9677H67.0323V58.4194H47.6774V42.2903H68.1468C67.4694 42.8823 67.0323 43.7411 67.0323 44.7097ZM76.7097 54.8355C76.2331 54.5581 75.6871 54.3871 75.0968 54.3871C74.5065 54.3871 73.9605 54.5581 73.4839 54.8355V44.7097C73.4839 43.7411 73.0468 42.8823 72.3694 42.2903H76.7097V54.8355ZM76.7097 40.6774H47.6774V35.8387H76.7097V40.6774ZM79.9355 56C79.3452 56 78.7992 56.171 78.3226 56.4484V34.2258H46.0645V60.0323H67.0323V60.3403L64.8677 61.4226C64.7355 61.4887 64.6137 61.5685 64.4895 61.6452H44.4516V32.6129H79.9355V56ZM86.3871 58.0613C85.9105 57.7839 85.3645 57.6129 84.7742 57.6129C84.1056 57.6129 83.4839 57.8177 82.9686 58.1669C82.7129 57.4371 82.2073 56.8323 81.5484 56.4484V32.6129H83.9677C85.3016 32.6129 86.3871 33.6984 86.3871 35.0323V58.0613Z" fill="#040E1A"/>
<path d="M84.7742 43.0968H83.1613V51.1613H84.7742V43.0968Z" fill="#040E1A"/>
<path d="M50.9032 37.4516H49.2903V39.0645H50.9032V37.4516Z" fill="#040E1A"/>
<path d="M54.129 37.4516H52.5161V39.0645H54.129V37.4516Z" fill="#040E1A"/>
<path d="M57.3548 37.4516H55.7419V39.0645H57.3548V37.4516Z" fill="#040E1A"/>
<defs>
<filter id="filter0_d" x="0" y="0" width="312" height="312" filterUnits="userSpaceOnUse" color-interpolation-filters="sRGB">
<feFlood flood-opacity="0" result="BackgroundImageFix"/>
<feColorMatrix in="SourceAlpha" type="matrix" values="0 0 0 0 0 0 0 0 0 0 0 0 0 0 0 0 0 0 127 0"/>
<feOffset dx="15" dy="15"/>
<feGaussianBlur stdDeviation="12.5"/>
<feColorMatrix type="matrix" values="0 0 0 0 0.912473 0 0 0 0 0.947101 0 0 0 0 0.9875 0 0 0 1 0"/>
<feBlend mode="normal" in2="BackgroundImageFix" result="effect1_dropShadow"/>
<feBlend mode="normal" in="SourceGraphic" in2="effect1_dropShadow" result="shape"/>
</filter>
</defs>
</svg>
