<svg id="Capa_1" enable-background="new 0 0 510 510" height="512" viewBox="0 0 510 510" width="512" xmlns="http://www.w3.org/2000/svg" xmlns:xlink="http://www.w3.org/1999/xlink"><linearGradient id="lg1"><stop offset="0" stop-color="#a2e62e"/><stop offset=".7542" stop-color="#09a76d"/><stop offset="1" stop-color="#017b4e"/></linearGradient><linearGradient id="SVGID_1_" gradientUnits="userSpaceOnUse" x1="73.579" x2="246.742" xlink:href="#lg1" y1="340.581" y2="340.581"/><linearGradient id="lg2"><stop offset="0" stop-color="#a2e62e"/><stop offset="1" stop-color="#02905d"/></linearGradient><linearGradient id="SVGID_2_" gradientUnits="userSpaceOnUse" x1="125.441" x2="230.491" xlink:href="#lg2" y1="345.925" y2="345.925"/><linearGradient id="SVGID_3_" gradientUnits="userSpaceOnUse" x1="262.143" x2="436.313" xlink:href="#lg1" y1="340.581" y2="340.581"/><linearGradient id="SVGID_4_" gradientUnits="userSpaceOnUse" x1="246.091" x2="412.751" xlink:href="#lg2" y1="340.581" y2="340.581"/><linearGradient id="SVGID_5_" gradientUnits="userSpaceOnUse" x1="236.465" x2="279.74" y1="345.925" y2="345.925"><stop offset="0" stop-color="#09a76d"/><stop offset="1" stop-color="#026841"/></linearGradient><linearGradient id="lg3"><stop offset="0" stop-color="#a79ba7"/><stop offset=".7487" stop-color="#7a6d79"/><stop offset="1" stop-color="#685e68"/></linearGradient><linearGradient id="SVGID_6_" gradientUnits="userSpaceOnUse" x1="67.976" x2="438.338" xlink:href="#lg3" y1="463.459" y2="463.459"/><linearGradient id="lg4"><stop offset="0" stop-color="#fff9df"/><stop offset=".593" stop-color="#ffe177"/><stop offset="1" stop-color="#feb137"/></linearGradient><linearGradient id="SVGID_7_" gradientUnits="userSpaceOnUse" x1="143.899" x2="366.101" xlink:href="#lg4" y1="121.396" y2="121.396"/><linearGradient id="SVGID_8_" gradientUnits="userSpaceOnUse" x1="234.934" x2="366.101" y1="121.396" y2="121.396"><stop offset="0" stop-color="#ffe177"/><stop offset="1" stop-color="#feb137"/></linearGradient><linearGradient id="SVGID_9_" gradientUnits="userSpaceOnUse" x1="217.171" x2="264.19" xlink:href="#lg3" y1="300.051" y2="300.051"/><linearGradient id="lg5"><stop offset="0" stop-color="#685e68"/><stop offset="1" stop-color="#433f43"/></linearGradient><linearGradient id="SVGID_10_" gradientUnits="userSpaceOnUse" x1="259" x2="296.5" xlink:href="#lg5" y1="300.052" y2="300.052"/><linearGradient id="lg6"><stop offset="0" stop-color="#f8f6f7"/><stop offset=".1788" stop-color="#f8f6f7"/><stop offset="1" stop-color="#e7e6f5"/></linearGradient><linearGradient id="SVGID_11_" gradientUnits="userSpaceOnUse" x1="201.924" x2="308.593" xlink:href="#lg6" y1="283.591" y2="283.591"/><linearGradient id="lg7"><stop offset="0" stop-color="#f8f6f7"/><stop offset="1" stop-color="#d1ceeb"/></linearGradient><linearGradient id="SVGID_12_" gradientUnits="userSpaceOnUse" x1="250.5" x2="315.692" xlink:href="#lg7" y1="287.591" y2="287.591"/><linearGradient id="SVGID_13_" gradientUnits="userSpaceOnUse" x1="201.924" x2="308.593" xlink:href="#lg6" y1="252.626" y2="252.626"/><linearGradient id="SVGID_14_" gradientUnits="userSpaceOnUse" x1="250.5" x2="315.692" xlink:href="#lg7" y1="252.626" y2="252.626"/><linearGradient id="SVGID_15_" gradientUnits="userSpaceOnUse" x1="353.333" x2="472.187" xlink:href="#lg5" y1="475.002" y2="475.002"/><linearGradient id="SVGID_16_" gradientUnits="userSpaceOnUse" x1="388.545" x2="461.065" xlink:href="#lg4" y1="106.644" y2="106.644"/><linearGradient id="SVGID_17_" gradientUnits="userSpaceOnUse" x1="54.122" x2="123.458" xlink:href="#lg4" y1="106.644" y2="106.644"/><linearGradient id="SVGID_18_" gradientUnits="userSpaceOnUse" x1="363.992" x2="441.766" xlink:href="#lg4" y1="193.442" y2="193.442"/><linearGradient id="SVGID_19_" gradientUnits="userSpaceOnUse" x1="74.008" x2="161.107" xlink:href="#lg4" y1="193.442" y2="193.442"/><linearGradient id="SVGID_20_" gradientUnits="userSpaceOnUse" x1="81.341" x2="154.032" xlink:href="#lg4" y1="26.682" y2="26.682"/><linearGradient id="SVGID_21_" gradientUnits="userSpaceOnUse" x1="365.325" x2="433.377" xlink:href="#lg4" y1="26.683" y2="26.683"/><g><g><g><g><path d="m116.957 385.249c26.556 26.556 62.779 39.604 102.885 40.147 14.796.2 26.799-11.803 26.599-26.599-.543-40.106-13.591-76.329-40.147-102.885s-62.779-39.604-102.885-40.147c-14.796-.2-26.799 11.803-26.599 26.599.543 40.106 13.591 76.329 40.147 102.885z" fill="url(#SVGID_1_)"/><path d="m160.857 266.451c2.036 1.722 4.02 3.538 5.94 5.457 37.343 37.343 37.343 97.887 0 135.23-2.299 2.299-4.687 4.455-7.151 6.471 18.361 7.616 38.72 11.496 60.196 11.787 14.796.2 26.799-11.803 26.599-26.599-.543-40.106-13.591-76.329-40.147-102.885-13.041-13.041-28.418-22.817-45.437-29.461z" fill="url(#SVGID_2_)"/></g><g><path d="m303.706 295.912c-26.556 26.556-39.604 62.779-40.147 102.885-.2 14.796 11.803 26.799 26.599 26.599 40.106-.543 76.329-13.591 102.885-40.147s39.604-62.779 40.147-102.885c.2-14.796-11.803-26.799-26.599-26.599-40.106.543-76.329 13.591-102.885 40.147z" fill="url(#SVGID_3_)"/></g><path d="m406.591 255.765c-9.671.131-19.114.997-28.253 2.596 8.885 4.287 14.974 13.43 14.831 24.003-.543 40.106-13.591 76.329-40.147 102.885-20.152 20.152-45.874 32.518-74.632 37.551 3.55 1.713 7.544 2.653 11.767 2.596 40.106-.543 76.329-13.591 102.885-40.147s39.604-62.779 40.147-102.885c.201-14.796-11.802-26.799-26.598-26.599z" fill="url(#SVGID_4_)"/></g></g><path d="m239.631 211.315v253.245c0 8.227 6.208 15.41 14.418 15.941 8.996.582 16.473-6.542 16.473-15.412v-253.774z" fill="url(#SVGID_5_)"/><g><path d="m464.921 482.737c0 36.351-419.841 36.351-419.841 0s93.984-65.819 209.92-65.819 209.921 29.468 209.921 65.819z" fill="url(#SVGID_6_)"/></g><g><path d="m366.101 111.101c0-60.748-48.755-110.108-109.269-111.086-61.846-1-112.307 48.095-112.928 109.946-.275 27.407 9.378 52.551 25.58 72.062 9.893 11.914 16.477 26.222 19.486 41.413 3.774 11.546 14.544 19.356 26.691 19.356h78.628c12.17 0 22.956-7.84 26.711-19.417l.105-.323c2.972-15.006 9.496-29.132 19.289-40.884 16.05-19.261 25.707-44.034 25.707-71.067z" fill="url(#SVGID_7_)"/><path d="m256.832.015c-7.49-.121-14.811.499-21.898 1.781 51.835 9.402 91.147 54.759 91.147 109.306 0 27.032-9.657 51.806-25.707 71.067-9.793 11.752-16.317 25.878-19.289 40.884l-.105.323c-3.755 11.577-14.54 19.417-26.711 19.417h40.02c12.17 0 22.956-7.84 26.711-19.417l.105-.323c2.972-15.006 9.496-29.132 19.289-40.884 16.05-19.261 25.707-44.035 25.707-71.067 0-60.748-48.754-110.109-109.269-111.087z" fill="url(#SVGID_8_)"/><path d="m306.08 288.888c0 21.049-22.869 38.112-51.08 38.112s-51.08-17.063-51.08-38.112 102.16-21.049 102.16 0z" fill="url(#SVGID_9_)"/><path d="m242.494 273.532c20.754 1.448 38.575 6.564 38.575 15.355 0 17.829-16.411 32.795-38.575 36.957 4.002.752 8.19 1.155 12.505 1.155 28.211 0 51.08-17.063 51.08-38.112.001-12.258-34.644-17.374-63.585-15.355z" fill="url(#SVGID_10_)"/><g><path d="m301.186 270.109-43.837-8-48.535 8c-9.655 0-17.483 7.827-17.483 17.483 0 9.655 7.827 17.483 17.483 17.483h92.372c9.655 0 17.483-7.827 17.483-17.483 0-9.656-7.828-17.483-17.483-17.483z" fill="url(#SVGID_11_)"/></g><path d="m301.186 270.109h-25.011c9.655 0 17.483 7.827 17.483 17.483s-7.827 17.483-17.483 17.483h25.011c9.655 0 17.483-7.827 17.483-17.483s-7.828-17.483-17.483-17.483z" fill="url(#SVGID_12_)"/><g><path d="m301.186 235.144h-92.372c-9.655 0-17.483 7.827-17.483 17.483 0 9.655 7.827 17.483 17.483 17.483h92.372c9.655 0 17.483-7.827 17.483-17.483 0-9.656-7.828-17.483-17.483-17.483z" fill="url(#SVGID_13_)"/></g><path d="m301.186 235.144h-25.011c9.655 0 17.483 7.827 17.483 17.483s-7.827 17.483-17.483 17.483h25.011c9.655 0 17.483-7.827 17.483-17.483s-7.828-17.483-17.483-17.483z" fill="url(#SVGID_14_)"/></g><path d="m414.654 440.005c6.602 9.409 10.184 19.445 10.184 29.868 0 25.211-93.228 38.54-191.821 39.991 111.751 1.36 231.904-7.682 231.904-27.128 0-16.309-18.931-31.232-50.267-42.731z" fill="url(#SVGID_15_)"/><g><path d="m451.197 116.659h-47.143c-5.531 0-10.015-4.484-10.015-10.015s4.484-10.015 10.015-10.015h47.143c5.531 0 10.015 4.484 10.015 10.015s-4.485 10.015-10.015 10.015z" fill="url(#SVGID_16_)"/><path d="m105.947 116.659h-47.144c-5.531 0-10.015-4.484-10.015-10.015s4.484-10.014 10.015-10.014h47.144c5.531 0 10.015 4.484 10.015 10.015s-4.483 10.014-10.015 10.014z" fill="url(#SVGID_17_)"/></g><path d="m414.889 220.125c-2.563 0-5.126-.978-7.082-2.933l-33.336-33.336c-3.911-3.911-3.911-10.252 0-14.163 3.912-3.91 10.251-3.91 14.163 0l33.336 33.336c3.911 3.911 3.911 10.252 0 14.163-1.955 1.955-4.518 2.933-7.081 2.933z" fill="url(#SVGID_18_)"/><path d="m95.11 220.125c-2.563 0-5.126-.978-7.082-2.933-3.911-3.911-3.911-10.252 0-14.163l33.336-33.336c3.911-3.91 10.252-3.91 14.163 0 3.911 3.911 3.911 10.252 0 14.163l-33.336 33.336c-1.954 1.955-4.518 2.933-7.081 2.933z" fill="url(#SVGID_19_)"/><g><path d="m128.447 53.365c-2.563 0-5.126-.978-7.081-2.933l-33.337-33.336c-3.911-3.911-3.911-10.252 0-14.163s10.252-3.911 14.163 0l33.336 33.335c3.911 3.911 3.911 10.252.001 14.163-1.956 1.956-4.52 2.934-7.082 2.934z" fill="url(#SVGID_20_)"/><path d="m381.553 53.365c-2.563 0-5.126-.978-7.082-2.933-3.911-3.911-3.911-10.252 0-14.163l33.336-33.335c3.913-3.911 10.252-3.91 14.163 0 3.911 3.911 3.911 10.252 0 14.163l-33.336 33.335c-1.955 1.955-4.518 2.933-7.081 2.933z" fill="url(#SVGID_21_)"/></g></g></svg>