<svg width="50" height="50" viewBox="0 0 50 50" fill="none" xmlns="http://www.w3.org/2000/svg">
<path d="M21.7742 45.1613H16.129V46.7742H21.7742V45.1613Z" fill="#040E1A"/>
<path d="M4.83873 3.22583H3.22583V4.83873H4.83873V3.22583Z" fill="#040E1A"/>
<path d="M8.06444 3.22583H6.45154V4.83873H8.06444V3.22583Z" fill="#040E1A"/>
<path d="M11.2903 3.22583H9.67737V4.83873H11.2903V3.22583Z" fill="#040E1A"/>
<path d="M28.2257 17.7419C29.5596 17.7419 30.6451 16.6564 30.6451 15.3226C30.6451 13.9887 29.5596 12.9032 28.2257 12.9032C26.8919 12.9032 25.8064 13.9887 25.8064 15.3226C25.8064 15.9258 26.0362 16.4709 26.4023 16.8951L23.5217 20.3516C23.233 20.229 22.9144 20.1613 22.5806 20.1613C22.2411 20.1613 21.9177 20.233 21.6241 20.3605L18.2628 16.4387C18.4386 16.1032 18.5483 15.7274 18.5483 15.3226C18.5483 13.9887 17.4628 12.9032 16.129 12.9032C14.7951 12.9032 13.7096 13.9887 13.7096 15.3226C13.7096 15.7871 13.8475 16.2177 14.0757 16.5863L9.21283 24.2282C9.09993 24.2121 8.98783 24.1935 8.87089 24.1935C7.53702 24.1935 6.45154 25.279 6.45154 26.6129C6.45154 27.9467 7.53702 29.0322 8.87089 29.0322C10.2048 29.0322 11.2902 27.9467 11.2902 26.6129C11.2902 25.9822 11.0419 25.4121 10.6451 24.9814L15.3427 17.6C15.5902 17.6855 15.8523 17.7419 16.129 17.7419C16.4685 17.7419 16.7919 17.6701 17.0854 17.5427L20.4467 21.4645C20.2709 21.8 20.1612 22.1758 20.1612 22.5806C20.1612 23.9145 21.2467 25 22.5806 25C23.9144 25 24.9999 23.9145 24.9999 22.5806C24.9999 22.1701 24.8878 21.7895 24.7064 21.4508L27.8306 17.7024C27.9596 17.7234 28.0903 17.7419 28.2257 17.7419ZM8.87089 27.4193C8.42654 27.4193 8.06444 27.058 8.06444 26.6129C8.06444 26.1677 8.42654 25.8064 8.87089 25.8064C9.31525 25.8064 9.67734 26.1677 9.67734 26.6129C9.67734 27.058 9.31525 27.4193 8.87089 27.4193ZM16.129 16.129C15.6846 16.129 15.3225 15.7677 15.3225 15.3226C15.3225 14.8774 15.6846 14.5161 16.129 14.5161C16.5733 14.5161 16.9354 14.8774 16.9354 15.3226C16.9354 15.7677 16.5733 16.129 16.129 16.129ZM22.5806 23.3871C22.1362 23.3871 21.7741 23.0258 21.7741 22.5806C21.7741 22.1355 22.1362 21.7742 22.5806 21.7742C23.0249 21.7742 23.387 22.1355 23.387 22.5806C23.387 23.0258 23.0249 23.3871 22.5806 23.3871ZM27.4193 15.3226C27.4193 14.8774 27.7814 14.5161 28.2257 14.5161C28.6701 14.5161 29.0322 14.8774 29.0322 15.3226C29.0322 15.7677 28.6701 16.129 28.2257 16.129C27.7814 16.129 27.4193 15.7677 27.4193 15.3226Z" fill="#040E1A"/>
<path d="M46.7742 9.67743H35.4839V11.2903H46.7742V9.67743Z" fill="#040E1A"/>
<path d="M46.7742 12.9032H35.4839V14.5161H46.7742V12.9032Z" fill="#040E1A"/>
<path d="M46.7742 16.129H35.4839V17.7419H46.7742V16.129Z" fill="#040E1A"/>
<path d="M46.7742 19.3549H35.4839V20.9678H46.7742V19.3549Z" fill="#040E1A"/>
<path d="M46.7741 22.5806H37.0967V24.1935H46.7741V22.5806Z" fill="#040E1A"/>
<path d="M46.7741 25.8065H37.0967V27.4194H46.7741V25.8065Z" fill="#040E1A"/>
<path d="M46.7741 29.0322H37.0967V30.6451H46.7741V29.0322Z" fill="#040E1A"/>
<path d="M50 0H0V35.4839H12.9032V47.5806C12.9032 48.9145 13.9887 50 15.3226 50H22.5806C23.9145 50 25 48.9145 25 47.5806H25.9653C26.6056 47.5806 27.2 47.8992 27.5548 48.4315C28.2089 49.4129 29.3048 50 30.4863 50H42.3685C44.7976 50 46.7742 48.0242 46.7742 45.5944V36.6637C46.7742 36.2548 46.7137 35.8597 46.6089 35.4839H50V0ZM23.3871 47.5806C23.3871 48.0258 23.025 48.3871 22.5806 48.3871H15.3226C14.8782 48.3871 14.5161 48.0258 14.5161 47.5806V33.871C14.5161 33.4258 14.8782 33.0645 15.3226 33.0645H22.5806C23.025 33.0645 23.3871 33.4258 23.3871 33.871V47.5806ZM4.83871 30.6452V11.2903H32.2581V22.6218C32.1242 22.6065 31.9927 22.5806 31.8548 22.5806C29.854 22.5806 28.2258 24.2089 28.2258 26.2097V30.3645C28.2258 30.4605 28.2048 30.5508 28.1976 30.6452H4.83871ZM24.9976 33.8427C24.9903 33.2323 24.7524 32.6806 24.371 32.2581H27.6621C27.0855 33.1508 26.1145 33.7532 24.9976 33.8427ZM45.1613 45.5944C45.1613 47.1339 43.9089 48.3871 42.3685 48.3871H30.4863C29.846 48.3871 29.2516 48.0686 28.8968 47.5363C28.2427 46.5548 27.1468 45.9677 25.9653 45.9677H25V35.4758C27.6927 35.3298 29.8387 33.0935 29.8387 30.3645V26.2097C29.8387 25.0976 30.7435 24.1935 31.8548 24.1935C32.9661 24.1935 33.871 25.0976 33.871 26.2097V31.2855C33.871 32.7113 35.0306 33.871 36.4565 33.871H42.3685C43.9089 33.871 45.1613 35.1242 45.1613 36.6637V45.5944ZM48.3871 33.871H45.7734C44.9645 32.8871 43.7387 32.2581 42.3694 32.2581H36.4573C35.9202 32.2581 35.4839 31.8218 35.4839 31.2855V26.2097C35.4839 24.954 34.8427 23.8468 33.871 23.1952V9.67742H3.22581V32.2581H13.5323C13.1452 32.6871 12.9032 33.2492 12.9032 33.871H1.6129V8.06452H48.3871V33.871ZM48.3871 6.45161H1.6129V1.6129H48.3871V6.45161Z" fill="#040E1A"/>
</svg>
