<svg width="50" height="50" viewBox="0 0 50 50" fill="none" xmlns="http://www.w3.org/2000/svg">
<path d="M50 0H0V38.7097H26.9516L24.8347 50H26.7677L30.55 48.4871L32.8202 50H34.5629L35.4839 44.0129L36.4048 50H38.1476L40.4169 48.4871L44.2 50H46.1331L44.0161 38.7097H50V0ZM33.1927 48.3081L31.5266 47.1984L31.8444 45.2935L30.2532 45.0282L29.925 47L26.8048 48.2484L28.85 37.3411C29.6048 37.8919 30.4274 38.3532 31.3073 38.7056L30.5226 43.4153L32.1137 43.6806L32.8613 39.1952C33.4113 39.3266 33.975 39.421 34.5524 39.4686L33.1927 48.3081ZM35.4839 37.9032C30.1476 37.9032 25.8065 33.5621 25.8065 28.2258C25.8065 22.8895 30.1476 18.5484 35.4839 18.5484C40.8202 18.5484 45.1613 22.8895 45.1613 28.2258C45.1613 33.5621 40.8202 37.9032 35.4839 37.9032ZM4.83871 20.9677V11.2903H45.1613V20.9677H44.1194C42.0468 18.5056 38.9468 16.9355 35.4839 16.9355C32.021 16.9355 28.921 18.5056 26.8484 20.9677H4.83871ZM44.1645 48.2484L41.0435 47L40.7153 45.0282L39.1242 45.2935L39.4419 47.1984L37.7766 48.3081L36.4169 39.4686C36.9944 39.421 37.5581 39.3274 38.1081 39.1952L38.8556 43.6806L40.4468 43.4153L39.6621 38.7056C40.5419 38.3532 41.3645 37.8919 42.1194 37.3411L44.1645 48.2484ZM48.3871 37.0968H43.7137L43.5347 36.1419L43.5186 36.1452C45.529 34.1048 46.7742 31.3089 46.7742 28.2258C46.7742 26.1685 46.2121 24.2435 45.2468 22.5806H46.7742V9.67742H3.22581V22.5806H25.721C24.7556 24.2435 24.1935 26.1685 24.1935 28.2258C24.1935 31.3089 25.4387 34.1048 27.4492 36.1452L27.4331 36.1419L27.254 37.0968H1.6129V8.06452H48.3871V37.0968ZM48.3871 6.45161H1.6129V1.6129H48.3871V6.45161Z" fill="#040E1A"/>
<path d="M4.83873 3.22583H3.22583V4.83873H4.83873V3.22583Z" fill="#040E1A"/>
<path d="M8.06456 3.22583H6.45166V4.83873H8.06456V3.22583Z" fill="#040E1A"/>
<path d="M11.2904 3.22583H9.67749V4.83873H11.2904V3.22583Z" fill="#040E1A"/>
<path d="M22.5807 24.1935H3.22583V35.4839H22.5807V24.1935ZM20.9678 33.871H4.83873V25.8064H20.9678V33.871Z" fill="#040E1A"/>
<path d="M43.7241 25.5483L38.0298 24.7209L35.4838 19.5604L32.937 24.7209L27.2427 25.5483L31.3628 29.5645L30.3911 35.2362L35.4838 32.5588L40.5765 35.2362L39.604 29.5645L43.7241 25.5483ZM35.4838 30.7362L32.533 32.2878L33.0959 29.0016L30.7088 26.6741L34.008 26.1951L35.4838 23.2048L36.9596 26.1951L40.2588 26.6741L37.8717 29.0016L38.4346 32.2878L35.4838 30.7362Z" fill="#040E1A"/>
</svg>
