<svg width="50" height="50" viewBox="0 0 50 50" fill="none" xmlns="http://www.w3.org/2000/svg">
<path d="M50 4.03226C50 1.80887 48.1911 0 45.9677 0H4.03226C1.80887 0 0 1.80887 0 4.03226V28.2258C0 30.4492 1.80887 32.2581 4.03226 32.2581H24.8831C24.4411 32.9944 24.1935 33.8492 24.1935 34.75V41.6742C24.1935 44.1081 25.7452 46.2605 28.0532 47.029L29.0323 47.3556V50H30.6452V46.1927L28.5637 45.4992C26.9145 44.9492 25.8065 43.4121 25.8065 41.6742V34.75C25.8065 33.521 26.4895 32.4145 27.5895 31.8653L29.0323 31.1435V36.2903H30.6452V13.7097C30.6452 12.8202 31.3685 12.0968 32.2581 12.0968C33.1476 12.0968 33.871 12.8202 33.871 13.7097V26.6129V29.0323H35.4839V26.6129C35.4839 25.7234 36.2073 25 37.0968 25C37.9863 25 38.7097 25.7234 38.7097 26.6129V28.2258V29.0323V30.6452H40.3226V29.0323V28.2258C40.3226 27.3363 41.046 26.6129 41.9355 26.6129C42.825 26.6129 43.5484 27.3363 43.5484 28.2258V29.8387V30.6452V32.2581H45.1613V30.6452V29.8387C45.1613 28.9492 45.8847 28.2258 46.7742 28.2258C47.6637 28.2258 48.3871 28.9492 48.3871 29.8387V43.7839C48.3871 45.3202 47.5331 46.7024 46.1581 47.3903L45.1613 47.8887V50H46.7742V48.8855L46.8798 48.8331C48.8048 47.8694 50 45.9355 50 43.7839V29.8387C50 29.5677 49.9565 29.3089 49.8927 29.0573C49.9581 28.7653 50 28.4903 50 28.2258V4.03226ZM4.83871 30.6452H4.03226C2.69839 30.6452 1.6129 29.5597 1.6129 28.2258V4.03226C1.6129 2.69839 2.69839 1.6129 4.03226 1.6129H4.83871V30.6452ZM29.0323 19.3548H14.5161V16.129H29.0323V19.3548ZM29.0323 13.7097V14.5161H12.9032V20.9677H29.0323V27.4194H9.67742V11.2903H30.1468C29.4694 11.8823 29.0323 12.7411 29.0323 13.7097ZM38.7097 23.8355C38.2331 23.5581 37.6871 23.3871 37.0968 23.3871C36.5065 23.3871 35.9605 23.5581 35.4839 23.8355V13.7097C35.4839 12.7411 35.0468 11.8823 34.3694 11.2903H38.7097V23.8355ZM38.7097 9.67742H9.67742V4.83871H38.7097V9.67742ZM41.9355 25C41.3452 25 40.7992 25.171 40.3226 25.4484V3.22581H8.06452V29.0323H29.0323V29.3403L26.8677 30.4226C26.7355 30.4887 26.6137 30.5685 26.4895 30.6452H6.45161V1.6129H41.9355V25ZM48.3871 27.0613C47.9105 26.7839 47.3645 26.6129 46.7742 26.6129C46.1056 26.6129 45.4839 26.8177 44.9686 27.1669C44.7129 26.4371 44.2073 25.8323 43.5484 25.4484V1.6129H45.9677C47.3016 1.6129 48.3871 2.69839 48.3871 4.03226V27.0613Z" fill="#040E1A"/>
<path d="M46.7742 12.0968H45.1613V20.1613H46.7742V12.0968Z" fill="#040E1A"/>
<path d="M12.9032 6.4516H11.2903V8.0645H12.9032V6.4516Z" fill="#040E1A"/>
<path d="M16.129 6.4516H14.5161V8.0645H16.129V6.4516Z" fill="#040E1A"/>
<path d="M19.3548 6.4516H17.7419V8.0645H19.3548V6.4516Z" fill="#040E1A"/>
</svg>
