<svg width="198" height="170" viewBox="0 0 198 170" fill="none" xmlns="http://www.w3.org/2000/svg">
<path d="M6 3.00024C6 4.6569 4.65684 6 2.9989 6C1.34275 6 0 4.6569 0 3.00024C0 1.34323 1.34275 0 2.9989 0C4.65684 0 6 1.34323 6 3.00024Z" fill="#EAF2FD"/>
<path d="M44.3408 3.00024C44.3408 4.6569 42.9976 6 41.3402 6C39.684 6 38.3408 4.6569 38.3408 3.00024C38.3408 1.34323 39.684 0 41.3402 0C42.9976 0 44.3408 1.34323 44.3408 3.00024Z" fill="#EAF2FD"/>
<path d="M82.6816 3.00024C82.6816 4.6569 81.3386 6 79.6821 6C78.0242 6 76.6816 4.6569 76.6816 3.00024C76.6816 1.34323 78.0242 0 79.6821 0C81.3386 0 82.6816 1.34323 82.6816 3.00024Z" fill="#EAF2FD"/>
<path d="M121.023 3.00024C121.023 4.6569 119.679 6 118.021 6C116.365 6 115.023 4.6569 115.023 3.00024C115.023 1.34323 116.365 0 118.021 0C119.679 0 121.023 1.34323 121.023 3.00024Z" fill="#EAF2FD"/>
<path d="M159.359 3.00024C159.359 4.6569 158.016 6 156.359 6C154.701 6 153.359 4.6569 153.359 3.00024C153.359 1.34323 154.701 0 156.359 0C158.016 0 159.359 1.34323 159.359 3.00024Z" fill="#EAF2FD"/>
<path d="M197.7 3.00024C197.7 4.6569 196.356 6 194.699 6C193.043 6 191.7 4.6569 191.7 3.00024C191.7 1.34323 193.043 0 194.699 0C196.356 0 197.7 1.34323 197.7 3.00024Z" fill="#EAF2FD"/>
<path d="M6 34.9649C6 36.6223 4.65684 37.9652 2.9989 37.9652C1.34275 37.9652 0 36.6223 0 34.9649C0 33.3081 1.34275 31.9652 2.9989 31.9652C4.65684 31.9652 6 33.3081 6 34.9649Z" fill="#EAF2FD"/>
<path d="M44.3408 34.9649C44.3408 36.6223 42.9976 37.9652 41.3402 37.9652C39.684 37.9652 38.3408 36.6223 38.3408 34.9649C38.3408 33.3081 39.684 31.9652 41.3402 31.9652C42.9976 31.9652 44.3408 33.3081 44.3408 34.9649Z" fill="#EAF2FD"/>
<path d="M82.6816 34.9649C82.6816 36.6223 81.3386 37.9652 79.6821 37.9652C78.0242 37.9652 76.6816 36.6223 76.6816 34.9649C76.6816 33.3081 78.0242 31.9652 79.6821 31.9652C81.3386 31.9652 82.6816 33.3081 82.6816 34.9649Z" fill="#EAF2FD"/>
<path d="M121.023 34.9649C121.023 36.6223 119.679 37.9652 118.021 37.9652C116.365 37.9652 115.023 36.6223 115.023 34.9649C115.023 33.3081 116.365 31.9652 118.021 31.9652C119.679 31.9652 121.023 33.3081 121.023 34.9649Z" fill="#EAF2FD"/>
<path d="M159.359 34.9649C159.359 36.6223 158.016 37.9652 156.359 37.9652C154.701 37.9652 153.359 36.6223 153.359 34.9649C153.359 33.3081 154.701 31.9652 156.359 31.9652C158.016 31.9652 159.359 33.3081 159.359 34.9649Z" fill="#EAF2FD"/>
<path d="M197.7 34.9649C197.7 36.6223 196.356 37.9652 194.699 37.9652C193.043 37.9652 191.7 36.6223 191.7 34.9649C191.7 33.3081 193.043 31.9652 194.699 31.9652C196.356 31.9652 197.7 33.3081 197.7 34.9649Z" fill="#EAF2FD"/>
<path d="M6 135C6 136.657 4.65684 138 2.9989 138C1.34275 138 0 136.657 0 135C0 133.343 1.34275 132 2.9989 132C4.65684 132 6 133.343 6 135Z" fill="#EAF2FD"/>
<path d="M44.3408 135C44.3408 136.657 42.9976 138 41.3402 138C39.684 138 38.3408 136.657 38.3408 135C38.3408 133.343 39.684 132 41.3402 132C42.9976 132 44.3408 133.343 44.3408 135Z" fill="#EAF2FD"/>
<path d="M82.6816 135C82.6816 136.657 81.3386 138 79.6821 138C78.0242 138 76.6816 136.657 76.6816 135C76.6816 133.343 78.0242 132 79.6821 132C81.3386 132 82.6816 133.343 82.6816 135Z" fill="#EAF2FD"/>
<path d="M121.023 135C121.023 136.657 119.679 138 118.021 138C116.365 138 115.023 136.657 115.023 135C115.023 133.343 116.365 132 118.021 132C119.679 132 121.023 133.343 121.023 135Z" fill="#EAF2FD"/>
<path d="M159.359 135C159.359 136.657 158.016 138 156.359 138C154.701 138 153.359 136.657 153.359 135C153.359 133.343 154.701 132 156.359 132C158.016 132 159.359 133.343 159.359 135Z" fill="#EAF2FD"/>
<path d="M197.7 135C197.7 136.657 196.356 138 194.699 138C193.043 138 191.7 136.657 191.7 135C191.7 133.343 193.043 132 194.699 132C196.356 132 197.7 133.343 197.7 135Z" fill="#EAF2FD"/>
<path d="M6 166.965C6 168.622 4.65684 169.965 2.9989 169.965C1.34275 169.965 0 168.622 0 166.965C0 165.308 1.34275 163.965 2.9989 163.965C4.65684 163.965 6 165.308 6 166.965Z" fill="#EAF2FD"/>
<path d="M44.3408 166.965C44.3408 168.622 42.9976 169.965 41.3402 169.965C39.684 169.965 38.3408 168.622 38.3408 166.965C38.3408 165.308 39.684 163.965 41.3402 163.965C42.9976 163.965 44.3408 165.308 44.3408 166.965Z" fill="#EAF2FD"/>
<path d="M82.6816 166.965C82.6816 168.622 81.3386 169.965 79.6821 169.965C78.0242 169.965 76.6816 168.622 76.6816 166.965C76.6816 165.308 78.0242 163.965 79.6821 163.965C81.3386 163.965 82.6816 165.308 82.6816 166.965Z" fill="#EAF2FD"/>
<path d="M121.023 166.965C121.023 168.622 119.679 169.965 118.021 169.965C116.365 169.965 115.023 168.622 115.023 166.965C115.023 165.308 116.365 163.965 118.021 163.965C119.679 163.965 121.023 165.308 121.023 166.965Z" fill="#EAF2FD"/>
<path d="M159.359 166.965C159.359 168.622 158.016 169.965 156.359 169.965C154.701 169.965 153.359 168.622 153.359 166.965C153.359 165.308 154.701 163.965 156.359 163.965C158.016 163.965 159.359 165.308 159.359 166.965Z" fill="#EAF2FD"/>
<path d="M197.7 166.965C197.7 168.622 196.356 169.965 194.699 169.965C193.043 169.965 191.7 168.622 191.7 166.965C191.7 165.308 193.043 163.965 194.699 163.965C196.356 163.965 197.7 165.308 197.7 166.965Z" fill="#EAF2FD"/>
<path d="M6 69.0002C6 70.6569 4.65684 72 2.9989 72C1.34275 72 0 70.6569 0 69.0002C0 67.3432 1.34275 66 2.9989 66C4.65684 66 6 67.3432 6 69.0002Z" fill="#EAF2FD"/>
<path d="M44.3408 69.0002C44.3408 70.6569 42.9976 72 41.3402 72C39.684 72 38.3408 70.6569 38.3408 69.0002C38.3408 67.3432 39.684 66 41.3402 66C42.9976 66 44.3408 67.3432 44.3408 69.0002Z" fill="#EAF2FD"/>
<path d="M82.6816 69.0002C82.6816 70.6569 81.3386 72 79.6821 72C78.0242 72 76.6816 70.6569 76.6816 69.0002C76.6816 67.3432 78.0242 66 79.6821 66C81.3386 66 82.6816 67.3432 82.6816 69.0002Z" fill="#EAF2FD"/>
<path d="M121.023 69.0002C121.023 70.6569 119.679 72 118.021 72C116.365 72 115.023 70.6569 115.023 69.0002C115.023 67.3432 116.365 66 118.021 66C119.679 66 121.023 67.3432 121.023 69.0002Z" fill="#EAF2FD"/>
<path d="M159.359 69.0002C159.359 70.6569 158.016 72 156.359 72C154.701 72 153.359 70.6569 153.359 69.0002C153.359 67.3432 154.701 66 156.359 66C158.016 66 159.359 67.3432 159.359 69.0002Z" fill="#EAF2FD"/>
<path d="M197.7 69.0002C197.7 70.6569 196.356 72 194.699 72C193.043 72 191.7 70.6569 191.7 69.0002C191.7 67.3432 193.043 66 194.699 66C196.356 66 197.7 67.3432 197.7 69.0002Z" fill="#EAF2FD"/>
<path d="M6 100.965C6 102.622 4.65684 103.965 2.9989 103.965C1.34275 103.965 0 102.622 0 100.965C0 99.3081 1.34275 97.9652 2.9989 97.9652C4.65684 97.9652 6 99.3081 6 100.965Z" fill="#EAF2FD"/>
<path d="M44.3408 100.965C44.3408 102.622 42.9976 103.965 41.3402 103.965C39.684 103.965 38.3408 102.622 38.3408 100.965C38.3408 99.3081 39.684 97.9652 41.3402 97.9652C42.9976 97.9652 44.3408 99.3081 44.3408 100.965Z" fill="#EAF2FD"/>
<path d="M82.6816 100.965C82.6816 102.622 81.3386 103.965 79.6821 103.965C78.0242 103.965 76.6816 102.622 76.6816 100.965C76.6816 99.3081 78.0242 97.9652 79.6821 97.9652C81.3386 97.9652 82.6816 99.3081 82.6816 100.965Z" fill="#EAF2FD"/>
<path d="M121.023 100.965C121.023 102.622 119.679 103.965 118.021 103.965C116.365 103.965 115.023 102.622 115.023 100.965C115.023 99.3081 116.365 97.9652 118.021 97.9652C119.679 97.9652 121.023 99.3081 121.023 100.965Z" fill="#EAF2FD"/>
<path d="M159.359 100.965C159.359 102.622 158.016 103.965 156.359 103.965C154.701 103.965 153.359 102.622 153.359 100.965C153.359 99.3081 154.701 97.9652 156.359 97.9652C158.016 97.9652 159.359 99.3081 159.359 100.965Z" fill="#EAF2FD"/>
<path d="M197.7 100.965C197.7 102.622 196.356 103.965 194.699 103.965C193.043 103.965 191.7 102.622 191.7 100.965C191.7 99.3081 193.043 97.9652 194.699 97.9652C196.356 97.9652 197.7 99.3081 197.7 100.965Z" fill="#EAF2FD"/>
<rect x="72" y="66" width="126" height="104" fill="white"/>
</svg>
