<svg width="500" height="500" viewBox="0 0 500 500" fill="none" xmlns="http://www.w3.org/2000/svg">
<path d="M419 421.83C419 421.83 388.42 375.18 393 364.48C397.58 353.78 413.64 372.12 413.64 372.12C413.64 372.12 390 309.42 406 295.66C422 281.9 427.41 352.24 427.41 352.24C427.41 352.24 441.93 311.72 453.41 327.01C464.89 342.3 435.83 374.42 435.83 374.42C435.83 374.42 455.71 375.18 450.35 388.18C444.99 401.18 430.47 414.94 430.47 414.94L419 421.83Z" fill="#4285F4"/>
<path d="M410.59 411.12C410.59 411.12 392.24 385.12 401.42 379.77C410.6 374.42 415.18 390.48 415.18 390.48C415.18 390.48 415.95 320.13 430.47 325.48C444.99 330.83 439.65 373.65 439.65 373.65C439.65 373.65 458 361.42 457.24 379C456.48 396.58 432 411.89 432 411.89" stroke="#040E1A" stroke-linecap="round" stroke-linejoin="round"/>
<path d="M427.42 412.65L411.36 395.06" stroke="#040E1A" stroke-linecap="round" stroke-linejoin="round"/>
<path d="M428.18 421.06L427.42 377.48" stroke="#040E1A" stroke-linecap="round" stroke-linejoin="round"/>
<path d="M428.94 406.53L443.47 387.42" stroke="#040E1A" stroke-linecap="round" stroke-linejoin="round"/>
<path d="M441.94 408.06H401.42L405.47 444H437.89L441.94 408.06Z" fill="#040E1A" stroke="#040E1A" stroke-linecap="round" stroke-linejoin="round"/>
<path d="M381.19 51.39H188.68C184.444 51.39 181.01 54.824 181.01 59.06V436.33C181.01 440.566 184.444 444 188.68 444H381.19C385.426 444 388.86 440.566 388.86 436.33V59.06C388.86 54.824 385.426 51.39 381.19 51.39Z" fill="white" stroke="#040E1A" stroke-linecap="round" stroke-linejoin="round"/>
<path d="M305.52 73.06H264.35C263.605 73.06 262.89 72.7639 262.363 72.237C261.836 71.71 261.54 70.9953 261.54 70.25C261.54 69.5047 261.836 68.79 262.363 68.263C262.89 67.7361 263.605 67.44 264.35 67.44H305.52C306.265 67.44 306.98 67.7361 307.507 68.263C308.034 68.79 308.33 69.5047 308.33 70.25C308.33 70.619 308.257 70.9844 308.116 71.3253C307.975 71.6663 307.768 71.976 307.507 72.237C307.246 72.4979 306.936 72.7049 306.595 72.8461C306.254 72.9873 305.889 73.06 305.52 73.06Z" fill="#040E1A"/>
<path d="M296.16 418.19C296.16 415.969 295.501 413.798 294.267 411.951C293.033 410.104 291.28 408.665 289.228 407.815C287.175 406.965 284.918 406.742 282.739 407.176C280.561 407.609 278.56 408.679 276.989 410.249C275.419 411.82 274.349 413.821 273.916 415.999C273.482 418.178 273.705 420.436 274.555 422.488C275.405 424.54 276.844 426.293 278.691 427.527C280.538 428.761 282.709 429.42 284.93 429.42C287.908 429.42 290.765 428.237 292.871 426.131C294.977 424.025 296.16 421.168 296.16 418.19Z" fill="white" stroke="#040E1A" stroke-width="0.704333" stroke-linecap="round" stroke-linejoin="round"/>
<path d="M290.62 412.5H279.24V423.88H290.62V412.5Z" fill="#040E1A"/>
<path d="M379.62 94.5H190.25V400.89H379.62V94.5Z" fill="#4285F4" stroke="#040E1A" stroke-linecap="round" stroke-linejoin="round"/>
<path d="M379.62 94.5H190.25V114.16H379.62V94.5Z" fill="#040E1A" stroke="#040E1A" stroke-linecap="round" stroke-linejoin="round"/>
<path d="M275.96 118.99H297.2" stroke="#040E1A" stroke-linecap="round" stroke-linejoin="round"/>
<path d="M262.52 122.89H313.24" stroke="#040E1A" stroke-linecap="round" stroke-linejoin="round"/>
<path d="M220.89 152.87C220.699 152.87 220.512 152.821 220.346 152.728C220.179 152.635 220.039 152.501 219.939 152.338C219.839 152.176 219.782 151.991 219.773 151.801C219.765 151.61 219.805 151.421 219.89 151.25L236.32 118.1C236.411 117.913 236.553 117.755 236.73 117.645C236.907 117.535 237.112 117.478 237.32 117.48C237.531 117.484 237.736 117.547 237.913 117.662C238.089 117.777 238.231 117.939 238.32 118.13L253.32 150.7C253.412 150.834 253.474 150.986 253.502 151.146C253.529 151.307 253.522 151.471 253.479 151.628C253.437 151.785 253.361 151.931 253.256 152.055C253.152 152.18 253.021 152.28 252.874 152.349C252.727 152.418 252.567 152.455 252.404 152.456C252.242 152.457 252.081 152.422 251.933 152.355C251.785 152.287 251.654 152.188 251.548 152.065C251.442 151.941 251.364 151.796 251.32 151.64L237.32 121.2L221.94 152.2C221.85 152.402 221.702 152.574 221.516 152.693C221.329 152.812 221.111 152.873 220.89 152.87Z" fill="#040E1A"/>
<path d="M216.28 148.58H256.92L267.13 182.45C267.632 184.1 267.738 185.845 267.441 187.544C267.144 189.243 266.452 190.848 265.42 192.23C264.396 193.622 263.058 194.753 261.515 195.531C259.972 196.309 258.268 196.713 256.54 196.71H217.88C216.134 196.709 214.414 196.295 212.859 195.502C211.303 194.71 209.957 193.561 208.93 192.15L208.49 191.54C207.503 190.182 206.838 188.618 206.545 186.965C206.252 185.312 206.339 183.614 206.8 182L216.28 148.58Z" fill="white" stroke="#040E1A" stroke-linecap="round" stroke-linejoin="round"/>
<path d="M298.46 153.19H367.63V189C367.63 191.047 366.817 193.011 365.369 194.459C363.921 195.907 361.957 196.72 359.91 196.72H306.18C304.132 196.72 302.169 195.907 300.721 194.459C299.273 193.011 298.46 191.047 298.46 189V153.2V153.19Z" fill="white" stroke="#040E1A" stroke-linecap="round" stroke-linejoin="round"/>
<path d="M298.46 153.19L305.93 172.65C306.531 174.215 307.592 175.562 308.974 176.512C310.356 177.462 311.993 177.97 313.67 177.97H353.09C354.811 177.971 356.489 177.436 357.892 176.439C359.295 175.443 360.353 174.035 360.92 172.41L367.63 153.19" stroke="#040E1A" stroke-linecap="round" stroke-linejoin="round"/>
<path d="M341.97 174.51H326.7V181.14H341.97V174.51Z" fill="white" stroke="#040E1A" stroke-linecap="round" stroke-linejoin="round"/>
<path d="M321.8 152.9L294.42 181.43L296.15 184.03L325.84 153.47L321.8 152.9Z" fill="white" stroke="#040E1A" stroke-linecap="round" stroke-linejoin="round"/>
<path d="M248.6 203.61H224.26C221.499 203.61 219.26 205.849 219.26 208.61V209.81C219.26 212.571 221.499 214.81 224.26 214.81H248.6C251.361 214.81 253.6 212.571 253.6 209.81V208.61C253.6 205.849 251.361 203.61 248.6 203.61Z" fill="#040E1A"/>
<path d="M343.69 203.61H319.35C316.589 203.61 314.35 205.849 314.35 208.61V209.81C314.35 212.571 316.589 214.81 319.35 214.81H343.69C346.451 214.81 348.69 212.571 348.69 209.81V208.61C348.69 205.849 346.451 203.61 343.69 203.61Z" fill="#040E1A"/>
<path d="M256.73 249.07C256.479 249.068 256.235 248.983 256.037 248.827C255.84 248.671 255.7 248.454 255.64 248.21C255.64 248.02 251.12 230 237.55 230.91C223.41 231.85 218.37 247.47 218.32 247.63C218.23 247.914 218.032 248.152 217.768 248.291C217.503 248.429 217.195 248.458 216.91 248.37C216.77 248.327 216.639 248.256 216.527 248.162C216.414 248.068 216.321 247.953 216.253 247.822C216.185 247.692 216.143 247.55 216.131 247.404C216.118 247.257 216.135 247.11 216.18 246.97C216.18 246.79 221.71 229.72 237.4 228.68C252.83 227.68 257.77 247.49 257.82 247.68C257.883 247.964 257.833 248.261 257.68 248.507C257.526 248.754 257.282 248.931 257 249C256.915 249.039 256.824 249.063 256.73 249.07Z" fill="#040E1A"/>
<path d="M215.76 244.78C215.76 244.78 230.76 249.67 257.55 244.78L262.73 276.42C262.913 277.535 262.875 278.674 262.618 279.774C262.36 280.874 261.889 281.912 261.23 282.83L260.69 283.57C259.892 284.68 258.84 285.582 257.623 286.203C256.405 286.824 255.057 287.146 253.69 287.14H219.69C218.072 287.141 216.487 286.684 215.117 285.822C213.748 284.96 212.65 283.729 211.95 282.27C211.219 280.747 210.951 279.043 211.18 277.37L215.76 244.78Z" fill="white" stroke="#040E1A" stroke-linecap="round" stroke-linejoin="round"/>
<path d="M257.55 244.78C257.55 244.78 257 267 237.66 267C218.32 267 215.76 244.81 215.76 244.81" stroke="#040E1A" stroke-linecap="round" stroke-linejoin="round"/>
<path d="M242.56 262.36H232.18V271.29H242.56V262.36Z" stroke="#040E1A" stroke-linecap="round" stroke-linejoin="round"/>
<path d="M314.93 243.3C314.74 243.297 314.555 243.246 314.39 243.153C314.225 243.059 314.086 242.925 313.987 242.764C313.887 242.602 313.83 242.418 313.82 242.229C313.81 242.04 313.848 241.851 313.93 241.68L330.36 217.44C330.449 217.251 330.591 217.092 330.768 216.982C330.946 216.872 331.151 216.816 331.36 216.82C331.571 216.824 331.776 216.887 331.953 217.002C332.13 217.117 332.271 217.279 332.36 217.47L347.36 241.14C347.482 241.409 347.493 241.716 347.39 241.993C347.287 242.271 347.079 242.496 346.81 242.62C346.539 242.743 346.231 242.754 345.952 242.651C345.673 242.548 345.446 242.339 345.32 242.07L331.32 220.54L315.93 242.68C315.837 242.866 315.695 243.022 315.518 243.132C315.341 243.241 315.138 243.3 314.93 243.3Z" fill="#040E1A"/>
<path d="M310.32 239H351L361.22 272.88C361.716 274.531 361.82 276.275 361.523 277.972C361.226 279.67 360.537 281.276 359.51 282.66C358.48 284.047 357.139 285.174 355.596 285.95C354.052 286.726 352.348 287.13 350.62 287.13H311.92C310.175 287.131 308.455 286.719 306.9 285.928C305.344 285.137 303.998 283.99 302.97 282.58L302.53 281.97C301.545 280.615 300.88 279.055 300.585 277.405C300.291 275.756 300.375 274.062 300.83 272.45L310.32 239Z" fill="white" stroke="#040E1A" stroke-linecap="round" stroke-linejoin="round"/>
<path d="M306.23 253.42L303.45 263.22H358.25L355.3 253.42H306.23Z" fill="#040E1A"/>
<path d="M300.83 272.46C300.425 273.9 300.315 275.406 300.507 276.89C300.7 278.373 301.191 279.802 301.95 281.09H360.42C361.722 278.557 361.991 275.617 361.17 272.89L360.68 271.29H301.16L300.83 272.46Z" fill="#040E1A"/>
<path d="M310.32 239.01L308.52 245.35H352.87L350.95 239.01H310.32Z" fill="#040E1A"/>
<path d="M248.6 292.15H224.26C221.499 292.15 219.26 294.389 219.26 297.15V298.35C219.26 301.111 221.499 303.35 224.26 303.35H248.6C251.361 303.35 253.6 301.111 253.6 298.35V297.15C253.6 294.389 251.361 292.15 248.6 292.15Z" fill="#040E1A"/>
<path d="M343.69 292.15H319.35C316.589 292.15 314.35 294.389 314.35 297.15V298.35C314.35 301.111 316.589 303.35 319.35 303.35H343.69C346.451 303.35 348.69 301.111 348.69 298.35V297.15C348.69 294.389 346.451 292.15 343.69 292.15Z" fill="#040E1A"/>
<path d="M222.86 339.65C222.713 339.65 222.567 339.621 222.431 339.565C222.295 339.508 222.172 339.426 222.068 339.322C221.964 339.218 221.882 339.094 221.825 338.959C221.769 338.823 221.74 338.677 221.74 338.53V328.3C221.745 324.522 223.25 320.901 225.924 318.233C228.598 315.565 232.222 314.067 236 314.07H236.29C240.059 314.081 243.67 315.584 246.333 318.251C248.997 320.918 250.495 324.531 250.5 328.3V338C250.5 338.297 250.382 338.582 250.172 338.792C249.962 339.002 249.677 339.12 249.38 339.12C249.083 339.12 248.798 339.002 248.588 338.792C248.378 338.582 248.26 338.297 248.26 338V328.3C248.26 325.117 246.996 322.065 244.745 319.815C242.495 317.564 239.443 316.3 236.26 316.3H236C232.817 316.3 229.765 317.564 227.515 319.815C225.264 322.065 224 325.117 224 328.3V338.53C224 338.679 223.97 338.826 223.913 338.963C223.855 339.1 223.771 339.225 223.665 339.329C223.559 339.433 223.433 339.515 223.295 339.571C223.157 339.626 223.009 339.653 222.86 339.65Z" fill="#040E1A"/>
<path d="M214.27 334.25C214.27 334.25 227.47 338.25 258.98 334.25L264.53 368.1C264.725 369.292 264.684 370.51 264.407 371.685C264.131 372.861 263.626 373.97 262.92 374.95L262.35 375.75C261.499 376.933 260.378 377.896 259.081 378.56C257.784 379.224 256.347 379.57 254.89 379.57H218.51C216.78 379.568 215.085 379.078 213.62 378.157C212.156 377.235 210.981 375.919 210.23 374.36C209.453 372.73 209.168 370.909 209.41 369.12L214.27 334.25Z" fill="white" stroke="#040E1A" stroke-linecap="round" stroke-linejoin="round"/>
<path d="M222.57 373.41C222.57 370.277 221.326 367.272 219.112 365.056C216.897 362.839 213.893 361.593 210.76 361.59H210.46L209.41 369.11C209.168 370.899 209.453 372.72 210.23 374.35C210.981 375.909 212.156 377.225 213.62 378.147C215.085 379.068 216.78 379.558 218.51 379.56H220.82C221.965 377.713 222.571 375.583 222.57 373.41Z" fill="#040E1A"/>
<path d="M250.82 373.41C250.818 375.586 251.424 377.72 252.57 379.57H254.89C256.347 379.57 257.784 379.224 259.081 378.56C260.378 377.896 261.499 376.933 262.35 375.75L262.92 374.95C263.626 373.97 264.131 372.861 264.407 371.685C264.684 370.51 264.725 369.292 264.53 368.1L263.47 361.63C263.19 361.63 262.92 361.63 262.63 361.63C259.504 361.633 256.506 362.874 254.293 365.081C252.079 367.289 250.831 370.284 250.82 373.41Z" fill="#040E1A"/>
<path d="M235.83 336.23V379.75" stroke="#040E1A" stroke-linecap="round" stroke-linejoin="round"/>
<path d="M359.87 343.14H302.18C300.761 343.14 299.61 344.291 299.61 345.71V377.17C299.61 378.589 300.761 379.74 302.18 379.74H359.87C361.289 379.74 362.44 378.589 362.44 377.17V345.71C362.44 344.291 361.289 343.14 359.87 343.14Z" fill="white" stroke="#040E1A" stroke-linecap="round" stroke-linejoin="round"/>
<path d="M299.9 344.87L327.95 365.87C328.745 366.478 329.719 366.808 330.72 366.808C331.721 366.808 332.695 366.478 333.49 365.87L361.29 344.37" stroke="#040E1A" stroke-linecap="round" stroke-linejoin="round"/>
<path d="M327.28 343.43H333.62V369.43C333.62 370.181 333.322 370.9 332.791 371.431C332.26 371.962 331.541 372.26 330.79 372.26H330.11C329.359 372.26 328.64 371.962 328.109 371.431C327.578 370.9 327.28 370.181 327.28 369.43V343.43Z" fill="white" stroke="#040E1A" stroke-linecap="round" stroke-linejoin="round"/>
<path d="M248.6 384.73H224.26C221.499 384.73 219.26 386.969 219.26 389.73V390.93C219.26 393.691 221.499 395.93 224.26 395.93H248.6C251.361 395.93 253.6 393.691 253.6 390.93V389.73C253.6 386.969 251.361 384.73 248.6 384.73Z" fill="#040E1A"/>
<path d="M343.69 384.73H319.35C316.589 384.73 314.35 386.969 314.35 389.73V390.93C314.35 393.691 316.589 395.93 319.35 395.93H343.69C346.451 395.93 348.69 393.691 348.69 390.93V389.73C348.69 386.969 346.451 384.73 343.69 384.73Z" fill="#040E1A"/>
<path d="M83.39 263C83.39 263 76.67 274.76 74.71 298.28C72.75 321.8 85.63 344.47 92.63 355.67C99.63 366.87 90.95 376.94 89.83 383.67C88.71 390.4 89.27 402.38 96 410.5C102.73 418.62 104.4 432.62 104.12 437.37C103.84 442.12 104.68 443.25 106.12 443.25C107.56 443.25 132.99 444.93 137.19 443.25L143.91 442.69C143.91 442.69 145.03 440.17 142.79 439.05C140.55 437.93 133.79 435.69 131.59 431.5C129.39 427.31 129 420 129.86 416.66C130.72 413.32 136.02 396.5 137.14 386.14C138.26 375.78 138.82 357.59 138.82 353.39C138.82 349.19 149.18 336.03 150.58 320.39C151.98 304.75 146.66 273 146.66 273L83.39 263Z" fill="white" stroke="#040E1A" stroke-linecap="round" stroke-linejoin="round"/>
<path d="M142.74 439.05C140.5 437.93 133.74 435.69 131.54 431.5C130.915 430.263 130.448 428.953 130.15 427.6C129.15 427.7 125.74 428.18 124.54 430.1C123.586 431.51 122.216 432.587 120.62 433.18L114.46 432.62C114.46 432.62 114.18 438.49 115.3 441.29C115.62 442.07 114.3 442.41 115.39 443.29C123.24 443.58 137.39 444.23 140.96 443.52L143.86 442.72C143.86 442.72 145 440.17 142.74 439.05Z" fill="#4285F4" stroke="#040E1A" stroke-linecap="round" stroke-linejoin="round"/>
<path d="M133.22 439.89C128.74 438.49 122.58 433.74 120.9 431.78C119.959 430.651 118.82 429.702 117.54 428.98C117.54 428.98 113.9 427.58 112.78 430.38L111.66 433.18L103.92 432.53C104.098 434.137 104.162 435.754 104.11 437.37C103.83 442.13 104.67 443.25 106.11 443.25C107.35 443.25 127.74 444.59 135.11 443.69C135.43 442.1 135.19 440.51 133.22 439.89Z" fill="#4285F4" stroke="#040E1A" stroke-linecap="round" stroke-linejoin="round"/>
<path d="M129.86 416.66C130.7 413.3 136.02 396.5 137.14 386.14C138.26 375.78 138.82 357.59 138.82 353.39C138.82 349.19 149.18 336.03 150.58 320.39C151.98 304.75 146.66 273 146.66 273L83.39 263C83.39 263 76.67 274.76 74.71 298.28C72.75 321.8 85.63 344.47 92.63 355.67C99.63 366.87 90.95 376.94 89.83 383.67C88.71 390.4 89.27 402.38 96 410.5C98.1587 413.232 99.8483 416.304 101 419.59C104 421 108.86 421.59 116.16 417.5C116.16 417.5 121.33 421.59 129.53 418.98C129.578 418.199 129.688 417.423 129.86 416.66Z" fill="#040E1A" stroke="#040E1A" stroke-linecap="round" stroke-linejoin="round"/>
<path d="M130.42 308L122.86 312.19C122.86 312.19 121.74 349.99 121.74 363.43C121.74 376.87 118.1 380.82 117 399.3C115.9 417.78 117.56 428.98 117.56 428.98" stroke="#7D7D7D" stroke-linecap="round" stroke-linejoin="round"/>
<path d="M144.82 201.38C144.82 201.38 154.45 204.67 157.98 213.6C161.51 222.53 162.44 239.21 162.44 247.67C162.44 256.13 165.26 263.17 161.5 268.58C157.74 273.99 150.22 273.28 146.7 268.34C143.18 263.4 143.64 260.34 145.05 249.34C146.46 238.34 145.99 217.15 144.82 212.92C143.65 208.69 139.41 201.17 139.41 201.17C139.41 201.17 142.7 200 144.82 201.38Z" fill="#4285F4" stroke="#040E1A" stroke-linecap="round" stroke-linejoin="round"/>
<path d="M162.88 254.26C162.566 253.939 162.232 253.639 161.88 253.36C160.085 251.816 157.932 250.747 155.617 250.251C153.302 249.755 150.9 249.847 148.63 250.52L144.28 255.52C143.61 261.79 143.92 264.52 146.68 268.37C150.2 273.31 157.68 274.01 161.48 268.61C164.24 264.65 163.49 259.84 162.88 254.26Z" fill="white" stroke="#040E1A" stroke-linecap="round" stroke-linejoin="round"/>
<path d="M145.76 261.06C145.76 261.06 147.4 254.01 150.93 252.83C154.46 251.65 161.27 254.95 163.62 259.18C165.97 263.41 161.27 269.52 161.27 269.52C161.27 269.52 165.5 268.58 165.97 259.88C166.44 251.18 156.57 247.88 151.87 247.67C147.17 247.46 144.58 257.77 145.76 261.06Z" fill="white" stroke="#040E1A" stroke-linecap="round" stroke-linejoin="round"/>
<path d="M150.22 218.53C151.866 226.084 152.655 233.799 152.57 241.53C152.34 249.99 147.87 255.86 147.64 260.32C147.41 264.78 149.52 272.78 148.81 273.95C148.1 275.12 136.13 281.95 120.38 280.3C104.63 278.65 86.08 274.45 83 269.05C79.92 263.65 86.06 225.81 86.29 221.58C86.52 217.35 90.29 198.58 97.57 196.21C104.85 193.84 122 194.09 122 194.09C122 194.09 140.79 199.73 141.5 199.97C142.21 200.21 138.44 198.56 143.61 200.91C148.78 203.26 149.72 210.54 149.96 211.72" fill="#4285F4"/>
<path d="M150.22 218.53C151.866 226.084 152.655 233.799 152.57 241.53C152.34 249.99 147.87 255.86 147.64 260.32C147.41 264.78 149.52 272.78 148.81 273.95C148.1 275.12 136.13 281.95 120.38 280.3C104.63 278.65 86.08 274.45 83 269.05C79.92 263.65 86.06 225.81 86.29 221.58C86.52 217.35 90.29 198.58 97.57 196.21C104.85 193.84 122 194.09 122 194.09C122 194.09 140.79 199.73 141.5 199.97C142.21 200.21 138.44 198.56 143.61 200.91C148.78 203.26 149.72 210.54 149.96 211.72" stroke="#040E1A" stroke-linecap="round" stroke-linejoin="round"/>
<path d="M117.56 189.39C117.56 189.39 111.92 192.92 111.92 195.27C111.92 197.62 114.51 219 114.51 219L131.43 212L144.82 219.75C144.82 219.75 142 207 139.41 201.14C138.269 198.355 136.548 195.844 134.362 193.775C132.176 191.706 129.574 190.126 126.73 189.14C121.09 187.28 117.56 189.39 117.56 189.39Z" fill="white" stroke="#040E1A" stroke-linecap="round" stroke-linejoin="round"/>
<path d="M117.8 191C117.8 191 119.68 201.33 121.56 206C123.91 211.87 128.61 222.68 128.61 222.68C128.61 222.68 133.31 215.16 134.72 208.82C136.13 202.48 137.53 192.13 137.53 192.13C137.53 192.13 121.79 187.67 121.09 187.2C120.39 186.73 116.86 188.69 117.8 191Z" fill="white" stroke="#040E1A" stroke-linecap="round" stroke-linejoin="round"/>
<path d="M161.74 145.22C161.74 145.22 149.05 131.59 137.74 132.77C126.43 133.95 113.74 150.62 107.9 160.77C102.06 170.92 110.25 190.37 122 194.13C133.75 197.89 139.38 195.54 139.38 195.54C139.38 195.54 147.84 201.89 155.83 197.19C163.82 192.49 164.06 185.67 163.35 179.8C162.64 173.93 169.46 172.99 171.81 165.7C174.16 158.41 161.74 145.22 161.74 145.22Z" fill="#040E1A" stroke="#040E1A" stroke-linecap="round" stroke-linejoin="round"/>
<path d="M154.22 158.38C154.22 158.38 153.28 161.43 156.57 168.01C159.86 174.59 160.33 178.35 159.86 182.58C159.39 186.81 156.33 191 153 194.09C149.67 197.18 145 199.5 140.55 198.79C136.1 198.08 132.33 191.51 132.33 190.57C132.33 189.63 127.2 165.9 154.22 158.38Z" fill="white" stroke="#040E1A" stroke-linecap="round" stroke-linejoin="round"/>
<path d="M155.63 175.77L154 177.88C154 177.88 152.83 184.46 152.12 184.46C150.925 184.236 149.748 183.922 148.6 183.52" stroke="#040E1A" stroke-linecap="round" stroke-linejoin="round"/>
<path d="M146.23 188.45C146.23 188.45 142 188.22 142.47 184.93" stroke="#040E1A" stroke-linecap="round" stroke-linejoin="round"/>
<path d="M148 175.24C147.44 176.48 146.46 177.24 145.81 176.96C145.16 176.68 145.08 175.42 145.64 174.18C146.2 172.94 147.17 172.18 147.83 172.46C148.49 172.74 148.55 174 148 175.24Z" fill="#040E1A"/>
<path d="M158.1 178.53C157.54 179.77 156.56 180.53 155.91 180.25C155.26 179.97 155.18 178.71 155.74 177.47C156.3 176.23 157.28 175.47 157.93 175.75C158.58 176.03 158.66 177.28 158.1 178.53Z" fill="#040E1A"/>
<path d="M144.82 169.42C144.82 169.42 148.34 167.07 151.63 169.66" stroke="#040E1A" stroke-linecap="round" stroke-linejoin="round"/>
<path d="M156.57 173.65C157.042 173.387 157.597 173.313 158.121 173.445C158.645 173.577 159.099 173.904 159.39 174.36" stroke="#040E1A" stroke-linecap="round" stroke-linejoin="round"/>
<path d="M106.2 195.39C106.2 195.39 92.89 195.74 85.37 198.32C77.85 200.9 75.74 214.07 75.74 220.64C75.74 227.21 73.62 266.7 75 269.52C76.38 272.34 125.29 250.52 125.29 250.52C125.29 250.52 126.23 251.46 128.81 251.46C130.375 251.455 131.913 251.053 133.28 250.29L132.81 253.34C132.81 253.34 128.81 254.99 130.46 256.16C132.11 257.33 138.21 254.99 138.91 254.52C139.61 254.05 145.96 252.17 147.14 250.29C148.32 248.41 146.2 243.24 146.2 243.24C148.062 244.231 149.865 245.33 151.6 246.53C153.48 247.94 155.13 249.12 156.07 246.53C157.01 243.94 150.43 241.36 148.07 239.95C145.816 238.348 143.065 237.6 140.31 237.84C136.79 238.07 120.81 243.71 120.81 243.71C120.81 243.71 119.91 243.92 113.81 244.42C107.71 244.92 93.81 245.36 93.81 245.36L99.92 219.51" fill="white"/>
<path d="M106.2 195.39C106.2 195.39 92.89 195.74 85.37 198.32C77.85 200.9 75.74 214.07 75.74 220.64C75.74 227.21 73.62 266.7 75 269.52C76.38 272.34 125.29 250.52 125.29 250.52C125.29 250.52 126.23 251.46 128.81 251.46C130.375 251.455 131.913 251.053 133.28 250.29L132.81 253.34C132.81 253.34 128.81 254.99 130.46 256.16C132.11 257.33 138.21 254.99 138.91 254.52C139.61 254.05 145.96 252.17 147.14 250.29C148.32 248.41 146.2 243.24 146.2 243.24C148.062 244.231 149.865 245.33 151.6 246.53C153.48 247.94 155.13 249.12 156.07 246.53C157.01 243.94 150.43 241.36 148.07 239.95C145.816 238.348 143.065 237.6 140.31 237.84C136.79 238.07 120.81 243.71 120.81 243.71C120.81 243.71 119.91 243.92 113.81 244.42C107.71 244.92 93.81 245.36 93.81 245.36L99.92 219.51" stroke="#040E1A" stroke-linecap="round" stroke-linejoin="round"/>
<path d="M116.82 243.85C116.82 243.85 115.52 249.85 119.1 252.98L122.2 251.98C122.2 251.98 119.33 247.13 120.85 243.65C121.06 243.19 118 243 116.82 243.85Z" fill="#040E1A"/>
<path d="M118.29 249.72C119.731 249.72 120.9 248.587 120.9 247.19C120.9 245.793 119.731 244.66 118.29 244.66C116.848 244.66 115.68 245.793 115.68 247.19C115.68 248.587 116.848 249.72 118.29 249.72Z" fill="white" stroke="#040E1A" stroke-linecap="round" stroke-linejoin="round"/>
<path d="M137.3 245.79C137.3 245.79 141.06 252.79 138.94 254.48" stroke="#040E1A" stroke-linecap="round" stroke-linejoin="round"/>
<path d="M141.53 243.2C141.53 243.2 145.76 248.14 143.64 251.89" stroke="#040E1A" stroke-linecap="round" stroke-linejoin="round"/>
<path d="M106.2 195.39C102.03 195.62 90.05 196.71 85.37 198.32C77.85 200.91 75.74 214.07 75.74 220.64C75.74 226.21 74.22 255.34 74.61 265.87C79.04 250.75 93.83 245.32 93.83 245.32L101.06 216.87" fill="#4285F4"/>
<path d="M106.2 195.39C102.03 195.62 90.05 196.71 85.37 198.32C77.85 200.91 75.74 214.07 75.74 220.64C75.74 226.21 74.22 255.34 74.61 265.87C79.04 250.75 93.83 245.32 93.83 245.32L101.06 216.87" stroke="#040E1A" stroke-linecap="round" stroke-linejoin="round"/>
<path d="M93.83 245.32C93.83 245.32 85.83 252.13 83.26 260.12C80.69 268.11 81.85 268.12 81.85 268.12C81.6693 268.913 81.2954 269.65 80.7615 270.264C80.2277 270.878 79.5505 271.351 78.79 271.64C76.21 272.58 71.27 270 70.79 266.71C70.31 263.42 71.73 260.6 77.61 252.61C83.49 244.62 91 243.2 93.83 245.32Z" fill="white" stroke="#040E1A" stroke-linecap="round" stroke-linejoin="round"/>
<path d="M164.32 242.26L151.87 260.82L164.32 261.76L178.42 243.2L164.32 242.26Z" fill="#040E1A" stroke="#040E1A" stroke-linecap="round" stroke-linejoin="round"/>
<path d="M155.39 260.82C155.39 260.82 151.63 262.23 154.69 264.58C157.75 266.93 162.69 265.99 164.32 262.94C165.95 259.89 155.39 260.82 155.39 260.82Z" fill="white" stroke="#040E1A" stroke-linecap="round" stroke-linejoin="round"/>
<path d="M165.26 260.82C165.26 260.82 156.8 258.24 155.39 260.82C153.98 263.4 162.91 264.35 165.03 264.35C167.15 264.35 166.44 261.29 165.26 260.82Z" fill="white" stroke="#040E1A" stroke-linecap="round" stroke-linejoin="round"/>
<path d="M168.55 258.71C168.55 258.71 160.09 256.12 158.68 258.71C157.27 261.3 166.2 262.23 168.32 262.23C170.44 262.23 169.73 259.18 168.55 258.71Z" fill="white" stroke="#040E1A" stroke-linecap="round" stroke-linejoin="round"/>
<path d="M170.9 255C170.9 255 162.44 252.41 161.03 255C159.62 257.59 168.55 258.52 170.66 258.52C172.77 258.52 172.07 255.42 170.9 255Z" fill="white" stroke="#040E1A" stroke-linecap="round" stroke-linejoin="round"/>
<path d="M43.0729 444H151" stroke="#040E1A" stroke-linecap="round" stroke-linejoin="round"/>
<path d="M36 444H39.4055" stroke="#040E1A" stroke-linecap="round" stroke-linejoin="round"/>
</svg>
