<svg width="165" height="38" viewBox="0 0 165 38" fill="none" xmlns="http://www.w3.org/2000/svg">
<rect x="36" y="31.0711" width="10" height="10" rx="3" transform="rotate(-45 36 31.0711)" fill="url(#paint0_linear)"/>
<rect x="32" y="31.0711" width="10" height="10" rx="3" transform="rotate(-45 32 31.0711)" fill="#4285F4"/>
<path d="M9.31367 21.25C6.79701 21.25 4.79701 20.7 3.31367 19.6C1.83034 18.4833 1.03867 16.775 0.938672 14.475C0.922005 14.025 0.913672 13.2917 0.913672 12.275C0.913672 11.2417 0.922005 10.4917 0.938672 10.025C1.03867 7.79167 1.84701 6.10833 3.36367 4.975C4.88034 3.825 6.86367 3.25 9.31367 3.25C10.8137 3.25 12.1887 3.475 13.4387 3.925C14.7053 4.375 15.7303 5.08333 16.5137 6.05C17.3137 7 17.722 8.2 17.7387 9.65C17.7387 9.8 17.6803 9.93333 17.5637 10.05C17.4637 10.15 17.3387 10.2 17.1887 10.2H12.0887C11.822 10.2 11.622 10.15 11.4887 10.05C11.372 9.95 11.2637 9.75833 11.1637 9.475C10.9803 8.975 10.7387 8.625 10.4387 8.425C10.1387 8.225 9.75534 8.125 9.28867 8.125C8.70534 8.125 8.25534 8.28333 7.93867 8.6C7.62201 8.9 7.45534 9.41667 7.43867 10.15C7.42201 10.6 7.41367 11.2917 7.41367 12.225C7.41367 13.1583 7.42201 13.8667 7.43867 14.35C7.45534 15.0833 7.62201 15.6083 7.93867 15.925C8.25534 16.225 8.70534 16.375 9.28867 16.375C10.2387 16.375 10.8637 15.925 11.1637 15.025C11.247 14.7417 11.347 14.55 11.4637 14.45C11.597 14.35 11.8053 14.3 12.0887 14.3H17.1887C17.3387 14.3 17.4637 14.3583 17.5637 14.475C17.6803 14.575 17.7387 14.7 17.7387 14.85C17.722 16.3 17.3137 17.5083 16.5137 18.475C15.7303 19.425 14.7053 20.125 13.4387 20.575C12.1887 21.025 10.8137 21.25 9.31367 21.25ZM20.1486 21C19.9653 21 19.807 20.9333 19.6736 20.8C19.5403 20.6667 19.4736 20.5083 19.4736 20.325V8.675C19.4736 8.49167 19.5403 8.33333 19.6736 8.2C19.807 8.06667 19.9653 8 20.1486 8H24.5236C24.707 8 24.8653 8.06667 24.9986 8.2C25.132 8.33333 25.1986 8.49167 25.1986 8.675V9.55C25.7486 9.06667 26.357 8.69167 27.0236 8.425C27.6903 8.14167 28.382 8 29.0986 8H30.2986C30.482 8 30.6403 8.06667 30.7736 8.2C30.907 8.33333 30.9736 8.49167 30.9736 8.675V12.575C30.9736 12.7583 30.907 12.9167 30.7736 13.05C30.6403 13.1833 30.482 13.25 30.2986 13.25H27.0736C26.0736 13.25 25.5736 13.75 25.5736 14.75V20.325C25.5736 20.5083 25.507 20.6667 25.3736 20.8C25.2403 20.9333 25.082 21 24.8986 21H20.1486ZM39.1381 21.25C36.8714 21.25 35.1131 20.7 33.8631 19.6C32.6131 18.4833 31.9881 16.7917 31.9881 14.525V14.35C32.0214 12.2333 32.6714 10.6083 33.9381 9.475C35.2214 8.325 36.9464 7.75 39.1131 7.75C40.6798 7.75 41.9964 8.05833 43.0631 8.675C44.1464 9.275 44.9464 10.0917 45.4631 11.125C45.9798 12.1417 46.2381 13.2833 46.2381 14.55V15.3C46.2381 15.4833 46.1714 15.6417 46.0381 15.775C45.9048 15.9083 45.7464 15.975 45.5631 15.975H38.1131V16.1C38.1131 16.6167 38.1881 17 38.3381 17.25C38.4881 17.5 38.7381 17.625 39.0881 17.625C39.2214 17.625 39.3298 17.6 39.4131 17.55C39.4964 17.4833 39.6298 17.3583 39.8131 17.175C39.9631 17.025 40.0881 16.9333 40.1881 16.9C40.2881 16.85 40.4381 16.825 40.6381 16.825H45.3631C45.5131 16.825 45.6381 16.875 45.7381 16.975C45.8548 17.0583 45.9131 17.175 45.9131 17.325C45.9131 17.7917 45.6548 18.3417 45.1381 18.975C44.6214 19.5917 43.8464 20.125 42.8131 20.575C41.7964 21.025 40.5714 21.25 39.1381 21.25ZM40.1131 12.85V12.825C40.1131 11.775 39.7798 11.25 39.1131 11.25C38.4464 11.25 38.1131 11.775 38.1131 12.825V12.85H40.1131ZM52.9643 21.25C51.4143 21.25 50.1643 20.7833 49.2143 19.85C48.2643 18.9167 47.7476 17.4583 47.6643 15.475L47.6393 14.475L47.6643 13.5C47.7309 11.6167 48.2476 10.1917 49.2143 9.225C50.1976 8.24167 51.4476 7.75 52.9643 7.75C54.3143 7.75 55.4226 8.14167 56.2893 8.925V3.925C56.2893 3.74167 56.3559 3.58333 56.4893 3.45C56.6226 3.31667 56.7809 3.25 56.9643 3.25H61.5893C61.7726 3.25 61.9309 3.31667 62.0643 3.45C62.1976 3.58333 62.2643 3.74167 62.2643 3.925V20.325C62.2643 20.5083 62.1976 20.6667 62.0643 20.8C61.9309 20.9333 61.7726 21 61.5893 21H57.3393C57.1559 21 56.9976 20.9333 56.8643 20.8C56.7309 20.6667 56.6643 20.5083 56.6643 20.325V19.75C55.7809 20.75 54.5476 21.25 52.9643 21.25ZM55.0393 16.775C55.4726 16.775 55.7809 16.6583 55.9643 16.425C56.1476 16.175 56.2559 15.8083 56.2893 15.325C56.3226 14.825 56.3393 14.5167 56.3393 14.4C56.3393 14.2833 56.3226 13.975 56.2893 13.475C56.2559 13.0583 56.1393 12.75 55.9393 12.55C55.7559 12.3333 55.4559 12.225 55.0393 12.225C54.6059 12.225 54.2976 12.3417 54.1143 12.575C53.9476 12.8083 53.8393 13.175 53.7893 13.675C53.7726 13.8417 53.7643 14.1167 53.7643 14.5C53.7643 14.8833 53.7726 15.1583 53.7893 15.325C53.8393 15.825 53.9476 16.1917 54.1143 16.425C54.2976 16.6583 54.6059 16.775 55.0393 16.775ZM65.3176 6.625C65.1342 6.625 64.9759 6.55833 64.8426 6.425C64.7092 6.29167 64.6426 6.13333 64.6426 5.95V2.925C64.6426 2.74167 64.7092 2.58333 64.8426 2.45C64.9759 2.31667 65.1342 2.25 65.3176 2.25H69.5426C69.7259 2.25 69.8842 2.31667 70.0176 2.45C70.1509 2.58333 70.2176 2.74167 70.2176 2.925V5.95C70.2176 6.13333 70.1509 6.29167 70.0176 6.425C69.8842 6.55833 69.7259 6.625 69.5426 6.625H65.3176ZM65.1926 21C65.0092 21 64.8509 20.9333 64.7176 20.8C64.5842 20.6667 64.5176 20.5083 64.5176 20.325V8.675C64.5176 8.49167 64.5842 8.33333 64.7176 8.2C64.8509 8.06667 65.0092 8 65.1926 8H69.6676C69.8509 8 70.0092 8.06667 70.1426 8.2C70.2759 8.33333 70.3426 8.49167 70.3426 8.675V20.325C70.3426 20.5083 70.2759 20.6667 70.1426 20.8C70.0092 20.9333 69.8509 21 69.6676 21H65.1926ZM80.6486 21C78.682 21 77.1486 20.5917 76.0486 19.775C74.9486 18.9417 74.3986 17.5583 74.3986 15.625V12.375H72.4236C72.2403 12.375 72.082 12.3083 71.9486 12.175C71.8153 12.0417 71.7486 11.8833 71.7486 11.7V8.675C71.7486 8.49167 71.8153 8.33333 71.9486 8.2C72.082 8.06667 72.2403 8 72.4236 8H74.3986V3.925C74.3986 3.74167 74.4653 3.58333 74.5986 3.45C74.732 3.31667 74.8903 3.25 75.0736 3.25H79.4486C79.632 3.25 79.7903 3.31667 79.9236 3.45C80.057 3.58333 80.1236 3.74167 80.1236 3.925V8H83.2736C83.457 8 83.6153 8.06667 83.7486 8.2C83.882 8.33333 83.9486 8.49167 83.9486 8.675V11.7C83.9486 11.8833 83.882 12.0417 83.7486 12.175C83.6153 12.3083 83.457 12.375 83.2736 12.375H80.1236V15.125C80.1236 15.9583 80.482 16.375 81.1986 16.375H83.4736C83.657 16.375 83.8153 16.4417 83.9486 16.575C84.082 16.7083 84.1486 16.8667 84.1486 17.05V20.325C84.1486 20.5083 84.082 20.6667 83.9486 20.8C83.8153 20.9333 83.657 21 83.4736 21H80.6486ZM86.5793 21C86.396 21 86.2376 20.9333 86.1043 20.8C85.971 20.6667 85.9043 20.5083 85.9043 20.325V8.675C85.9043 8.49167 85.971 8.33333 86.1043 8.2C86.2376 8.06667 86.396 8 86.5793 8H90.9543C91.1376 8 91.296 8.06667 91.4293 8.2C91.5626 8.33333 91.6293 8.49167 91.6293 8.675V9.5C92.0626 8.98333 92.646 8.56667 93.3793 8.25C94.1293 7.91667 94.9293 7.75 95.7793 7.75C96.6626 7.75 97.471 7.95833 98.2043 8.375C98.9376 8.775 99.521 9.4 99.9543 10.25C100.404 11.1 100.629 12.1583 100.629 13.425V20.325C100.629 20.5083 100.563 20.6667 100.429 20.8C100.296 20.9333 100.138 21 99.9543 21H95.1793C94.996 21 94.8376 20.9333 94.7043 20.8C94.571 20.6667 94.5043 20.5083 94.5043 20.325V13.6C94.5043 13.15 94.396 12.8083 94.1793 12.575C93.9626 12.3417 93.6543 12.225 93.2543 12.225C92.8543 12.225 92.546 12.3417 92.3293 12.575C92.1126 12.8083 92.0043 13.15 92.0043 13.6V20.325C92.0043 20.5083 91.9376 20.6667 91.8043 20.8C91.671 20.9333 91.5126 21 91.3293 21H86.5793ZM106.9 21.25C105.967 21.25 105.125 21.075 104.375 20.725C103.642 20.375 103.067 19.9 102.65 19.3C102.25 18.7 102.05 18.025 102.05 17.275C102.05 15.025 103.875 13.5833 107.525 12.95L110.175 12.525V12.5C110.175 12.0167 110.133 11.6917 110.05 11.525C109.967 11.3417 109.758 11.25 109.425 11.25C109.242 11.25 109.083 11.2833 108.95 11.35C108.817 11.4167 108.675 11.5167 108.525 11.65C108.375 11.7833 108.242 11.8833 108.125 11.95C108.025 12.0167 107.883 12.05 107.7 12.05H103.45C103.3 12.05 103.167 12.0083 103.05 11.925C102.95 11.825 102.9 11.7 102.9 11.55C102.9 11.0667 103.133 10.525 103.6 9.925C104.083 9.325 104.817 8.81667 105.8 8.4C106.8 7.96667 108.025 7.75 109.475 7.75C111.708 7.75 113.383 8.21667 114.5 9.15C115.617 10.0833 116.175 11.4167 116.175 13.15V20.325C116.175 20.5083 116.108 20.6667 115.975 20.8C115.842 20.9333 115.683 21 115.5 21H111.125C110.942 21 110.783 20.9333 110.65 20.8C110.517 20.6667 110.45 20.5083 110.45 20.325V19.625C110.083 20.125 109.592 20.525 108.975 20.825C108.358 21.1083 107.667 21.25 106.9 21.25ZM108.625 17.55C109.125 17.55 109.517 17.3917 109.8 17.075C110.1 16.7583 110.25 16.275 110.25 15.625V15.6L108.775 15.925C108.042 16.0917 107.675 16.4 107.675 16.85C107.675 17.05 107.758 17.2167 107.925 17.35C108.092 17.4833 108.325 17.55 108.625 17.55Z" fill="#040E1A"/>
<path d="M61.64 36C61.4933 36 61.3667 35.9467 61.26 35.84C61.1533 35.7333 61.1 35.6067 61.1 35.46V22.54C61.1 22.3933 61.1533 22.2667 61.26 22.16C61.3667 22.0533 61.4933 22 61.64 22H65.46C65.6067 22 65.7333 22.0533 65.84 22.16C65.9467 22.2667 66 22.3933 66 22.54V26.5L68.26 22.44C68.42 22.1467 68.6867 22 69.06 22H73.48C73.6 22 73.7 22.0467 73.78 22.14C73.8733 22.22 73.92 22.32 73.92 22.44C73.92 22.52 73.9 22.5933 73.86 22.66L70.26 28.7L74.2 35.34C74.24 35.3933 74.26 35.4667 74.26 35.56C74.26 35.68 74.2133 35.7867 74.12 35.88C74.04 35.96 73.94 36 73.82 36H69.26C69.0333 36 68.8533 35.9533 68.72 35.86C68.5867 35.7533 68.4933 35.6467 68.44 35.54L66 31.18V35.46C66 35.6067 65.9467 35.7333 65.84 35.84C65.7333 35.9467 65.6067 36 65.46 36H61.64ZM78.3802 36.2C77.6335 36.2 76.9602 36.06 76.3602 35.78C75.7735 35.5 75.3135 35.12 74.9802 34.64C74.6602 34.16 74.5002 33.62 74.5002 33.02C74.5002 31.22 75.9602 30.0667 78.8802 29.56L81.0002 29.22V29.2C81.0002 28.8133 80.9668 28.5533 80.9002 28.42C80.8335 28.2733 80.6668 28.2 80.4002 28.2C80.2535 28.2 80.1268 28.2267 80.0202 28.28C79.9135 28.3333 79.8002 28.4133 79.6802 28.52C79.5602 28.6267 79.4535 28.7067 79.3602 28.76C79.2802 28.8133 79.1668 28.84 79.0202 28.84H75.6202C75.5002 28.84 75.3935 28.8067 75.3002 28.74C75.2202 28.66 75.1802 28.56 75.1802 28.44C75.1802 28.0533 75.3668 27.62 75.7402 27.14C76.1268 26.66 76.7135 26.2533 77.5002 25.92C78.3002 25.5733 79.2802 25.4 80.4402 25.4C82.2268 25.4 83.5668 25.7733 84.4602 26.52C85.3535 27.2667 85.8002 28.3333 85.8002 29.72V35.46C85.8002 35.6067 85.7468 35.7333 85.6402 35.84C85.5335 35.9467 85.4068 36 85.2602 36H81.7602C81.6135 36 81.4868 35.9467 81.3802 35.84C81.2735 35.7333 81.2202 35.6067 81.2202 35.46V34.9C80.9268 35.3 80.5335 35.62 80.0402 35.86C79.5468 36.0867 78.9935 36.2 78.3802 36.2ZM79.7602 33.24C80.1602 33.24 80.4735 33.1133 80.7002 32.86C80.9402 32.6067 81.0602 32.22 81.0602 31.7V31.68L79.8802 31.94C79.2935 32.0733 79.0002 32.32 79.0002 32.68C79.0002 32.84 79.0668 32.9733 79.2002 33.08C79.3335 33.1867 79.5202 33.24 79.7602 33.24ZM92.3816 36.2C91.1816 36.2 90.1816 36.0467 89.3816 35.74C88.5816 35.42 87.9882 35.0333 87.6016 34.58C87.2282 34.1267 87.0416 33.7 87.0416 33.3C87.0416 33.1667 87.0882 33.0533 87.1816 32.96C87.2749 32.8533 87.3882 32.8 87.5216 32.8H91.0816C91.2149 32.8133 91.3416 32.86 91.4616 32.94C91.5816 33.0067 91.6616 33.0533 91.7016 33.08C91.8616 33.1867 92.0016 33.2667 92.1216 33.32C92.2416 33.3733 92.3749 33.4 92.5216 33.4C92.6416 33.4 92.7482 33.3733 92.8416 33.32C92.9349 33.2667 92.9816 33.1933 92.9816 33.1C92.9816 32.9667 92.9416 32.8533 92.8616 32.76C92.7816 32.6667 92.5882 32.5733 92.2816 32.48C91.9882 32.3867 91.5282 32.28 90.9016 32.16C89.8349 31.96 88.9549 31.6 88.2616 31.08C87.5816 30.5467 87.2416 29.7933 87.2416 28.82C87.2416 28.2333 87.4349 27.68 87.8216 27.16C88.2216 26.6267 88.8016 26.2 89.5616 25.88C90.3349 25.56 91.2482 25.4 92.3016 25.4C93.3416 25.4 94.2616 25.56 95.0616 25.88C95.8616 26.1867 96.4749 26.5667 96.9016 27.02C97.3282 27.4733 97.5416 27.9 97.5416 28.3C97.5416 28.4333 97.4949 28.5533 97.4016 28.66C97.3082 28.7533 97.2082 28.8 97.1016 28.8H93.7416C93.6216 28.8 93.4949 28.7733 93.3616 28.72C93.2416 28.6533 93.1282 28.58 93.0216 28.5C92.7416 28.3 92.4949 28.2 92.2816 28.2C92.1749 28.2 92.0816 28.2333 92.0016 28.3C91.9216 28.3533 91.8816 28.4267 91.8816 28.52C91.8816 28.6533 91.9216 28.7667 92.0016 28.86C92.0949 28.94 92.2949 29.0267 92.6016 29.12C92.9216 29.2133 93.4149 29.3067 94.0816 29.4C95.4149 29.6 96.3949 30.02 97.0216 30.66C97.6616 31.2867 97.9816 31.9867 97.9816 32.76C97.9816 33.84 97.4949 34.6867 96.5216 35.3C95.5482 35.9 94.1682 36.2 92.3816 36.2ZM104.178 36.2C102.978 36.2 101.978 36.0467 101.178 35.74C100.378 35.42 99.7851 35.0333 99.3984 34.58C99.0251 34.1267 98.8384 33.7 98.8384 33.3C98.8384 33.1667 98.8851 33.0533 98.9784 32.96C99.0718 32.8533 99.1851 32.8 99.3184 32.8H102.878C103.012 32.8133 103.138 32.86 103.258 32.94C103.378 33.0067 103.458 33.0533 103.498 33.08C103.658 33.1867 103.798 33.2667 103.918 33.32C104.038 33.3733 104.172 33.4 104.318 33.4C104.438 33.4 104.545 33.3733 104.638 33.32C104.732 33.2667 104.778 33.1933 104.778 33.1C104.778 32.9667 104.738 32.8533 104.658 32.76C104.578 32.6667 104.385 32.5733 104.078 32.48C103.785 32.3867 103.325 32.28 102.698 32.16C101.632 31.96 100.752 31.6 100.058 31.08C99.3784 30.5467 99.0384 29.7933 99.0384 28.82C99.0384 28.2333 99.2318 27.68 99.6184 27.16C100.018 26.6267 100.598 26.2 101.358 25.88C102.132 25.56 103.045 25.4 104.098 25.4C105.138 25.4 106.058 25.56 106.858 25.88C107.658 26.1867 108.272 26.5667 108.698 27.02C109.125 27.4733 109.338 27.9 109.338 28.3C109.338 28.4333 109.292 28.5533 109.198 28.66C109.105 28.7533 109.005 28.8 108.898 28.8H105.538C105.418 28.8 105.292 28.7733 105.158 28.72C105.038 28.6533 104.925 28.58 104.818 28.5C104.538 28.3 104.292 28.2 104.078 28.2C103.972 28.2 103.878 28.2333 103.798 28.3C103.718 28.3533 103.678 28.4267 103.678 28.52C103.678 28.6533 103.718 28.7667 103.798 28.86C103.892 28.94 104.092 29.0267 104.398 29.12C104.718 29.2133 105.212 29.3067 105.878 29.4C107.212 29.6 108.192 30.02 108.818 30.66C109.458 31.2867 109.778 31.9867 109.778 32.76C109.778 33.84 109.292 34.6867 108.318 35.3C107.345 35.9 105.965 36.2 104.178 36.2ZM114.415 36.2C113.669 36.2 112.995 36.06 112.395 35.78C111.809 35.5 111.349 35.12 111.015 34.64C110.695 34.16 110.535 33.62 110.535 33.02C110.535 31.22 111.995 30.0667 114.915 29.56L117.035 29.22V29.2C117.035 28.8133 117.002 28.5533 116.935 28.42C116.869 28.2733 116.702 28.2 116.435 28.2C116.289 28.2 116.162 28.2267 116.055 28.28C115.949 28.3333 115.835 28.4133 115.715 28.52C115.595 28.6267 115.489 28.7067 115.395 28.76C115.315 28.8133 115.202 28.84 115.055 28.84H111.655C111.535 28.84 111.429 28.8067 111.335 28.74C111.255 28.66 111.215 28.56 111.215 28.44C111.215 28.0533 111.402 27.62 111.775 27.14C112.162 26.66 112.749 26.2533 113.535 25.92C114.335 25.5733 115.315 25.4 116.475 25.4C118.262 25.4 119.602 25.7733 120.495 26.52C121.389 27.2667 121.835 28.3333 121.835 29.72V35.46C121.835 35.6067 121.782 35.7333 121.675 35.84C121.569 35.9467 121.442 36 121.295 36H117.795C117.649 36 117.522 35.9467 117.415 35.84C117.309 35.7333 117.255 35.6067 117.255 35.46V34.9C116.962 35.3 116.569 35.62 116.075 35.86C115.582 36.0867 115.029 36.2 114.415 36.2ZM115.795 33.24C116.195 33.24 116.509 33.1133 116.735 32.86C116.975 32.6067 117.095 32.22 117.095 31.7V31.68L115.915 31.94C115.329 32.0733 115.035 32.32 115.035 32.68C115.035 32.84 115.102 32.9733 115.235 33.08C115.369 33.1867 115.555 33.24 115.795 33.24ZM124.017 36C123.87 36 123.743 35.9467 123.637 35.84C123.53 35.7333 123.477 35.6067 123.477 35.46V31.98C123.477 31.8333 123.53 31.7067 123.637 31.6C123.743 31.4933 123.87 31.44 124.017 31.44H127.497C127.643 31.44 127.77 31.4933 127.877 31.6C127.983 31.7067 128.037 31.8333 128.037 31.98V35.46C128.037 35.6067 127.983 35.7333 127.877 35.84C127.77 35.9467 127.643 36 127.497 36H124.017Z" fill="#040E1A"/>
<defs>
<linearGradient id="paint0_linear" x1="41" y1="31.0711" x2="41" y2="41.0711" gradientUnits="userSpaceOnUse">
<stop offset="0.590094" stop-color="#FF7575"/>
<stop offset="1" stop-color="#FFD584"/>
</linearGradient>
</defs>
</svg>
