<svg width="455" height="304" viewBox="0 0 455 304" fill="none" xmlns="http://www.w3.org/2000/svg">
<path d="M446.221 250.317H391.136V287.129H446.221V250.317Z" fill="#EBEBEB"/>
<path d="M446.228 250.317H423.805V287.129H446.228V250.317Z" fill="#E0E0E0"/>
<path d="M415.282 31.2798H361.962V108.563H415.282V31.2798Z" fill="#E0E0E0"/>
<path d="M412.612 31.2798H359.292V108.563H412.612V31.2798Z" fill="#F5F5F5"/>
<path d="M405.987 39.6519H365.917V100.197H405.987V39.6519Z" fill="white"/>
<path d="M405.987 100.191C405.987 100.191 405.987 100.088 405.987 99.8938C405.987 99.6997 405.987 99.4085 405.987 99.0384C405.987 98.274 405.987 97.1638 405.987 95.7139C405.987 92.814 405.987 88.5856 405.987 83.2469C405.987 72.5696 405.945 57.4514 405.921 39.6518L406.054 39.7853H366.014L366.16 39.6397C366.16 62.4746 366.16 83.532 366.16 100.179L366.044 100.064L395.207 100.124L403.263 100.155H405.381H406.115H405.405H403.312L395.28 100.185L366.044 100.246H365.82V100.13C365.82 83.4835 365.82 62.4261 365.79 39.5912V39.4456H365.941H405.981H406.115V39.579C406.115 57.415 406.06 72.5635 406.048 83.259C406.048 88.5856 406.018 92.808 406.012 95.7018C406.012 97.1335 406.012 98.2376 406.012 98.9959C406.012 99.36 406.012 99.6451 406.012 99.8392C406.012 100.033 405.987 100.191 405.987 100.191Z" fill="#E0E0E0"/>
<path d="M412.758 31.2798C412.485 31.7686 412.168 32.2316 411.811 32.663C411.205 33.4881 410.313 34.6164 409.306 35.8358C408.299 37.0552 407.364 38.1291 406.673 38.8995C406.317 39.3381 405.924 39.7442 405.496 40.1129C405.797 39.6418 406.138 39.1974 406.515 38.7842L409.081 35.666C410.058 34.4891 410.932 33.4213 411.647 32.5538C411.983 32.1002 412.354 31.6742 412.758 31.2798Z" fill="#E0E0E0"/>
<path d="M406.188 99.9968C408.181 103.164 410.526 106.097 413.176 108.739L406.188 99.9968Z" fill="white"/>
<path d="M413.176 108.739C412.738 108.408 412.331 108.036 411.963 107.629C410.106 105.734 408.446 103.657 407.007 101.429C406.688 100.98 406.415 100.5 406.194 99.9968C406.554 100.41 406.883 100.85 407.176 101.313C407.783 102.138 408.59 103.267 409.555 104.474C410.519 105.681 411.441 106.731 412.115 107.507C412.499 107.891 412.854 108.302 413.176 108.739Z" fill="#E0E0E0"/>
<path d="M359.286 108.502C361.608 105.627 363.935 102.753 366.269 99.8816L359.286 108.502Z" fill="white"/>
<path d="M366.269 99.8816C365.22 101.408 364.092 102.878 362.89 104.286C361.761 105.752 360.558 107.159 359.286 108.502C360.332 106.976 361.46 105.508 362.665 104.104C363.791 102.634 364.994 101.224 366.269 99.8816Z" fill="#E0E0E0"/>
<path d="M359.292 31.2798C360.493 32.5699 361.625 33.9226 362.684 35.3323C363.815 36.6883 364.87 38.106 365.844 39.579C364.641 38.2907 363.509 36.9378 362.453 35.5264C361.325 34.1678 360.27 32.7503 359.292 31.2798Z" fill="#E0E0E0"/>
<path d="M393.502 51.9429H380.083V90.0355H393.502V51.9429Z" fill="#E0E0E0"/>
<path d="M407.468 124.318H352.382V161.131H407.468V124.318Z" fill="#EBEBEB"/>
<path d="M407.468 124.318H385.045V161.131H407.468V124.318Z" fill="#E0E0E0"/>
<path d="M79.9223 84.3875H40.1128V125.883H79.9223V84.3875Z" fill="#E0E0E0"/>
<path d="M77.2287 84.3875H37.4192V125.883H77.2287V84.3875Z" fill="#FAFAFA"/>
<path d="M77.2407 125.896H37.407V84.3752H77.2407V125.896ZM37.4312 125.896H77.2164V84.3995H37.4312V125.896Z" fill="#E0E0E0"/>
<path d="M71.8779 89.9626H42.77V120.302H71.8779V89.9626Z" fill="#FAFAFA"/>
<path d="M42.7699 120.508C42.5637 120.81 42.3235 121.087 42.0541 121.333C41.5869 121.825 40.9317 122.492 40.2341 123.214C39.5364 123.936 38.8266 124.573 38.3291 125.034C38.0775 125.298 37.7966 125.532 37.4919 125.732C37.6937 125.427 37.932 125.148 38.2017 124.901C38.6689 124.409 39.3241 123.742 40.0581 123.02C40.7922 122.298 41.4656 121.655 41.9631 121.2C42.2015 120.936 42.4726 120.704 42.7699 120.508Z" fill="#E0E0E0"/>
<path d="M71.8777 120.429C72.1803 120.639 72.4591 120.881 72.7088 121.151C73.2002 121.612 73.8676 122.268 74.5895 123.002C75.3114 123.736 75.9484 124.403 76.4095 124.901C76.6742 125.153 76.9084 125.436 77.1072 125.744C76.8031 125.538 76.5242 125.298 76.276 125.028C75.7846 124.567 75.1173 123.912 74.3954 123.178C73.6734 122.444 73.0303 121.764 72.5753 121.267C72.3056 121.021 72.0708 120.739 71.8777 120.429Z" fill="#E0E0E0"/>
<path d="M71.7988 90.0476C72.0011 89.7394 72.2417 89.4581 72.5147 89.2104C72.9818 88.719 73.631 88.0577 74.3347 87.3358C75.0384 86.6138 75.7422 85.9708 76.2336 85.5158C76.4875 85.2505 76.7704 85.0144 77.0768 84.812C76.8733 85.1175 76.6329 85.3966 76.361 85.6431C75.8999 86.1345 75.2447 86.8019 74.541 87.5238C73.8372 88.2458 73.1274 88.8949 72.636 89.3438C72.3831 89.6079 72.1024 89.8438 71.7988 90.0476Z" fill="#E0E0E0"/>
<path d="M42.6909 90.1203C42.3867 89.9152 42.1077 89.675 41.8598 89.4044C41.3684 88.9373 40.7071 88.2821 39.9852 87.5541C39.2633 86.8261 38.6202 86.1466 38.1652 85.6492C37.8965 85.4 37.6619 85.1165 37.4675 84.8059C37.7685 85.0197 38.0452 85.2659 38.2926 85.54C38.784 86.0071 39.4453 86.6623 40.1672 87.3964C40.8891 88.1304 41.5383 88.8038 41.9872 89.3013C42.2519 89.5469 42.488 89.8217 42.6909 90.1203Z" fill="#E0E0E0"/>
<path d="M71.7988 120.302C71.7921 120.254 71.7921 120.205 71.7988 120.156C71.7988 120.053 71.7988 119.914 71.7988 119.732C71.7988 119.356 71.7988 118.81 71.7988 118.094C71.7988 116.662 71.7988 114.569 71.7988 111.912C71.7988 106.597 71.7624 99.0262 71.7382 89.9626L71.8534 90.0779H42.8305L42.9579 89.9444C42.9579 101.083 42.9579 111.499 42.9579 120.278L42.8487 120.169L63.8636 120.229H69.7726H71.3317H71.8777H71.7442H71.356H69.815H63.9364L42.8487 120.29H42.7395V120.175C42.7395 111.39 42.7395 100.974 42.7395 89.8413V89.7139H42.873H71.8959H72.0051V89.8231C72.0051 98.9231 71.9626 106.512 71.9505 111.845C71.9505 114.49 71.9505 116.571 71.9505 118.003C71.9505 118.706 71.9505 119.216 71.9505 119.616C71.9505 119.792 71.9505 119.932 71.9505 120.029C71.9505 120.126 71.7988 120.308 71.7988 120.302Z" fill="#E0E0E0"/>
<path d="M62.1771 100.276H52.4644V109.989H62.1771V100.276Z" fill="#EBEBEB"/>
<path d="M441.35 287.05C441.35 287.135 345.6 287.208 227.512 287.208C109.424 287.208 13.6499 287.135 13.6499 287.05C13.6499 286.965 109.382 286.893 227.512 286.893C345.642 286.893 441.35 286.953 441.35 287.05Z" fill="#263238"/>
<path d="M49.4372 245.7C40.3372 240.774 30.0967 231.819 26.1169 221.646C35.9631 226.748 44.2866 235.302 49.4372 245.7Z" fill="#4285F4"/>
<path d="M48.8427 230.461C39.7427 225.54 29.5022 216.58 25.5225 206.406C35.3687 211.484 43.68 220.038 48.8427 230.461Z" fill="#4285F4"/>
<path d="M47.4838 215.543C38.3838 210.623 28.1433 201.662 24.1636 191.488C34.0037 196.566 42.3029 205.12 47.4838 215.543Z" fill="#4285F4"/>
<path d="M45.5001 199.872C37.0492 193.715 27.9614 183.401 25.2192 172.754C34.3799 179.167 41.5992 188.813 45.5001 199.872Z" fill="#4285F4"/>
<path d="M42.9216 187.781C37.2068 178.633 32.3292 165.371 33.4455 154.378C39.819 164.339 43.115 175.958 42.9216 187.781Z" fill="#4285F4"/>
<path d="M44.22 193.527C46.6466 182.121 52.4828 168.047 60.9154 160.117C58.4432 172.548 52.6772 184.087 44.22 193.527" fill="#4285F4"/>
<path d="M46.1067 206.437C49.5526 194.77 56.8083 180.617 66.242 173.07C62.6591 185.803 55.7021 197.332 46.1067 206.437Z" fill="#4285F4"/>
<path d="M48.1633 222.155C51.6092 210.483 58.8649 196.335 68.2986 188.789C64.7121 201.52 57.7557 213.048 48.1633 222.155Z" fill="#4285F4"/>
<path d="M49.2068 241.308C52.6527 229.635 59.9084 215.488 69.342 207.941C65.7556 220.673 58.7992 232.2 49.2068 241.308" fill="#4285F4"/>
<path d="M42.6973 185.476C42.7219 185.537 42.7402 185.6 42.7519 185.664C42.7883 185.81 42.8307 185.992 42.8793 186.21C42.9945 186.726 43.1462 187.423 43.3464 188.333C43.7468 190.153 44.2746 192.847 44.8691 196.166C45.4637 199.484 46.0825 203.446 46.7316 207.85C47.3807 212.254 47.9449 217.126 48.3939 222.246C48.8428 227.366 49.1704 232.256 49.3827 236.703C49.5951 241.15 49.6739 245.166 49.68 248.539C49.6861 251.912 49.68 254.606 49.6133 256.517C49.6133 257.433 49.5647 258.155 49.5465 258.683C49.5465 258.913 49.5465 259.095 49.5465 259.247C49.5547 259.309 49.5547 259.372 49.5465 259.435C49.5384 259.372 49.5384 259.309 49.5465 259.247C49.5465 259.095 49.5465 258.913 49.5465 258.683V256.511C49.5465 254.63 49.5465 251.906 49.498 248.539C49.4495 245.172 49.3281 241.168 49.1158 236.721C48.9035 232.274 48.5637 227.397 48.1027 222.276C47.6416 217.156 47.0531 212.309 46.4707 207.898C45.8883 203.488 45.2574 199.526 44.6871 196.208C44.1169 192.89 43.6376 190.208 43.2797 188.358C43.1159 187.454 42.9824 186.744 42.8853 186.228L42.7943 185.67C42.753 185.61 42.7203 185.545 42.6973 185.476Z" fill="#263238"/>
<g opacity="0.5">
<path opacity="0.5" d="M49.4372 245.7C40.3372 240.774 30.0967 231.819 26.1169 221.646C35.9631 226.748 44.2866 235.302 49.4372 245.7Z" fill="black"/>
<path opacity="0.5" d="M48.8427 230.461C39.7427 225.54 29.5022 216.58 25.5225 206.406C35.3687 211.484 43.68 220.038 48.8427 230.461Z" fill="black"/>
<path opacity="0.5" d="M47.4838 215.543C38.3838 210.623 28.1433 201.662 24.1636 191.488C34.0037 196.566 42.3029 205.12 47.4838 215.543Z" fill="black"/>
<path opacity="0.5" d="M45.5001 199.872C37.0492 193.715 27.9614 183.401 25.2192 172.754C34.3799 179.167 41.5992 188.813 45.5001 199.872Z" fill="black"/>
<path opacity="0.5" d="M42.9216 187.781C37.2068 178.633 32.3292 165.371 33.4455 154.378C39.819 164.339 43.115 175.958 42.9216 187.781Z" fill="black"/>
<path opacity="0.5" d="M44.22 193.527C46.6466 182.121 52.4828 168.047 60.9154 160.117C58.4432 172.548 52.6772 184.087 44.22 193.527Z" fill="black"/>
<path opacity="0.5" d="M46.1067 206.437C49.5526 194.77 56.8083 180.617 66.242 173.07C62.6591 185.803 55.7021 197.332 46.1067 206.437Z" fill="black"/>
<path opacity="0.5" d="M48.1633 222.155C51.6092 210.483 58.8649 196.335 68.2986 188.789C64.7121 201.52 57.7557 213.048 48.1633 222.155Z" fill="black"/>
<path opacity="0.5" d="M49.2068 241.308C52.6527 229.635 59.9084 215.488 69.342 207.941C65.7556 220.673 58.7992 232.2 49.2068 241.308Z" fill="black"/>
</g>
<path d="M53.4353 249.662C49.1886 240.786 46.1128 228.307 48.1937 218.57C52.931 228.202 54.7527 239.008 53.4353 249.662" fill="#4285F4"/>
<path d="M60.4846 238.171C56.2379 229.296 53.1621 216.817 55.243 207.073C59.9798 216.708 61.8015 227.516 60.4846 238.171" fill="#4285F4"/>
<path d="M66.8061 226.487C62.5595 217.611 59.4837 205.132 61.5645 195.389C66.3023 205.024 68.1241 215.832 66.8061 226.487" fill="#4285F4"/>
<path d="M73.0366 213.88C69.8819 204.489 68.3046 191.682 71.5199 182.333C75.0732 192.48 75.6001 203.44 73.0366 213.88" fill="#4285F4"/>
<path d="M77.0891 203.561C77.3985 193.569 80.3408 181.047 86.547 173.67C86.4089 184.348 83.1185 194.747 77.0891 203.561" fill="#4285F4"/>
<path d="M75.2268 208.517C82.5796 201.583 93.7544 194.691 103.801 193.793C95.9425 201.42 85.9984 206.544 75.2268 208.517" fill="#4285F4"/>
<path d="M70.2581 219.006C78.4966 212.479 90.7331 206.351 101.313 206.327C92.4477 213.539 81.638 217.953 70.2581 219.006" fill="#4285F4"/>
<path d="M64.064 231.71C72.3025 225.182 84.539 219.055 95.1192 219.031C86.2536 226.243 75.4439 230.656 64.064 231.71Z" fill="#4285F4"/>
<path d="M55.4312 246.307C63.6697 239.779 75.9122 233.651 86.4925 233.627C77.6239 240.838 66.8126 245.251 55.4312 246.307" fill="#4285F4"/>
<path d="M78.0538 201.747C78.0454 201.805 78.0291 201.863 78.0053 201.917C77.9567 202.038 77.9021 202.196 77.8354 202.384L77.1438 204.204C76.5371 205.763 75.6271 208.002 74.4502 210.75C72.0963 216.246 68.6141 223.739 64.2885 231.771C62.1167 235.787 59.9448 239.548 57.9064 242.94C55.868 246.331 53.9509 249.297 52.2947 251.767C50.6385 254.236 49.2614 256.25 48.2907 257.609L47.1684 259.168L46.8651 259.568C46.8331 259.614 46.7965 259.657 46.7559 259.696C46.7559 259.696 46.7559 259.641 46.8347 259.544L47.1077 259.125C47.3686 258.731 47.7144 258.197 48.1755 257.524C49.1158 256.147 50.4505 254.133 52.0703 251.627C53.6901 249.121 55.5829 246.1 57.6152 242.721C59.6475 239.342 61.7891 235.562 63.9609 231.552C68.2804 223.532 71.7991 216.064 74.2075 210.604C75.4209 207.874 76.3673 205.654 77.0103 204.107L77.7626 202.341L77.9689 201.88C77.9912 201.832 78.0198 201.787 78.0538 201.747Z" fill="#263238"/>
<path d="M65.5139 287.05H39.4818L34.6345 251.178H70.5007L65.5139 287.05Z" fill="#263238"/>
<path d="M69.2268 256.432C69.2268 256.523 61.6981 256.59 52.41 256.59C43.122 256.59 35.5872 256.523 35.5872 256.432C35.5872 256.341 43.122 256.274 52.41 256.274C61.6981 256.274 69.2268 256.347 69.2268 256.432Z" fill="#455A64"/>
<path d="M310.965 27.3667H144.029C140.159 27.3667 137.022 30.5038 137.022 34.3737V280.043C137.022 283.913 140.159 287.05 144.029 287.05H310.965C314.835 287.05 317.972 283.913 317.972 280.043V34.3737C317.972 30.5038 314.835 27.3667 310.965 27.3667Z" fill="#263238"/>
<path d="M312.185 45.8943H142.646V262.759H312.185V45.8943Z" fill="white"/>
<path d="M234.44 274.001C234.439 275.373 234.031 276.715 233.268 277.855C232.504 278.996 231.42 279.884 230.152 280.409C228.884 280.933 227.488 281.07 226.142 280.801C224.797 280.533 223.56 279.871 222.59 278.9C221.62 277.929 220.96 276.693 220.693 275.347C220.425 274.001 220.563 272.605 221.089 271.338C221.614 270.07 222.504 268.986 223.645 268.224C224.786 267.462 226.128 267.055 227.5 267.055C228.412 267.055 229.315 267.234 230.157 267.584C231 267.933 231.765 268.444 232.41 269.09C233.054 269.735 233.565 270.5 233.914 271.343C234.262 272.186 234.441 273.089 234.44 274.001Z" fill="#455A64"/>
<path d="M254.011 34.8469H200.989C200.58 34.8469 200.249 35.1783 200.249 35.5871V36.9763C200.249 37.3851 200.58 37.7165 200.989 37.7165H254.011C254.42 37.7165 254.751 37.3851 254.751 36.9763V35.5871C254.751 35.1783 254.42 34.8469 254.011 34.8469Z" fill="#455A64"/>
<path d="M196.299 80.7534H158.243C156.702 80.7534 155.452 82.0028 155.452 83.5441V121.6C155.452 123.142 156.702 124.391 158.243 124.391H196.299C197.84 124.391 199.09 123.142 199.09 121.6V83.5441C199.09 82.0028 197.84 80.7534 196.299 80.7534Z" fill="#4285F4"/>
<path d="M184.609 95.6228H169.854C169.003 95.6228 168.313 96.3127 168.313 97.1637V103.594C168.313 104.445 169.003 105.135 169.854 105.135H184.609C185.46 105.135 186.15 104.445 186.15 103.594V97.1637C186.15 96.3127 185.46 95.6228 184.609 95.6228Z" fill="#FAFAFA"/>
<path d="M189.48 99.748H165.056C164.707 99.748 164.425 100.031 164.425 100.379V108.241C164.425 108.59 164.707 108.872 165.056 108.872H189.48C189.829 108.872 190.111 108.59 190.111 108.241V100.379C190.111 100.031 189.829 99.748 189.48 99.748Z" fill="#FAFAFA"/>
<path d="M186.15 99.748C186.299 100.799 186.362 101.86 186.338 102.921V103.103H186.15C183.966 103.158 180.781 103.194 177.232 103.194C173.683 103.194 170.498 103.158 168.314 103.103H168.126V102.921C168.102 101.86 168.165 100.799 168.314 99.748C168.467 100.798 168.529 101.86 168.502 102.921L168.314 102.733C170.498 102.678 173.683 102.642 177.232 102.642C180.781 102.642 183.966 102.678 186.15 102.733L185.962 102.921C185.934 101.86 185.997 100.798 186.15 99.748Z" fill="#263238"/>
<path d="M168.229 108.794C168.071 108.794 167.95 106.816 167.95 104.377C167.95 101.938 168.071 99.9666 168.229 99.9666C168.387 99.9666 168.502 101.938 168.502 104.377C168.502 106.816 168.38 108.794 168.229 108.794Z" fill="#263238"/>
<path d="M186.168 108.872C186.01 108.872 185.889 106.967 185.889 104.626C185.889 102.284 186.01 100.379 186.168 100.379C186.325 100.379 186.441 102.284 186.441 104.626C186.441 106.967 186.319 108.872 186.168 108.872Z" fill="#263238"/>
<path d="M245.664 80.7534H207.607C206.066 80.7534 204.817 82.0028 204.817 83.5441V121.6C204.817 123.142 206.066 124.391 207.607 124.391H245.664C247.205 124.391 248.454 123.142 248.454 121.6V83.5441C248.454 82.0028 247.205 80.7534 245.664 80.7534Z" fill="#E0E0E0"/>
<path d="M233.979 95.6228H219.225C218.374 95.6228 217.684 96.3127 217.684 97.1637V103.594C217.684 104.445 218.374 105.135 219.225 105.135H233.979C234.83 105.135 235.52 104.445 235.52 103.594V97.1637C235.52 96.3127 234.83 95.6228 233.979 95.6228Z" fill="#4285F4"/>
<path d="M238.851 99.748H214.426C214.078 99.748 213.795 100.031 213.795 100.379V108.241C213.795 108.59 214.078 108.872 214.426 108.872H238.851C239.199 108.872 239.482 108.59 239.482 108.241V100.379C239.482 100.031 239.199 99.748 238.851 99.748Z" fill="#4285F4"/>
<path d="M235.52 99.748C235.665 100.799 235.726 101.86 235.702 102.921V103.103H235.514C233.33 103.158 230.139 103.194 226.596 103.194C223.053 103.194 219.856 103.158 217.678 103.103H217.484V102.921C217.456 101.86 217.519 100.798 217.672 99.748C217.825 100.798 217.888 101.86 217.86 102.921L217.672 102.733C219.85 102.678 223.041 102.642 226.59 102.642C230.139 102.642 233.324 102.678 235.508 102.733L235.32 102.921C235.296 101.86 235.363 100.798 235.52 99.748Z" fill="#263238"/>
<path d="M217.593 108.794C217.441 108.794 217.314 106.816 217.314 104.377C217.314 101.938 217.441 99.9666 217.593 99.9666C217.745 99.9666 217.872 101.938 217.872 104.377C217.872 106.816 217.751 108.794 217.593 108.794Z" fill="#263238"/>
<path d="M235.532 108.872C235.381 108.872 235.259 106.967 235.259 104.626C235.259 102.284 235.381 100.379 235.532 100.379C235.684 100.379 235.811 102.284 235.811 104.626C235.811 106.967 235.69 108.872 235.532 108.872Z" fill="#263238"/>
<path d="M295.034 80.7534H256.978C255.437 80.7534 254.187 82.0028 254.187 83.5441V121.6C254.187 123.142 255.437 124.391 256.978 124.391H295.034C296.575 124.391 297.825 123.142 297.825 121.6V83.5441C297.825 82.0028 296.575 80.7534 295.034 80.7534Z" fill="#E0E0E0"/>
<path d="M283.35 95.6228H268.596C267.745 95.6228 267.055 96.3127 267.055 97.1637V103.594C267.055 104.445 267.745 105.135 268.596 105.135H283.35C284.201 105.135 284.891 104.445 284.891 103.594V97.1637C284.891 96.3127 284.201 95.6228 283.35 95.6228Z" fill="#455A64"/>
<path d="M288.221 99.748H263.797C263.448 99.748 263.166 100.031 263.166 100.379V108.241C263.166 108.59 263.448 108.872 263.797 108.872H288.221C288.57 108.872 288.852 108.59 288.852 108.241V100.379C288.852 100.031 288.57 99.748 288.221 99.748Z" fill="#455A64"/>
<path d="M284.885 99.748C285.037 100.798 285.1 101.86 285.073 102.921V103.103H284.878C282.701 103.158 279.509 103.194 275.967 103.194C272.424 103.194 269.226 103.158 267.049 103.103H266.854V102.921C266.827 101.86 266.89 100.798 267.042 99.748C267.192 100.799 267.254 101.86 267.231 102.921L267.042 102.733C269.22 102.678 272.411 102.642 275.96 102.642C279.509 102.642 282.694 102.678 284.872 102.733L284.684 102.921C284.664 101.86 284.731 100.798 284.885 99.748Z" fill="#263238"/>
<path d="M266.964 108.794C266.812 108.794 266.685 106.816 266.685 104.377C266.685 101.938 266.812 99.9666 266.964 99.9666C267.115 99.9666 267.243 101.938 267.243 104.377C267.243 106.816 267.115 108.794 266.964 108.794Z" fill="#263238"/>
<path d="M284.903 108.872C284.751 108.872 284.624 106.967 284.624 104.626C284.624 102.284 284.751 100.379 284.903 100.379C285.054 100.379 285.182 102.284 285.182 104.626C285.182 106.967 285.06 108.872 284.903 108.872Z" fill="#263238"/>
<path d="M196.299 135.657H158.243C156.702 135.657 155.452 136.906 155.452 138.447V176.504C155.452 178.045 156.702 179.294 158.243 179.294H196.299C197.84 179.294 199.09 178.045 199.09 176.504V138.447C199.09 136.906 197.84 135.657 196.299 135.657Z" fill="#E0E0E0"/>
<path d="M168.168 156.714L170.2 163.8L184.154 163.855L186.38 157.072C185.608 156.818 184.793 156.723 183.984 156.793L183.741 149.24C183.737 149.071 183.692 148.905 183.609 148.757C183.526 148.61 183.408 148.485 183.265 148.394C183.122 148.303 182.959 148.248 182.791 148.235C182.622 148.222 182.452 148.25 182.297 148.318L180.938 148.925H173.052L172.148 148.47C171.992 148.39 171.818 148.353 171.643 148.36C171.469 148.368 171.299 148.42 171.15 148.512C171.002 148.604 170.879 148.733 170.795 148.886C170.71 149.039 170.666 149.211 170.667 149.386V156.842C169.853 156.623 169.001 156.58 168.168 156.714Z" fill="#4285F4"/>
<path d="M170.92 163.805L170.186 163.802L170.159 170.25L170.893 170.253L170.92 163.805Z" fill="#263238"/>
<path d="M173.498 163.834L172.764 163.831L172.751 167.125L173.485 167.128L173.498 163.834Z" fill="#263238"/>
<path d="M180.887 163.865L180.153 163.862L180.14 167.156L180.874 167.159L180.887 163.865Z" fill="#263238"/>
<path d="M184.157 163.86L183.423 163.857L183.396 170.306L184.13 170.309L184.157 163.86Z" fill="#263238"/>
<path d="M173.155 159.717C173.1 159.717 173.064 157.29 173.076 154.324C173.088 151.357 173.149 148.93 173.203 148.93C173.258 148.93 173.294 151.357 173.282 154.324C173.27 157.29 173.209 159.717 173.155 159.717Z" fill="#263238"/>
<path d="M181.029 159.754C180.975 159.754 180.938 157.327 180.951 154.36C180.963 151.394 181.023 148.967 181.078 148.967C181.133 148.967 181.169 151.394 181.157 154.36C181.145 157.327 181.09 159.754 181.029 159.754Z" fill="#263238"/>
<path d="M183.972 156.799C183.857 156.848 183.737 156.885 183.614 156.908L183.414 156.957L183.189 157.042L182.922 157.139L182.643 157.29C182.18 157.554 181.798 157.94 181.539 158.407C181.22 159.01 181.085 159.693 181.151 160.372V160.475H177.329L173.149 160.445H173.064V160.36C173.056 159.723 172.889 159.097 172.579 158.54C172.349 158.12 172.047 157.745 171.687 157.43C171.353 157.16 170.988 156.93 170.601 156.744C170.714 156.769 170.824 156.805 170.928 156.854C171.225 156.981 171.502 157.149 171.753 157.351C172.147 157.665 172.478 158.05 172.73 158.485C173.064 159.05 173.248 159.692 173.264 160.348L173.173 160.263H177.353H181.078L180.987 160.366C180.924 159.666 181.065 158.962 181.393 158.34C181.681 157.854 182.102 157.46 182.607 157.205L182.898 157.066L183.171 156.975L183.408 156.896L183.608 156.86C183.727 156.829 183.849 156.809 183.972 156.799Z" fill="#263238"/>
<path d="M173.003 160.396C173.003 160.427 172.742 160.475 172.354 160.651C171.853 160.878 171.416 161.224 171.08 161.658C170.761 162.104 170.553 162.62 170.473 163.163C170.461 163.394 170.437 163.625 170.401 163.854C170.321 163.627 170.298 163.383 170.334 163.145C170.382 162.563 170.592 162.006 170.94 161.537C171.298 161.073 171.779 160.719 172.33 160.518C172.541 160.422 172.772 160.38 173.003 160.396Z" fill="#263238"/>
<path d="M184.002 164.012C183.972 164.012 183.965 163.715 183.85 163.254C183.704 162.66 183.421 162.107 183.025 161.64C182.625 161.18 182.125 160.817 181.563 160.579C181.126 160.397 180.835 160.348 180.841 160.318C181.105 160.299 181.37 160.344 181.612 160.451C182.22 160.657 182.763 161.023 183.181 161.511C183.599 161.999 183.879 162.591 183.99 163.224C184.058 163.482 184.062 163.752 184.002 164.012Z" fill="#263238"/>
<path d="M245.664 135.657H207.607C206.066 135.657 204.817 136.906 204.817 138.447V176.504C204.817 178.045 206.066 179.294 207.607 179.294H245.664C247.205 179.294 248.454 178.045 248.454 176.504V138.447C248.454 136.906 247.205 135.657 245.664 135.657Z" fill="#E0E0E0"/>
<path d="M295.034 135.657H256.978C255.437 135.657 254.187 136.906 254.187 138.447V176.504C254.187 178.045 255.437 179.294 256.978 179.294H295.034C296.575 179.294 297.825 178.045 297.825 176.504V138.447C297.825 136.906 296.575 135.657 295.034 135.657Z" fill="#4285F4"/>
<path d="M196.299 190.56H158.243C156.702 190.56 155.452 191.809 155.452 193.351V231.407C155.452 232.948 156.702 234.198 158.243 234.198H196.299C197.84 234.198 199.09 232.948 199.09 231.407V193.351C199.09 191.809 197.84 190.56 196.299 190.56Z" fill="#4285F4"/>
<path d="M245.664 190.56H207.607C206.066 190.56 204.817 191.809 204.817 193.351V231.407C204.817 232.948 206.066 234.198 207.607 234.198H245.664C247.205 234.198 248.454 232.948 248.454 231.407V193.351C248.454 191.809 247.205 190.56 245.664 190.56Z" fill="#E0E0E0"/>
<path d="M295.034 190.56H256.978C255.437 190.56 254.187 191.809 254.187 193.351V231.407C254.187 232.948 255.437 234.198 256.978 234.198H295.034C296.575 234.198 297.825 232.948 297.825 231.407V193.351C297.825 191.809 296.575 190.56 295.034 190.56Z" fill="#E0E0E0"/>
<path d="M221.185 248.6C222.049 248.6 222.75 247.899 222.75 247.035C222.75 246.17 222.049 245.469 221.185 245.469C220.32 245.469 219.619 246.17 219.619 247.035C219.619 247.899 220.32 248.6 221.185 248.6Z" fill="#263238"/>
<path d="M229.065 247.035C229.064 247.344 228.971 247.646 228.798 247.903C228.626 248.159 228.381 248.359 228.095 248.476C227.809 248.594 227.494 248.624 227.191 248.563C226.888 248.502 226.609 248.352 226.391 248.133C226.173 247.914 226.024 247.635 225.964 247.332C225.905 247.028 225.936 246.714 226.055 246.428C226.173 246.143 226.374 245.898 226.631 245.727C226.888 245.555 227.191 245.463 227.5 245.463C227.706 245.463 227.91 245.504 228.1 245.583C228.291 245.662 228.464 245.778 228.609 245.924C228.754 246.07 228.87 246.243 228.948 246.434C229.026 246.624 229.066 246.829 229.065 247.035Z" fill="#263238"/>
<path d="M235.387 247.035C235.387 247.346 235.294 247.65 235.121 247.908C234.949 248.167 234.703 248.368 234.415 248.487C234.128 248.606 233.812 248.636 233.507 248.575C233.202 248.514 232.922 248.364 232.702 248.144C232.483 247.923 232.334 247.643 232.274 247.337C232.214 247.032 232.246 246.716 232.365 246.429C232.485 246.142 232.688 245.897 232.947 245.725C233.206 245.553 233.51 245.462 233.821 245.463C234.237 245.465 234.635 245.631 234.929 245.926C235.222 246.22 235.387 246.619 235.387 247.035Z" fill="#263238"/>
<path d="M165.468 64.0639H157.484C157.404 64.0639 157.327 64.032 157.27 63.9751C157.213 63.9182 157.181 63.8411 157.181 63.7606C157.181 63.6802 157.213 63.603 157.27 63.5461C157.327 63.4892 157.404 63.4573 157.484 63.4573H165.468C165.549 63.4573 165.626 63.4892 165.683 63.5461C165.74 63.603 165.772 63.6802 165.772 63.7606C165.772 63.8411 165.74 63.9182 165.683 63.9751C165.626 64.032 165.549 64.0639 165.468 64.0639Z" fill="#263238"/>
<path d="M160.585 66.6181C160.522 66.6178 160.461 66.5988 160.409 66.5635L156.823 64.0094C156.782 63.9823 156.749 63.9453 156.725 63.9019C156.702 63.8585 156.69 63.81 156.69 63.7607C156.693 63.712 156.706 63.6645 156.729 63.6215C156.752 63.5785 156.784 63.5411 156.823 63.5119L160.518 60.9943C160.55 60.9661 160.588 60.9451 160.629 60.9326C160.67 60.9201 160.713 60.9164 160.756 60.9219C160.798 60.9273 160.839 60.9417 160.876 60.9641C160.912 60.9864 160.944 61.0163 160.968 61.0517C160.992 61.0871 161.009 61.1272 161.016 61.1694C161.024 61.2116 161.022 61.2549 161.012 61.2965C161.001 61.3381 160.982 61.377 160.956 61.4106C160.929 61.4443 160.896 61.4719 160.858 61.4917L157.527 63.7667L160.767 66.066C160.82 66.1031 160.86 66.1561 160.88 66.2175C160.901 66.2788 160.902 66.3452 160.882 66.4069C160.863 66.4685 160.824 66.5223 160.771 66.5603C160.719 66.5983 160.656 66.6186 160.591 66.6181H160.585Z" fill="#263238"/>
<path d="M294.421 64.0942H286.438C286.357 64.0942 286.28 64.0623 286.223 64.0054C286.166 63.9485 286.134 63.8713 286.134 63.7909C286.134 63.7104 286.166 63.6333 286.223 63.5764C286.28 63.5195 286.357 63.4875 286.438 63.4875H294.421C294.502 63.4875 294.579 63.5195 294.636 63.5764C294.693 63.6333 294.725 63.7104 294.725 63.7909C294.725 63.8713 294.693 63.9485 294.636 64.0054C294.579 64.0623 294.502 64.0942 294.421 64.0942Z" fill="#263238"/>
<path d="M291.2 66.618C291.15 66.6175 291.101 66.6052 291.056 66.582C291.012 66.5588 290.974 66.5254 290.945 66.4845C290.902 66.4179 290.886 66.3374 290.901 66.2595C290.916 66.1816 290.96 66.1123 291.024 66.0659L294.361 63.7849L291.127 61.4917C291.062 61.4442 291.018 61.3734 291.005 61.2941C290.991 61.2148 291.009 61.1334 291.054 61.067C291.077 61.0342 291.107 61.0063 291.14 60.9848C291.174 60.9634 291.212 60.9489 291.252 60.9421C291.291 60.9353 291.331 60.9365 291.371 60.9454C291.41 60.9543 291.446 60.9709 291.479 60.9942L295.064 63.5483C295.106 63.5744 295.14 63.6113 295.162 63.6551C295.185 63.6989 295.195 63.7479 295.192 63.797C295.191 63.8455 295.179 63.8931 295.157 63.9362C295.135 63.9794 295.103 64.0168 295.064 64.0457L291.37 66.5634C291.32 66.5979 291.261 66.6169 291.2 66.618Z" fill="#263238"/>
<path d="M185.997 207.895L170.897 207.922C170.096 207.923 169.448 208.573 169.449 209.374L169.465 218.498C169.467 219.299 170.117 219.947 170.918 219.946L186.018 219.919C186.818 219.918 187.466 219.268 187.465 218.467L187.449 209.343C187.448 208.542 186.797 207.894 185.997 207.895Z" fill="#E0E0E0"/>
<path d="M182.54 210.137C182.532 210.06 182.532 209.983 182.54 209.907C182.54 209.729 182.552 209.51 182.576 209.251C182.643 208.444 182.643 207.632 182.576 206.825C182.478 205.643 181.994 204.526 181.199 203.646C180.715 203.151 180.097 202.807 179.422 202.657C178.685 202.51 177.934 202.447 177.183 202.469C175.654 202.469 174.15 202.784 173.106 203.634C172.621 204.033 172.238 204.543 171.99 205.12C171.774 205.625 171.633 206.158 171.571 206.703C171.489 207.51 171.489 208.323 171.571 209.13C171.596 209.397 171.614 209.615 171.626 209.785C171.626 209.937 171.626 210.016 171.626 210.016C171.601 209.943 171.584 209.868 171.577 209.791C171.577 209.646 171.523 209.421 171.486 209.142C171.372 208.339 171.348 207.525 171.414 206.716C171.47 206.152 171.609 205.6 171.826 205.078C172.076 204.47 172.469 203.933 172.973 203.512C173.538 203.06 174.194 202.735 174.896 202.56C175.642 202.376 176.408 202.285 177.177 202.287C177.944 202.265 178.711 202.33 179.464 202.481C180.177 202.643 180.826 203.01 181.333 203.537C182.15 204.451 182.639 205.613 182.722 206.837C182.785 207.645 182.768 208.458 182.673 209.264C182.673 209.549 182.619 209.767 182.601 209.913C182.586 209.989 182.566 210.064 182.54 210.137Z" fill="#263238"/>
<path d="M183.721 207.839L168.622 207.865C167.821 207.866 167.173 208.517 167.174 209.317L167.19 218.442C167.191 219.242 167.842 219.89 168.643 219.889L183.742 219.863C184.543 219.861 185.191 219.211 185.19 218.41L185.174 209.286C185.173 208.485 184.522 207.837 183.721 207.839Z" fill="#FAFAFA"/>
<path d="M183.729 219.874C183.923 219.856 184.113 219.809 184.293 219.735C184.506 219.641 184.692 219.495 184.833 219.31C185.03 219.061 185.137 218.754 185.137 218.436C185.137 216.968 185.137 214.863 185.094 212.267C185.094 211.617 185.094 210.932 185.094 210.222C185.094 209.87 185.094 209.494 185.094 209.148C185.054 208.792 184.875 208.465 184.597 208.238C184.3 208.008 183.926 207.901 183.553 207.941H182.34H179.822H168.623C168.392 207.942 168.166 208.002 167.965 208.116C167.764 208.23 167.596 208.393 167.477 208.59C167.355 208.783 167.288 209.005 167.282 209.233C167.282 209.476 167.282 209.713 167.282 209.955C167.282 210.926 167.282 211.878 167.282 212.813V218.218C167.27 218.423 167.293 218.628 167.349 218.825C167.411 219.011 167.51 219.182 167.64 219.328C167.771 219.473 167.931 219.587 168.11 219.663C168.29 219.74 168.483 219.777 168.678 219.771H175.327H181.49H183.171H183.608H183.753H183.608H183.171H181.497L175.327 219.82H171.08H168.653C168.432 219.827 168.212 219.786 168.008 219.7C167.804 219.614 167.62 219.485 167.47 219.322C167.317 219.158 167.203 218.961 167.137 218.746C167.072 218.532 167.045 218.308 167.058 218.085C167.058 216.362 167.058 214.554 167.058 212.679C167.058 211.745 167.058 210.792 167.058 209.822C167.058 209.579 167.058 209.342 167.058 209.088C167.067 208.826 167.145 208.571 167.282 208.348C167.421 208.12 167.617 207.932 167.849 207.801C168.082 207.67 168.344 207.602 168.611 207.601H179.81H183.529C183.943 207.564 184.356 207.688 184.682 207.947C184.837 208.073 184.966 208.228 185.06 208.404C185.155 208.58 185.214 208.773 185.234 208.972C185.234 209.355 185.234 209.706 185.234 210.064C185.234 210.774 185.234 211.46 185.234 212.109C185.234 214.705 185.234 216.811 185.234 218.279C185.228 218.613 185.111 218.935 184.9 219.195C184.746 219.382 184.548 219.528 184.324 219.619C184.154 219.76 183.948 219.848 183.729 219.874Z" fill="#263238"/>
<path d="M234.967 207.895L219.867 207.921C219.066 207.922 218.418 208.573 218.419 209.374L218.435 218.498C218.437 219.299 219.087 219.947 219.888 219.945L234.988 219.919C235.788 219.917 236.436 219.267 236.435 218.466L236.419 209.342C236.418 208.541 235.767 207.893 234.967 207.895Z" fill="#4285F4"/>
<path d="M231.51 210.137C231.502 210.06 231.502 209.983 231.51 209.907C231.51 209.729 231.522 209.51 231.546 209.251C231.613 208.444 231.613 207.632 231.546 206.825C231.448 205.643 230.964 204.526 230.169 203.646C229.685 203.151 229.068 202.807 228.392 202.657C227.655 202.51 226.904 202.447 226.153 202.469C224.624 202.469 223.12 202.784 222.076 203.634C221.591 204.033 221.208 204.543 220.96 205.12C220.744 205.625 220.603 206.158 220.542 206.703C220.46 207.51 220.46 208.323 220.542 209.13C220.566 209.397 220.584 209.615 220.596 209.785C220.596 209.937 220.596 210.016 220.596 210.016C220.571 209.943 220.555 209.868 220.548 209.791C220.548 209.646 220.493 209.421 220.457 209.142C220.342 208.339 220.318 207.525 220.384 206.716C220.441 206.152 220.58 205.6 220.796 205.078C221.046 204.47 221.439 203.933 221.943 203.512C222.508 203.06 223.164 202.735 223.866 202.56C224.612 202.376 225.379 202.285 226.147 202.287C226.914 202.265 227.682 202.33 228.434 202.481C229.147 202.643 229.796 203.01 230.303 203.537C231.121 204.451 231.609 205.613 231.692 206.837C231.755 207.645 231.739 208.458 231.644 209.264C231.644 209.549 231.589 209.767 231.571 209.913C231.56 209.99 231.54 210.065 231.51 210.137Z" fill="#263238"/>
<path d="M232.691 207.838L217.592 207.864C216.791 207.866 216.143 208.516 216.144 209.317L216.16 218.441C216.161 219.242 216.812 219.89 217.613 219.889L232.712 219.862C233.513 219.861 234.161 219.21 234.16 218.41L234.144 209.285C234.143 208.485 233.492 207.837 232.691 207.838Z" fill="#4285F4"/>
<path d="M232.699 219.874C232.893 219.856 233.083 219.809 233.263 219.735C233.476 219.641 233.662 219.495 233.803 219.31C234 219.061 234.107 218.754 234.107 218.436C234.107 216.968 234.107 214.863 234.064 212.267C234.064 211.617 234.064 210.932 234.064 210.222C234.064 209.87 234.064 209.494 234.064 209.148C234.024 208.792 233.845 208.465 233.567 208.238C233.27 208.008 232.896 207.901 232.523 207.941H231.31H228.792H217.593C217.363 207.942 217.136 208.002 216.935 208.116C216.734 208.23 216.566 208.393 216.447 208.59C216.325 208.783 216.258 209.005 216.253 209.233C216.253 209.476 216.253 209.713 216.253 209.955C216.253 210.926 216.253 211.878 216.253 212.813V218.218C216.24 218.423 216.263 218.628 216.319 218.825C216.381 219.011 216.48 219.182 216.61 219.328C216.742 219.473 216.903 219.588 217.084 219.664C217.264 219.741 217.458 219.777 217.654 219.771H224.285H230.455H232.129H232.566H232.711H232.566H232.129H230.455L224.285 219.82H220.038H217.666C217.445 219.827 217.224 219.786 217.02 219.7C216.816 219.614 216.633 219.485 216.483 219.322C216.33 219.158 216.216 218.961 216.149 218.746C216.087 218.531 216.062 218.307 216.077 218.085C216.077 216.362 216.077 214.554 216.077 212.679C216.077 211.745 216.077 210.792 216.077 209.822C216.077 209.579 216.077 209.342 216.077 209.088C216.086 208.826 216.163 208.571 216.301 208.348C216.44 208.12 216.635 207.932 216.868 207.801C217.101 207.67 217.363 207.602 217.63 207.601H228.829H232.548C232.962 207.564 233.375 207.688 233.7 207.947C234.014 208.202 234.214 208.571 234.258 208.972C234.258 209.355 234.258 209.706 234.258 210.064C234.258 210.774 234.258 211.46 234.258 212.109C234.258 214.705 234.258 216.811 234.258 218.279C234.256 218.567 234.168 218.848 234.006 219.087C233.844 219.325 233.615 219.511 233.348 219.619C233.164 219.77 232.937 219.859 232.699 219.874Z" fill="#263238"/>
<path d="M285.878 207.891L270.778 207.917C269.977 207.919 269.329 208.569 269.331 209.37L269.347 218.494C269.348 219.295 269.998 219.943 270.799 219.941L285.899 219.915C286.7 219.914 287.348 219.263 287.346 218.462L287.33 209.338C287.329 208.537 286.679 207.889 285.878 207.891Z" fill="#455A64"/>
<path d="M282.422 210.137C282.414 210.06 282.414 209.983 282.422 209.907C282.422 209.729 282.434 209.51 282.458 209.251C282.525 208.444 282.525 207.632 282.458 206.825C282.356 205.644 281.873 204.528 281.081 203.646C280.597 203.151 279.979 202.807 279.303 202.657C278.567 202.51 277.816 202.447 277.065 202.469C275.53 202.469 274.031 202.784 272.982 203.634C272.5 204.035 272.12 204.544 271.872 205.12C271.656 205.625 271.515 206.158 271.453 206.703C271.371 207.51 271.371 208.323 271.453 209.13C271.477 209.397 271.496 209.615 271.508 209.785C271.517 209.862 271.517 209.939 271.508 210.016C271.482 209.943 271.466 209.868 271.459 209.791C271.459 209.646 271.405 209.421 271.368 209.142C271.254 208.339 271.229 207.525 271.295 206.716C271.349 206.152 271.488 205.6 271.708 205.078C271.955 204.469 272.349 203.931 272.854 203.512C273.419 203.06 274.075 202.735 274.778 202.56C275.524 202.376 276.29 202.284 277.059 202.287C277.826 202.265 278.593 202.33 279.346 202.481C280.058 202.644 280.707 203.011 281.214 203.537C282.033 204.45 282.52 205.613 282.598 206.837C282.665 207.645 282.651 208.458 282.555 209.264C282.555 209.549 282.5 209.767 282.482 209.913C282.468 209.989 282.448 210.064 282.422 210.137Z" fill="#263238"/>
<path d="M283.603 207.834L268.503 207.86C267.702 207.862 267.054 208.512 267.056 209.313L267.071 218.437C267.073 219.238 267.723 219.886 268.524 219.884L283.624 219.858C284.425 219.857 285.073 219.206 285.071 218.406L285.055 209.281C285.054 208.481 284.404 207.833 283.603 207.834Z" fill="#455A64"/>
<path d="M283.611 219.874C283.805 219.856 283.995 219.809 284.175 219.735C284.388 219.641 284.573 219.495 284.715 219.31C284.912 219.061 285.019 218.754 285.018 218.436C285.018 216.968 285.018 214.863 284.976 212.267C284.976 211.617 284.976 210.932 284.976 210.222C284.976 209.87 284.976 209.494 284.976 209.148C284.935 208.79 284.754 208.463 284.472 208.238C284.179 208.007 283.806 207.9 283.435 207.941H282.221H279.704H268.505C268.274 207.942 268.047 208.002 267.846 208.116C267.646 208.23 267.477 208.393 267.358 208.59C267.237 208.783 267.17 209.005 267.164 209.233C267.164 209.476 267.164 209.713 267.164 209.955C267.164 210.926 267.164 211.878 267.164 212.813V218.218C267.152 218.423 267.174 218.628 267.231 218.825C267.29 219.012 267.389 219.183 267.522 219.328C267.652 219.473 267.812 219.588 267.992 219.664C268.171 219.74 268.364 219.777 268.559 219.771H275.184H281.348H283.028H283.465H283.611H283.465H283.028H281.348L275.184 219.82H270.937H268.559C268.339 219.826 268.12 219.785 267.916 219.699C267.713 219.613 267.531 219.485 267.382 219.322C267.229 219.156 267.113 218.96 267.042 218.746C266.983 218.531 266.958 218.307 266.97 218.085C266.97 216.362 266.97 214.554 266.97 212.679C266.97 211.745 266.97 210.792 266.97 209.822C266.97 209.579 266.97 209.342 266.97 209.088C266.979 208.826 267.056 208.571 267.194 208.348C267.332 208.12 267.526 207.932 267.758 207.802C267.99 207.671 268.251 207.602 268.517 207.601H279.722H283.441C283.855 207.564 284.268 207.688 284.593 207.947C284.749 208.073 284.877 208.228 284.972 208.404C285.067 208.58 285.126 208.773 285.145 208.972C285.145 209.355 285.145 209.706 285.145 210.064C285.145 210.774 285.145 211.46 285.145 212.109C285.145 214.705 285.145 216.811 285.145 218.279C285.14 218.613 285.022 218.935 284.812 219.195C284.658 219.382 284.46 219.528 284.235 219.619C284.057 219.765 283.84 219.854 283.611 219.874Z" fill="#263238"/>
<path d="M218.4 157.903L220.432 165.013L234.386 165.074L236.6 158.267C235.828 158.013 235.013 157.92 234.204 157.994L233.973 150.453C233.968 150.285 233.922 150.12 233.838 149.973C233.755 149.826 233.637 149.702 233.495 149.611C233.352 149.52 233.19 149.465 233.022 149.452C232.854 149.438 232.684 149.465 232.529 149.531L231.17 150.138L223.284 150.101L222.38 149.646C222.224 149.567 222.05 149.53 221.875 149.537C221.701 149.544 221.531 149.597 221.382 149.689C221.234 149.781 221.111 149.909 221.026 150.062C220.942 150.215 220.898 150.388 220.899 150.562V158.024C220.085 157.806 219.232 157.764 218.4 157.903Z" fill="#455A64"/>
<path d="M221.153 164.998L220.419 164.995L220.392 171.443L221.126 171.446L221.153 164.998Z" fill="#263238"/>
<path d="M223.743 165.003L223.009 165L222.995 168.294L223.729 168.297L223.743 165.003Z" fill="#263238"/>
<path d="M231.12 165.052L230.386 165.049L230.372 168.343L231.106 168.346L231.12 165.052Z" fill="#263238"/>
<path d="M234.378 165.071L233.644 165.068L233.617 171.517L234.351 171.52L234.378 165.071Z" fill="#263238"/>
<path d="M223.387 160.912C223.332 160.912 223.296 158.486 223.308 155.519C223.32 152.552 223.375 150.126 223.435 150.126C223.496 150.126 223.52 152.552 223.508 155.519C223.496 158.486 223.441 160.912 223.387 160.912Z" fill="#263238"/>
<path d="M231.261 160.943C231.207 160.943 231.17 158.516 231.183 155.549C231.195 152.583 231.249 150.156 231.31 150.156C231.371 150.156 231.401 152.583 231.383 155.549C231.364 158.516 231.316 160.943 231.261 160.943Z" fill="#263238"/>
<path d="M234.204 157.994C234.085 158.036 233.963 158.07 233.84 158.097L233.645 158.146L233.415 158.237L233.154 158.334L232.875 158.486C232.41 158.745 232.028 159.13 231.771 159.596C231.452 160.201 231.317 160.886 231.383 161.567V161.664H227.561H223.381H223.296V161.58C223.292 160.942 223.127 160.316 222.816 159.76C222.581 159.333 222.271 158.953 221.9 158.637C221.566 158.367 221.202 158.137 220.814 157.952C220.925 157.975 221.033 158.009 221.136 158.055C221.434 158.183 221.713 158.351 221.967 158.552C222.361 158.869 222.692 159.255 222.944 159.693C223.275 160.259 223.459 160.899 223.478 161.555L223.387 161.464H227.567H231.292L231.201 161.567C231.14 160.852 231.292 160.134 231.637 159.505C231.916 159.022 232.327 158.629 232.82 158.37L233.118 158.225L233.391 158.134L233.627 158.061L233.827 158.024C233.951 157.999 234.077 157.989 234.204 157.994Z" fill="#263238"/>
<path d="M223.253 161.586C223.253 161.622 222.993 161.671 222.604 161.846C222.1 162.07 221.661 162.417 221.328 162.857C220.995 163.296 220.778 163.812 220.699 164.358C220.687 164.59 220.663 164.821 220.627 165.05C220.548 164.822 220.525 164.578 220.56 164.34C220.603 163.757 220.813 163.198 221.166 162.732C221.523 162.269 222.002 161.916 222.55 161.713C222.77 161.614 223.012 161.57 223.253 161.586Z" fill="#263238"/>
<path d="M234.234 165.201C234.204 165.201 234.198 164.904 234.082 164.449C233.937 163.854 233.654 163.302 233.257 162.835C232.856 162.373 232.354 162.01 231.789 161.774C231.358 161.592 231.061 161.537 231.067 161.507C231.333 161.487 231.6 161.533 231.844 161.64C232.452 161.849 232.993 162.217 233.412 162.705C233.83 163.194 234.109 163.786 234.222 164.419C234.291 164.675 234.295 164.944 234.234 165.201Z" fill="#263238"/>
<path d="M267.928 156.041L269.967 163.133L283.92 163.193L286.146 156.405C285.375 156.15 284.56 156.055 283.75 156.126L283.526 148.591C283.521 148.421 283.474 148.256 283.391 148.108C283.307 147.961 283.188 147.836 283.045 147.745C282.902 147.654 282.739 147.6 282.57 147.586C282.401 147.573 282.231 147.601 282.076 147.669L280.717 148.275L272.86 148.245L271.956 147.79C271.8 147.71 271.626 147.671 271.45 147.677C271.275 147.684 271.104 147.736 270.955 147.828C270.805 147.92 270.682 148.05 270.597 148.204C270.512 148.357 270.468 148.53 270.47 148.706V156.162C269.641 155.94 268.774 155.898 267.928 156.041Z" fill="#FAFAFA"/>
<path d="M270.682 163.131L269.948 163.127L269.921 169.576L270.655 169.579L270.682 163.131Z" fill="#263238"/>
<path d="M273.273 163.141L272.539 163.138L272.525 166.432L273.259 166.435L273.273 163.141Z" fill="#263238"/>
<path d="M280.662 163.172L279.928 163.169L279.914 166.463L280.648 166.466L280.662 163.172Z" fill="#263238"/>
<path d="M283.901 163.21L283.167 163.207L283.14 169.656L283.874 169.659L283.901 163.21Z" fill="#263238"/>
<path d="M272.915 159.044C272.86 159.044 272.83 156.617 272.842 153.65C272.854 150.684 272.909 148.263 272.964 148.263C273.018 148.263 273.055 150.69 273.042 153.656C273.03 156.623 273 159.044 272.915 159.044Z" fill="#263238"/>
<path d="M280.796 159.08C280.735 159.08 280.705 156.653 280.717 153.687C280.729 150.72 280.784 148.293 280.838 148.293C280.893 148.293 280.929 150.72 280.917 153.687C280.905 156.653 280.85 159.08 280.796 159.08Z" fill="#263238"/>
<path d="M283.732 156.126C283.617 156.176 283.497 156.213 283.374 156.235L283.174 156.283L282.949 156.368L282.682 156.465L282.403 156.617C281.94 156.881 281.558 157.267 281.299 157.733C280.981 158.337 280.846 159.02 280.911 159.699V159.802H277.083H272.903H272.818V159.717C272.813 159.079 272.646 158.453 272.333 157.897C272.098 157.469 271.787 157.087 271.417 156.769C271.085 156.498 270.72 156.269 270.331 156.089C270.445 156.103 270.556 156.138 270.658 156.192C270.955 156.32 271.232 156.488 271.483 156.69C271.875 157.005 272.206 157.39 272.46 157.824C272.793 158.39 272.976 159.031 272.994 159.687L272.903 159.602H277.083H280.808L280.717 159.705C280.654 158.987 280.808 158.266 281.16 157.636C281.435 157.153 281.847 156.761 282.343 156.508L282.634 156.362L282.907 156.271L283.143 156.199L283.35 156.162C283.476 156.141 283.604 156.129 283.732 156.126Z" fill="#263238"/>
<path d="M272.763 159.723C272.763 159.754 272.503 159.802 272.12 159.978C271.616 160.201 271.176 160.548 270.843 160.988C270.51 161.427 270.294 161.944 270.215 162.49C270.149 162.908 270.173 163.181 270.143 163.181C270.055 162.958 270.03 162.714 270.07 162.478C270.115 161.893 270.326 161.333 270.677 160.864C271.029 160.398 271.51 160.046 272.06 159.851C272.279 159.746 272.522 159.702 272.763 159.723Z" fill="#263238"/>
<path d="M283.762 163.339C283.732 163.339 283.726 163.042 283.611 162.581C283.468 161.986 283.187 161.434 282.789 160.97C282.392 160.506 281.889 160.143 281.323 159.911C280.887 159.723 280.595 159.675 280.602 159.644C280.865 159.625 281.13 159.671 281.372 159.778C281.981 159.985 282.524 160.352 282.943 160.839C283.358 161.329 283.637 161.919 283.75 162.55C283.819 162.808 283.823 163.079 283.762 163.339Z" fill="#263238"/>
<path d="M206.267 63.4149C206.261 63.0848 206.324 62.7571 206.451 62.4524C206.578 62.1477 206.767 61.8727 207.006 61.6447C207.245 61.4168 207.528 61.2407 207.839 61.1277C208.149 61.0147 208.479 60.9672 208.809 60.9882C209.184 60.9701 209.559 61.0396 209.904 61.1912C210.248 61.3428 210.552 61.5724 210.792 61.8618L209.961 62.6141C209.834 62.4462 209.67 62.31 209.482 62.2163C209.293 62.1226 209.086 62.0739 208.875 62.0742C208.541 62.0969 208.228 62.2457 207.999 62.4907C207.77 62.7357 207.642 63.0584 207.642 63.3937C207.642 63.7289 207.77 64.0517 207.999 64.2966C208.228 64.5416 208.541 64.6905 208.875 64.7132C209.086 64.712 209.293 64.6628 209.481 64.5692C209.669 64.4756 209.834 64.3402 209.961 64.1732L210.792 64.9255C210.552 65.2138 210.247 65.4423 209.903 65.5928C209.558 65.7433 209.184 65.8119 208.809 65.793C208.483 65.8137 208.157 65.7676 207.85 65.6576C207.543 65.5475 207.262 65.3758 207.024 65.1531C206.786 64.9303 206.596 64.6612 206.466 64.3623C206.335 64.0634 206.268 63.741 206.267 63.4149Z" fill="#263238"/>
<path d="M214.408 64.8282H212.455L212.091 65.7261H210.756L212.801 61.1033H214.087L216.131 65.7261H214.76L214.408 64.8282ZM214.026 63.8636L213.419 62.3894L212.813 63.8636H214.026Z" fill="#263238"/>
<path d="M217.253 62.1407H215.834V61.1033H219.971V62.1407H218.558V65.7261H217.253V62.1407Z" fill="#263238"/>
<path d="M223.326 64.8282H221.373L221.009 65.7261H219.674L221.712 61.1033H222.999L225.049 65.7261H223.69L223.326 64.8282ZM222.944 63.8636L222.337 62.3894L221.731 63.8636H222.944Z" fill="#263238"/>
<path d="M225.419 61.1033H226.724V64.6887H228.926V65.7261H225.419V61.1033Z" fill="#263238"/>
<path d="M229.132 63.4149C229.103 62.9007 229.229 62.3896 229.493 61.9477C229.758 61.5058 230.149 61.1536 230.616 60.9366C231.083 60.7195 231.605 60.6477 232.113 60.7304C232.622 60.8131 233.093 61.0465 233.468 61.4003C233.842 61.7542 234.101 62.2122 234.212 62.7152C234.323 63.2181 234.28 63.7428 234.09 64.2213C233.899 64.6997 233.569 65.11 233.143 65.3988C232.717 65.6877 232.213 65.8419 231.698 65.8416C231.368 65.8606 231.037 65.8119 230.727 65.6985C230.416 65.5851 230.132 65.4093 229.891 65.1821C229.651 64.9548 229.46 64.6808 229.329 64.3769C229.199 64.073 229.132 63.7456 229.132 63.4149ZM232.948 63.4149C232.934 63.1713 232.849 62.9372 232.703 62.7415C232.557 62.5458 232.357 62.397 232.128 62.3135C231.899 62.2299 231.65 62.2154 231.413 62.2715C231.175 62.3276 230.96 62.452 230.792 62.6293C230.624 62.8067 230.512 63.0292 230.47 63.2694C230.427 63.5096 230.456 63.7571 230.552 63.9813C230.649 64.2054 230.808 64.3964 231.012 64.5308C231.216 64.6652 231.454 64.737 231.698 64.7374C231.871 64.7451 232.044 64.7156 232.205 64.651C232.365 64.5864 232.51 64.4881 232.63 64.3629C232.749 64.2376 232.841 64.0882 232.898 63.9247C232.955 63.7611 232.976 63.5873 232.96 63.4149H232.948Z" fill="#263238"/>
<path d="M238.05 63.3177H239.203V65.2287C238.633 65.6241 237.955 65.8358 237.261 65.8354C236.917 65.8822 236.566 65.8545 236.234 65.7541C235.901 65.6537 235.594 65.483 235.333 65.2536C235.071 65.0241 234.863 64.7413 234.72 64.4242C234.578 64.107 234.506 63.7631 234.508 63.4155C234.51 63.0679 234.587 62.7249 234.733 62.4096C234.879 62.0943 235.092 61.8141 235.356 61.588C235.62 61.3618 235.929 61.195 236.263 61.0989C236.597 61.0027 236.948 60.9794 237.292 61.0306C237.67 61.0113 238.048 61.0771 238.397 61.223C238.747 61.3689 239.06 61.5913 239.312 61.8738L238.481 62.6261C238.342 62.4646 238.17 62.3353 237.976 62.2473C237.782 62.1592 237.571 62.1146 237.358 62.1165C237.024 62.1392 236.711 62.2881 236.482 62.533C236.253 62.778 236.125 63.1007 236.125 63.436C236.125 63.7713 236.253 64.094 236.482 64.339C236.711 64.5839 237.024 64.7328 237.358 64.7555C237.603 64.7567 237.845 64.7049 238.068 64.6038L238.05 63.3177Z" fill="#263238"/>
<path d="M239.997 63.7V61.1338H241.302V63.6575C241.302 64.4523 241.629 64.7677 242.181 64.7677C242.733 64.7677 243.049 64.4523 243.049 63.6575V61.1338H244.341V63.7C244.341 64.276 244.112 64.8284 243.705 65.2357C243.298 65.643 242.745 65.8719 242.169 65.8719C241.593 65.8719 241.041 65.643 240.633 65.2357C240.226 64.8284 239.997 64.276 239.997 63.7Z" fill="#263238"/>
<path d="M248.934 64.719V65.7261H245.221V61.1033H248.861V62.1164H246.525V62.8929H248.582V63.8697H246.525V64.719H248.934Z" fill="#263238"/>
<path d="M252.495 69.3601C252.495 69.4451 241.362 69.5178 227.621 69.5178C213.88 69.5178 202.748 69.4451 202.748 69.3601C202.748 69.2752 213.88 69.2024 227.621 69.2024C241.362 69.2024 252.495 69.2691 252.495 69.3601Z" fill="#E0E0E0"/>
<path d="M235.793 71.3743C235.793 71.4592 232.153 71.532 227.627 71.532C223.102 71.532 219.462 71.4592 219.462 71.3743C219.462 71.2894 223.102 71.2166 227.627 71.2166C232.153 71.2166 235.793 71.2833 235.793 71.3743Z" fill="#E0E0E0"/>
<path d="M82.4338 263.9L83.1618 286.711L111.59 286.231C111.378 283.519 95.3983 278.43 95.3983 278.43L95.283 263.093L82.4338 263.9Z" fill="#4285F4"/>
<g opacity="0.3">
<path opacity="0.3" d="M82.4338 263.9L83.1618 286.711L111.59 286.231C111.378 283.519 95.3983 278.43 95.3983 278.43L95.283 263.093L82.4338 263.9Z" fill="black"/>
</g>
<path d="M87.7604 277.247C87.4888 277.334 87.259 277.518 87.1156 277.765C86.9722 278.011 86.9252 278.302 86.9838 278.581C87.0621 278.857 87.2427 279.092 87.4885 279.238C87.7344 279.385 88.0269 279.432 88.3064 279.37C88.5958 279.277 88.8399 279.079 88.9904 278.815C89.141 278.551 89.1869 278.241 89.1193 277.944C89.0093 277.666 88.7951 277.441 88.5222 277.318C88.2493 277.194 87.9391 277.182 87.6572 277.283" fill="#263238"/>
<path d="M83.1619 286.693L83.0891 284.387L110.444 284.788C110.444 284.788 111.718 285.321 111.59 286.213L83.1619 286.693Z" fill="#263238"/>
<path d="M95.8534 278.66C95.8534 278.8 95.1557 278.879 94.4823 279.334C93.8089 279.789 93.4571 280.383 93.3236 280.329C93.1901 280.274 93.3903 279.473 94.2154 278.933C95.0405 278.393 95.8534 278.533 95.8534 278.66Z" fill="#263238"/>
<path d="M99.5784 279.892C99.6087 280.025 99.0142 280.274 98.5531 280.868C98.0921 281.463 97.9465 282.082 97.8251 282.082C97.7038 282.082 97.5886 281.293 98.177 280.565C98.7655 279.837 99.5723 279.758 99.5784 279.892Z" fill="#263238"/>
<path d="M101.271 283.313C101.144 283.35 100.937 282.658 101.271 281.888C101.605 281.117 102.254 280.808 102.314 280.923C102.375 281.038 101.981 281.451 101.708 282.088C101.435 282.725 101.404 283.313 101.271 283.313Z" fill="#263238"/>
<path d="M95.5439 274.856C95.4833 274.984 94.8463 274.808 94.0637 274.856C93.2811 274.905 92.6683 275.184 92.5955 275.069C92.5227 274.954 93.0991 274.462 94.0273 274.377C94.9555 274.292 95.6046 274.747 95.5439 274.856Z" fill="#263238"/>
<path d="M95.9868 271.435C95.5205 271.565 95.0275 271.565 94.5611 271.435C94.0459 271.353 93.5426 271.208 93.0627 271.004C92.7793 270.881 92.5038 270.742 92.2376 270.585C92.0783 270.496 91.9315 270.386 91.8008 270.258C91.7082 270.16 91.6509 270.034 91.6377 269.9C91.6245 269.766 91.6563 269.632 91.728 269.518C91.7957 269.419 91.8861 269.337 91.9916 269.28C92.0971 269.223 92.2147 269.192 92.3347 269.19C92.515 269.184 92.6951 269.207 92.8685 269.257C93.1744 269.323 93.4731 269.418 93.7603 269.542C94.2448 269.751 94.6932 270.036 95.0889 270.385C95.7623 270.992 95.9929 271.495 95.9443 271.526C95.8958 271.556 95.5561 271.144 94.8766 270.652C94.2521 270.19 93.5333 269.871 92.7715 269.718C92.4681 269.645 92.2133 269.645 92.1648 269.779C92.1163 269.912 92.1345 269.851 92.1648 269.942C92.2607 270.035 92.3689 270.115 92.4863 270.179C92.732 270.331 92.985 270.471 93.2447 270.598C93.6916 270.807 94.1566 270.975 94.6339 271.101C95.0919 271.182 95.5439 271.293 95.9868 271.435Z" fill="#263238"/>
<path d="M110.68 73.4067C110.569 70.7491 109.461 68.2307 107.577 66.3532C105.693 64.4757 103.171 63.3768 100.512 63.2754H99.9604C94.0454 63.3967 90.8604 68.4927 91.1213 74.4017L90.7087 99.7057C95.6591 102.939 100.415 105.348 104.322 103.819L104.929 93.2933C104.929 93.2933 110.644 92.6259 110.929 86.9536C111.075 84.1629 110.899 78.4967 110.68 73.4067Z" fill="#FFBE9D"/>
<path d="M104.953 93.2387C102.332 93.1863 99.7857 92.3565 97.637 90.8545C97.637 90.8545 99.1779 95.0466 104.862 94.7554L104.953 93.2387Z" fill="#EB996E"/>
<path d="M109.012 77.6047C109.006 77.8161 108.917 78.0167 108.766 78.164C108.614 78.3112 108.411 78.3935 108.199 78.3934C108.097 78.3991 107.994 78.3845 107.897 78.3503C107.8 78.3161 107.711 78.263 107.635 78.1942C107.559 78.1254 107.497 78.0421 107.454 77.9493C107.41 77.8564 107.385 77.7558 107.38 77.6533C107.385 77.4414 107.473 77.2399 107.625 77.0923C107.777 76.9448 107.981 76.863 108.193 76.8646C108.296 76.858 108.399 76.8721 108.496 76.906C108.593 76.9399 108.682 76.9929 108.759 77.0619C108.835 77.1309 108.897 77.2144 108.94 77.3077C108.984 77.4009 109.008 77.5019 109.012 77.6047Z" fill="#263238"/>
<path d="M109.358 76.1002C109.248 76.2033 108.654 75.724 107.78 75.6937C106.907 75.6634 106.252 76.0759 106.161 75.9667C106.07 75.8575 106.227 75.7301 106.512 75.536C106.9 75.2874 107.357 75.1665 107.817 75.1902C108.269 75.2075 108.704 75.3666 109.06 75.6452C109.321 75.8636 109.406 76.0577 109.358 76.1002Z" fill="#263238"/>
<path d="M100.871 77.5987C100.863 77.8096 100.774 78.0093 100.622 78.1562C100.471 78.3032 100.269 78.386 100.058 78.3874C99.9564 78.3923 99.8552 78.3772 99.7599 78.3429C99.6645 78.3087 99.5768 78.2559 99.5019 78.1877C99.4269 78.1196 99.3662 78.0373 99.3231 77.9455C99.28 77.8538 99.2554 77.7545 99.2507 77.6533C99.257 77.443 99.3446 77.2433 99.4951 77.0962C99.6455 76.9491 99.8472 76.8661 100.058 76.8647C100.262 76.8563 100.462 76.9285 100.614 77.0658C100.766 77.203 100.858 77.3943 100.871 77.5987Z" fill="#263238"/>
<path d="M100.773 75.9364C100.67 76.0395 100.076 75.5603 99.2022 75.5299C98.3286 75.4996 97.6734 75.9121 97.5824 75.8029C97.4914 75.6937 97.6491 75.5663 97.9343 75.3722C98.3204 75.1245 98.7743 75.0036 99.2325 75.0264C99.6872 75.0399 100.125 75.1994 100.482 75.4814C100.743 75.6937 100.828 75.8939 100.773 75.9364Z" fill="#263238"/>
<path d="M103.692 82.5067C104.159 82.3822 104.64 82.315 105.123 82.3065C105.342 82.3065 105.554 82.2579 105.603 82.1063C105.624 81.8762 105.58 81.6447 105.475 81.4389C105.287 80.8929 105.093 80.3166 104.868 79.716C104.049 77.2893 103.461 75.257 103.558 75.2267C103.655 75.1963 104.407 77.1498 105.226 79.6007L105.797 81.3297C105.924 81.6048 105.952 81.9159 105.876 82.2094C105.84 82.2867 105.788 82.3551 105.723 82.4097C105.658 82.4642 105.582 82.5036 105.499 82.5249C105.374 82.5504 105.246 82.5626 105.117 82.5613C104.642 82.6014 104.163 82.5831 103.692 82.5067Z" fill="#263238"/>
<path d="M96.7938 73.9345C96.8848 73.6979 97.7523 73.8131 98.7776 73.6918C99.8028 73.5705 100.634 73.2975 100.767 73.5098C100.828 73.6129 100.682 73.8313 100.349 74.0619C99.9057 74.349 99.4001 74.5258 98.8746 74.5775C98.3493 74.6361 97.8177 74.5717 97.3216 74.3895C96.9454 74.2378 96.7574 74.0497 96.7938 73.9345Z" fill="#263238"/>
<path d="M109.2 73.0731C109.006 73.2611 108.272 73.0306 107.38 72.9881C106.488 72.9457 105.73 73.0549 105.56 72.8425C105.487 72.7394 105.615 72.5453 105.954 72.3693C106.418 72.1531 106.931 72.0611 107.441 72.1024C107.952 72.1214 108.449 72.2786 108.879 72.5574C109.2 72.8001 109.291 72.9821 109.2 73.0731Z" fill="#263238"/>
<path d="M91.4248 78.5693C91.3338 78.5208 87.5725 77.265 87.5482 81.1537C87.5239 85.0425 91.4248 84.2599 91.4369 84.1446C91.4491 84.0293 91.4248 78.5693 91.4248 78.5693Z" fill="#FFBE9D"/>
<path d="M90.2599 82.6704C90.2599 82.6704 90.1871 82.7129 90.0718 82.7675C89.9103 82.8326 89.7298 82.8326 89.5683 82.7675C89.3191 82.6068 89.117 82.3829 88.9827 82.1186C88.8484 81.8542 88.7867 81.559 88.8039 81.263C88.796 80.929 88.8623 80.5975 88.998 80.2923C89.0352 80.1707 89.1016 80.0601 89.1915 79.9702C89.2814 79.8802 89.3921 79.8138 89.5137 79.7766C89.591 79.7553 89.6735 79.7626 89.7459 79.7971C89.8183 79.8317 89.8759 79.8912 89.908 79.9647C89.9626 80.0739 89.9383 80.1528 89.9565 80.1588C89.9747 80.1649 90.0415 80.0921 90.0111 79.9344C89.9888 79.8372 89.9356 79.75 89.8595 79.6856C89.7513 79.6061 89.6165 79.5713 89.4833 79.5886C89.3229 79.6202 89.1733 79.6927 89.049 79.7989C88.9247 79.9052 88.8298 80.0417 88.7735 80.1952C88.6061 80.5323 88.5229 80.9049 88.5309 81.2812C88.5106 81.6262 88.5924 81.9697 88.7661 82.2685C88.9398 82.5674 89.1977 82.8085 89.5076 82.9616C89.6096 82.9911 89.7169 82.9976 89.8218 82.9809C89.9266 82.9641 90.0265 82.9244 90.1143 82.8646C90.2477 82.7614 90.272 82.6765 90.2599 82.6704Z" fill="#EB996E"/>
<path d="M97.734 79.5341C97.7076 79.5358 97.6815 79.5273 97.6612 79.5104C97.6409 79.4934 97.6278 79.4693 97.6248 79.4431C97.6222 79.4303 97.6221 79.4171 97.6247 79.4043C97.6273 79.3916 97.6324 79.3794 97.6398 79.3687C97.6471 79.3579 97.6566 79.3488 97.6676 79.3417C97.6785 79.3347 97.6908 79.33 97.7037 79.3278C97.7165 79.3251 97.7298 79.3253 97.7426 79.3283C97.7554 79.3313 97.7675 79.337 97.7778 79.3451C97.7882 79.3532 97.7967 79.3634 97.8028 79.3751C97.8088 79.3867 97.8123 79.3996 97.8129 79.4127C97.8164 79.4259 97.8172 79.4397 97.8151 79.4532C97.813 79.4667 97.808 79.4796 97.8006 79.491C97.7931 79.5025 97.7833 79.5122 97.7719 79.5196C97.7604 79.5271 97.7475 79.532 97.734 79.5341Z" fill="#EB996E"/>
<path d="M99.4144 79.2185C99.3659 79.2185 99.3113 79.1821 99.3052 79.1153C99.2992 79.0486 99.3052 78.9879 99.378 78.9819C99.3924 78.981 99.4068 78.9831 99.4203 78.9878C99.4339 78.9926 99.4464 78.9999 99.4571 79.0095C99.4678 79.0191 99.4765 79.0307 99.4827 79.0436C99.4889 79.0566 99.4925 79.0707 99.4933 79.085C99.497 79.0989 99.4978 79.1135 99.4958 79.1277C99.4938 79.142 99.489 79.1557 99.4817 79.1682C99.4743 79.1806 99.4646 79.1914 99.4531 79.2C99.4416 79.2087 99.4284 79.2149 99.4144 79.2185Z" fill="#EB996E"/>
<path d="M100.543 79.2367C100.488 79.2367 100.44 79.1761 100.428 79.0851C100.415 78.9941 100.458 78.9273 100.513 78.9213C100.567 78.9152 100.616 78.982 100.622 79.0669C100.628 79.1518 100.591 79.2307 100.543 79.2367Z" fill="#EB996E"/>
<path d="M98.5165 80.6137C98.4619 80.6137 98.4194 80.5773 98.4194 80.547C98.4194 80.5167 98.468 80.4863 98.5226 80.4863C98.5772 80.4863 98.6136 80.5167 98.6136 80.5531C98.6136 80.5895 98.5711 80.6137 98.5165 80.6137Z" fill="#EB996E"/>
<path d="M100.058 80.3165C100.031 80.3151 100.005 80.3038 99.9862 80.2847C99.9672 80.2657 99.9559 80.2403 99.9544 80.2134C99.9527 80.1999 99.9537 80.1861 99.9574 80.1729C99.9611 80.1598 99.9673 80.1475 99.9758 80.1367C99.9843 80.126 99.9948 80.1171 100.007 80.1105C100.019 80.1038 100.032 80.0996 100.045 80.0981C100.073 80.0981 100.099 80.109 100.118 80.1283C100.138 80.1477 100.149 80.1739 100.149 80.2013C100.15 80.2284 100.142 80.2552 100.125 80.2765C100.108 80.2978 100.084 80.3121 100.058 80.3165Z" fill="#EB996E"/>
<path d="M108.047 79.6674C108.034 79.6691 108.02 79.6681 108.007 79.6644C107.994 79.6607 107.981 79.6545 107.971 79.646C107.96 79.6375 107.951 79.627 107.944 79.6151C107.938 79.6031 107.934 79.59 107.932 79.5764C107.927 79.5499 107.932 79.5223 107.947 79.4996C107.961 79.4769 107.984 79.4609 108.011 79.4551C108.037 79.455 108.062 79.464 108.082 79.4806C108.101 79.4972 108.115 79.5203 108.119 79.5458C108.123 79.5713 108.119 79.5975 108.105 79.6198C108.092 79.642 108.072 79.6589 108.047 79.6674Z" fill="#EB996E"/>
<path d="M109.2 79.6069C109.185 79.607 109.171 79.604 109.157 79.5981C109.144 79.5922 109.132 79.5835 109.122 79.5726C109.113 79.5617 109.105 79.5488 109.101 79.5349C109.096 79.5209 109.095 79.5062 109.097 79.4917C109.093 79.4637 109.099 79.4353 109.115 79.4118C109.131 79.3883 109.154 79.3714 109.182 79.3643C109.196 79.365 109.21 79.3686 109.223 79.3748C109.236 79.3811 109.248 79.3898 109.257 79.4005C109.267 79.4112 109.274 79.4237 109.279 79.4373C109.284 79.4508 109.286 79.4652 109.285 79.4795C109.279 79.5463 109.242 79.6069 109.2 79.6069Z" fill="#EB996E"/>
<path d="M107.04 79.6613C107.017 79.6649 106.993 79.6593 106.974 79.6457C106.955 79.6321 106.942 79.6116 106.937 79.5885C106.935 79.5769 106.936 79.565 106.939 79.5537C106.942 79.5424 106.948 79.5318 106.955 79.5227C106.963 79.5135 106.972 79.5061 106.982 79.5007C106.993 79.4953 107.004 79.4922 107.016 79.4914C107.039 79.4859 107.064 79.4899 107.084 79.5024C107.105 79.5149 107.119 79.5349 107.125 79.5582C107.127 79.583 107.119 79.6075 107.103 79.6267C107.088 79.6459 107.065 79.6583 107.04 79.6613Z" fill="#EB996E"/>
<path d="M107.841 80.8263C107.815 80.8339 107.788 80.8312 107.764 80.8188C107.74 80.8063 107.722 80.7851 107.714 80.7595C107.707 80.7474 107.702 80.7339 107.701 80.7199C107.7 80.7059 107.701 80.6918 107.706 80.6786C107.71 80.6653 107.718 80.6532 107.728 80.6431C107.737 80.633 107.749 80.6251 107.762 80.62C107.788 80.6123 107.816 80.615 107.84 80.6275C107.863 80.64 107.881 80.6612 107.89 80.6867C107.896 80.6991 107.899 80.7125 107.9 80.7262C107.901 80.74 107.899 80.7537 107.895 80.7667C107.89 80.7797 107.883 80.7917 107.874 80.8019C107.865 80.8122 107.854 80.8204 107.841 80.8263Z" fill="#EB996E"/>
<path d="M108.818 80.6867C108.808 80.6835 108.799 80.6784 108.791 80.6716C108.783 80.6649 108.776 80.6566 108.771 80.6473C108.767 80.638 108.764 80.6279 108.763 80.6175C108.762 80.6071 108.763 80.5966 108.766 80.5866C108.769 80.5767 108.775 80.5674 108.781 80.5594C108.788 80.5515 108.796 80.5449 108.806 80.5401C108.815 80.5353 108.825 80.5324 108.835 80.5315C108.846 80.5307 108.856 80.5319 108.866 80.535C108.878 80.5363 108.889 80.5401 108.899 80.5463C108.909 80.5524 108.918 80.5607 108.924 80.5706C108.931 80.5805 108.935 80.5917 108.936 80.6034C108.938 80.6151 108.937 80.627 108.933 80.6382C108.929 80.6492 108.923 80.6594 108.915 80.6679C108.907 80.6764 108.897 80.6832 108.886 80.6877C108.875 80.6923 108.864 80.6946 108.852 80.6944C108.84 80.6942 108.828 80.6916 108.818 80.6867Z" fill="#EB996E"/>
<path d="M104.984 85.54C104.941 85.6189 104.237 85.261 103.297 85.0972C102.357 84.9334 101.574 85.0122 101.562 84.9212C102.137 84.724 102.753 84.6762 103.351 84.7824C103.95 84.8885 104.511 85.145 104.984 85.5279V85.54Z" fill="#263238"/>
<path d="M114.235 65.7202C113.997 65.6491 113.772 65.5406 113.568 65.3986C113.441 65.2413 113.348 65.0592 113.294 64.8639C113.241 64.6686 113.229 64.4644 113.259 64.2642C113.284 64.0636 113.26 63.8597 113.187 63.6711C113.113 63.4825 112.994 63.3152 112.84 63.1843C112.361 62.9174 111.736 63.3724 111.226 63.1843C110.717 62.9962 110.662 62.2804 110.395 61.795C110.21 61.4901 109.921 61.2614 109.582 61.1502C109.243 61.039 108.875 61.0525 108.545 61.1884C108.096 61.3886 107.611 61.8254 107.186 61.5706C106.761 61.3158 106.87 60.794 106.707 60.3936C106.646 60.2625 106.559 60.1452 106.452 60.049C106.344 59.9528 106.218 59.8797 106.081 59.8342C105.944 59.7887 105.799 59.7718 105.655 59.7845C105.511 59.7973 105.371 59.8394 105.245 59.9083C104.868 60.1328 104.517 60.6242 104.116 60.4422C103.716 60.2602 103.795 59.7081 103.479 59.4715C103.342 59.3926 103.182 59.3629 103.025 59.3871C102.868 59.4114 102.725 59.4882 102.618 59.605C102.404 59.84 102.215 60.0962 102.054 60.3694C101.971 60.5042 101.856 60.6167 101.719 60.6971C101.583 60.7775 101.429 60.8232 101.271 60.8304C100.925 60.8304 100.664 60.4907 100.416 60.2662C99.5116 59.5018 98.092 59.6596 97.1152 60.339C96.5055 60.7889 95.9919 61.3561 95.6046 62.0074C94.5583 61.7755 93.4713 61.8026 92.4378 62.0862C90.1204 62.7657 88.2761 65.0407 88.4156 67.4492C88.4884 68.5776 88.9495 69.6392 89.1376 70.7555C89.2661 72.0924 89.2884 73.4373 89.2043 74.7777C89.2043 76.1185 89.2892 77.35 90.1689 78.3631L91.3276 78.6604C91.4074 78.7992 91.4987 78.9312 91.6006 79.0547C91.7656 79.2931 92.0105 79.4645 92.2909 79.5379C92.5713 79.6114 92.8688 79.582 93.1294 79.4551C93.3857 79.2249 93.5567 78.915 93.6148 78.5755C94.3246 76.1488 95.0344 73.528 94.7068 71.0528C94.6043 70.3888 94.7053 69.7094 94.9967 69.104C95.288 68.4986 95.7559 67.9957 96.3387 67.6615C96.7048 67.4448 97.0959 67.2737 97.5035 67.1519C97.9044 67.0761 98.3159 67.0761 98.7168 67.1519C99.5736 67.3173 100.331 67.8116 100.828 68.529C101.174 69.0265 101.435 69.6756 102.041 69.8273C102.648 69.979 103.285 69.4876 103.934 69.4876C104.583 69.4876 105.148 70.0275 105.645 70.5007C106.142 70.9739 106.798 71.435 107.465 71.2348C108.132 71.0346 108.387 70.4097 108.963 70.2156C109.392 70.1151 109.842 70.1733 110.231 70.3794C110.616 70.5858 111.023 70.7466 111.445 70.8586C111.656 70.9142 111.879 70.9064 112.086 70.8363C112.293 70.7662 112.475 70.6369 112.61 70.4643C112.87 70.0457 112.707 69.439 113.016 69.0508C113.325 68.6625 113.793 68.6928 114.229 68.523C114.499 68.4075 114.73 68.2161 114.893 67.9722C115.056 67.7282 115.145 67.4421 115.149 67.1486C115.153 66.8551 115.071 66.5667 114.915 66.3186C114.758 66.0704 114.532 65.8731 114.266 65.7505L114.235 65.7202Z" fill="#263238"/>
<path d="M89.1255 72.9517C89.1255 72.9031 89.5198 72.9517 90.1326 72.8667C90.9277 72.784 91.6953 72.5296 92.3824 72.1211C93.0696 71.7126 93.6598 71.1597 94.1123 70.5007C94.2826 70.2095 94.4689 69.928 94.6704 69.6575C94.6311 70.0053 94.5038 70.3373 94.3004 70.6221C93.8734 71.3518 93.2681 71.9612 92.5412 72.3931C91.8144 72.8249 90.9898 73.0652 90.1447 73.0912C89.7986 73.131 89.4481 73.083 89.1255 72.9517Z" fill="#455A64"/>
<path d="M88.9009 74.4075C89.9308 74.4344 90.9575 74.2804 91.9342 73.9525C92.8684 73.5325 93.724 72.956 94.464 72.2478C94.4944 72.2478 94.3245 72.5875 93.9241 73.0061C93.3911 73.5373 92.7524 73.9507 92.0495 74.2195C91.3334 74.5162 90.5611 74.6528 89.7866 74.6199C89.4788 74.6199 89.1753 74.5471 88.9009 74.4075Z" fill="#455A64"/>
<path d="M84.7391 151.74L77.6836 173.974L82.179 274.656L95.9321 272.988L97.7339 225.098L105.153 171.529L105.9 152.571L84.7391 151.74Z" fill="#263238"/>
<path d="M89.2648 250.517L75.7908 268.947L98.4862 286.068C99.9907 283.799 90.5328 269.948 90.5328 269.948L99.8815 257.815L89.2648 250.517Z" fill="#4285F4"/>
<path d="M85.2549 264.306C84.9864 264.208 84.691 264.213 84.4256 264.319C84.1601 264.425 83.9434 264.626 83.8171 264.883C83.7087 265.147 83.7055 265.442 83.8081 265.709C83.9108 265.975 84.1116 266.192 84.3692 266.315C84.6529 266.422 84.9666 266.42 85.2485 266.307C85.5304 266.195 85.7599 265.981 85.8919 265.708C85.9748 265.42 85.9435 265.111 85.8046 264.845C85.6656 264.58 85.4296 264.378 85.1457 264.282" fill="#263238"/>
<path d="M75.7908 268.947L77.1558 267.085L98.4619 284.241C98.4619 284.241 99.1353 285.455 98.4619 286.061L75.7908 268.947Z" fill="#263238"/>
<path d="M90.7149 270.416C90.63 270.525 90.0355 270.155 89.2226 270.1C88.4096 270.045 87.7665 270.294 87.6998 270.173C87.6331 270.052 88.2761 269.566 89.265 269.615C90.2539 269.663 90.8181 270.331 90.7149 270.416Z" fill="#263238"/>
<path d="M92.9109 273.692C92.8563 273.813 92.2375 273.643 91.5034 273.825C90.7694 274.007 90.2901 274.432 90.187 274.341C90.0838 274.25 90.4842 273.57 91.4003 273.358C92.3164 273.145 92.9898 273.607 92.9109 273.692Z" fill="#263238"/>
<path d="M92.1528 277.416C92.0314 277.362 92.2923 276.695 93.0385 276.3C93.7847 275.906 94.4824 276.057 94.4581 276.185C94.4338 276.312 93.8514 276.397 93.2448 276.725C92.6381 277.052 92.268 277.489 92.1528 277.416Z" fill="#263238"/>
<path d="M92.82 267.237C92.6986 267.303 92.3043 266.769 91.6491 266.339C90.9939 265.908 90.3933 265.72 90.3933 265.599C90.3933 265.477 91.1759 265.417 91.9464 265.938C92.7168 266.46 92.9534 267.194 92.82 267.237Z" fill="#263238"/>
<path d="M95.2892 264.816C95.2892 264.865 94.7675 264.604 94.1608 263.955C93.8039 263.572 93.4961 263.146 93.2448 262.687C93.0929 262.416 92.9611 262.134 92.8504 261.843C92.7807 261.677 92.7338 261.501 92.7109 261.322C92.7028 261.192 92.7367 261.062 92.8077 260.953C92.8787 260.844 92.9831 260.76 93.1052 260.715C93.2197 260.68 93.3406 260.672 93.4586 260.692C93.5765 260.713 93.6882 260.76 93.7847 260.83C93.9278 260.937 94.0546 261.063 94.1608 261.206C94.3586 261.45 94.5352 261.71 94.6886 261.983C94.9411 262.446 95.1192 262.945 95.2164 263.463C95.3592 263.928 95.3592 264.424 95.2164 264.889C95.1376 264.889 95.1436 264.349 94.907 263.542C94.7657 263.072 94.5617 262.623 94.3004 262.207C94.1523 261.963 93.986 261.73 93.8029 261.51C93.6088 261.267 93.4025 261.109 93.263 261.17C93.1234 261.231 93.1962 261.213 93.1902 261.322C93.2094 261.453 93.2462 261.582 93.2994 261.704C93.3945 261.976 93.508 262.242 93.6391 262.499C93.8594 262.941 94.1215 263.362 94.4217 263.755C94.9313 264.404 95.3378 264.762 95.2892 264.816Z" fill="#263238"/>
<path d="M105.9 152.571L113.884 152.886C113.884 152.886 131.647 216.41 129.857 221.979C128.067 227.548 95.1922 264.507 95.1922 264.507L85.3521 254.193C85.3521 254.193 95.8838 236.278 100.61 231.188C103.995 227.548 112.743 220.554 112.743 220.554L101.502 197.889L105.9 152.571Z" fill="#263238"/>
<path d="M106.676 177.268C106.587 177.609 106.473 177.944 106.337 178.269C106.1 178.876 105.76 179.828 105.36 180.969C104.559 183.262 103.54 186.459 102.678 190.069C101.817 193.678 101.265 196.979 100.943 199.387C100.779 200.6 100.658 201.565 100.585 202.238C100.559 202.589 100.509 202.938 100.434 203.282C100.403 202.931 100.403 202.578 100.434 202.226C100.47 201.547 100.555 200.57 100.688 199.357C101.05 196.206 101.601 193.08 102.339 189.996C103.083 186.91 104.011 183.871 105.117 180.896C105.548 179.755 105.918 178.845 106.191 178.221C106.326 177.89 106.488 177.571 106.676 177.268Z" fill="#455A64"/>
<path d="M95.1922 264.507L94.998 264.331L94.4642 263.797L92.444 261.728L85.255 254.26L85.1882 254.193L85.2428 254.102C87.7969 249.819 90.8424 244.644 94.4035 239.263C97.1515 234.987 100.344 231.013 103.928 227.409C105.418 225.959 106.99 224.596 108.636 223.326C109.394 222.768 110.104 222.234 110.784 221.755L112.701 220.457H112.737L116.559 221.312L117.572 221.549C117.691 221.567 117.807 221.6 117.918 221.646C117.799 221.636 117.682 221.617 117.566 221.591L116.541 221.403L112.701 220.632H112.767L110.875 221.955C110.201 222.434 109.497 222.98 108.745 223.538C107.12 224.82 105.567 226.189 104.092 227.639C100.541 231.245 97.3733 235.21 94.6401 239.469C91.079 244.838 88.0214 250.001 85.437 254.272V254.108L92.541 261.655L94.5066 263.766L95.0162 264.331C95.0813 264.382 95.1403 264.441 95.1922 264.507Z" fill="#455A64"/>
<path d="M115.691 139.746C115.722 139.909 118.579 138.89 118.889 137.768C119.198 136.645 119.113 133.406 119.113 133.406L111.833 129.001L111.869 135.068C112.862 135.442 113.738 136.072 114.409 136.893C115.08 137.715 115.522 138.698 115.691 139.746Z" fill="#FFBE9D"/>
<path d="M107.623 92.2862L110.844 94.3428C110.844 94.3428 111.851 96.8362 113.137 97.9829C114.423 99.1295 116.638 101.447 116.638 101.447L117.614 104.953L124.646 103.164L121.612 93.0021L120.727 90.3146C120.727 90.3146 119.186 87.9546 117.196 89.2104C117.196 89.2104 117.444 88.3308 116.589 88.2762C115.886 88.2761 115.184 88.3493 114.496 88.4946C113.976 88.1173 113.36 87.8964 112.719 87.8576C112.264 87.8605 111.811 87.9072 111.366 87.9971C111.366 87.9971 111.129 86.9961 110.595 87.1235C110.061 87.2509 109.382 88.2034 109.194 88.7676C109.073 89.469 109.054 90.1842 109.139 90.8909L107.623 92.2862Z" fill="#FFBE9D"/>
<path d="M117.542 89.1799C117.042 89.4629 116.636 89.8843 116.371 90.3933C116.096 90.9421 115.965 91.5515 115.989 92.1647C115.992 92.5307 116.025 92.8958 116.086 93.2567C116.116 93.4448 116.146 93.6389 116.183 93.8331C116.203 94.021 116.243 94.2061 116.304 94.3851C116.343 94.4538 116.398 94.5128 116.463 94.5579C116.528 94.603 116.602 94.6331 116.68 94.646C116.845 94.6915 117.019 94.6915 117.184 94.646C117.341 94.606 117.483 94.5237 117.597 94.4082C117.71 94.2927 117.79 94.1483 117.827 93.9908C117.997 93.3841 117.784 92.6986 117.875 92.1344C117.9 91.8712 118.003 91.6215 118.173 91.4185C118.299 91.2639 118.467 91.15 118.658 91.0909C118.979 90.9999 119.149 91.1395 119.137 91.1455C118.989 91.1389 118.841 91.1595 118.7 91.2062C118.521 91.2929 118.369 91.428 118.262 91.5962C118.155 91.7645 118.096 91.9592 118.094 92.1587C118.027 92.6622 118.276 93.2992 118.094 94.0697C118.033 94.2801 117.917 94.4703 117.757 94.62C117.597 94.7697 117.4 94.8734 117.186 94.92C116.972 94.9667 116.75 94.9545 116.542 94.8849C116.334 94.8153 116.149 94.6908 116.007 94.5247C115.931 94.3194 115.882 94.1053 115.861 93.8877C115.825 93.6875 115.794 93.4933 115.764 93.281C115.709 92.9055 115.682 92.5262 115.685 92.1465C115.675 91.489 115.839 90.8404 116.158 90.2659C116.377 89.8795 116.693 89.5573 117.075 89.3316C117.36 89.1799 117.536 89.1799 117.542 89.1799Z" fill="#EB996E"/>
<path d="M119.92 92.9595C119.92 93.0444 119.532 93.0808 119.071 93.1051C118.609 93.1294 118.221 93.1415 118.203 93.0566C118.185 92.9716 118.561 92.82 119.052 92.7896C119.544 92.7593 119.926 92.8746 119.92 92.9595Z" fill="#EB996E"/>
<path d="M116.049 94.3973C116.049 94.3973 116.128 94.5429 116.146 94.8341C116.166 95.0474 116.139 95.2624 116.068 95.4644C115.996 95.6665 115.883 95.8508 115.734 96.0049C115.624 96.115 115.493 96.2023 115.35 96.2616C115.206 96.321 115.052 96.3513 114.897 96.3507C114.714 96.3405 114.538 96.2853 114.382 96.19C114.226 96.0947 114.097 95.9624 114.005 95.8047C113.816 95.4835 113.691 95.1294 113.635 94.7613C113.566 94.3973 113.511 94.0211 113.471 93.6329C113.392 92.8996 113.366 92.1616 113.392 91.4246C113.387 90.8083 113.475 90.1947 113.653 89.6046C113.785 89.2028 114.045 88.8553 114.393 88.6157C114.515 88.5211 114.663 88.4661 114.818 88.458C114.818 88.458 114.678 88.5369 114.466 88.7128C114.174 88.9688 113.964 89.3039 113.859 89.6774C113.725 90.2457 113.664 90.8287 113.677 91.4125C113.668 92.1358 113.703 92.859 113.78 93.5783C113.809 94.2866 113.967 94.9837 114.247 95.6349C114.312 95.7562 114.406 95.8596 114.52 95.9358C114.634 96.012 114.766 96.0587 114.903 96.0717C115.15 96.0766 115.391 95.9878 115.576 95.8229C115.849 95.5577 116.008 95.1964 116.019 94.8159C116.016 94.6757 116.026 94.5356 116.049 94.3973Z" fill="#EB996E"/>
<path d="M113.24 93.8454C113.307 93.8454 113.119 94.452 112.227 94.7493C111.948 94.7564 111.674 94.6667 111.453 94.4954C111.232 94.324 111.077 94.0815 111.014 93.809C110.85 93.2167 110.776 92.6031 110.795 91.989C110.783 90.8797 110.989 89.7789 111.402 88.7493C111.545 88.4266 111.799 88.166 112.118 88.0153C112.348 87.9182 112.488 87.9485 112.488 87.9667C112.488 87.9849 112.361 88.0092 112.173 88.1245C111.913 88.2966 111.715 88.5475 111.608 88.8403C111.269 89.8553 111.097 90.9187 111.099 91.989C111.078 92.5686 111.137 93.1484 111.275 93.7119C111.32 93.9229 111.43 94.1148 111.588 94.2614C111.747 94.4079 111.946 94.502 112.16 94.5309C112.463 94.4611 112.743 94.3148 112.973 94.1062C113.174 93.9546 113.216 93.8393 113.24 93.8454Z" fill="#EB996E"/>
<path d="M111.414 87.9969C111.453 88.258 111.438 88.5241 111.372 88.7795C111.322 89.4392 111.084 90.0708 110.686 90.5995C110.555 90.7652 110.374 90.8844 110.171 90.9393C110.067 90.9653 109.96 90.9691 109.855 90.9502C109.751 90.9314 109.651 90.8904 109.564 90.8301C109.43 90.7431 109.317 90.6271 109.234 90.4905C109.151 90.354 109.1 90.2004 109.085 90.0414C109.028 89.7724 109.064 89.4922 109.188 89.2467C109.242 89.2467 109.188 89.5621 109.303 89.9989C109.324 90.1231 109.371 90.2415 109.441 90.3461C109.511 90.4507 109.603 90.5392 109.709 90.6056C109.831 90.6717 109.974 90.689 110.108 90.6541C110.242 90.6192 110.357 90.5346 110.431 90.4175C110.784 89.93 111.024 89.3707 111.135 88.7795C111.275 88.276 111.372 87.9666 111.414 87.9969Z" fill="#EB996E"/>
<path d="M120.15 96.7573C119.718 96.3682 119.265 96.0036 118.791 95.6653C118.267 95.4097 117.728 95.1849 117.178 94.9919C117.485 94.936 117.8 94.9426 118.104 95.0114C118.409 95.0802 118.696 95.2098 118.949 95.3923C119.23 95.5283 119.481 95.7191 119.688 95.9535C119.894 96.1879 120.051 96.4612 120.15 96.7573Z" fill="#EB996E"/>
<path d="M121.37 98.4377C120.943 99.1485 120.303 99.7068 119.54 100.034C118.778 100.36 117.932 100.439 117.123 100.258C117.901 100.166 118.666 99.9874 119.404 99.7239C120.106 99.3719 120.766 98.9403 121.37 98.4377Z" fill="#EB996E"/>
<path d="M110.881 86.5713C110.85 87.7395 110.52 88.8802 109.922 89.8842C109.324 90.8881 108.478 91.7214 107.465 92.3043C108.29 91.5323 109.023 90.667 109.649 89.726C110.178 88.7246 110.591 87.6662 110.881 86.5713Z" fill="#EB996E"/>
<path d="M111.487 105.463C111.487 105.463 113.568 106.421 114.593 109.424C115.291 111.475 119.234 118.646 119.234 118.646L117.615 104.953L124.573 102.527C124.573 102.527 130.452 115.321 131.853 123.153C133.254 130.828 129.426 135.893 125.343 135.748C121.261 135.602 111.39 128.729 111.39 128.729L111.487 105.463Z" fill="#4285F4"/>
<path d="M117.614 104.953C117.69 105.217 117.742 105.487 117.772 105.76C117.851 106.367 117.96 107.089 118.088 107.981C118.336 109.855 118.664 112.452 119.004 115.315C119.131 116.431 119.258 117.505 119.374 118.494C119.55 119.525 119.713 120.49 119.865 121.364C119.996 122.113 120.185 122.851 120.429 123.572C120.86 124.785 121.212 125.453 121.169 125.471C121.059 125.327 120.963 125.173 120.884 125.01C120.659 124.561 120.457 124.101 120.278 123.633C120 122.912 119.785 122.17 119.635 121.412C119.471 120.539 119.295 119.592 119.101 118.549C118.979 117.56 118.846 116.486 118.712 115.37C118.373 112.506 118.106 109.91 117.887 108.023C117.802 107.131 117.73 106.385 117.675 105.797C117.621 105.519 117.601 105.236 117.614 104.953Z" fill="#263238"/>
<g opacity="0.3">
<path opacity="0.3" d="M132.144 127.309C132.144 125.92 127.291 127.643 125.416 128.911C123.5 130.302 122.036 132.226 121.206 134.443C121.206 134.443 124.525 136.354 127.073 135.487C130.688 134.261 132.102 129.693 132.144 127.309Z" fill="black"/>
</g>
<path d="M88.6887 96.3993C88.6887 96.3993 75.5362 102.757 74.1287 106.652C72.7213 110.547 75.063 120.557 75.063 120.557L80.2561 147.572L81.3359 157.667L78.5271 161.743L79.7404 165.929C93.9182 167.816 107.174 168.21 118.476 165.414L117.693 156.107L112.476 134.54L111.797 116.419L111.481 105.463L104.414 99.6692C104.414 99.6692 103.261 102.824 100.343 102.163C97.4247 101.501 90.5815 94.5671 90.5815 94.5671L88.6887 96.3993Z" fill="#4285F4"/>
<path d="M75.5421 123.075C75.9425 123.487 84.2417 145.521 90.1021 148.239C95.9625 150.957 99.4145 150.011 101.962 149.313C104.51 148.615 115.655 140.747 115.655 140.747C115.655 140.747 114.872 135.457 111.633 135.287C109.584 135.2 107.533 135.363 105.524 135.772L101.592 133.17C101.592 133.17 99.3113 128.711 97.9949 128.522L90.3569 111.536C90.3569 111.536 83.2529 97.6735 76.1913 104.074C69.3177 110.292 75.5421 123.075 75.5421 123.075Z" fill="#4285F4"/>
<path d="M105.675 101.313C105.566 101.557 105.423 101.783 105.251 101.987C104.827 102.564 104.318 103.074 103.74 103.497C103.324 103.791 102.863 104.016 102.375 104.165C101.811 104.32 101.224 104.38 100.64 104.34C99.3232 104.22 98.0357 103.882 96.83 103.339C95.6011 102.837 94.454 102.154 93.4266 101.313C92.6074 100.623 91.8446 99.8682 91.1456 99.0564C90.5389 98.3709 90.096 97.7885 89.7927 97.382C89.6181 97.1818 89.4675 96.9619 89.3438 96.7268C89.5434 96.9106 89.7243 97.1138 89.8837 97.3335C90.2234 97.7157 90.6966 98.2738 91.3154 98.9351C92.0278 99.7158 92.7941 100.446 93.6086 101.119C94.6169 101.924 95.7341 102.582 96.9271 103.073C98.1001 103.599 99.3491 103.937 100.628 104.074C101.667 104.172 102.71 103.913 103.582 103.339C104.166 102.937 104.691 102.455 105.141 101.908C105.306 101.698 105.484 101.499 105.675 101.313Z" fill="#263238"/>
<path d="M110.783 111.572C110.868 111.572 111.196 116.82 111.511 123.299C111.827 129.778 112.015 135.032 111.924 135.038C111.833 135.044 111.511 129.79 111.196 123.311C110.881 116.832 110.692 111.578 110.783 111.572Z" fill="#263238"/>
<path d="M77.9567 104.347L78.1023 104.28L78.5512 104.098C79.1374 103.879 79.7488 103.734 80.3712 103.667C81.3959 103.555 82.4326 103.676 83.4045 104.019C84.6939 104.498 85.8649 105.249 86.8383 106.221C88.04 107.412 89.0618 108.771 89.8716 110.256C90.3266 111.056 90.6906 111.948 91.0849 112.84C91.4793 113.732 91.91 114.66 92.3407 115.625L98.1223 128.431L98.0131 128.353C98.4965 128.517 98.9193 128.824 99.2264 129.232C99.5539 129.618 99.8578 130.023 100.136 130.446C100.706 131.298 101.228 132.181 101.702 133.091L101.671 133.054L103.212 134.595L103.115 134.553L110.601 135.056L111.566 135.117C111.909 135.143 112.246 135.219 112.567 135.341C113.199 135.606 113.746 136.038 114.15 136.591C114.932 137.706 115.464 138.977 115.71 140.316C115.71 140.449 115.764 140.583 115.782 140.71V140.807L115.703 140.862C112.427 143.155 109.2 145.357 105.997 147.341C105.19 147.827 104.389 148.318 103.57 148.749C103.37 148.864 103.164 148.961 102.963 149.064C102.755 149.169 102.54 149.263 102.32 149.343C101.886 149.498 101.442 149.625 100.992 149.725C99.2578 150.185 97.4522 150.31 95.6713 150.095C93.9849 149.865 92.339 149.399 90.7816 148.712C90.3982 148.561 90.0253 148.385 89.6653 148.184C89.4841 148.088 89.3116 147.977 89.1497 147.851C88.9841 147.733 88.826 147.606 88.6765 147.469C88.0836 146.947 87.5375 146.375 87.0445 145.758C85.3085 143.475 83.7855 141.038 82.4945 138.478C80.0679 133.837 78.4177 129.936 77.2711 127.248C76.7191 125.908 76.2823 124.864 75.985 124.142C75.6877 123.42 75.5239 123.062 75.5239 123.062C75.7296 123.397 75.9023 123.75 76.0396 124.118L77.3864 127.2C78.5633 129.869 80.2499 133.758 82.6887 138.375C83.997 140.913 85.5277 143.331 87.2629 145.6C88.1876 146.873 89.4478 147.865 90.9029 148.464C92.4379 149.136 94.0592 149.591 95.7199 149.816C97.4651 150.023 99.2336 149.895 100.931 149.44C101.372 149.343 101.805 149.218 102.229 149.064C102.437 148.986 102.64 148.894 102.836 148.791C103.044 148.699 103.246 148.595 103.443 148.482C104.256 148.057 105.05 147.572 105.869 147.08C109.067 145.103 112.294 142.9 115.576 140.613L115.509 140.765L115.437 140.383C115.202 139.092 114.691 137.866 113.938 136.791C113.567 136.284 113.066 135.886 112.488 135.639C111.882 135.458 111.252 135.368 110.62 135.372L103.133 134.844H103.079L103.036 134.801L101.501 133.26C101.033 132.363 100.518 131.49 99.9605 130.646C99.6882 130.24 99.3925 129.852 99.0747 129.481C98.8046 129.123 98.4386 128.85 98.0191 128.692H97.9342V128.632L92.1951 115.801L90.9515 113.01C90.5389 112.106 90.1871 111.232 89.7381 110.438C88.9492 108.964 87.9498 107.613 86.7715 106.428C85.8235 105.462 84.6795 104.711 83.4167 104.225C82.4718 103.882 81.4635 103.75 80.4622 103.837C79.8426 103.892 79.2317 104.021 78.6422 104.219L78.1872 104.383L77.9567 104.347Z" fill="#263238"/>
<path d="M106.355 134.929C106.355 135.117 104.699 135.05 102.684 134.886L100.1 134.68C99.7398 134.676 99.3813 134.629 99.0322 134.54C99.0322 134.437 100.688 134.419 102.709 134.589C103.722 134.668 104.638 134.765 105.299 134.838L106.355 134.929Z" fill="#263238"/>
<path d="M92.1526 128.856C93.1077 128.634 94.084 128.514 95.0646 128.498C96.0392 128.381 97.0233 128.367 98.0009 128.456C97.0437 128.679 96.0655 128.799 95.0828 128.814C94.1103 128.931 93.1281 128.945 92.1526 128.856Z" fill="#263238"/>
<g opacity="0.3">
<path opacity="0.3" d="M105.475 147.487C104.565 145.899 103.329 144.523 101.849 143.449C100.368 142.375 98.6758 141.628 96.8846 141.256C93.2446 140.552 88.9191 141.778 85.9646 144.035C86.9296 145.603 88.2306 146.938 89.7738 147.943C91.317 148.948 93.0639 149.598 94.8887 149.847C98.5893 150.439 102.377 149.595 105.475 147.487Z" fill="black"/>
</g>
<g opacity="0.3">
<path opacity="0.3" d="M90.1021 97.5398C91.1091 100.039 92.5287 102.448 94.6521 104.116C96.7754 105.784 99.6753 106.609 102.235 105.778C103.558 105.354 104.832 104.334 104.959 102.957C102.361 103.958 99.494 104.021 96.8539 103.135C94.2138 102.249 91.9654 100.47 90.4964 98.104" fill="black"/>
</g>
<g opacity="0.3">
<path opacity="0.3" d="M111.827 129.001C112.625 123.949 112.606 118.802 111.772 113.756C111.712 113.404 111.499 112.949 111.166 113.034C110.832 113.119 110.832 113.459 110.82 113.738C110.745 118.893 110.992 124.047 111.56 129.171" fill="black"/>
</g>
<path d="M110.844 162.095C110.75 162.144 110.65 162.178 110.547 162.198L109.697 162.435C109.327 162.532 108.872 162.647 108.338 162.756C107.805 162.866 107.198 163.017 106.518 163.127C105.172 163.375 103.546 163.594 101.738 163.733C99.7722 163.886 97.7997 163.933 95.829 163.873C93.8592 163.795 91.8948 163.613 89.9443 163.327C88.1243 163.048 86.5409 162.72 85.2123 162.374C84.545 162.223 83.9505 162.035 83.3923 161.883C82.8342 161.731 82.4217 161.592 82.0577 161.464L81.2265 161.173C81.1285 161.14 81.0332 161.099 80.9414 161.052C81.0449 161.058 81.147 161.078 81.2447 161.112L82.0941 161.349C82.4641 161.458 82.9131 161.586 83.4409 161.713C83.9687 161.84 84.5632 162.016 85.2609 162.156C86.5895 162.471 88.1911 162.763 89.9807 163.042C91.7704 163.321 93.7481 163.478 95.8351 163.557C97.922 163.636 99.9058 163.557 101.708 163.442C103.509 163.327 105.129 163.114 106.476 162.89C107.155 162.799 107.762 162.672 108.296 162.574C108.83 162.477 109.291 162.386 109.661 162.301L110.529 162.126C110.632 162.101 110.738 162.091 110.844 162.095Z" fill="#263238"/>
<g opacity="0.3">
<path opacity="0.3" d="M83.7201 161.549C84.0118 161.162 84.3893 160.848 84.823 160.631C85.2566 160.414 85.7347 160.3 86.2196 160.3C87.1875 160.301 88.1507 160.434 89.083 160.694C95.628 162.136 102.418 162.043 108.921 160.421C108.943 160.823 108.85 161.223 108.654 161.574C108.457 161.925 108.165 162.213 107.811 162.405C107.085 162.755 106.302 162.971 105.499 163.042C98.2194 164.407 90.6846 163.521 83.6594 161.828" fill="black"/>
</g>
<path d="M420.802 161.173H339.054V219.947H420.802V161.173Z" fill="#4285F4"/>
<path d="M360.967 161.173C361.082 161.173 360.967 173.585 360.967 173.585H354.9V161.173H360.967Z" fill="#263238"/>
<g opacity="0.4">
<path opacity="0.4" d="M379.925 219.947H420.802V161.173H379.925V219.947Z" fill="black"/>
</g>
<path d="M352.485 208.438H341.541V216.186H352.485V208.438Z" fill="#FAFAFA"/>
<path d="M352.504 216.198H341.553V208.426H352.528L352.504 216.198ZM341.584 216.167H352.504V208.457H341.553L341.584 216.167Z" fill="#263238"/>
<path d="M359.978 208.438H354.506V216.186H359.978V208.438Z" fill="#FAFAFA"/>
<path d="M359.996 216.198H354.494V208.426H359.996V216.198ZM354.536 216.167H359.996V208.457H354.536V216.167Z" fill="#263238"/>
<path d="M417.156 219.996H324.16V286.85H417.156V219.996Z" fill="#4285F4"/>
<path d="M349.106 219.996C349.234 219.996 349.106 234.107 349.106 234.107H342.221V219.996H349.106Z" fill="#263238"/>
<g opacity="0.4">
<path opacity="0.4" d="M370.661 286.844H417.156V219.99H370.661V286.844Z" fill="black"/>
</g>
<path d="M339.442 273.758H326.993V282.567H339.442V273.758Z" fill="#FAFAFA"/>
<path d="M339.46 282.585H326.993V273.746H339.472L339.46 282.585ZM326.993 282.555H339.43V273.776H326.993V282.555Z" fill="#263238"/>
<path d="M347.966 273.758H341.741V282.567H347.966V273.758Z" fill="#FAFAFA"/>
<path d="M347.984 282.585H341.729V273.746H347.984V282.585ZM341.76 282.555H347.954V273.776H341.76V282.555Z" fill="#263238"/>
<path d="M420.802 219.947C420.802 220.032 402.499 220.105 379.925 220.105C357.351 220.105 339.054 220.032 339.054 219.947C339.054 219.862 357.351 219.789 379.925 219.789C402.499 219.789 420.802 219.862 420.802 219.947Z" fill="#263238"/>
<path d="M58.4767 45.2271C58.6013 45.2872 58.7065 45.381 58.7805 45.4979C58.8545 45.6148 58.8943 45.75 58.8953 45.8884V49.5284C58.8948 49.6424 58.8681 49.7548 58.817 49.8568C58.766 49.9588 58.6921 50.0476 58.6011 50.1164C58.51 50.1851 58.4043 50.2318 58.2923 50.2529C58.1802 50.2741 58.0647 50.269 57.9549 50.2382C57.6492 50.1551 57.3296 50.1365 57.0163 50.1835C56.703 50.2305 56.4028 50.3421 56.1349 50.5112C55.8967 50.6593 55.6915 50.8547 55.5318 51.0853C55.3722 51.3159 55.2615 51.5768 55.2067 51.8519C55.1587 52.1304 55.1672 52.4158 55.2319 52.691C55.2965 52.9661 55.4159 53.2255 55.5829 53.4535C55.756 53.7119 55.9787 53.9334 56.238 54.1052C56.4973 54.277 56.788 54.3957 57.0935 54.4545C57.7152 54.5158 58.3394 54.3644 58.8639 54.025C59.3885 53.6856 59.7824 53.1783 59.9812 52.586C60.0407 52.4001 60.1717 52.2456 60.3452 52.1562C60.5187 52.0669 60.7205 52.0502 60.9064 52.1097C61.0922 52.1693 61.2468 52.3002 61.3361 52.4737C61.4254 52.6472 61.4421 52.8491 61.3826 53.0349C61.0742 53.9604 60.4565 54.7516 59.6334 55.2752C58.8103 55.7989 57.832 56.0233 56.8629 55.9105C56.3597 55.8221 55.8796 55.6331 55.4511 55.3548C55.0227 55.0764 54.6548 54.7145 54.3695 54.2907C54.0801 53.9026 53.8765 53.4574 53.7721 52.9847C53.6678 52.5119 53.6652 52.0224 53.7644 51.5485C53.8637 51.0747 54.0625 50.6273 54.3478 50.2362C54.6331 49.845 54.9982 49.519 55.4191 49.2796C56.0296 48.9084 56.7308 48.7132 57.4453 48.7154V45.8884C57.4453 45.6937 57.5227 45.507 57.6603 45.3693C57.798 45.2316 57.9847 45.1543 58.1794 45.1543C58.2826 45.1569 58.384 45.1817 58.4767 45.2271V45.2271Z" fill="#4285F4"/>
<path d="M57.4575 43.6799C57.4575 43.5599 57.4931 43.4426 57.5598 43.3429C57.6264 43.2431 57.7212 43.1653 57.832 43.1194C57.9429 43.0735 58.0649 43.0615 58.1825 43.0849C58.3002 43.1083 58.4083 43.1661 58.4932 43.2509C58.578 43.3358 58.6358 43.4439 58.6592 43.5616C58.6826 43.6792 58.6706 43.8012 58.6247 43.9121C58.5788 44.0229 58.501 44.1177 58.4012 44.1843C58.3015 44.251 58.1842 44.2866 58.0642 44.2866C57.9033 44.2866 57.749 44.2227 57.6352 44.1089C57.5214 43.9951 57.4575 43.8408 57.4575 43.6799Z" fill="#4285F4"/>
<path d="M75.4271 63.3238C75.4271 63.3238 75.2451 63.3238 74.9478 63.4755C74.5251 63.6556 74.1674 63.9603 73.9225 64.3491C73.7531 64.6129 73.6453 64.9115 73.6071 65.2227C73.567 65.5788 73.6302 65.9389 73.7891 66.2601C73.9697 66.6291 74.2516 66.9391 74.6018 67.154C74.9519 67.3688 75.356 67.4796 75.7668 67.4734C76.1753 67.4336 76.5638 67.2776 76.8863 67.0239C77.2089 66.7702 77.452 66.4293 77.5868 66.0417C77.7098 65.7055 77.7309 65.3404 77.6475 64.9922C77.5711 64.6888 77.4304 64.4053 77.2349 64.161C76.9456 63.8024 76.5543 63.5401 76.1126 63.4088C75.8032 63.3238 75.6151 63.336 75.6151 63.3178C75.6592 63.3091 75.7045 63.3091 75.7486 63.3178C75.8031 63.3126 75.8579 63.3126 75.9124 63.3178C75.985 63.3105 76.0582 63.3105 76.1308 63.3178C76.6044 63.4274 77.03 63.687 77.3441 64.0579C77.5616 64.3098 77.7174 64.6089 77.7991 64.9315C77.8916 65.3045 77.8748 65.6962 77.7506 66.0599C77.6147 66.4614 77.3688 66.8166 77.0408 67.0852C76.7004 67.38 76.276 67.5604 75.8275 67.6008C75.3713 67.6169 74.9215 67.4896 74.5413 67.2368C74.1849 67.0054 73.8994 66.68 73.7163 66.2965C73.5452 65.9532 73.4818 65.5663 73.5343 65.1863C73.5771 64.8554 73.6976 64.5394 73.8861 64.2642C74.1462 63.8627 74.5293 63.5562 74.9781 63.3906C75.0471 63.3643 75.1181 63.344 75.1905 63.3299C75.2428 63.3224 75.2959 63.3224 75.3482 63.3299C75.3846 63.3178 75.4271 63.3178 75.4271 63.3238Z" fill="#263238"/>
<path d="M80.7838 68.6503C80.7838 68.6503 80.6746 68.6503 80.4865 68.7534C80.2345 68.874 80.0236 69.066 79.8798 69.3055C79.7621 69.4835 79.6933 69.6893 79.6805 69.9024C79.6677 70.1154 79.7114 70.328 79.807 70.5188C79.9105 70.7511 80.0823 70.9463 80.2996 71.0783C80.5169 71.2104 80.7693 71.273 81.0232 71.2579C81.277 71.2427 81.5202 71.1505 81.7202 70.9935C81.9202 70.8365 82.0676 70.6222 82.1427 70.3793C82.216 70.173 82.2321 69.9508 82.1894 69.7361C82.1467 69.5215 82.0467 69.3223 81.9 69.1599C81.7242 68.9369 81.4853 68.772 81.2145 68.6867C81.0143 68.6321 80.899 68.6321 80.899 68.6199C81.0062 68.5899 81.1195 68.5899 81.2266 68.6199C81.5257 68.6878 81.7942 68.8519 81.991 69.0871C82.1292 69.2463 82.2289 69.4352 82.2822 69.6391C82.3567 69.8761 82.3567 70.1302 82.2822 70.3671C82.1937 70.6351 82.0288 70.8714 81.8079 71.0471C81.587 71.2228 81.3196 71.3301 81.0386 71.356C80.7554 71.3624 80.4765 71.2868 80.2354 71.1382C79.9943 70.9897 79.8013 70.7746 79.6796 70.5188C79.5716 70.2967 79.5315 70.0477 79.5644 69.8029C79.5918 69.5852 79.6708 69.3772 79.7949 69.1963C79.9596 68.9411 80.2053 68.7488 80.4925 68.6503C80.5884 68.6286 80.6879 68.6286 80.7838 68.6503Z" fill="#263238"/>
<path d="M74.5412 52.4038C74.5412 52.4038 74.5412 52.3128 74.5412 52.1308C74.5412 51.9488 74.5412 51.6698 74.5412 51.3179C74.5412 51.142 74.5412 50.9418 74.5412 50.7112C74.5412 50.4807 74.5412 50.2502 74.4927 49.9954C74.4442 49.7406 74.4502 49.4554 74.426 49.1582C74.4173 49.0032 74.397 48.849 74.3653 48.6971C74.335 48.5394 74.3046 48.3816 74.2743 48.2118C74.0186 46.5995 73.5216 45.035 72.8001 43.5708C71.836 41.6204 70.5031 39.8754 68.875 38.4323L68.1894 37.8256C67.9468 37.6376 67.6859 37.4616 67.4311 37.2736L67.0428 37.0006C66.9167 36.9011 66.7828 36.8119 66.6424 36.7336L65.7992 36.2422L65.3684 35.9996L64.9134 35.7933L63.9913 35.3686C63.6758 35.2352 63.3422 35.1442 63.0146 35.0228L62.5171 34.853L62.2684 34.7741L62.0075 34.7134C61.3119 34.5283 60.6045 34.3904 59.8902 34.3009C59.5262 34.2584 59.1622 34.1917 58.7922 34.1674H57.6698C57.4818 34.1674 57.2937 34.1674 57.0996 34.1674L56.5293 34.2099C56.1532 34.2463 55.7649 34.2584 55.3827 34.307C54.6046 34.4186 53.8345 34.5807 53.0774 34.7923L52.4707 34.9561L52.1734 35.0046L51.8944 35.1138L50.7599 35.5567C50.3898 35.7205 50.0258 35.9207 49.6618 36.1027C49.4798 36.1998 49.2857 36.2786 49.1098 36.3939L48.582 36.7276C47.8742 37.1795 47.1972 37.6781 46.5557 38.22L45.6214 39.0814L45.3848 39.3059L45.1725 39.5486L44.7418 40.0339L44.3171 40.5253L43.9288 41.0531L43.5466 41.587L43.3586 41.8539C43.2979 41.9449 43.2433 42.042 43.1887 42.139L42.5214 43.2856L41.9632 44.499C40.5327 47.8667 40.2409 51.6094 41.1321 55.1581L41.4961 56.42C41.6538 56.8386 41.8176 57.245 41.9754 57.6333L42.0967 57.9427L42.2423 58.2339L42.5396 58.8406L42.8368 59.4472L43.1826 59.9993L43.5345 60.5453L43.7044 60.8183L43.9046 61.0731L44.6872 62.0862C45.2567 62.7156 45.8645 63.3093 46.5072 63.8638L46.9743 64.2763C47.132 64.4098 47.308 64.519 47.4718 64.6464C47.8115 64.883 48.133 65.1317 48.4788 65.3562L49.5284 65.9628L49.7468 66.1266L50.0198 66.254L50.5658 66.5028C51.2846 66.8303 52.0243 67.11 52.7801 67.34C53.1562 67.4431 53.5324 67.522 53.9085 67.613L54.4606 67.7404C54.6486 67.7828 54.8367 67.795 55.0248 67.8192L56.141 67.9648C56.5111 68.0012 56.8812 67.9648 57.2452 68.0073C57.9616 68.0357 58.6791 68.0154 59.3928 67.9466H59.6597L59.9206 67.9042L60.4362 67.8132C60.776 67.7464 61.1218 67.704 61.4494 67.6251L62.4322 67.3521L62.9114 67.2186L63.3786 67.0366L64.2886 66.6848C64.4391 66.6293 64.5851 66.5624 64.7254 66.4846L65.15 66.2722C65.4291 66.1266 65.7142 65.9932 65.9812 65.8476L66.7577 65.3562C68.588 64.1827 70.1742 62.6665 71.429 60.8911L71.8416 60.3208L72.1813 59.7142L72.515 59.15C72.5696 59.0529 72.6242 58.968 72.6727 58.8709L72.8001 58.5918C72.9781 58.2157 73.1419 57.8578 73.2915 57.518C73.4432 57.1722 73.5402 56.8325 73.6555 56.517C73.7101 56.3532 73.7647 56.2016 73.8193 56.0499C73.8721 55.9054 73.9147 55.7575 73.9467 55.607C74.0195 55.3158 74.0802 55.0428 74.1408 54.788C74.2015 54.5332 74.2622 54.3027 74.3046 54.0904C74.3471 53.878 74.3592 53.6718 74.3835 53.4837C74.432 53.1359 74.4684 52.8689 74.4927 52.6829C74.4927 52.5009 74.5412 52.4099 74.5412 52.4099C74.5412 52.4099 74.5412 52.5009 74.5109 52.6829C74.4806 52.8649 74.4563 53.1379 74.4138 53.4898C74.4138 53.6657 74.3714 53.8659 74.341 54.0964C74.3107 54.327 74.244 54.5454 74.1894 54.8002C74.1348 55.055 74.068 55.328 74.0013 55.6192C73.9693 55.7716 73.9268 55.9216 73.8739 56.0681C73.8193 56.2198 73.7708 56.3714 73.7162 56.5352C73.6009 56.8507 73.5038 57.1965 73.3582 57.5423L72.8668 58.6222L72.7394 58.9073C72.6909 59.0044 72.6363 59.0893 72.5817 59.1864L72.2541 59.7566C72.1449 59.9508 72.0296 60.1449 71.9083 60.3633C71.787 60.5817 71.6414 60.7455 71.5018 60.97C70.2436 62.7605 68.6512 64.2911 66.8123 65.4775L66.0358 65.9689C65.7688 66.1206 65.4837 66.254 65.1986 66.3996L64.7739 66.618C64.6309 66.6946 64.483 66.7614 64.331 66.8182L63.415 67.1762C63.2633 67.2368 63.1116 67.3036 62.9539 67.3582L62.4686 67.4916L61.4797 67.7707C61.146 67.8556 60.8002 67.8981 60.4544 67.9648L59.9388 68.0558L59.6718 68.0983H59.411C58.6879 68.1776 57.9602 68.208 57.233 68.1893C56.869 68.1893 56.4929 68.1893 56.1228 68.1468L55.0005 67.9466C54.8124 67.9466 54.6183 67.9042 54.4302 67.8678L53.8721 67.7343C53.496 67.6433 53.1138 67.5705 52.7376 67.4613C51.9798 67.2317 51.238 66.952 50.5172 66.6241L49.9652 66.3693C49.8742 66.3268 49.7832 66.2904 49.6922 66.2419L49.4252 66.0902L48.3636 65.4836C48.0238 65.2652 47.6962 65.0104 47.3565 64.7677C47.1823 64.6532 47.0142 64.5297 46.853 64.3976L46.3798 63.9851C45.7335 63.4194 45.1255 62.8114 44.5598 62.1651L43.765 61.1459L43.5648 60.885L43.3889 60.612L43.0734 60.06L42.7216 59.5018L42.4182 58.8952L42.121 58.2885L41.9693 57.9912L41.848 57.6818C41.6902 57.2693 41.5264 56.8507 41.3626 56.4382L40.9804 55.2066C40.0771 51.6255 40.3733 47.847 41.8237 44.4504C42.0118 44.0379 42.1938 43.6314 42.3818 43.2371L43.0734 42.0541C43.1341 41.957 43.1826 41.86 43.2433 41.769L43.4374 41.496L43.8257 40.9621L44.214 40.4282L44.6447 39.9308L45.0754 39.4394L45.2938 39.1967L45.5304 38.9722L46.4708 38.0865C47.1248 37.5461 47.8139 37.0496 48.5334 36.6002L49.0673 36.2604C49.2432 36.1512 49.4374 36.0663 49.6194 35.9692C49.9894 35.7872 50.3534 35.587 50.7296 35.4232L51.8762 34.9804L52.1552 34.8651L52.4464 34.7862L53.0531 34.6224C53.8179 34.4085 54.5962 34.2464 55.3827 34.1371C55.771 34.0886 56.1592 34.0704 56.5414 34.04L57.1481 33.9976C57.3362 33.9976 57.5303 33.9976 57.7184 33.9976H58.8528C59.2229 33.9976 59.593 34.0886 59.957 34.125C60.6775 34.2185 61.3909 34.3604 62.0924 34.5496L62.3533 34.6103L62.602 34.6952L63.1056 34.8651C63.4332 34.9864 63.7668 35.0835 64.0823 35.217L65.0166 35.6416L65.4716 35.854C65.6232 35.9328 65.7628 36.0178 65.9084 36.1027L66.7577 36.6002C66.8984 36.6778 67.0323 36.7671 67.1581 36.8671L67.5464 37.1462C67.8012 37.3342 68.062 37.5102 68.3047 37.6982L68.9963 38.3049C70.6311 39.7598 71.9664 41.5197 72.9275 43.4858C73.6682 44.9577 74.1757 46.5356 74.432 48.1632C74.4624 48.3331 74.4927 48.4969 74.517 48.6546C74.5487 48.8066 74.569 48.9607 74.5776 49.1157C74.5776 49.4109 74.5958 49.69 74.6322 49.9529C74.6322 50.2138 74.6747 50.4504 74.6747 50.6748C74.6747 50.8993 74.6747 51.0934 74.6747 51.2815C74.6747 51.6334 74.6747 51.8882 74.6747 52.0944C74.6747 52.3007 74.5412 52.4038 74.5412 52.4038Z" fill="#263238"/>
</svg>
