<svg width="100" height="60" viewBox="0 0 100 60" fill="none" xmlns="http://www.w3.org/2000/svg">
<path fill-rule="evenodd" clip-rule="evenodd" d="M32.8863 26.9585C32.9233 30.7828 36.3852 32.0552 36.4235 32.0715C36.3945 32.1618 35.8706 33.8853 34.5998 35.6664C33.5013 37.2055 32.3605 38.7395 30.5651 38.7715C28.8001 38.8029 28.2327 37.7685 26.2147 37.7685C24.1974 37.7685 23.5666 38.7395 21.896 38.8029C20.1628 38.8657 18.8423 37.1375 17.7346 35.6036C15.4709 32.4658 13.7409 26.7375 16.064 22.8706C17.218 20.9503 19.2796 19.7341 21.5182 19.7034C23.2204 19.672 24.8276 20.8012 25.8686 20.8012C26.9083 20.8012 28.8615 19.4432 30.9145 19.6426C31.7739 19.6772 34.1862 19.9754 35.7352 22.1494C35.6097 22.224 32.8559 23.7612 32.8863 26.9585ZM29.569 17.5666C30.4891 16.4982 31.1094 15.0114 30.9403 13.5317C29.6133 13.5827 28.0088 14.3791 27.0576 15.4469C26.2042 16.3923 25.4577 17.9053 25.6592 19.3562C27.1382 19.466 28.6489 18.6357 29.569 17.5666Z" fill="#06111D"/>
<path fill-rule="evenodd" clip-rule="evenodd" d="M42.8915 15.738C43.5739 15.6243 44.3257 15.5221 45.1491 15.431C45.9719 15.3399 46.8768 15.2947 47.8653 15.2947C49.2762 15.2947 50.4925 15.4595 51.5151 15.789C52.5383 16.1186 53.3784 16.5904 54.0361 17.2043C54.6008 17.7497 55.0426 18.3972 55.3594 19.1475C55.6762 19.8977 55.8339 20.7617 55.8339 21.7395C55.8339 22.9214 55.6174 23.956 55.1823 24.8426C54.7479 25.7292 54.1544 26.4737 53.4018 27.076C52.6486 27.6783 51.7557 28.1267 50.7211 28.4227C49.6858 28.718 48.5577 28.866 47.3346 28.866C46.2298 28.866 45.3015 28.7865 44.5496 28.6276V38.4489H42.8915V15.738ZM44.5496 27.1962C44.9493 27.3093 45.3958 27.3887 45.8897 27.434C46.3836 27.4792 46.9122 27.5018 47.4763 27.5018C49.5923 27.5018 51.2324 27.0243 52.396 26.0698C53.5596 25.1153 54.1417 23.7169 54.1417 21.8758C54.1417 20.9892 53.9893 20.2157 53.6839 19.5565C53.3778 18.8967 52.9433 18.3571 52.3793 17.9364C51.8152 17.5157 51.1448 17.1978 50.3689 16.9813C49.5923 16.7655 48.7341 16.6576 47.7931 16.6576C47.0412 16.6576 46.3943 16.686 45.8536 16.7429C45.3129 16.7997 44.8778 16.8624 44.549 16.9303V27.1962H44.5496Z" fill="#06111D"/>
<path fill-rule="evenodd" clip-rule="evenodd" d="M69.0196 34.5618C69.0196 35.2209 69.031 35.8807 69.0544 36.5399C69.0778 37.199 69.148 37.8349 69.2663 38.4488H67.7144L67.4678 36.1302H67.3962C67.185 36.4487 66.9144 36.7667 66.5855 37.0846C66.2567 37.4026 65.8744 37.6927 65.44 37.9544C65.0049 38.2162 64.511 38.4262 63.9583 38.5852C63.4056 38.7435 62.8007 38.8236 62.1424 38.8236C61.3197 38.8236 60.5959 38.6924 59.9723 38.432C59.3494 38.1703 58.8381 37.8291 58.4385 37.409C58.0388 36.9877 57.7394 36.505 57.5395 35.9596C57.3397 35.4141 57.2401 34.8687 57.2401 34.3227C57.2401 32.3905 58.0802 30.9016 59.7611 29.8553C61.4426 28.8091 63.9763 28.3096 67.3628 28.3548V27.9115C67.3628 27.4792 67.3214 26.9842 67.2392 26.4271C67.1563 25.8701 66.9745 25.3415 66.6918 24.8419C66.4098 24.3424 65.9867 23.9217 65.4226 23.5812C64.8585 23.2399 64.094 23.0693 63.1302 23.0693C62.4011 23.0693 61.6786 23.1773 60.9614 23.3931C60.2443 23.6089 59.592 23.9101 59.0045 24.2965L58.4752 23.1029C59.2271 22.6034 60.0037 22.2454 60.8024 22.0296C61.6024 21.8137 62.4365 21.7058 63.3067 21.7058C64.4823 21.7058 65.4407 21.899 66.1812 22.2855C66.9217 22.6719 67.5038 23.1721 67.9269 23.7854C68.35 24.3993 68.6387 25.0869 68.7911 25.8487C68.9435 26.6106 69.021 27.3667 69.021 28.1163V34.5618H69.0196ZM67.3622 29.6854C66.4679 29.6621 65.5329 29.6964 64.5571 29.7875C63.582 29.8779 62.6824 30.0776 61.8597 30.3839C61.0363 30.6909 60.3553 31.14 59.8146 31.7313C59.2739 32.3226 59.0032 33.1065 59.0032 34.0842C59.0032 35.2429 59.3441 36.0959 60.0264 36.6413C60.7075 37.1867 61.4714 37.4601 62.3182 37.4601C62.9999 37.4601 63.6114 37.3696 64.1521 37.1867C64.6928 37.0045 65.162 36.7602 65.5623 36.4539C65.9626 36.1476 66.2968 35.8006 66.5675 35.4141C66.8388 35.0271 67.044 34.6303 67.1857 34.2199C67.3033 33.765 67.3628 33.4354 67.3628 33.2299V29.6854H67.3622Z" fill="#06111D"/>
<path fill-rule="evenodd" clip-rule="evenodd" d="M72.2619 22.08L76.5633 32.7194C76.7992 33.3107 77.0225 33.9188 77.2343 34.5443C77.4462 35.1686 77.634 35.7437 77.7984 36.2659H77.8693C78.0343 35.7664 78.2215 35.2035 78.4333 34.5779C78.6452 33.953 78.8805 33.3107 79.1384 32.6503L83.1599 22.0793H84.9223L80.0213 34.0836C79.5267 35.356 79.0629 36.5108 78.6278 37.5448C78.1934 38.5794 77.7516 39.5112 77.3052 40.341C76.8581 41.1707 76.4063 41.9035 75.9464 42.5407C75.4886 43.1766 74.976 43.7343 74.4126 44.2112C73.7549 44.7792 73.1488 45.1947 72.596 45.4565C72.044 45.7182 71.6737 45.883 71.4852 45.9508L70.9198 44.6209C71.3436 44.4387 71.8141 44.2002 72.3314 43.9049C72.8487 43.6089 73.3546 43.2231 73.8478 42.7456C74.2716 42.3365 74.7361 41.7969 75.2413 41.1255C75.7466 40.4553 76.1991 39.6424 76.5994 38.6873C76.7404 38.3235 76.8113 38.0844 76.8113 37.9706C76.8113 37.8123 76.7411 37.5732 76.5994 37.2546L70.4974 22.0793H72.2619V22.08Z" fill="#06111D"/>
</svg>
