<svg width="101" height="61" viewBox="0 0 101 61" fill="none" xmlns="http://www.w3.org/2000/svg">
<g clip-path="url(#clip0)">
<path d="M43.3501 46.1018C43.1978 45.6832 42.9219 45.3977 42.7221 45.0267C42.2368 44.3892 41.6659 43.8373 41.0951 43.2855C40.8952 43.2189 40.8096 43.0286 40.6193 42.9524C40.4956 42.7907 40.2958 42.7051 40.1341 42.5814C39.8106 42.334 39.4585 42.1247 39.097 41.9153C38.4119 41.4777 37.5651 41.2017 36.7278 40.9163C35.8239 40.6975 34.8724 40.5357 33.8829 40.4025C32.9029 40.2598 31.9228 40.1266 31.1807 39.7365C30.7525 39.6128 30.4385 39.3749 30.0675 39.1846C29.7249 38.9563 29.3539 38.766 29.0684 38.4805C28.7164 38.2712 28.4975 37.9191 28.2216 37.6337C28.1265 37.4434 27.9647 37.3292 27.8886 37.1199C27.7934 37.0818 27.7649 36.9677 27.7078 36.9011C27.6412 36.8249 27.6412 36.6727 27.527 36.6442C27.4699 37.0343 27.489 37.5005 27.527 37.9001C27.5746 38.0714 27.5936 38.2807 27.6412 38.452C27.6697 38.6042 27.8125 38.8516 27.7554 38.9658C24.7868 38.8135 22.6174 37.8716 20.7335 36.6347C19.801 36.0162 19.0018 35.2645 18.2597 34.4558C17.9362 34.0086 17.5841 33.5804 17.2987 33.0857C17.0037 32.6004 16.7563 32.0485 16.4899 31.5347C16.0522 30.4215 15.6431 29.2798 15.4909 27.8811C15.2911 26.5776 15.3386 24.9125 15.6336 23.7041C15.7383 23.0381 15.9571 22.4767 16.1474 21.8963C16.2711 21.6299 16.4043 21.3635 16.5185 21.0876C16.6802 20.8592 16.7658 20.5452 16.9657 20.3454C17.508 19.3273 18.3167 18.5661 19.1445 17.8335C20.0389 17.177 21.057 16.6442 22.2844 16.3207C23.4642 16.0543 25.0722 16.0067 26.3472 16.2826C28.9352 16.8154 30.8857 17.9762 32.5223 19.4605C34.1778 20.9163 35.4528 22.7622 36.3282 25.0076C37.2321 27.1389 37.5461 30.4596 36.7373 32.8763C36.4043 32.686 36.0713 32.5053 35.7383 32.3245C35.3386 32.2103 34.9485 32.0771 34.4823 32.0295C33.9209 32.02 33.3691 32.0295 33.0075 32.2103C33.7402 32.1342 34.3301 32.334 34.7868 32.5053C35.0532 32.6099 35.2054 32.6765 35.4148 32.8002C35.8239 33.0381 36.1854 33.2569 36.4899 33.5804C37.3558 34.3416 37.9742 35.3502 38.2692 36.6822C38.2692 36.7203 38.3168 36.7108 38.3072 36.6442C38.3453 36.6347 38.3643 36.6061 38.3834 36.5681C38.4309 36.511 38.488 36.4539 38.5356 36.3873C38.6307 36.2731 38.7259 36.1589 38.7925 36.0162C38.9923 35.7783 39.154 35.5119 39.3063 35.236C39.6583 34.7222 39.9247 34.1323 40.2292 33.5709C40.7525 32.372 41.1807 31.078 41.4471 29.6128C41.9799 26.3587 41.3424 23.2759 40.2292 21.0019C39.0874 18.7089 37.489 16.8725 35.4243 15.4929C33.3405 14.1228 30.9048 13.1142 27.5556 13.0191C27.5365 12.9524 27.508 13.0286 27.4414 13.0191C25.6716 12.962 24.2444 13.2093 22.8267 13.5709C22.1702 13.7897 21.4852 13.98 20.9048 14.275C20.2387 14.4938 19.7059 14.8554 19.097 15.1218C18.8781 15.3311 18.5451 15.4358 18.3167 15.6356C18.0218 15.7783 17.803 16.0067 17.508 16.1494C17.0323 16.5681 16.528 16.9391 16.0618 17.3673C15.605 17.7859 15.2054 18.2617 14.7677 18.6994C14.7011 18.8516 14.587 18.9563 14.4728 19.0704C14.3967 19.2132 14.3015 19.3368 14.1778 19.4415C14.1303 19.6128 13.978 19.6794 13.9209 19.8506C13.7972 19.9458 13.7687 20.1361 13.626 20.2217C13.5023 20.5262 13.2834 20.745 13.1407 21.0305C12.9695 21.3064 12.8363 21.6109 12.665 21.8773C12.3986 22.4957 12.1131 23.0952 11.8943 23.7612C11.6659 24.4082 11.4756 25.0933 11.3424 25.8354C11.1997 26.53 11.0665 27.4339 11.0855 28.1665C10.9904 28.4329 11.0665 28.9277 11.0855 29.2417C11.0855 29.2988 11.0475 29.3178 11.0475 29.3559C11.0475 29.7079 11.1426 30.1361 11.1617 30.3549C11.2378 31.1637 11.3805 31.9153 11.6089 32.5719C11.7516 33.3045 12.056 33.8754 12.2749 34.5319C12.6079 35.0837 12.8363 35.7403 13.2359 36.235C13.5308 36.8154 13.9495 37.2721 14.3491 37.7479C14.7773 38.2046 15.2054 38.6708 15.7192 39.0419C16.6612 39.8602 17.7649 40.5167 18.9733 41.078C21.2283 42.1722 24.5965 42.8858 27.6222 42.7051C28.3929 42.6004 29.1731 42.5053 29.8772 42.334C30.5242 42.0961 31.2758 41.9534 32.056 41.8582C33.8353 41.7441 35.3767 41.9058 36.7468 42.3054C38.136 42.6765 39.3348 43.2379 40.3719 43.9705C40.9238 44.294 41.3805 44.7127 41.8467 45.1123C42.3225 45.5214 42.703 46.0257 43.1407 46.4824C43.1978 46.6537 43.312 46.7774 43.3976 46.9296C43.5118 47.0533 43.4547 47.3387 43.7306 47.3007C43.9019 47.1294 43.7021 46.882 43.6926 46.6727C43.5213 46.4919 43.4833 46.2541 43.3501 46.1018Z" fill="#06111D"/>
<path d="M36.4424 35.978C36.4044 35.978 36.3949 36.0066 36.3663 36.0161C36.2997 36.1588 36.3283 36.3872 36.3663 36.5299C36.5661 36.939 36.6327 37.4718 37.0704 37.6431C37.2797 37.5765 37.2607 37.272 37.2512 36.9771C37.156 36.6155 37.0228 36.292 36.804 36.0542C36.6518 35.9971 36.5471 35.9019 36.4424 35.978ZM33.8544 37.0151C33.8544 36.9961 33.8259 36.9771 33.8164 37.0151C33.4548 36.9676 33.3311 37.1674 33.1504 37.3101C32.8364 38.1379 33.3407 38.9466 34.2255 38.9371C34.5776 38.8515 34.7964 38.6231 34.8535 38.233C34.8059 37.5384 34.511 37.0913 33.8544 37.0151Z" fill="#06111D"/>
<path d="M55.1866 34.3796C55.3293 34.9791 55.6338 35.4072 55.9764 35.8069C56.3189 36.2065 56.7185 36.5395 57.2038 36.7869C57.6605 37.0723 58.1552 37.3102 58.7261 37.4719C59.002 37.5671 59.2685 37.6813 59.611 37.7193C59.8489 37.8525 60.1343 37.9191 60.1533 38.2617C60.1438 38.6708 59.8679 38.823 59.5158 38.8991C59.1638 38.823 58.7261 38.8325 58.4312 38.6993C57.689 38.6137 57.0896 38.3758 56.4616 38.157C55.2627 37.6908 54.2542 37.0152 53.4169 36.1874C53.2456 35.902 53.0078 35.6736 52.827 35.3977C52.6462 35.1218 52.5225 34.7888 52.3322 34.5128C50.8669 34.3225 49.8679 33.6565 48.9925 32.8858C48.1838 31.9629 47.5368 30.8592 47.2704 29.3939C46.9564 27.9857 47.0515 26.2255 47.4226 24.8649C48.2313 22.2293 49.925 20.4786 53.1219 20.2407C54.0068 20.2693 54.7775 20.3739 55.4816 20.6403C56.1952 20.8972 56.8707 21.373 57.4036 21.8677C57.4511 21.9058 57.4702 21.9153 57.4987 21.9629C57.6129 22.1246 57.8888 22.353 58.0411 22.5528C58.0696 22.5909 58.0601 22.6575 58.0886 22.705C58.1457 22.7907 58.2313 22.8287 58.2884 22.9049C58.317 22.9524 58.3075 23.0095 58.336 23.0476C58.3741 23.1047 58.4216 23.1903 58.4787 23.295C58.4978 23.333 58.5644 23.3616 58.5739 23.3901C58.6595 23.5519 58.6976 23.7517 58.7737 23.9324C58.8498 24.1227 58.9545 24.2845 59.0211 24.4748C59.2114 25.0362 59.3351 25.7022 59.4112 26.3872C59.6015 28.3663 59.2114 30.1361 58.4787 31.4491C58.1362 32.1342 57.6605 32.6955 57.0991 33.1713C56.5853 33.7136 55.8812 34.0371 55.1866 34.3796ZM52.827 21.9914C52.3988 22.02 52.1419 22.2198 51.7899 22.334C51.5615 22.5433 51.2761 22.705 51.1048 22.9715C50.8194 23.1332 50.7432 23.4948 50.5149 23.7041C50.3246 24.1798 50.1438 24.7127 50.0201 25.3311C49.9059 25.9401 49.8298 26.6251 49.8203 27.3007C49.8108 28.9943 50.1724 30.6784 50.8479 31.6774C51.2475 32.1627 51.7328 32.5623 52.3227 32.8573C52.6652 32.8858 52.9316 33 53.3027 33.0095C53.512 32.9334 53.8546 33.0095 53.9878 32.8573C54.2922 32.8763 54.3588 32.6765 54.6253 32.6575C54.768 32.5147 54.9202 32.4006 55.12 32.3149C55.3008 32.1151 55.4721 31.9153 55.6624 31.725C55.7575 31.5823 55.8146 31.3825 55.9573 31.2778C56.8137 29.6413 56.9088 26.6441 56.3474 24.7412C56.1381 24.0466 55.8431 23.4853 55.5101 23.019C55.1486 22.648 54.7204 22.334 54.2352 22.0866C53.845 22.001 53.474 21.8963 52.9602 21.9439C52.9316 21.9439 52.9031 21.9534 52.9126 21.9914C52.8936 21.9914 52.865 21.9914 52.827 21.9914ZM63.2076 20.6118C63.9783 20.6403 64.8822 20.5452 65.5672 20.6594C65.7195 20.8972 65.6624 21.1827 65.6624 21.4491C65.7195 25.0552 65.6624 28.9277 65.6624 32.6099C65.6624 32.9049 65.6719 33.2093 65.6624 33.4948C65.6529 33.7421 65.7195 34.0086 65.5672 34.2369C65.2247 34.3225 64.7299 34.2845 64.2922 34.2845C63.826 34.2845 63.3693 34.3511 63.0648 34.1893C62.9792 29.8316 62.9792 25.1313 63.0648 20.764C63.0839 20.6879 63.1314 20.6403 63.2076 20.6118ZM69.1067 20.6118H71.4188C71.6281 20.8972 71.6947 21.3254 71.7613 21.7441C72.4559 24.3892 73.141 27.0438 73.7784 29.7555C73.9307 29.7745 73.8831 29.5937 73.9307 29.5081C73.9973 29.4415 73.9592 29.2797 74.0258 29.2131C74.0544 28.9943 74.1876 28.8801 74.1781 28.6232C74.3493 28.2902 74.4064 27.8335 74.5682 27.491C74.768 26.6917 75.0344 25.9496 75.2628 25.1789C75.4816 24.3796 75.7765 23.6565 75.9478 22.8192C76.2713 22.1437 76.3474 21.2207 76.7375 20.6118H77.7176C78.0696 21.2778 78.2028 22.1627 78.5073 22.8763C78.7071 23.6755 78.983 24.3987 79.1923 25.1884C79.6776 26.7203 80.1819 28.2331 80.6196 29.8126C80.8194 29.5176 80.8194 29.0228 80.9621 28.6803C81.0477 28.2902 81.1238 27.8906 81.257 27.548C81.6376 25.9876 81.9992 24.4177 82.4369 22.9239C82.5986 22.1437 82.7604 21.3444 83.0268 20.6594C83.5977 20.5737 84.473 20.5737 85.0439 20.6594C85.0915 21.2398 84.8251 21.8677 84.6538 22.3815C84.5587 23.0095 84.3303 23.4948 84.2066 24.1037C83.8546 25.2169 83.5882 26.3968 83.2266 27.5005C82.9507 28.6803 82.5796 29.765 82.2941 30.9448C82.1039 31.4872 81.9706 32.0866 81.7994 32.667C81.6091 33.1998 81.5425 33.8563 81.257 34.294H79.8774C79.5254 33.6755 79.4017 32.8382 79.0877 32.1817C78.4026 30.0124 77.6414 27.9286 76.9754 25.7402C76.7471 25.9781 76.747 26.4634 76.5853 26.7678C76.4806 27.1389 76.376 27.51 76.2428 27.8525C76.0525 28.6042 75.767 29.2417 75.6053 30.0124C75.3294 30.6879 75.1295 31.4396 74.9202 32.1817C74.6348 32.8287 74.5301 33.6565 74.1781 34.2464C73.8165 34.3606 73.2456 34.2655 72.7984 34.294C72.4559 33.9039 72.4178 33.1998 72.2085 32.667C72.0468 32.1151 71.9326 31.5062 71.7233 30.9924C71.4569 29.7935 71.0572 28.7374 70.7908 27.548C70.4388 26.4443 70.1343 25.2931 69.8108 24.1513C69.63 23.6089 69.4968 23.0285 69.316 22.4767C69.2304 21.8868 68.8308 21.3539 68.9735 20.7069C68.9925 20.6594 69.0496 20.6308 69.1067 20.6118ZM88.5263 20.6118C89.297 20.6403 90.1914 20.5452 90.886 20.6594C91.0572 21.1732 90.9811 21.725 90.9811 22.2769V32.6004C90.9811 33.1617 91.0477 33.7041 90.886 34.2274C90.3531 34.2845 89.5729 34.313 88.9164 34.275C88.7261 34.2655 88.4978 34.3225 88.3741 34.1798C88.2028 33.666 88.2789 33.1237 88.2789 32.5528V22.334C88.2789 21.7155 88.2218 21.1161 88.3741 20.7069C88.4121 20.6594 88.4692 20.6308 88.5263 20.6118Z" fill="#06111D"/>
</g>
<defs>
<clipPath id="clip0">
<rect x="11" y="13" width="80" height="34.2911" fill="white"/>
</clipPath>
</defs>
</svg>
