<svg width="100" height="60" viewBox="0 0 100 60" fill="none" xmlns="http://www.w3.org/2000/svg">
<g clip-path="url(#clip0)">
<path fill-rule="evenodd" clip-rule="evenodd" d="M79.8755 20.0886C81.4435 20.0886 82.9284 20.451 84.251 21.0944C84.4587 21.1922 84.6659 21.2998 84.8736 21.4186L83.9543 22.2352L82.5732 20.8178L80.2421 22.8814L78.8575 21.3816L74.5151 25.2664L77.299 28.3114L76.205 29.2664L78.947 32.316L77.8594 33.2688L81.7776 37.5974L84.1035 35.4722L86.1143 37.7496C85.7143 38.0582 85.2787 38.3486 84.7987 38.617C83.3446 39.44 81.664 39.9112 79.8755 39.9112C74.3755 39.9112 69.8896 35.4584 69.8896 30.0002C69.8896 24.5408 74.3755 20.0886 79.8755 20.0886Z" fill="#06111D"/>
<path fill-rule="evenodd" clip-rule="evenodd" d="M78.0557 29.3736L80.4303 27.2512L82.5685 29.6086L80.1941 31.7302L78.0557 29.3736Z" fill="#06111D"/>
<path fill-rule="evenodd" clip-rule="evenodd" d="M79.7441 33.446L82.119 31.3242L84.2574 33.681L81.8828 35.8034L79.7441 33.446Z" fill="#06111D"/>
<path fill-rule="evenodd" clip-rule="evenodd" d="M76.3567 25.3489L78.7313 23.2271L80.8689 25.5839L78.4943 27.7057L76.3567 25.3489Z" fill="#06111D"/>
<path fill-rule="evenodd" clip-rule="evenodd" d="M80.7141 24.2067L82.4951 22.6155L84.0985 24.3831L82.3175 25.9749L80.7141 24.2067Z" fill="#06111D"/>
<path fill-rule="evenodd" clip-rule="evenodd" d="M83.8784 31.4966L85.66 29.9048L87.2634 31.6728L85.4824 33.2642L83.8784 31.4966Z" fill="#06111D"/>
<path fill-rule="evenodd" clip-rule="evenodd" d="M85.4451 35.0669L87.2256 33.4749L88.8295 35.2425L87.0485 36.8339L85.4451 35.0669Z" fill="#06111D"/>
<path fill-rule="evenodd" clip-rule="evenodd" d="M86.1626 26.8838L87.3499 25.8228L88.4187 27.0012L87.232 28.062L86.1626 26.8838Z" fill="#06111D"/>
<path fill-rule="evenodd" clip-rule="evenodd" d="M84.6455 23.3826L85.8328 22.3218L86.9018 23.5002L85.7143 24.561L84.6455 23.3826Z" fill="#06111D"/>
<path fill-rule="evenodd" clip-rule="evenodd" d="M87.6804 30.385L88.8677 29.324L89.9367 30.5022L88.7494 31.5632L87.6804 30.385Z" fill="#06111D"/>
<path fill-rule="evenodd" clip-rule="evenodd" d="M82.3557 27.7614L84.1365 26.1694L85.7399 27.937L83.9595 29.5284L82.3557 27.7614Z" fill="#06111D"/>
<path fill-rule="evenodd" clip-rule="evenodd" d="M14.7234 28.2913H14.6436L13.1393 33.9345H11.9091L10.0632 25.9165H11.3392L12.6154 31.8989H12.6952L14.1763 25.9165H15.1903L16.7744 31.8989H16.8538L18.0159 25.9165H19.3491L17.503 33.9345H16.2726L14.7234 28.2913Z" fill="#06111D"/>
<path fill-rule="evenodd" clip-rule="evenodd" d="M24.3979 32.6903V33.5497C23.8853 33.8441 23.2018 34.0703 22.3812 34.0703C20.4672 34.0703 19.6812 32.8941 19.6812 31.1071C19.6812 29.3885 20.5585 28.1445 22.2676 28.1445C23.6914 28.1445 24.5688 29.0607 24.5688 30.9037V31.3219H20.8548C20.8548 32.6787 21.4129 33.2783 22.5865 33.2783C23.2018 33.2783 23.7712 33.0635 24.3979 32.6903ZM20.8777 30.5645H23.4863C23.4299 29.3769 22.8485 28.9023 22.2333 28.9023C21.5379 28.9023 21.0027 29.4339 20.8777 30.5645Z" fill="#06111D"/>
<path fill-rule="evenodd" clip-rule="evenodd" d="M26.7903 28.5633C27.1321 28.3823 27.713 28.1447 28.3284 28.1447C29.741 28.1447 30.5046 29.1173 30.5046 30.9271C30.5046 33.0413 29.4795 34.0705 27.8273 34.0705C27.2232 34.0705 26.289 33.8783 25.6052 33.5159V25.6231L26.7903 25.3403V28.5633ZM26.779 33.0977C27.1434 33.2561 27.5424 33.2785 27.8273 33.2785C28.6704 33.2785 29.3084 32.7585 29.3084 30.9271C29.3084 29.4905 28.7843 29.0269 28.0209 29.0269C27.5649 29.0269 27.2348 29.1513 26.779 29.4001V33.0977Z" fill="#06111D"/>
<path fill-rule="evenodd" clip-rule="evenodd" d="M35.6885 32.2381H35.7457L38.1838 25.9165H39.5968V33.9345H38.3664V28.1219H38.2636L35.9392 33.9345H35.2103L32.8857 28.2577H32.7833V33.9345H31.7578V25.9165H33.1364L35.6885 32.2381Z" fill="#06111D"/>
<path fill-rule="evenodd" clip-rule="evenodd" d="M40.8501 31.1071C40.8501 29.1281 41.9439 28.1445 43.4478 28.1445C44.9519 28.1445 46.0459 29.1281 46.0459 31.1071C46.0459 33.0411 45.0089 34.0703 43.4478 34.0703C41.8867 34.0703 40.8501 33.0411 40.8501 31.1071ZM44.8493 31.1071C44.8493 29.5807 44.2224 28.9363 43.4478 28.9363C42.6957 28.9363 42.0463 29.5807 42.0463 31.1071C42.0463 32.6569 42.6391 33.2783 43.4478 33.2783C44.2566 33.2783 44.8493 32.6569 44.8493 31.1071Z" fill="#06111D"/>
<path fill-rule="evenodd" clip-rule="evenodd" d="M47.1279 28.9813C47.6406 28.6759 48.7233 28.1445 50.0329 28.1445C51.4008 28.1445 51.913 28.6759 51.913 29.8405V33.9345H50.7281V30.1009C50.7281 29.2075 50.2842 29.0491 49.7032 29.0491C49.2472 29.0491 48.6661 29.2531 48.313 29.4563V33.9345H47.1279V28.9813Z" fill="#06111D"/>
<path fill-rule="evenodd" clip-rule="evenodd" d="M57.6895 32.6903V33.5497C57.177 33.8441 56.4937 34.0703 55.673 34.0703C53.7592 34.0703 52.9729 32.8941 52.9729 31.1071C52.9729 29.3885 53.8505 28.1445 55.5593 28.1445C56.9838 28.1445 57.8614 29.0607 57.8614 30.9037V31.3219H54.1469C54.1469 32.6787 54.7051 33.2783 55.8785 33.2783C56.4937 33.2783 57.0634 33.0635 57.6895 32.6903ZM54.1695 30.5645H56.7784C56.7218 29.3769 56.1403 28.9023 55.525 28.9023C54.8298 28.9023 54.295 29.4339 54.1695 30.5645Z" fill="#06111D"/>
<path fill-rule="evenodd" clip-rule="evenodd" d="M62.2931 28.3369H63.5122L61.4498 33.9911C60.8799 35.5519 60.1847 36.3657 58.8751 36.3657V35.4389C59.6499 35.4389 60.1279 34.8277 60.4017 33.9911L58.2141 28.3369H59.4675L60.9258 32.4981H60.9938L62.2931 28.3369Z" fill="#06111D"/>
</g>
<defs>
<clipPath id="clip0">
<rect x="10.0632" y="20.0886" width="79.8735" height="19.8226" fill="white"/>
</clipPath>
</defs>
</svg>
