<svg width="101" height="61" viewBox="0 0 101 61" fill="none" xmlns="http://www.w3.org/2000/svg">
<g clip-path="url(#clip0)">
<g clip-path="url(#clip1)">
<path d="M90.9707 31.2299C90.8647 30.6187 90.3496 30.2519 89.6047 30.2438C89.3749 30.2405 89.1467 30.2633 88.9234 30.2389C88.4833 30.1932 88.3675 30.3399 88.3708 30.6888C88.392 32.4003 88.3855 34.1102 88.3789 35.8168C88.3741 36.7117 87.5004 37.631 86.4506 37.8641C83.1906 38.5797 79.9338 39.3067 76.6705 40.0158C76.3037 40.0956 75.9174 40.1364 75.5441 40.1331C75.3811 40.1331 75.1562 40.0092 75.0861 39.8886C75.0404 39.8088 75.1839 39.6148 75.2964 39.5154C75.4447 39.3947 75.6338 39.2986 75.8277 39.2317C76.426 39.0182 77.034 38.8242 77.6387 38.6237C80.0593 37.8185 82.4848 37.023 84.9021 36.2129C85.9926 35.8445 86.581 35.1175 86.599 34.1998C86.6544 31.2267 86.6267 28.2535 86.6136 25.2771C86.6136 24.806 86.3691 24.4132 85.8084 24.2094C85.1629 23.978 84.5957 24.1621 84.0349 24.4295C80.6086 26.0644 77.1839 27.696 73.7544 29.3277C72.7454 29.8086 72.183 30.5046 72.1879 31.4956C72.1993 34.3074 72.1912 37.1143 72.1944 39.9229C72.1944 40.063 72.2091 40.2065 72.2531 40.3401C72.5905 41.2953 73.4658 41.843 74.6753 41.843C77.0861 41.8495 79.5051 41.8463 81.9175 41.8463C84.3218 41.8463 86.7179 41.8495 89.1222 41.843C89.6438 41.843 90.1247 41.7354 90.5159 41.4127C91.0228 41.0052 90.9968 40.4868 90.9968 39.9701C91.0016 37.2317 91.0016 34.4965 90.9984 31.7532C91.0033 31.582 91 31.4027 90.9707 31.2299ZM80.946 30.3513C81.1889 29.7205 81.7187 29.3261 82.5272 29.225C83.0618 29.1565 83.528 29.4874 83.6046 29.9699C83.7203 30.7132 82.7912 31.5771 81.8735 31.5739C81.1074 31.5739 80.6803 31.0376 80.946 30.3513Z" fill="#06111D"/>
<path d="M23.4077 19.4823C23.4077 20.3494 23.4077 21.1987 23.4077 22.0561C22.7508 22.0561 22.1395 22.0561 21.481 22.0561C21.481 21.1808 21.481 20.3315 21.481 19.4741C21.124 19.4741 20.8143 19.4741 20.4736 19.4741C20.4736 21.6209 20.4736 23.7301 20.4736 25.8443C20.8257 25.8443 21.1436 25.8443 21.512 25.8443C21.512 24.8793 21.512 23.9404 21.512 22.9917C22.164 22.9917 22.7671 22.9917 23.4142 22.9917C23.4142 23.9534 23.4142 24.894 23.4142 25.8475C23.781 25.8475 24.0988 25.8475 24.4395 25.8475C24.4395 23.7154 24.4395 21.6029 24.4395 19.4823C24.0907 19.4823 23.7728 19.4823 23.4077 19.4823Z" fill="#06111D"/>
<path d="M49.0333 37.0164C48.7302 35.5021 47.5794 34.5828 45.7423 34.4312C45.0186 34.3758 44.2818 34.4214 43.501 34.4214C43.501 33.0864 43.501 31.7368 43.501 30.3904C42.9468 30.3904 42.4448 30.3904 41.9297 30.3904C41.9297 34.1003 41.9297 37.7842 41.9297 41.5984C43.0919 41.5984 44.215 41.6653 45.3234 41.5805C46.9844 41.4566 48.2509 40.7965 48.8443 39.4419C49.1898 38.6562 49.1963 37.838 49.0333 37.0164ZM46.603 38.7149C46.3112 39.9537 45.043 40.5373 43.5141 40.1754C43.5141 38.7997 43.5076 37.4468 43.5271 36.0906C43.5271 36.0009 43.6836 35.8542 43.7961 35.833C45.325 35.5087 46.3471 36.0172 46.6127 37.2935C46.7073 37.7516 46.7106 38.2553 46.603 38.7149Z" fill="#06111D"/>
<path d="M18.0172 16.0479C17.4613 16.0479 16.9088 16.0495 16.3546 16.0479C15.5722 16.0446 14.9234 16.2891 14.3904 16.7602C12.5599 18.3804 13.0407 21.4579 15.476 22.1148C14.6577 23.3439 13.8443 24.5697 12.9918 25.8541C13.339 25.8541 13.6063 25.8362 13.8671 25.859C14.2127 25.89 14.3904 25.7775 14.5501 25.5216C15.1598 24.5322 15.8069 23.5574 16.4393 22.5761C16.7311 22.1262 16.767 22.1132 17.4548 22.2452C17.4548 23.4319 17.4548 24.6283 17.4548 25.8231C17.8705 25.8231 18.2307 25.8231 18.6219 25.8231C18.6219 25.6178 18.6219 25.445 18.6219 25.2689C18.6219 22.3577 18.6219 19.4449 18.6219 16.532C18.6219 16.0479 18.6203 16.0495 18.0172 16.0479ZM17.4222 21.2183C16.6284 21.2102 15.8004 21.4074 15.1956 20.8124C14.5029 20.1327 14.3056 19.3471 14.5615 18.4848C14.5827 18.4163 14.617 18.3511 14.6447 18.2859C15.1598 17.1009 15.8395 16.7716 17.4222 16.9688C17.4222 18.3853 17.4222 19.7823 17.4222 21.2183Z" fill="#06111D"/>
<path d="M46.8655 24.9297C45.136 25.5067 43.9428 24.9851 43.6299 23.479C43.4652 22.6982 43.5239 21.9125 43.8092 21.1513C44.1938 20.1113 44.9583 19.8016 46.2297 20.1456C46.2542 20.1521 46.2835 20.1407 46.3275 20.1341C46.4547 19.976 46.5851 19.8098 46.7269 19.6321C45.6772 18.9426 44.2379 19.1072 43.4554 19.9777C42.8507 20.6492 42.6144 21.4268 42.5377 22.2434C42.4513 23.1807 42.5671 24.0902 43.1865 24.9134C43.8352 25.774 44.96 26.1783 46.1173 25.9077C46.9339 25.7154 47.0252 25.6306 46.8655 24.9297Z" fill="#06111D"/>
<path d="M19.4843 40.2748C19.4843 36.9658 19.4843 33.6944 19.4843 30.3936C17.4582 30.3936 15.4956 30.3936 13.582 30.3936C13.5005 32.0709 13.4613 33.7204 13.3277 35.3668C13.2087 36.8273 12.8859 38.2601 12.2404 39.6391C12.0269 40.0938 11.771 40.3938 11.119 40.2845C11.0848 40.2797 11.0424 40.3057 11 40.322C11 41.5348 11 42.741 11 43.9472C11.595 43.9472 12.1557 43.9472 12.7621 43.9472C12.7621 43.1273 12.7621 42.34 12.7621 41.5543C14.9023 41.5543 17.0001 41.5543 19.1436 41.5543C19.1436 42.3661 19.1436 43.1518 19.1436 43.9537C19.7402 43.9537 20.2879 43.9537 20.8551 43.9537C20.8551 42.7279 20.8551 41.5185 20.8551 40.2748C20.3841 40.2748 19.9488 40.2748 19.4843 40.2748ZM17.5723 40.2617C16.2487 40.2617 14.9398 40.2617 13.7091 40.2617C14.0384 39.4369 14.441 38.6252 14.6855 37.7825C15.1761 36.0889 15.1729 34.3513 15.1859 32.6185C15.1892 32.3512 15.1859 32.0806 15.1859 31.7872C15.9862 31.7872 16.7621 31.7872 17.5739 31.7872C17.5723 34.5909 17.5723 37.4027 17.5723 40.2617Z" fill="#06111D"/>
<path d="M36.0715 25.0161C35.7732 25.1025 35.4864 25.2068 35.1864 25.2671C34.3502 25.4366 33.7536 25.2508 33.4358 24.7243C33.0625 24.1082 33.0804 23.4464 33.1033 22.7536C34.1758 22.7536 35.206 22.7536 36.2574 22.7536C36.3258 21.7169 36.1987 20.7454 35.5418 19.862C34.9647 19.0861 33.9655 18.9622 33.1717 19.5995C32.8734 19.8375 32.6224 20.1423 32.4464 20.452C31.9541 21.3143 31.7666 22.2434 31.8824 23.1856C31.9557 23.7708 32.1171 24.3657 32.3665 24.9167C32.7283 25.7268 33.5646 26.1408 34.5312 26.0381C34.999 25.9892 35.4668 25.8572 35.9069 25.704C36.3975 25.5345 36.4106 25.378 36.0715 25.0161ZM33.6265 20.3444C33.9818 19.9027 34.5686 19.9158 34.8832 20.3787C35.2353 20.8921 35.2777 21.4594 35.263 22.0543C34.4986 22.0543 33.7993 22.0543 33.0658 22.0543C33.1 21.4317 33.219 20.8546 33.6265 20.3444Z" fill="#06111D"/>
<path d="M38.9711 30.6022C38.9027 30.5191 38.8163 30.3936 38.7299 30.3903C38.2099 30.3691 37.6883 30.3773 37.1129 30.3773C37.1129 31.9242 37.1129 33.4499 37.1129 34.9837C35.9817 34.9837 34.9059 34.9837 33.7388 34.9837C33.7388 33.4368 33.7388 31.9209 33.7388 30.3854C33.1079 30.3854 32.5325 30.3854 31.9392 30.3854C31.9392 34.1426 31.9392 37.8803 31.9392 41.6359C32.5505 41.6359 33.1356 41.6359 33.7616 41.6359C33.7616 41.4728 33.7616 41.3327 33.7616 41.1957C33.7616 39.8819 33.7599 38.5763 33.7616 37.2641C33.7616 36.542 33.7616 36.542 34.6255 36.542C35.4438 36.542 36.262 36.542 37.1259 36.542C37.1259 38.2715 37.1259 39.9488 37.1259 41.6391C37.76 41.6391 38.3468 41.6391 38.9548 41.6391C38.963 41.5152 38.976 41.4093 38.976 41.3082C38.976 37.7841 38.976 34.26 38.976 30.7391C38.976 30.6919 38.9988 30.6332 38.9711 30.6022Z" fill="#06111D"/>
<path d="M39.977 21.973C40.6062 21.2493 41.2077 20.5109 41.8189 19.779C41.8939 19.6893 41.9591 19.5948 42.0634 19.4579C41.8662 19.4579 41.7505 19.4709 41.6413 19.4563C41.1946 19.3959 40.9224 19.541 40.6795 19.8605C40.1433 20.5647 39.5483 21.2362 38.9745 21.9192C38.9093 21.9958 38.8278 22.0627 38.6714 22.2143C38.6714 21.2346 38.6714 20.3642 38.6714 19.4758C38.3193 19.4758 38.0112 19.4758 37.6754 19.4758C37.6754 21.572 37.6754 23.634 37.6754 25.6944C38.0177 25.6944 38.3258 25.6944 38.686 25.6944C38.686 24.956 38.6697 24.2322 38.6958 23.5118C38.7056 23.264 38.8197 23.0162 38.8849 22.7685C39.0789 22.8875 39.162 22.9934 39.2353 23.1043C39.7553 23.885 40.2688 24.6658 40.7937 25.4417C40.8621 25.5444 40.9795 25.683 41.0903 25.6976C41.387 25.7351 41.6918 25.7107 42.0586 25.7107C41.3283 24.599 40.6469 23.5492 39.9493 22.5044C39.8173 22.3088 39.8075 22.167 39.977 21.973Z" fill="#06111D"/>
<path d="M63.9204 30.3545C63.627 30.3447 63.495 30.4279 63.3907 30.6512C62.6849 32.2062 61.9611 33.7531 61.2423 35.3033C60.9277 35.9814 60.6017 36.6595 60.2838 37.3376C60.2529 37.3343 60.2284 37.3278 60.1974 37.3245C60.1974 35.0164 60.1974 32.7083 60.1974 30.3822C59.565 30.3822 58.9782 30.3822 58.3767 30.3822C58.3767 34.146 58.3767 37.8967 58.3767 41.649C58.9782 41.649 59.5454 41.649 60.1648 41.649C61.301 39.1942 62.4371 36.7296 63.583 34.2438C63.583 36.7181 63.583 39.1811 63.583 41.6424C64.297 41.6424 64.9587 41.6424 65.6401 41.6424C65.6401 37.8787 65.6401 34.1411 65.6401 30.3627C65.0484 30.3627 64.4844 30.379 63.9204 30.3545Z" fill="#06111D"/>
<path d="M29.4437 40.0304C28.8846 40.2032 28.3809 40.4004 27.8495 40.5097C26.1233 40.8634 24.9954 40.3858 24.5031 39.1339C24.1233 38.1722 24.138 37.1795 24.1217 36.1314C26.0125 36.1314 27.8463 36.1314 29.755 36.1314C29.6768 35.2593 29.6686 34.4085 29.5105 33.5853C29.31 32.5535 28.9123 31.5641 28.0892 30.7328C27.3605 29.9976 26.4836 29.7841 25.3898 30.0808C24.2537 30.3888 23.5609 31.1028 23.0948 31.9488C21.7288 34.4313 21.6114 36.9888 22.6579 39.5675C22.9725 40.3467 23.5055 41.0247 24.3923 41.4583C25.8788 42.1902 28.2831 41.9359 29.7909 40.8813C29.6719 40.5879 29.5513 40.2912 29.4437 40.0304ZM24.9725 32.0515C25.2382 31.6782 25.592 31.3734 26.1853 31.4011C26.7656 31.432 27.1095 31.7352 27.3426 32.1297C27.8577 33.0148 27.9441 33.9635 27.9392 34.948C26.6417 34.948 25.3882 34.948 24.0679 34.948C24.1657 33.9064 24.3482 32.93 24.9725 32.0515Z" fill="#06111D"/>
<path d="M30.2898 24.9983C30.2898 23.1466 30.2898 21.3177 30.2898 19.4741C29.1699 19.4741 28.0958 19.4741 26.9596 19.4741C26.9596 19.8881 26.9743 20.2598 26.958 20.6331C26.9026 21.9306 26.8553 23.2297 26.3141 24.4718C26.1805 24.7782 26.081 25.1059 25.5643 25.0374C25.5643 25.7285 25.5643 26.3871 25.5643 27.0423C25.8903 27.0423 26.1821 27.0423 26.5244 27.0423C26.5244 26.5941 26.5244 26.167 26.5244 25.7399C27.7437 25.7399 28.9108 25.7399 30.1317 25.7399C30.1317 26.1915 30.1317 26.6185 30.1317 27.0358C30.474 27.0358 30.7625 27.0358 31.0396 27.0358C31.0396 26.3447 31.0396 25.6861 31.0396 25.0276C30.7788 25.0178 30.5571 25.0081 30.2898 24.9983ZM29.2384 24.9983C28.4788 24.9983 27.7649 24.9983 26.9955 24.9983C27.9686 23.4921 27.8366 21.8735 27.9067 20.2582C28.3517 20.2582 28.782 20.2582 29.2384 20.2582C29.2384 21.836 29.2384 23.3992 29.2384 24.9983Z" fill="#06111D"/>
<path d="M50.7188 30.3789C50.7188 34.1508 50.7188 37.895 50.7236 41.6408C51.2844 41.6408 51.8174 41.6408 52.3879 41.6408C52.3879 38.2633 52.3879 34.9104 52.3879 31.5118C54.1027 31.5118 55.7849 31.5118 57.4622 31.5118C57.4622 31.1092 57.4622 30.7522 57.4622 30.3789C55.2095 30.3789 52.9861 30.3789 50.7188 30.3789Z" fill="#06111D"/>
</g>
</g>
<defs>
<clipPath id="clip0">
<rect width="101" height="61" transform="matrix(1 0 0 -1 0 61)" fill="white"/>
</clipPath>
<clipPath id="clip1">
<rect x="11" y="-10" width="80" height="80" fill="white"/>
</clipPath>
</defs>
</svg>
